<?xml version="1.0" encoding="utf-8"?>
<!-- Generator: Adobe Illustrator 25.1.0, SVG Export Plug-In . SVG Version: 6.00 Build 0)  -->
<svg version="1.1" id="Layer_1" xmlns="http://www.w3.org/2000/svg" xmlns:xlink="http://www.w3.org/1999/xlink" x="0px" y="0px"
	 viewBox="0 0 348.2 348.7" style="enable-background:new 0 0 348.2 348.7;" xml:space="preserve">
<style type="text/css">
	.st0{fill-rule:evenodd;clip-rule:evenodd;fill:#353535;}
</style>
<g id="Group_69" transform="translate(291.251 -51.949)">
	<g id="Group_54" transform="translate(-291.251 51.949)">
		<path id="Path_10924" class="st0" d="M173.9,0h1c0.1,0.2,0.2,0.3,0.4,0.4v2.2c0,0.2,0.2,0.2,0.2,0.4c0,0.2,0,0.3-0.2,0.3
			c0,0.2,0.3,0.1,0.2,0.4c-0.1,0.7-0.1,1.4,0,2.1c0,0.5-0.2,1-0.2,1.5c-0.1,0.8,0.2,1.8-0.4,2.4c-0.2,0-0.4,0-0.5,0.1
			c-0.5,0-0.6-0.4-0.9-0.5c0-0.6,0.1-1.3-0.3-1.5c0.1-0.4,0.2-0.7,0.3-1.1c0-0.3,0-0.7-0.1-1c0-0.2,0.2-0.3-0.1-0.2
			c0-0.1,0.2-0.3,0-0.4c0-0.3,0.1-0.6,0.3-0.9V0.6C173.7,0.5,173.7,0.2,173.9,0z"/>
		<path id="Path_10925" class="st0" d="M160.1,0.6c0.4-0.1,0.7-0.2,1.1-0.1c0.6,0.4,0.1,1.9,0.8,2.4c-0.1,0.4-0.1,0.9-0.2,1.2
			c0.3,0.5,0.1,1.5,0.5,1.9c-0.1,0.4-0.1,0.9,0.1,1.2c-0.1,0.4-0.1,0.4-0.2,1c0,1.9,0.6,3.9,0.2,5.7c-0.4,0.3-1,0.3-1.4,0
			c-0.2-1.2-0.3-2.5-0.4-3.7c-0.1-0.1-0.3-0.1-0.3-0.4c0-0.2,0.1-0.3,0.1-0.1c0.4-0.1-0.2-0.2-0.1-0.4c-0.3-0.9-0.3-1.9-0.1-2.9
			c-0.3-1.4-0.2-2-0.3-4.2C160,1.6,159.8,1.1,160.1,0.6z"/>
		<path id="Path_10926" class="st0" d="M188.7,0.8c0.5,0.9-0.3,2.5,0.3,2.9c-0.4,1-0.6,2.1-0.6,3.1c0,0.3,0.1,0.6,0.1,0.9
			c0,0.2-0.1,0.4-0.1,0.6c0,0.5,0,1.1,0.1,1.6c0,0.3-0.4,0.1-0.4,0.4c-0.3,2.3-0.4,4.6-0.4,6.9c-0.2,0.4-0.1,0.9-0.5,1.1h-0.9
			c-0.7-0.5-0.3-1.5-0.3-2.4c0-0.8,0-1.6,0-2.4c0-0.2,0.1-0.6-0.2-0.5c0.4-0.2-0.1-0.6,0.4-0.6c-0.4-0.7,0.1-2.8,0.3-4.2
			c0.1-0.4-0.1-0.5-0.1-0.7c0.1-0.7,0.3-1,0.1-1.5c0.4-0.4,0.3-1,0.4-1.5c0.2-1,0.3-2.1,0.3-3.1c0.1-0.3,0.3-0.5,0.5-0.8
			C188.1,0.5,188.5,0.5,188.7,0.8z"/>
		<path id="Path_10927" class="st0" d="M147.6,2.1c0.4,0.2,0.3,1,0.8,1.1c-0.3,0.6,0.1,1,0.2,1.5c0,0.2-0.1,0.2-0.2,0.2
			c0.2,0.8,0.3,1.6,0.2,2.4c-0.2,0.1-0.3,0.2-0.4,0.4c-0.3,0-0.7,0-1-0.1c-0.4-0.5-0.2-1.6-0.7-1.9c-0.1-0.4,0.2-1.1-0.3-1.1
			c0.3-0.7,0.1-1.2,0.1-2.1C146.7,2.2,147.2,2,147.6,2.1z"/>
		<path id="Path_10928" class="st0" d="M202,2.1c0.5,0.2,0.2,1.2,0.6,1.4c-0.5,0.4-0.3,1.2-0.3,1.8H202c0,0.8-0.2,1.3-0.3,2.1
			c-0.3,0.3-0.8,0.5-1.2,0.4c-0.1-0.2-0.2-0.3-0.4-0.4c0-0.5-0.1-1.1,0.1-1.4c-0.1-0.2-0.2-0.3-0.2-0.5c0.3-0.5,0.1-1.6,0.6-1.9
			c-0.1-0.4,0-0.8,0.2-1.1c0-0.1,0-0.2,0.1-0.3C201.1,2.1,201.6,2.1,202,2.1z"/>
		<path id="Path_10929" class="st0" d="M121.2,8.5c0.6,0.5,0.6,1.6,1.1,2.1c-0.1,0.6,0.2,0.8,0.1,1.2c0.1,0.3,0.3,0.6,0.4,0.9
			c0.2,0.3,0.4,0.5,0.5,0.6c0.1,0.2-0.3,0.6,0.1,0.5c0,0.3,0.1,0.6,0.2,0.9c0.1,0.2,0.1,0.5,0,0.8c0.4,0.9,0.6,1.9,0.9,2.9
			c0.4,0.9,0.7,1.9,0.8,2.9c-0.2,0.1-0.3,0.2-0.4,0.4c-1.3,0.2-1.3-0.8-1.6-1.5c-0.1-0.4-0.2-0.8-0.4-1.1c-0.1-0.4,0-0.9-0.5-1
			c0-0.2-0.1-0.5,0.1-0.5c-0.9-0.8-0.7-2.7-1.5-3.6c0-1-0.5-1.5-0.5-2.6c-0.2-0.7-0.9-1.5-0.5-2.4C120,8.4,120.7,8.5,121.2,8.5z"/>
		<path id="Path_10930" class="st0" d="M228.8,8.7c0.2,1.3-0.6,1.9-0.3,2.6c-0.4,0.1-0.4,0.7-0.7,1c0,0.7-0.3,1-0.3,1.8
			c0.1,0.3-0.2,0.2-0.2,0.4c0.2,0.1,0,0.2,0,0.4c-0.1,0.2-0.3,0.7-0.1,0.8c0,0.3-0.3,0.2-0.5,0.4c-0.5,1.9-1.1,3.7-1.9,5.5
			c-0.5,0.3-1.2,0.1-1.5-0.4c0,0,0-0.1,0-0.1c0.2-1.1,0.6-2.2,1.1-3.2c0-0.2-0.1-0.2-0.2-0.2c0.2-0.3,0.5-0.6,0.2-1
			c0.4-0.3,0.3-1,0.6-1.4c0.2-0.5,0.2-1.1,0.6-1.4c-0.1-0.2-0.2-0.4-0.1-0.6c0.5-0.3,0.4-0.5,0.5-1.2c0.6-0.9,1-1.9,1.1-3
			c0.2-0.1,0.3-0.2,0.4-0.4C228,8.4,228.5,8.5,228.8,8.7z"/>
		<path id="Path_10931" class="st0" d="M135.4,16c0.9,2.3,1.1,5.3,1.9,7.7c0.3,0.2,0,0.6-0.1,0.9c0.4,0,0.3,0.5,0.4,0.9
			c0,0.2,0.2,0.2,0.3,0.4c0.4,0-0.3,0.4,0.1,0.4c0,0.9,0.5,1.3,0.4,2.4c0.2,0.3,0.4,0.7,0.6,1c0.6,2.4,1,4.8,1.4,7.2
			c0,0.3,0.5,0.1,0.4,0.5c0.2,0.9,0.5,1.8,0.8,2.6c0,0.2,0,0.4,0,0.6c0.6-0.1,1.1-0.2,1.7-0.3c-0.1-0.7-0.2-1.4-0.4-2.1
			c-0.2-1-0.5-2-0.9-3c0.1-1-0.4-1.4-0.2-2.5c-0.4-1-0.3-1.5-0.8-2.6c0.1-0.4,0.1-0.8,0-1.1c-0.2-0.5-0.5-1-0.8-1.5v-1.1
			c-0.6-1.7-0.9-3.9-1.6-5.5c0.1-0.4-0.2-0.9,0-0.9c0.1-0.4-0.3-0.3-0.4-0.5c0.3,0-0.1-0.3-0.1-0.5c0.1-0.2,0.4-0.1,0.1-0.4
			c-0.1-0.2-0.2-0.5-0.1-0.8c-0.5-0.5-0.4-1.4-0.8-2c0-2.3-1-3.5-1.4-5.4c0.2-0.7,0-1.4-0.5-1.9c-0.4-0.1-0.8,0-1.1,0.2
			c-0.3,1.2,0.2,2.7,0.4,3.9C135.2,13.7,135.5,14.8,135.4,16z"/>
		<path id="Path_10932" class="st0" d="M214.7,9c0.4,0.8-0.5,1.7,0,2.2c0,0.3-0.5,0.3-0.3,0.6c-0.3,0.1-0.1,0.6-0.4,0.6
			c0.1,0.8-0.3,1.1-0.2,1.9c-0.1,0.4-0.3,0.2-0.1,0.6c0,0.3-0.2,0.4-0.1,0.7c-0.2,0.2-0.2,0.5-0.5,0.5c-0.3,1.9-0.8,3.9-1.4,5.7
			c-0.5,0.3-1.2,0.1-1.5-0.4c0,0,0-0.1,0-0.1c0.2-1.1,0.4-2.1,0.7-3.1c-0.1-0.3-0.1-0.7,0-1c0.1-1.1,0.4-2.2,1-3.2
			c-0.1-0.1-0.1-0.3-0.1-0.5c0.6-1.4,1.1-2.9,1.3-4.5c0.3-0.5,1-0.6,1.5-0.3C214.6,8.9,214.7,8.9,214.7,9z"/>
		<path id="Path_10933" class="st0" d="M109.7,16c0.2,0.6,0.4,1.1,0.8,1.6c0.2,0.5,0.4,1.1,0.6,1.6c0.1,0.2,0.1,0.5,0.5,0.4
			c-0.2,0.4,0.3,0.6,0,0.8c0.7,0.9,1.2,1.9,1.4,3c0.6,1,1,2,1.3,3.1c0.2,0.4,0.5,0.8,0.8,1.1c0,0.6,0.2,1.2,0.6,1.6
			c-0.1,0.9,0.4,1.1,0.4,1.7c0.2,0.5,0.5,0.9,0.8,1.4c0.1,0.9,0.4,1.7,0.8,2.5c0.3,0.6,1,1.5,0.4,2.2c-0.1,0-0.2,0-0.3,0.1
			c-1.3,0.2-1.2-1.1-1.7-1.6c-0.1-0.3-0.1-0.7-0.2-1c-0.1-0.1-0.3-0.2-0.4-0.3c-0.1-0.2,0.3-0.3,0-0.4c0-0.3-0.1-0.4-0.4-0.4
			c0.2-0.3-0.1-0.4,0.1-0.6c-0.7-1.3-1.1-3-1.8-4.4c-0.1-0.2-0.3-0.4-0.5-0.5c0.1-0.4-0.2-0.4-0.1-0.9c0-0.2-0.2-0.2-0.2-0.2
			c-0.1-0.1-0.1-0.2,0-0.3c-0.1-0.1-0.2-0.1-0.3-0.3c-0.1-0.2-0.1-0.4-0.3-0.6c0,0.1,0.2-0.1,0.1-0.1s-0.2,0-0.3,0
			c-0.1-0.2,0.1-0.6-0.4-0.5c0.3-0.6-0.4-1.2-0.4-2.1c-0.5-1.2-1.1-2.4-1.6-3.6c-0.6-1.2-1.1-2.4-1.5-3.6c-0.3-0.6-0.6-1.2-0.8-1.9
			c0.1-0.6,0.5-0.9,0.9-0.9C108.9,13.1,109.2,15.3,109.7,16z"/>
		<path id="Path_10934" class="st0" d="M240.6,13.2c0.5-0.4,1,0.2,1.1,0.6c0,0.5-0.2,0.9-0.5,1.2c0.6,0.4-0.5,1.2-0.3,1.6
			c-0.2,0-0.1,0.3-0.2,0.4c-0.1,0-0.3,0.1-0.4,0.1c-0.1,0.1,0,0.4-0.1,0.6s-0.3,0.3-0.3,0.5c-0.5,0.3-1.1,0.3-1.5-0.2c0,0,0,0,0-0.1
			c-0.2-0.5,0.3-1,0-1.2c0.1-0.3,0.4-0.3,0.5-0.6c-0.1-0.3,0.2-0.7,0-0.8c0-0.2,0.2-0.3,0.5-0.2C239.7,14.5,239.8,13.5,240.6,13.2z"
			/>
		<path id="Path_10935" class="st0" d="M149.6,14.1c0.3,0.6,0.5,1.3,0.5,2c0.4,0.2-0.2,0.7,0.5,0.6c-0.3,0.4-0.1,1.4-0.1,2
			c0.1,0.4,0.2,0.8,0.3,1.2c0.1,0.4,0.1,0.8,0.4,1c0,0.7,0.1,1.5,0.4,2.1c0.1,0.3-0.2,0.2-0.3,0.4c0.3,1.3,0.5,2.7,0.6,4
			c0.2,1.3,0.8,2.7,0.4,4c-0.4,0.1-0.7,0.2-1.1,0.1c-0.5-0.3-0.4-1.4-0.6-2c0-0.8-0.4-1.3-0.3-2.2c-0.2-0.2-0.1-0.7-0.4-0.8
			c0-0.2,0-0.4,0.1-0.6c-0.7-1-0.6-3.5-1.1-5.1c0.2-0.6-0.1-1.1-0.1-1.8c0-0.4,0-0.8,0-1.4c-0.2-1.1-0.7-2.3-0.4-3.5
			C148.8,14.1,149.2,13.8,149.6,14.1z"/>
		<path id="Path_10936" class="st0" d="M200.5,14.5c0,1.1-0.4,2.2-0.1,2.7c-0.4,0.9-0.4,2.1-0.8,3v0.6c-0.1,0.2-0.1,0.3,0.1,0.2
			c-0.2,0.1,0,0.6-0.4,0.5c0.3,0.3,0.2,0.8-0.1,1.1c0.4,0.1,0,0.5,0.2,0.6c0,0.3-0.4,0.1-0.4,0.4c-0.2,2-0.7,4.1-1,6.1
			c0,0.6-0.2,1.2-0.5,1.7h-1c-0.6-0.5-0.2-1.5-0.1-2.4c0.1-0.9,0.2-1.7,0.5-2.5c0.2-0.4-0.4-0.1-0.3-0.5c0.3,0.1-0.1-0.6,0.4-0.4
			c0.1-0.4-0.3-0.2-0.2-0.6c0.5-1,0.3-2.7,0.8-3.7v-0.9c0.4-1.4,0.8-2.8,1-4.2c0-0.7,0.1-1.4,0.4-2.1
			C199.5,13.8,200.1,14.1,200.5,14.5z"/>
		<path id="Path_10937" class="st0" d="M175,16.2c0.4,0.5,0.2,1.6,0.3,2.5c0,0.3,0,0.4,0.2,0.4c-0.3,1.3,0.3,3.2-0.4,4.4
			c0.1,0.6,0.3,1.8-0.1,2.2c-0.4,0.2-0.8,0.2-1.1,0c-0.5-0.5-0.2-1.7-0.6-1.9c0-0.4,0.3-0.6,0.3-1c0-0.7-0.1-1.3-0.3-2
			c0.1-0.2,0.2-0.3,0.3-0.5c0-1.5,0.1-2.3,0-3.7C173.6,16.1,174.4,16,175,16.2z"/>
		<path id="Path_10938" class="st0" d="M161.5,24.7c0.1,0.2,0.2,0.5,0.3,0.7c0,0.4-0.3,0.8-0.1,1.4c-0.1,0.4,0.4,0.2,0.3,0.6
			c0,0.2,0,0.4,0.1,0.5c-0.2,1.6-0.1,3.2,0.1,4.7c0.1,0.5,0.2,0.9,0.4,1.4c0,0.3-0.3-0.3-0.3,0.3c0.4,0.1-0.1,0.4,0,0.6
			c0.3,0.1,0.3,0.6,0.4,0.9c-0.1,0.5,0.2,1.2,0.3,2c0,0.3,0,0.8,0,1.2c0.5-0.2,1.1-0.4,1.6-0.5c-0.2-2.7-0.4-5.5-0.8-7.9
			c0.1-0.2,0.3-0.2,0.4-0.5c-0.3-0.5,0.1-1-0.3-1.5c0.3-0.5,0-0.9-0.3-1.4c0.3-0.5-0.2-1.3,0-2.1c-0.1-0.4-0.2-0.8-0.4-1.2
			c0.4-1.1-0.1-2.9,0.1-3.6c-0.6,0.1-0.1-0.2-0.4-0.4c0-1.3,0-2.6-0.6-3.2c-0.5,0-1.1-0.1-1.1,0.4c-0.2,1.5-0.1,3,0.4,4.5
			C161.7,22.8,161.5,23.6,161.5,24.7z"/>
		<path id="Path_10939" class="st0" d="M103.7,34.6c-0.2,0.2-0.5,0.3-0.8,0.4c-0.5,0-1-0.5-1-1c-0.5-0.8-0.9-1.9-1.5-2.7
			c-0.2-0.3-0.2-0.6-0.5-0.6c0.2-0.4-0.3-0.3-0.3-0.5c0-0.3,0.2-0.1-0.1-0.4c-0.4-0.4-0.6-1.4-1.1-1.9c-0.1-0.7-0.5-1.1-0.6-1.8
			c-0.3-0.2-0.3-0.5-0.6-0.6c-0.1-0.6-0.3-1.2-0.6-1.7c-0.2-0.5-0.4-1-0.6-1.5c-0.4-0.9-1.7-2-1-3.2c1.3-0.7,1.4,0.9,2,1.6
			c0.1,0.2,0.3,0.5,0.6,0.4c0.1,0.7,0.4,1.5,0.7,2.1c0.2,0.7,0.6,1.2,1.1,1.6c-0.1,0.6,0.3,0.7,0.5,1c-0.2,0.3,0.3,0.5,0,0.5
			c0.1,0.3,0.2-0.1,0.4,0.1c-0.2,0.2-0.1,0.4,0.3,0.4c-0.1,0.1-0.1,0.3-0.3,0.4c0.7,1.1,1.2,2.5,1.9,3.6
			C102.6,32.1,103.7,32.8,103.7,34.6z"/>
		<path id="Path_10940" class="st0" d="M252.2,22.9c0.2,1.1-0.5,1.4-0.8,2.1c-0.1,0.4-0.4,0.6-0.4,1.1c-0.2,0.3-0.5,0.4-0.3,0.9
			c-0.5-0.1-0.2,0.5-0.6,0.4c-0.2,0.7-0.5,1.3-1,1.7c-0.2,0.6-0.5,1.2-0.9,1.7c0,0.6-0.4,0.8-0.3,1.5c-0.3,0.2-0.6,0.4-0.5,1.1
			c-0.3-0.3-0.2,0.2-0.4,0.4c-0.1,0.1-0.3,0.3-0.4,0.5c0.3,0.3-0.6,0.5-0.2,1c-0.1,0.1-0.3,0.1-0.5,0c0,0,0,0,0,0
			c-0.7,1.9-1.6,3.8-2.6,5.6c-0.4,0.8-1.1,1.8-1.5,2.6c-0.4,0.8-0.6,2.3-1.9,2.1c-0.1-0.1-0.3-0.3-0.5-0.4c0.2-1.2,0.6-2.3,1.3-3.2
			c0.5-1,1-1.9,1.6-2.9c0.1-0.2,0.1-0.5,0-0.8c0.4-0.1,0.3-0.7,0.6-0.6c0.1-0.3,0.1-0.3,0-0.8c0.4,0,0.2-0.5,0.5-0.6
			c0-0.3,0.2-0.6,0.4-0.8c0.1-0.5,0.3-1.1,0.6-1.5c0.5-0.9,1-1.8,1.6-2.6c-0.1-0.3,0-0.5,0.1-0.8c0.5-1.1,1.1-2,1.5-2.9
			c0.7-0.8,0.9-2,1.8-2.7c0.2-1,0.7-2,1.5-2.7C251.5,22.4,251.9,22.5,252.2,22.9z"/>
		<path id="Path_10941" class="st0" d="M236.9,24.7c0,0.3,0,0.6-0.1,0.9c0,0.3-0.1,0.6-0.1,0.9c-0.2,0.3-0.3,0.5-0.5,0.8
			c-0.1,0.2,0,0.3-0.1,0.5c0,0-0.2,0.2-0.3,0.2c-0.1,0.2,0.2,0.5,0,0.8c0,0.3-0.1,0.2-0.3,0.1c-0.1,0.4,0.2,0.3,0.1,0.6
			c-0.7,0.6-0.7,1.8-1.4,2.5v0.7c-0.4,0.2-0.2,0.3-0.4,0.8c-0.5,0.6-0.9,1.3-1.1,2.1c-0.3,0.7-0.5,1.8-1.6,1.6
			c-0.2-0.1-0.4-0.3-0.5-0.5c-0.1-1.1,0.8-1.6,0.5-2.4c0.6-0.4,0.7-1.3,1.1-1.9c0-0.5,0.2-0.5,0-0.9c0.4-0.2,0.2-0.4,0.4-0.8
			c0.1-0.3,0.2-0.7,0.2-1h0.4c0.4-0.8,0.7-1.6,0.9-2.5c0.6-0.8,0.9-1.7,1.1-2.6c0.2-0.1,0.3-0.2,0.4-0.4
			C236.1,24.2,236.6,24.4,236.9,24.7z"/>
		<path id="Path_10942" class="st0" d="M186.7,24.7c0,0.4,0.4,0.5,0.2,1c0,0.2,0.1,0.2,0.3,0.2c0,0.4-0.4,0.3-0.4,0.6
			c0,0.5,0.3,0.6,0.3,1.1h-0.4c0,1.2,0,2.6-1,2.6c-0.3,0-0.4-0.2-0.8-0.4c-0.2-0.5,0-0.7,0-1.4c0-0.2-0.1-0.2-0.3-0.3
			c0.4-0.8-0.1-1.7,0.5-2.2C185,24.9,185.8,24.3,186.7,24.7z"/>
		<path id="Path_10943" class="st0" d="M88.7,33.7c-1.1,1.2-1.9-0.6-2.4-1.4c-0.7-0.7-1.3-1.5-1.6-2.5c0-0.3-0.3-0.2-0.5-0.4
			c-0.1-1.4-1.1-1.9-1.4-3.1c0.1-0.7,0.5-0.9,0.9-0.9c0.8,0,0.8,1.1,1.5,1.2c0,0.3,0.1,0.6,0.2,0.9c0.1,0.3,0.4,0.5,0.6,0.8
			c0,0.1,0.2,0.1,0.3,0.1c0.1,0.2,0,0.6,0.4,0.6c0,0.3,0.2,0.4,0.1,0.8c0.3,0.6,0.7,1.2,1.1,1.7C88.4,32.2,88.7,32.9,88.7,33.7z"/>
		<path id="Path_10944" class="st0" d="M265.9,26c0.2,1-0.6,1.1-0.5,2c-0.4,0.3-0.7,0.6-1,1c-0.1,0.3-0.2,0.7-0.3,1
			c-0.4,0-0.1,0.8-0.8,0.6c-0.2,0.5-0.7,1.2-1.1,2c-0.6,1-1.2,2.1-2.2,1.1c-0.1-1.2,0.6-1.7,1-2.4c0.1-0.2,0.1-0.4,0-0.6
			c0.4-0.1,0.2-0.3,0.4-0.4c0.1-0.2,0.3-0.3,0.3-0.6c0.3-0.3,0.5-0.8,0.9-1c-0.2-0.6,0.4-0.5,0.4-1c0.4,0,0.3-0.4,0.6-0.4
			c0.3-0.6,0.6-1.2,1-1.8C265,25.4,265.6,25.5,265.9,26z"/>
		<path id="Path_10945" class="st0" d="M128.1,35.1v0.8c0.1,0.3,0.4,0.5,0.5,0.9c0.6,1.8,0.9,3.8,1.9,5.2c-0.1,0-0.3,0.1-0.1,0.1
			v0.6c0.2,0.1,0.3,0.3,0.4,0.4c0.6-0.2,1.1-0.3,1.7-0.5c-0.1-0.2-0.1-0.3-0.2-0.5c-0.2-1-0.5-2-0.9-3c0-0.1,0-0.3-0.1-0.4
			c-0.1-0.4,0.2-0.4,0.1-0.8c-0.4,0.1-0.2-0.3-0.3-0.5c-0.1-0.2-0.3-0.2-0.4-0.5c0.1-0.4-0.1-0.5-0.2-0.8c-0.2-0.1,0.1-0.5-0.1-0.8
			c-0.1-0.2-0.3-0.2-0.4-0.5c-0.4-1.4-1.3-3.1-1-4.4c-0.1-0.1-0.7-0.3-0.4-0.4c0-0.4-0.4-0.3-0.4-0.6c-0.3-0.7-0.5-2.1-1.4-2.1
			c-0.5,0-0.9,0.4-0.9,0.9c0.5,1.7,1.4,3,1.5,5.1C127.8,34,127.8,34.7,128.1,35.1z"/>
		<path id="Path_10946" class="st0" d="M222.7,28.2c-0.1,0.6-0.3,1.2-0.6,1.8c-0.1,0.2,0.4,0.5-0.1,0.5c0.1,0.1,0.3,0.1,0.2,0.4
			c-0.4,0.5-0.5,1.3-1,1.7c0.1,1-0.6,1.5-0.4,2.4c-0.1,0.1-0.2,0.1-0.4,0.1c0.2,0.4,0.1,0.6-0.1,0.9c-0.3,0.3,0.3,0.3,0,0.6
			c-0.1,0-0.1,0.2-0.1,0.3c0,0.4-0.5,0.2-0.5,0.5c-0.1,0.9-0.4,1.8-0.9,2.6c-0.1,0.9-0.4,1.8-0.8,2.6c-0.3,0.8-0.2,1.9-1.1,2.1
			c-0.4,0-0.8-0.3-1-0.6c0.1-1.9,1.4-3.2,1.1-5c0.5,0.1,0.1-0.7,0.5-0.3c-0.3-1.9,1.2-3.1,1.2-5.1c0.6-0.8,0.7-2.1,1.4-2.9
			c0.2-1,0.5-2,0.9-3c0.1-0.1,0.3-0.1,0.4-0.3h0.6C222.3,27.8,222.5,28,222.7,28.2z"/>
		<path id="Path_10947" class="st0" d="M210.1,28.9c0.1,0.7-0.5,1.4-0.1,2c-0.3,0.9-1,1.9-0.7,3.1c-0.4,0.3,0,0.5-0.2,0.9
			c-0.5,0.3,0.1,0.3-0.1,0.6c-0.2,0.1,0.2,0.4-0.4,0.3c-0.1,1.1-0.4,2.1-0.8,3.1c-0.2,1-0.1,2.2-0.9,2.9c-0.4,0.1-0.8,0-1.1-0.3
			c-0.3-1.3,0.4-2.6,0.6-3.7c-0.3-0.6,0.2-0.7,0-1.2c0.2-0.4,0.3-0.9,0.3-1.4c0.3-0.3,0.3-1,0.6-1.2c-0.1-0.2-0.2-0.5-0.1-0.8
			c0.3-0.1,0.3-0.5,0.3-0.9c0.8-0.8,0.6-2.7,1.2-3.7c0.4-0.3,1-0.3,1.4,0.1C210,28.7,210.1,28.8,210.1,28.9z"/>
		<path id="Path_10948" class="st0" d="M175.2,37.6c0-0.2,0-0.4-0.1-0.6c0.1-0.4,0.1-0.9,0.3-1.2c-0.3-0.9,0.1-2.6-0.4-3.4
			c-0.4-0.2-1-0.2-1.4,0.1c-0.1,1.7-0.2,3.4,0,5.1C174.1,37.6,174.7,37.6,175.2,37.6z"/>
		<path id="Path_10949" class="st0" d="M277.2,33.3c0,0.1,0,0.2,0.1,0.3c0.1,1.2-0.9,1.6-1.4,2.4c0.2,0.4-0.6,0.5-0.1,0.8
			c-1,0.8-1.5,2-2.5,2.9c-0.1,0.3-0.4,0.5-0.5,0.9c-0.3,0.2-0.1,0.8-0.6,0.7c0,0.4-0.2,0.7-0.5,1c-0.2,0.2-0.3,0.4-0.3,0.6
			c-0.5,0.2-0.7,0.7-1.1,0.9c-0.8,1.4-2,2.4-2.6,3.9c-0.3,0.1-0.5,0.5-0.7,0.9c-0.2,0.3-0.5,0.5-0.8,0.9c-0.1,0.1,0,0.3-0.1,0.4
			c-0.2,0.2-0.3,0.4-0.5,0.6c-0.4,0.5-0.6,1-1.6,0.6c0-0.2-0.1-0.4-0.3-0.5c0-0.6,0.5-1.1,0.8-1.5c0.3-0.5,0.5-0.9,0.9-1.4
			c0.6-0.8,1.5-1.5,1.6-2.6c0.5,0.1,0.1-0.6,0.6-0.4c0-0.8,0.7-0.8,0.7-1.5c0.3-0.2,0.4-0.4,0.6-0.7c0.1-0.1,0.2-0.3,0.4-0.5
			c0,0,0.1-0.2,0.1-0.2c0.1-0.1,0.4-0.2,0.5-0.2c0.1-0.1,0.1-0.4,0.3-0.6c0.1-0.1,0.2-0.1,0.2-0.3c0.2-0.2,0.3-0.4,0.5-0.6
			c-0.1-0.1,0-0.3,0.1-0.5c0.2-0.3,0.6-0.4,0.8-0.8c0.2-0.2,0.2-0.7,0.8-0.6c0.1-0.1,0-0.5,0.1-0.6c0,0,0.2,0,0.2,0
			c0.9-1.4,1.9-2.7,3-4c0-0.1,0.2-0.1,0.2-0.2C276.5,33,276.9,33.1,277.2,33.3z"/>
		<path id="Path_10950" class="st0" d="M92.2,60.5c-0.2,0.1-0.3,0.2-0.4,0.4c-0.5,0.1-0.9,0-1.2-0.4c-0.1-0.1,0-0.3-0.1-0.4
			s-0.6-0.3-0.5-0.6c-0.4-0.2-0.5-0.6-0.8-0.9c-0.2-0.2-0.6-0.4-0.6-0.9c0-0.2-0.3-0.1-0.5-0.1c0.3-0.3-0.3-0.3-0.2-0.8
			c-0.6-0.6-1-1.3-1.4-2c-0.6-0.9-1.3-1.7-1.9-2.6c-0.1-0.2-0.3-0.3-0.6-0.4c-0.2-0.4-0.2-0.8-0.6-1c-0.5-0.2-0.1-0.5-0.6-0.6
			c0.1-0.5-0.3-0.4-0.3-0.8c0-0.1-0.2-0.1-0.4-0.1c0.2-0.7-0.6-0.4-0.4-1.1c-1.5-1.7-2.6-3.8-4.1-5.5c-0.7-1-1.3-1.9-2-2.9
			c-0.3-0.4-0.7-0.9-1-1.4c-0.4-0.5-0.7-1.1-0.6-1.7c0.2-0.1,0.3-0.2,0.4-0.4c1.1-0.2,1.5,0.8,2,1.5c0.2,0.3,0.4,0.6,0.6,0.9
			c0.1,0.1,0.1,0.3,0.3,0.4s0.3,0.6,0.5,0.9c0.3,0.4,0.7,0.8,1,1.2c0.6,0.4,0.6,1.4,1.5,1.5c-0.2,0.7,0.7,0.6,0.3,1
			c0.1,0.1,0.7,0.3,0.4,0.4c0.1,0.2,0.2,0,0.4,0c0,0.5,0.4,0.7,0.6,1c0.2,0.3,0.4,0.7,0.6,1c0.4,0.5,0.8,0.9,1.3,1.4
			c0.3,1.1,1,1.7,1.4,2.6c0.4,0.1,0.5,0.4,0.9,0.5c0.3,0.7,0.7,1.4,1.2,2c0.5,1.3,1.3,2.4,2.4,3.4c0.3,0.8,0.9,1.5,1.5,2.1
			C91.3,59,92.4,59.1,92.2,60.5z"/>
		<path id="Path_10951" class="st0" d="M99.3,50.7c-0.1,0.1-0.3,0.3-0.4,0.5c-0.5,0.2-1.1,0-1.4-0.5c-0.1-0.2-0.3-0.4-0.4-0.6
			c-0.2-0.3-0.4-0.8-0.7-1.2c-0.2-0.2-0.3-0.6-0.6-0.6c0.1-0.3-0.2-0.2-0.2-0.5c0.2-0.1-0.1-0.1-0.3-0.1c-0.3-1-1.1-1.6-1.4-2.6
			c-0.5-0.7-1-1.4-1.2-2.2c-0.5-0.9-1.9-2-1.1-3.4c1-0.4,1.5,0.4,1.8,1.2c0.6,0.1,0,0.5,0.6,0.3c0.1,1,0.7,1.5,1,2.2
			c0.1,0.3,0.4,0.4,0.6,0.5c-0.1,0.6,0.4,0.7,0.6,1c0,0.3,0,0.4,0.3,0.4c0,0.3-0.2,0.3,0,0.5c0.5,0.9,1.1,1.7,1.5,2.6
			c0.3,0.2,0.4,0.5,0.6,0.9c0.1,0.2,0.2,0.4,0.4,0.6C99.2,49.9,99.3,50.3,99.3,50.7z"/>
		<path id="Path_10952" class="st0" d="M257.4,39.6c0.3,1.6-1.2,1.8-0.9,3c-0.9,0.6-1.3,1.8-2.1,2.6c-0.2,0.2,0,0.7-0.3,0.9
			c0.1,0.3-0.2,0.2-0.4,0.3c0.3,0.5-0.2,0.4-0.3,0.9c-0.1,0.3-0.4,0.4-0.4,0.9c-0.3-0.1-0.3,0.1-0.5,0.1c-0.4,0.9-1,1.6-1.5,2.5
			c-0.4,0.9-0.9,1.7-1.6,2.4c-0.1,0.6-0.5,1.2-1,1.6c-0.4,0.1-0.8-0.1-1.1-0.4c-0.1-1.3,0.6-1.8,1-2.6c0.4-0.2,0.5-0.6,0.8-1
			c0.2-0.4,0.6-0.7,0.4-1.1c0.1-0.1,0.2-0.1,0.2-0.2c0.1-0.2,0.1,0,0.3,0v-0.8c1-0.9,1.3-2.4,2.4-3.2c-0.1-0.4,0.2-0.5,0.1-0.9
			c0.5-0.1,0.5-0.6,0.8-1c1.3-1,1.7-2.8,2.7-4c0.1-0.1,0.3-0.1,0.4-0.3C256.8,39.2,257.1,39.4,257.4,39.6z"/>
		<path id="Path_10953" class="st0" d="M107.5,45.1c0.2,0.5,0.2,1.1,0.6,1.4c0.2,0.7,0.4,1.4,0.9,2c0.3,0.7,0.6,1.4,1,2
			c0.2,0.2,0.3,0.5,0.5,0.7c0.6-0.3,1.2-0.6,1.7-0.9c-0.4-0.4-0.6-0.9-0.9-1.4c-0.2-0.2,0.1-0.2,0-0.6c-0.2,0-0.3-0.1-0.2-0.4
			c-0.4-0.2-0.4-0.8-0.8-1c0.2-0.5-0.3-0.7-0.5-1s-0.3-0.8-0.5-1.1c-0.4-0.6-0.7-1.4-0.7-2.1c-0.5,0.1-0.3-0.4-0.6-0.5
			c-0.3-0.6-0.6-1.2-1-1.8c-0.8-0.1-1.3,0.1-1.4,0.7c0.4,0.9,0.8,1.8,1.2,2.6C107.1,44.3,107.3,44.7,107.5,45.1z"/>
		<path id="Path_10954" class="st0" d="M72.9,55.1c-0.2,0.1-0.3,0.2-0.4,0.4c-1.3,0.2-1.4-0.8-2-1.4c-0.6-0.5-1.1-1.1-1.5-1.8
			c-0.3-0.1-0.3-0.5-0.8-0.4c0.3-0.4-0.5-0.4-0.1-0.5c-1.1-1-2.1-2.1-2.9-3.4c-0.2-0.2-0.5-0.2-0.6-0.4c-0.2-0.6-0.8-0.8-0.9-1.5
			c-0.4,0-0.3-0.6-0.6-0.6c-0.1-0.3-0.4-0.3-0.5-0.6c-0.5-0.3-0.7-0.9-1.1-1.3c-0.3-0.4-0.8-0.8-0.9-1.5c0.1-0.5,0.6-0.8,1.1-0.6
			c0.8,0.1,1.1,1.6,2.1,1.8c0.2,1,1.1,1.3,1.4,2.1c0.4,0.2,0.6,0.6,0.9,0.9c0.1,0.1,0.3,0,0.4,0.1c0.1,0.1,0,0.4,0.1,0.5
			s0.4,0,0.5,0.1c0.1,0.5,0.4,0.8,0.9,1c0,1,0.9,1.1,1.1,1.9c0.5,0.5,1,1,1.4,1.6c0.4,0.5,1,1.1,1.5,1.5
			C72.3,53.8,73.1,53.9,72.9,55.1z"/>
		<path id="Path_10955" class="st0" d="M227.3,49.5c0.2-0.5,0.4-1,0.7-1.4c0.1-0.4-0.2-0.3-0.1-0.6c0.2,0,0.3,0.2,0.3-0.1
			c0.2-0.4,0-0.5,0.1-1c0.6-0.8,1-1.8,1.1-2.9c-0.1,0-0.1-0.1-0.1-0.3c-0.4-0.3-1-0.3-1.4,0c-0.8,1.7-1.6,3.5-2.2,5.4
			c-0.3-0.2-0.3-0.1-0.3,0C225.9,48.9,226.6,49.2,227.3,49.5z"/>
		<path id="Path_10956" class="st0" d="M285.2,44.8c0,0.1,0,0.2,0.1,0.3c0.1,1-0.8,1.5-1.3,2c-0.1,0.2-0.2,0.3-0.4,0.5
			c-0.1,0.1-0.3,0.3-0.4,0.4c-0.1,0.1,0,0.3-0.1,0.4s-0.5,0.3-0.4,0.7c-0.4,0.1-0.5,0.5-0.8,0.6c-0.1,0.3-0.6,0.3-0.5,0.8
			c-0.6,0.2-0.9,0.8-1.2,1.2c-0.5,0.4-0.8,0.8-1.1,1.4c-0.4,0.4-1,0.7-1,1.5c-0.6,0.3-1,0.9-1.2,1.5c-0.5-0.2-0.3,0.4-0.6,0.4
			c-0.2,0,0.1,0.2,0,0.4c-0.1,0.2-0.8,0.2-0.6,0.8c-0.9,0.3-1.2,1.3-2,1.6c-1.2,1.8-2.9,3.2-4,5.1c-0.4,0.3-0.7,0.7-1.1,1
			c-0.2,0.5-0.6,0.8-1,1.1c-0.2,0.8-1.2,1.9-2.1,1c-0.2-1.2,0.6-1.3,0.8-2.1c0.8-0.6,1.3-1.4,2.1-2c0.5-0.9,1.1-1.8,1.9-2.5
			c0.1-0.2,0.1-0.4,0-0.6c0.7,0.2,0.5-0.9,1-0.5c0.2-0.8,0.8-1.2,1.1-1.9c0.2-0.3,0.6-0.4,0.9-0.6c0.1-0.1,0-0.3,0.1-0.4
			s0.4-0.4,0.6-0.6c0.3-0.3,0.5-0.6,0.8-0.9s0.5-0.6,0.8-0.9c0.5-0.5,0.8-0.7,1-1.1c0.1-0.1,0.1-0.3,0.1-0.5
			c0.4-0.3,0.7-0.6,1.1-0.9c0.1-0.2,0.1-0.6,0.5-0.5c-0.3-0.3,0.2-0.1,0.1-0.5c0.6-0.3,1-1,1.5-1.4c0.3-0.6,0.9-1,1.2-1.6
			c0.9-0.9,1.7-2,2.6-3c0-0.2,0.2-0.2,0.2-0.4C284.4,44.6,284.9,44.5,285.2,44.8z"/>
		<path id="Path_10957" class="st0" d="M58.2,57.1c0.1,0.5-0.2,1-0.8,1.1c-0.8,0-1.1-1-1.6-0.8c-0.2,0-0.1-0.3-0.1-0.5
			c-0.5-0.2-0.6-0.7-1-1c-0.1-0.1-0.2-0.1-0.2,0c0,0,0,0,0,0c-0.2-0.1-0.3-0.3-0.5-0.5c-0.1,0-0.2-0.1-0.2-0.1c0,0,0-0.2,0-0.2
			s-0.2,0-0.3,0c-0.1-0.2,0.2-0.3,0.1-0.4c-0.8-1-1.9-1.6-2.7-2.7c-0.2-0.8,0.4-1.4,0.9-1.1c0.9,0.2,1.3,1,1.9,1.5
			c0.1,0.1,0.3,0,0.3,0c0.2,0.1,0.3,0.5,0.6,0.5c0.4,0.4,0.8,0.9,1.1,1.4c0,0.2,0.4,0.1,0.5,0.3C56.5,55.6,57.6,56.1,58.2,57.1z"/>
		<path id="Path_10958" class="st0" d="M297.9,51.1c0.2,0.9-0.4,1-0.4,1.8c-0.8-0.2-0.7,0.6-1,1c-0.8,0-1.3,1-2,1.5
			c-0.4,0.1-0.9-0.1-1.1-0.5c-0.1-1.2,1.1-1.2,1-2.1c0.4-0.3,0.9-0.5,1-1c0.8-0.1,1-0.8,1.6-1C297.3,50.8,297.6,50.9,297.9,51.1z"/>
		<path id="Path_10959" class="st0" d="M253.8,63.2c0.7,0.4,1.3,0.8,2,1.2h0c0.1-0.4,0.2-0.8,0.5-1.1c0-0.1,0.2-0.1,0.2-0.1
			c0-0.1-0.1-0.3,0-0.4c0.1-0.2,0.3-0.3,0.5-0.4c-0.2-0.4,0.1-0.3,0.1-0.8c0.9-0.6,1.2-1.8,2.1-2.4c0-0.4,0.4-0.9,0.6-1.4
			c0.5-0.3,0.8-0.9,0.7-1.5c-0.1,0-0.1-0.1-0.1-0.3c-0.3-0.2-0.7-0.3-1.1-0.2c-0.7,0.8-1.4,1.7-2,2.6c-0.3,0.6-0.8,1.1-1.4,1.5
			c-0.1,0.4-0.4,0.8-0.8,0.9c0.1,0.4-0.2,0.4-0.1,0.7C254.6,62.1,254.3,62.8,253.8,63.2z"/>
		<path id="Path_10960" class="st0" d="M273.1,77c0.1-0.1,0.1-0.3,0.2-0.3c0,0,0.2,0,0.2,0l0.1-0.2c0.1-0.1,0.1-0.3,0.3-0.5
			c0.3,0,0.3-0.3,0.4-0.4c0.2-0.2,0.4,0,0.6-0.1c0,0,0-0.2,0-0.3s0.2,0,0.2,0c0.1-0.1,0-0.4,0.3-0.1c0.3-1.1,1.4-1.3,1.9-2.2
			c1.6-1.8,3.3-3.6,5.1-5.2c0.6-0.2,0.6-0.8,1.3-0.9c0-0.5,0.4-0.6,0.6-0.9c0.3-0.2,0.4-0.6,0.9-0.6c-0.1-0.3,0-0.5,0.1-0.8
			c0.4,0.2,0.3-0.2,0.5-0.4c0.1-0.1,0.3-0.1,0.4-0.1c0.1,0,0.2-0.2,0.2-0.3c0.5-0.6,1-1.2,1.5-1.9c0.5-0.6,1.4-0.9,1.5-1.9
			c-0.1,0-0.1-0.2-0.1-0.4c-1.2-0.8-1.8,0.4-2.4,1c-0.7,0.6-1.3,1.3-1.9,2c-0.3,0.2-0.7,0.4-1,0.6c-0.5,0.8-1.2,1.2-1.6,2.1
			c-0.7,0.5-1.4,1.1-2,1.7c-0.9,0.3-1.1,1.4-2.1,1.6c0,0.2,0,0.5-0.1,0.5c0-0.2-0.7,0.3-0.4,0.5c-0.3-0.1-0.3,0.2-0.5,0.2
			c-0.1,0.4-0.5,0.4-0.6,0.8c-0.5,0-0.4,0.6-0.9,0.6c-0.2,0.5-0.6,0.8-0.8,1.2c-0.7,0.7-1.5,1.2-2.4,1.8c-0.2,0.5-0.6,0.7-1,1.1
			c-0.1,0.1-0.1,0.1-0.1,0.2C272,76.1,272.6,76.6,273.1,77z"/>
		<path id="Path_10961" class="st0" d="M77.8,62.8c0,0,0.2,0.1,0.3,0.1c0.1,0.1,0.2,0.2,0.3,0.3c0.4,0.4,0.8,0.9,1.1,1.5
			c0.2,0.3,0.4,0.6,0.6,0.9c0.5,0.5,0.9,1,1.2,1.6c0.3,0.2,0.6,0.4,0.9,0.6c0.5,0.8,1.1,1.5,1.7,2.2c0.5-0.5,1-0.9,1.5-1.4
			c-0.1-0.2-0.2-0.4-0.2-0.6c-0.8-0.3-1-1.2-1.8-1.5c0-0.2-0.1-0.3-0.1-0.5c-0.5-0.1-0.6-0.5-1-0.8c-0.5-0.6-1-1.2-1.5-1.9
			c-0.3-0.4-0.6-0.9-0.7-1.4c-0.5,0.2-0.4-0.2-0.6-0.4c-0.4,0.1-0.3-0.3-0.6-0.4c-0.4-0.5-0.4-1.3-1.2-1.4c-0.4-0.1-0.8,0.1-1,0.5
			c0,0,0,0.1,0,0.1c-0.1,0.7,0.9,1.6,1.1,1.9C77.8,62.6,77.7,62.7,77.8,62.8z"/>
		<path id="Path_10962" class="st0" d="M307.3,61.3c0.1,1.2-0.8,1.4-1.5,1.7c-0.2,0.5-0.8,0.5-0.7,1.2c-0.2-0.1-0.3,0.1-0.4,0.1
			c-0.2,0.1-0.4,0.2-0.6,0.4c-0.4,0.4-1.2,1-1.7,1.5c-0.1,0.1-0.1,0.2-0.3,0.3c-0.4,0.3-0.8,0.7-1,1.1c-0.2,0-0.3,0.2-0.5,0.1
			c-0.1,0.7-1,0.4-1,1.3c-0.3,0-0.5,0-0.5,0.4c-0.7,0-0.9,0.4-1.2,0.8c-0.4,0.2-0.7,0.5-1,0.9c-0.8,0.5-1.4,1.1-2.1,1.6
			c-0.6,0.5-1.3,1.1-2,1.7c-0.6,0.5-1.3,1.6-2.4,0.9c0-0.2,0-0.4-0.1-0.4c0-0.9,0.6-1.1,1.1-1.5c0.4-0.5,0.8-0.9,1.3-1.3
			c0.5-0.3,0.9-0.9,1.5-1.1c0.1-0.3,0.5-0.3,0.5-0.8c0.4,0.1,0.4-0.6,0.8-0.2c0.1-0.2,0.2-0.4,0.1-0.6c0.5-0.1,0.7-0.5,1-0.8
			c0.3-0.3,0.7-0.5,1-0.7c0.6-0.6,1.3-1.1,2-1.5c0.2-0.3,0.4-0.6,0.6-0.9c0.7-0.1,0.8-0.7,1.4-0.9c1.1-1.1,2.5-1.9,3.5-3.1
			c0.4-0.1,0.8-0.4,1.1-0.8C306.5,60.7,307,60.9,307.3,61.3z"/>
		<path id="Path_10963" class="st0" d="M69.8,71.1c2,1.8,3.5,4.1,5.7,5.7c-0.1,0.5,0.4,0.4,0.5,0.5c-0.4,0.1,0.3,0,0.1,0.4
			c0.1,0,0.1,0.1,0.1,0.2c0.5-0.5,1-1.1,1.4-1.6c-0.2-0.4-0.6-0.6-0.8-1c-1-0.4-1.7-1.6-2.4-2.1c-0.1-0.1-0.3,0-0.4-0.1
			s-0.1-0.3-0.1-0.4c-0.4-0.4-0.9-0.9-1.4-1.3c-0.3-0.3-0.1-0.4-0.4-0.8c-0.4,0-0.5-0.4-0.6-0.8c-0.6,0.2-0.5-0.4-1-0.4
			c-0.8-0.8-1.5-1.6-2.2-2.5c-1.1-0.8-2-1.7-2.8-2.7c-0.5-0.4-0.9-0.7-1.4-1.1c-0.4-0.4-0.7-1.2-1.6-1c-0.1,0.2-0.3,0.3-0.5,0.4
			c-0.2,0.9,0.4,1.2,0.8,1.6C65.3,66.4,67.5,68.8,69.8,71.1z"/>
		<path id="Path_10964" class="st0" d="M48.8,68.6c0.5,0.1,0.7,0.5,1.3,0.6c0.9,1.7,3.1,2.1,4,3.7c0.5,0.1,0.7,0.5,1.2,0.6
			c0.3,1.1,1.4,1.3,2.1,2c-0.2,0.5,0.5,0.3,0.1,0.6c0.2,0,0.4,0,0.5,0.1c0.2,0.1,0.4,0.4,0.5,0.6c0.2,0.3,0.5-0.1,0.5,0.1
			c0,0.2,0.2,0.3,0.4,0.3c-0.1,0.6,0.3,0.3,0.4,0.5c-0.1,0-0.1,0.2,0.1,0.1c0.2,0,0,0.2,0,0.4c0.4-0.1,0.5,0.1,0.8,0.1
			c0.1,0.4,0.5,0.5,0.6,0.9c0.4,0,0.4,0.3,0.9,0.3c0.9,1.2,2.1,2.1,3.4,2.9c0.1,0.6,0.8,0.7,1,1.4c0.5,0.1,0.6,0.6,1,0.8
			c0.2,0.1,0.4,0.2,0.4,0.5c0.4-0.1,0.5,0.2,0.5,0.5h0.6c0,0.2,0.2,0.2,0.1,0.5c0.2,0,0.4,0,0.5,0.1c0.3-0.5,0.7-0.9,1-1.4
			c-0.8-0.7-1.6-1.4-2.5-2c-0.3-0.6-1.1-0.8-1.2-1.6c-0.3,0.1-0.4-0.3-0.5-0.4c-0.2-0.1-0.4,0.1-0.4-0.2c-0.3,0.1-0.4-0.3-0.5-0.4
			c-0.2-0.2-0.3-0.3-0.5-0.2c0.1,0,0.1-0.2-0.1-0.1c0-0.2,0-0.3-0.2-0.2c0-0.3-0.4-0.3-0.5-0.5c-0.1-0.3-0.2-0.5-0.4-0.8
			c-0.5-0.2-0.7-0.7-1.4-0.6c-0.2-0.3-0.5-0.6-0.9-0.9c-0.6-0.5-0.9-1.2-1.6-1.5c-0.8-0.9-1.7-1.7-2.7-2.2c-0.1-0.3-0.4-0.5-0.5-0.9
			c-0.5,0-0.6-0.4-0.9-0.6c-0.4-0.1-0.5-0.4-1-0.4c0.1-0.4-0.4-0.3-0.3-0.8c-0.4-0.1-0.8-0.3-1-0.7c-0.2,0.1-0.4,0.1-0.6,0
			c-1-0.8-1.7-2-3-2.5c-0.2-0.3-0.5-0.7-0.7-1c-0.7-0.4-1.3-0.9-1.9-1.5c-0.1-0.1-0.4-0.2-0.5-0.3c-0.1,0-0.1-0.2-0.1-0.2
			c-0.1-0.1-0.3,0-0.4-0.1c-0.4-0.3-0.5-0.8-1.1-0.6c-0.3,0.1-0.4,0.3-0.6,0.4v0.9C45.9,66.1,47.8,66.9,48.8,68.6z"/>
		<path id="Path_10965" class="st0" d="M315.6,71.9c0.2,1-0.7,1.1-1,1.6c-0.3,0.2-0.5,0.4-0.8,0.6c-0.2,0.1-0.8,0.1-0.6,0.6
			c-0.6,0.2-1.2,0.6-1.8,1c-0.5,0.4-1.1,0.7-1.6,1c-0.2,0.4-0.7,0.5-0.8,1.1c-0.3,0-0.4,0.2-0.8,0.1c0,0.5-0.4,0.6-0.8,0.8
			c-0.2,0.3-0.7,0.3-0.8,0.8c-0.6-0.2-0.6,0.1-1,0.2c-1.3,0.9-2.4,1.9-3.7,2.8c-0.6,0.5-1.2,1-1.9,1.4c-0.7,0.4-1,1.2-2.1,1.1
			c0-0.1-0.2-0.1-0.2-0.1c-0.4-0.4-0.3-1.4,0.2-1.6c1.4-0.9,2.7-1.9,4-2.9c0.1-0.3,0.4-0.4,0.6-0.6c0.3,0.1,0.4-0.4,0.8-0.6
			c0.2-0.2,0.4-0.3,0.6-0.5c1.1-0.9,2.3-1.6,3.5-2.2c0.2-0.2,0.4-0.5,0.5-0.8c0.8-0.1,0.9-0.9,1.7-0.9c0.1-0.4,0.5-0.4,0.9-0.6
			c0.4-0.2,0.9-0.8,1.4-1.1c0.4-0.3,0.9-0.5,1.3-0.8s0.6-0.6,1-0.9C314.9,71.3,315.4,71.5,315.6,71.9z"/>
		<path id="Path_10966" class="st0" d="M44.6,79.3c0,0.4-0.2,0.8-0.6,1c-0.9,0-1.2-0.6-1.7-0.9c-0.4-0.4-1-0.7-1.4-1.1
			c-0.3-0.1-0.4,0.4-0.4-0.1c-0.4,0-0.4,0-0.3-0.2c-0.8,0-1.1-0.6-1.6-0.9c-0.5-0.3-0.9-0.7-1.2-1.1c-0.3,0.1-0.3-0.2-0.6-0.1
			c-0.1-0.5-0.5-0.6-0.9-0.9c-0.3-0.3-0.5-0.5-0.9-0.8c-0.7-0.4-1.3-0.9-1.9-1.5c-0.3-1.6,1.5-1.2,2-0.6c0,0.2,0.2,0.3,0.5,0.3
			c0,0.5,0.1,0,0.4,0.1c0.1,0.4,0.6,0.4,0.6,0.9c0.4,0.2,0.8,0.4,1.1,0.6c0.3,0.2,0.8,0.3,0.9,0.8c0.5-0.1,0.4,0.4,0.9,0.3
			c-0.1,0.4,0.6,0.3,0.2,0.6c0.5,0.2,0.9,0.5,1.4,0.9c0.4,0.3,0.8,0.6,1.2,0.9C43.2,77.8,44,78.5,44.6,79.3z"/>
		<path id="Path_10967" class="st0" d="M280.7,84.8c0.1-0.1,0.2-0.2,0.3-0.2c0.6-0.3,1.1-0.8,1.5-1.2c0.4,0.1,0.3-0.4,0.8-0.3
			c-0.2-0.5,0.2-0.4,0.3-0.5c0.4-0.5,0.8-0.8,1.1-1.3c0.9-0.3,1.8-1.5,0.9-2.1c-1.3-0.1-1.6,0.7-2.2,1.1c-0.6,0.5-1.2,1.1-1.9,1.6
			c-0.6,0.5-1.2,1-1.8,1.5C279.9,83.9,280.3,84.3,280.7,84.8z"/>
		<path id="Path_10968" class="st0" d="M44.3,93.8c0.1,0.5,0,0.9-0.4,1.3c-0.9,0-1.7-0.4-2.4-1c0,0-0.8-0.5-0.9-0.3
			c-0.2-0.2-0.2-0.2-0.4-0.4c0,0-0.1-0.2-0.1-0.2c-0.1-0.1-0.3,0.1-0.4,0c-0.3-0.2-0.5-0.5-0.8-0.8c-0.7-0.3-1.2-0.6-1.8-1.1
			c-0.5,0.1-0.5-0.4-1.1-0.3c-0.2-0.2-0.4-0.8-0.8-0.5c-0.2-0.3-0.5-0.4-0.8-0.6c0-0.4-0.4,0.3-0.4-0.1c-0.2,0.1-0.3-0.5-0.4-0.1
			c-0.4,0-0.1-0.6-0.5-0.6c-0.2-0.1-0.4-0.3-0.5-0.5c-1-0.3-1.6-1-2.6-1.2c-1.3-1.4-3.4-2-4.7-3.4c0-1.8,1.3-1,2.1-0.5
			c0.8,0.5,2.4,1.4,3,1.9c0.3,0.4,1.1,0.3,1.2,0.9h0.8c0.3,0.5,0.5,0.4,1,0.6c1.1,0.7,2.2,1.5,3.2,2.4c0.4-0.1,0.5,0.2,0.9,0.1
			c0.1,0.6,0.8,0.6,1.3,0.9c0.1,0.4,0.6,0.5,0.9,0.8c0.3,0.2,0.5,0.6,1,0.6c0.5,0.6,1.4,0.8,1.9,1.4C43.4,93.1,43.9,93.4,44.3,93.8z
			"/>
		<path id="Path_10969" class="st0" d="M51.1,85.9c0.7,0.4,1.3,0.9,1.9,1.5c1.6,0.6,2.6,1.8,4,2.6c0.2,0.4,0.6,0.5,0.8,1
			c0.4,0,0.5,0.3,0.8,0.5c0.3,0.1,0.5,0.4,0.6,0.6c1.4,0.5,2.6,1.3,3.5,2.5c0.4,0.2,0.7,0.4,1.1,0.6c0.4-0.6,0.7-1.2,1.1-1.8
			c-0.1-0.1-0.1-0.2-0.1-0.3c-0.4-0.1-0.4,0.2-0.6,0C64,93,64,92.7,63.6,92.8c0-0.3-0.3-0.3-0.5-0.5c-0.3-0.2-0.1-0.3-0.4-0.5
			c-0.3-0.1-0.5-0.4-1-0.3c-0.1-0.4-0.4-0.5-0.6-0.8c-0.8-0.1-1.1-0.7-1.8-0.9c-0.2-0.3-0.4-0.6-0.6-0.9c-0.8-0.3-1.2-1-2-1.2
			c-0.2-0.3-0.5-0.6-0.9-0.8c-0.3-0.3-0.8-0.4-0.9-0.9c-0.3,0-0.5,0-0.5-0.4c-0.3-0.1-0.3,0.2-0.6,0.1c0.2-0.4-0.2-0.2-0.4-0.4
			c-0.1-0.1-0.2-0.3-0.4-0.4c-0.6-0.5-1.2-0.8-1.7-1.2c-0.3-0.2-0.4-0.7-0.9-0.6c-0.4-0.2-1.1,0.3-1,1
			C49.9,84.9,50.5,85.5,51.1,85.9z"/>
		<path id="Path_10970" class="st0" d="M319.8,85.3c0.2,1.3-0.9,1.4-1.5,1.9c-0.2,0.3-0.7,0.2-0.6,0.7c-0.4-0.2-0.7,0.2-1,0.4
			c-0.3,0.2-0.7,0.2-1,0.4c-0.1,0.1-0.3,0.3-0.4,0.4c-0.1,0.1-0.1,0-0.3,0.1s-0.8,0.3-0.8,0.8c-0.3,0-0.3,0.2-0.6,0.1
			c-0.2,0.6-1.1,0.6-1.4,1.3c-0.3,0.1-0.3-0.1-0.5-0.1c-0.4,0.3-0.9,0.5-1.4,0.8c-0.1,0-0.1,0.2-0.1,0.3c-0.3,0.2-0.7,0.4-1,0.6
			c-0.3,0.2-0.6,0.2-0.9,0.4c-1,0.8-2.2,1.4-3.4,1.9c-0.3-0.2-0.7-0.3-0.8-0.8c0-1,1.1-1.2,1.7-1.6c0.7-0.5,1.4-0.9,2.1-1.2
			c0.4-0.1,0-0.3,0.4-0.5c0.4,0,0.5-0.3,0.8-0.5c0.4-0.3,0.8-0.5,1.3-0.8c0.6-0.4,1.3-0.8,2-1.1c0.3-0.2,0.6-0.4,0.8-0.7
			c0.7,0,0.9-0.5,1.5-0.6c0.3-0.3,0.7-0.3,1-0.5c0.9-0.5,1.9-1.1,2.7-1.7C319,84.8,319.4,85,319.8,85.3z"/>
		<path id="Path_10971" class="st0" d="M287.3,91.3c-0.4,0.3-0.8,0.5-1.2,0.8c0.3,0.5,0.6,1,0.9,1.5c1.1-0.7,2.2-1.5,3.2-2.3
			c0.2-0.2,0.2,0,0.5,0c0-0.2,0.1-0.3,0.4-0.3c0-0.3,0.2-0.4,0.5-0.4c0.3-0.2-0.2-0.3,0.1-0.4c0.2,0,0.3-0.1,0.5-0.1
			c-0.1-0.4,0.2-0.4,0.3-0.6c0.8-0.2,1.1-1,2.1-1c0.2-0.9,1.1-1,1.5-1.6v-0.9c-0.2-0.1-0.4-0.2-0.5-0.4c-0.2,0-0.4,0-0.6,0
			c-0.6,0.5-1.2,1-1.9,1.4c-0.6,0.5-1.4,0.9-2.1,1.1c0,0.3-0.2,0.4-0.4,0.6c-0.5,0.2-1,0.5-1.4,0.9c-0.5,0.3-1.1,0.5-1.1,1.1
			c-0.3-0.2-0.2,0-0.5,0C287.3,91,287.7,91.2,287.3,91.3z"/>
		<path id="Path_10972" class="st0" d="M24.1,96.9c0,0.4,0,0.8-0.1,1.1c-1,0.5-1.6-0.5-2.4-0.3c-0.5-0.6-1.2-0.3-1.5-1.1
			c-0.4-0.1-0.8-0.3-1.1-0.5c-0.1-0.3-0.2-0.7-0.1-1c0.3-0.7,1.3-0.3,1.7-0.4c0.2,0.2,0.4,0.4,0.6,0.6c0.4-0.1,0.3,0,0.8,0
			C22.3,96.3,23.6,96.3,24.1,96.9z"/>
		<path id="Path_10973" class="st0" d="M328.6,97c-0.4-0.1-0.5,0.2-0.9,0.1c-0.3,0.2-0.7,0.4-1,0.6c-0.1,0.4-0.6,0.1-0.8,0.6
			c-0.2-0.1-0.3-0.1-0.3,0.1c-0.1-0.1-0.2-0.1-0.4-0.1c-0.7,0.3-1.3,0.7-1.9,1c-0.6,0.4-1.4,0.6-2.1,0.6c-1.2-1.4,1-2,1.9-2.5
			c0.2,0-0.1-0.2,0.1-0.2c0.4,0,0.5-0.4,1-0.5c0.3-0.3,0.7-0.5,1.1-0.5c0.2-0.3,0.7-0.3,0.9-0.6c1.1-0.1,1.7-0.7,2.6-1
			c0.8,0.2,1,0.6,0.9,1.1C329.8,96.5,328.6,96.4,328.6,97z"/>
		<path id="Path_10974" class="st0" d="M58.2,102.8c-0.1,0.3-0.3,0.6-0.6,0.8c-0.9,0.1-1-0.6-1.9-0.5c-0.1-0.4-0.5-0.5-0.6-0.9
			c-0.1,0-0.2,0-0.2-0.1c-0.4,0-0.7-0.2-1-0.4c-0.2,0.1-0.3-0.5-0.4-0.1c-0.1-0.1-0.2-0.3-0.2-0.1c-0.2-0.2-0.2-0.5-0.4-0.6
			c-1.2-0.5-2.3-1.2-3.2-2.1c0-2.1,2.2-0.6,2.7,0c0.2,0,0.4,0,0.4-0.1c0.1,0.1,0.4,0.6,0.5,0.3c0.8,0.4,1.2,1.1,2.2,1.2
			c0.1,0.3,0.4,0.6,0.6,0.8c0.5,0.4,1.1,0.6,1.6,1.1C58,102.1,58.2,102.4,58.2,102.8z"/>
		<path id="Path_10975" class="st0" d="M292.4,103.1c0.3-0.3,0.7-0.5,1.1-0.7c0.4-0.5,1.1-0.8,1.7-0.9c0.3-0.4,0.8-0.7,1.2-0.8
			c0-0.4,0-0.4,0.3-0.2c0.2,0,0.1-0.4,0.4-0.4c0.8-0.6,2.2-0.6,2-2.1c-0.3-0.3-0.8-0.5-1.3-0.4c-1.1,0.9-2.5,1.4-3.6,2.2
			c-0.4,0.3-0.4,0.1-0.9,0.3c-0.6,0.4-1.2,0.8-1.9,1.1C291.8,101.9,292.1,102.5,292.4,103.1z"/>
		<path id="Path_10976" class="st0" d="M49.3,110c0,0.4-0.2,0.8-0.5,1c-1.8-0.1-2.4-1.4-4.1-1.6c-0.2-0.3-0.8-0.3-1-0.6
			c-0.2-0.1-0.5-0.1-0.8,0c-0.1-0.2-0.2-0.3-0.3-0.5c-0.4,0-0.4,0-0.3-0.3c-0.5,0.1-0.9-0.3-1.4-0.5c-1.3-0.4-2.4-1.1-3.5-1.9
			c-0.4-0.1-0.6-0.2-1-0.3c-0.1-0.2-0.3-0.2-0.4-0.5c-0.4,0.1-0.7-0.2-1-0.4c-0.2-0.1-0.7-0.2-0.8-0.5c-0.6-0.2-1.2-0.5-1.8-0.9
			c-1-0.7-2.6-0.9-3.1-2c0-0.5,0.3-1,0.9-1c0,0,0,0,0,0c0.8,0.3,1.5,0.7,2.4,1c0.2,0.1,0.2,0.4,0.6,0.1c0.3,0.3,0.5,0.5,0.9,0.7
			c0.4,0.2,0.8,0.3,1,0.6c0.5,0,0.7,0.4,1.2,0.4c0.1,0.4,0.8,0.2,0.9,0.6h0.6c0.3,0.2,0.3,0.6,0.9,0.5c0.1,0.3,0.6,0.2,0.6,0.6
			c0.1-0.1,0.1-0.3,0.4-0.3c0,0.5,0.8,0.2,0.6,0.8c1.2,0.4,2.3,1,3.4,1.7c0.4,0.2,0.7,0.4,1.1,0.5c0.8,0.3,1.5,0.7,2.2,1.1
			C48,109,49,109.2,49.3,110z"/>
		<path id="Path_10977" class="st0" d="M303.6,109.3c-0.3-0.2-0.6-0.4-0.6-0.9c0.1-0.6,0.6-0.8,1.1-1.1c0.1-0.1,0.3-0.2,0.4-0.2
			c0.6-0.3,1.5-0.5,1.8-1.1c0.2,0.1,0.4-0.4,0.5,0c0.2-0.1,0.2-0.4,0.4-0.5c0.8-0.4,1.7-0.7,2.5-1c0.6-0.5,1.3-0.9,2.1-1
			c1.1-0.4,1.8-1.2,3.1-1.4c0,0.1,0.2,0.1,0.4,0.1c0.2,0.3,0.3,0.7,0.2,1.1c-0.4,0.7-1.5,0.6-1.7,1.4c-0.6,0.1-1.1,0.2-1.6,0.5
			c-0.4,0.3-1.1,0.3-1.1,0.9c-0.7-0.1-0.8,0.6-1.1,0.2c-0.2,0.1,0,0.2,0,0.4c-0.4-0.1-0.5,0.3-0.8,0c-0.9,0.5-1.8,0.9-2.7,1.4
			C305.6,108.6,304.6,109,303.6,109.3z"/>
		<path id="Path_10978" class="st0" d="M335.5,107.4c0.5,1-0.5,1.6-1.4,1.6c-0.4,0.4-1.3,0.4-1.5,1c-0.8,0.2-1.7,0.4-2.5,0.8
			c-0.2,0.1-0.4,0.3-0.6,0.4c-1,0.4-2.2,0.6-2.9,1.4c-0.5-0.1-0.9,0.1-1.3,0.5c-0.3,0.1-0.3-0.1-0.5-0.1c-0.7,0.4-1.4,0.7-2.2,0.9
			c-0.5,0.4-1.1,0.7-1.8,0.9c-0.2,0.1-0.3,0-0.5,0.1c-0.7,0.3-1.8,0.8-2.7,1.1c-0.5,0.2-1.5,1.1-2.2,0.4c0-0.1,0-0.2-0.1-0.3
			c-0.1-0.5,0.2-1.1,0.7-1.2c0,0,0.1,0,0.1,0c1.4-0.7,2.8-1.3,4.2-1.7c0.4-0.1,0.5-0.5,0.9-0.6c0.2,0.3,0.5-0.3,0.6-0.5
			c0.3,0.2,0.8-0.3,1.3-0.2c0.5-0.2,0.9-0.5,1.4-0.8c1-0.1,1.9-0.5,2.6-1.1c0.4,0,0.5-0.2,1-0.1c0.4,0.1,0.3-0.4,0.7-0.4
			c0.5,0.1,0.5-0.3,0.9-0.3c0.9-0.3,2.2-0.9,3.5-1.4C333.9,107.4,334.6,106.8,335.5,107.4z"/>
		<path id="Path_10979" class="st0" d="M26,112v1c-0.5,0.7-1.2,0.1-2.1,0.1c-0.5-0.1-0.7-0.5-1.1-0.8c-0.9,0-1.8-0.4-2.4-1
			c-1.3-0.3-2.5-0.8-3.5-1.6c-0.2-1.8,1.9-1,2.5-0.5c0.3,0.1,0.6,0.1,0.9,0c0.3,0.4,1,0.3,1.4,0.6c0.6,0.1,0.6,0.6,1.4,0.5
			C23.7,111.3,25.1,111.4,26,112z"/>
		<path id="Path_10980" class="st0" d="M43.8,121.2c0.3,0.2,0.4,0.6,0.7,0.8c0-0.1,0.2-0.3,0.3-0.1c-0.5,0,0.4,0.3,0.3,0
			c0.1,0.4,0.6,0.4,1.1,0.4c0.1,0.2,0.3,0.5,0.5,0.2c-0.1,0.5,0.5,0.2,0.8,0.3c0,0.4,0.3,0.4,0.6,0.5c0.2,0.3,0.4-0.1,0.8,0.1
			c0.5,0.4,1.2,0.7,1.8,0.7c0.2-0.6,0.4-1.2,0.6-1.7c-0.3,0-0.4-0.2-1-0.2c-0.2-0.2-0.5-0.2-0.5-0.5c-0.6,0.1-0.8-0.3-1.4-0.3
			c-0.9-0.8-2.3-1.1-3.5-1.6c-0.1,0-0.2-0.2-0.4-0.2c-0.6-0.3-1.4-0.6-1.9-0.7c-0.5-0.2-1-0.3-1.5-0.3c-0.1-0.1,0-0.3,0-0.3
			c-0.2-0.5-0.8-0.2-0.9-0.6c-0.4,0.1-0.8,0.1-1.1,0c-0.1-0.2-0.4-0.2-0.5-0.2c0,0-0.1-0.2-0.1-0.2c-0.2-0.1-0.3-0.1-0.5-0.1
			c-0.5-0.2-0.9-0.3-1.4-0.5c-0.3-0.1-0.6-0.3-0.9-0.4c-1.2-0.6-2.4-1-3.7-1.1c-0.2,0.3-0.5,0.5-0.4,1c0.1,0.6,0.7,0.6,1.1,0.9
			c1.7,0.4,2.9,1.3,4.6,1.6c0.2,0.3,0.6,0.4,0.9,0.6c0.5,0,0.7,0.3,1.2,0.3C40.7,120.3,42.4,120.6,43.8,121.2z"/>
		<path id="Path_10981" class="st0" d="M309.4,118.2c0.1,0.2,0.1,0.5,0.1,0.8c-0.1,0.9-1.2,0.5-1.4,1.4c-0.4-0.3-0.8,0.1-1.3,0.1
			c-0.3,0.1-0.6,0.3-0.8,0.6c-0.5-0.2-0.8,0.5-1.4,0.2c-1.4,0.4-2.3,1.3-4,1.4c-1.4-1.4,1-2,2-2.4c-0.1-0.5,0.5-0.2,0.5-0.3
			c0,0,0-0.2,0-0.3c0.1-0.1,0.4-0.1,0.5-0.1c0.4-0.3,0.9-0.4,1.4-0.5c0.4-0.3,1-0.5,1.5-0.5c0.5-0.3,1.2-0.4,1.6-0.8
			C308.7,117.8,309.1,117.9,309.4,118.2z"/>
		<path id="Path_10982" class="st0" d="M28.7,127.8c-1.2-0.1-2.2-0.9-3.4-0.6c-0.6-0.7-1.6-0.8-2.6-1.1c-0.7-0.4-1.5-0.5-2.2-0.5
			c-0.1-0.2-0.5-0.2-0.5-0.5c-0.4,0.2-0.6-0.1-1-0.1c-0.2-0.5-0.2,0.2-0.6-0.1c-0.1-0.3-0.2-0.3-0.4-0.1c-0.1-0.1,0-0.5-0.4-0.4
			c-1.3-0.5-2.7-0.6-3.9-1.1c-0.9-0.4-1.7-0.6-2.7-1c-0.3-0.1-0.6-0.2-0.9-0.4c-0.5,0-1-0.1-1.5-0.3c-0.4-0.4-0.3-1,0.1-1.4
			c0.1-0.1,0.3-0.2,0.5-0.2c1.7,0.4,3.5,0.9,5.1,1.6c0.3,0.1,0.9-0.1,1.1,0.4c0.9,0,1.9,0.1,2.7,0.5c0.9,0.2,1.8,0.6,2.6,1.1h0.9
			c1.2,0.7,2.6,1,3.9,1.6c0.7,0.2,1.5,0.3,2.1,0.6C29,125.8,30.1,127,28.7,127.8z"/>
		<path id="Path_10983" class="st0" d="M336.4,121.4c0,0.1,0,0.2,0.1,0.2c0.1,0.4-0.1,0.6-0.1,0.9c-0.5,0.3-1.1,0.5-1.8,0.6
			c-0.1,0.3-0.7,0.1-0.6,0.6c-1-0.1-2.1,0.5-3.2,0.6c-0.1,0.2-0.5,0.1-0.5,0.5c-0.4-0.2-0.6,0.3-0.8,0c-0.3,0.5-1.2,0.4-1.6,0.9
			c-0.2,0-0.2-0.1-0.2-0.3c-0.9,0.4-1.8,0.6-2.9,0.9c-1.6,0.6-3.2,1.1-4.9,1.4c-0.3-0.4-0.5-0.5-0.5-0.9c0-0.9,1.3-1,2.1-1.1
			c0.7-0.4,1.5-0.7,2.4-0.9c0.2,0,0-0.4,0.2-0.4c0.3,0.1,0.5-0.4,0.5,0.1c0.2-0.2,0.4-0.3,0.6-0.5c1.3-0.1,2.2-0.8,3.5-0.9
			c0.4,0,0.5-0.3,0.8-0.5c0.4,0,0.9-0.1,1.2-0.4c1,0,1.9-0.2,2.7-0.6C334.4,121.5,335.4,120.9,336.4,121.4z"/>
		<path id="Path_10984" class="st0" d="M44.5,131.3c0.3,0.5,0.2,1.1-0.3,1.5c-0.9,0.1-1.1-0.3-1.9-0.1c-0.2-0.4-0.7-0.4-1.1-0.6
			c-0.3-0.1-0.6-0.1-0.9,0c-0.1-0.2-0.4-0.3-0.6-0.3c-0.2-0.1-0.4-0.3-0.5-0.5c-1.3-0.3-2.6-0.7-3.9-1.3c0-0.2,0-0.4-0.1-0.4
			c0-0.3,0.1-0.6,0.4-0.9c0.9-0.3,2,0.2,2.8,0.5c0.1,0,0.1-0.2,0.1-0.2c0.5,0.2,0.7,0.2,1.4,0.5c0.6,0.1,0.8,0.6,1.6,0.5
			C42.4,130.6,43.4,131,44.5,131.3z"/>
		<path id="Path_10985" class="st0" d="M312.3,128.7c-1.6,0.8-3.5,1-5,1.6c-0.2,0-0.3-0.1-0.5-0.1c-0.3,0.2-0.6,0.3-0.9,0.5
			c-0.8,0.1-1.5,0.3-2.2,0.5c-0.2,0.1-0.3,0.2-0.5,0.2c0.2,0.6,0.3,1.2,0.5,1.8c0.1,0,0.2-0.1,0.3-0.1c0.3-0.1,0.7-0.1,1,0
			c0.1-0.5,1.1-0.3,1.2-0.6c0.5-0.1,1-0.3,1.5-0.5c1-0.4,2.1-0.7,3.2-0.8c0.3-0.1,0-0.6,0.4-0.3c0.5-0.7,2.3-0.4,2.2-1.5
			C313.5,129.1,313.2,128.6,312.3,128.7z"/>
		<path id="Path_10986" class="st0" d="M9.7,135.6c-0.4,0-0.8,0-1.1-0.2c-0.7,0.3-1.2-0.2-2-0.1c-0.4-0.6-1.5-0.5-1.9-1v-0.9
			c0.2-0.5,1.1-0.3,1.5-0.5c0.3,0,0.3,0.3,0.5,0.4c0.6,0,0.6-0.2,1,0c0.3,0,0.3,0.3,0.5,0.4C9.6,133.5,11.3,134.7,9.7,135.6z"/>
		<path id="Path_10987" class="st0" d="M39.7,143.1c0.6,0.1,1.2,0.1,1.8,0c0.2,0.1,0.3,0.4,0.4,0.4c0,0,0-0.2,0.1-0.1
			c0.2,0.1,0.4,0.3,0.6,0.4c0.7,0,1.4,0.1,2,0.3c0.1-0.6,0.3-1.1,0.4-1.6c-0.8-0.1-1.7-0.4-2.4-0.8c-0.6-0.1-1.3-0.2-1.9-0.4
			c-1,0.1-2.1-0.1-3-0.6c-0.5-0.1-1.2-0.1-1.4-0.5c-0.6,0.2-0.8-0.1-1.2-0.4c-0.2,0.6-0.4-0.1-0.9,0c-0.3-0.1-0.7-0.2-1-0.3
			c0.3-0.3-0.3,0-0.2,0c-0.3,0-0.5-0.1-0.8-0.3c-0.2-0.1-0.5-0.2-0.6-0.4c-0.8,0-1.5-0.2-2.4-0.1c-1.1-0.5-2.3-0.7-3.5-0.8
			c-0.6-0.4-1.3-0.7-2-0.9c-0.2,0-0.3-0.2-0.4-0.2c-0.3-0.1-0.7,0-0.9-0.3c-0.5-0.1-0.4,0.4-0.8,0.3c0,0-0.1-0.3-0.1-0.3
			c-0.4,0-0.8,0-1.4,0c-1.1-0.2-2.8-1.5-3.7-0.4c-0.2,1,0.6,1,1.1,1.4c0.7,0.1,1.3,0.3,1.9,0.6c1.4,0.1,2.8,0.3,4.1,0.6
			c0.3,0.2,0.7,0.3,1,0.6c0.9,0,1.3,0.5,2.4,0.4c0.5,0.4,0.8,0.2,1.2,0.5c0.3-0.3,0.2,0.2,0.6,0.1c0.3,0.2,0.4-0.1,0.8,0.1
			c1.1,0.4,2.1,0.2,3,0.9c1,0,1.9,0.3,2.7,0.7c0.6-0.1,0.9,0.2,1.5,0.1c0.2,0.3,0.8,0.2,1,0.5c0.5-0.1,0.7,0.2,1.3,0.1
			c0,0.1,0.1,0.1,0.1,0c0.1,0,0.1-0.1,0.3-0.1C39.3,143.1,39.4,143.2,39.7,143.1z"/>
		<path id="Path_10988" class="st0" d="M346.6,146.8v1c-0.5,0.5-1.7,0.4-2.5,0.6c-0.8,0.4-1.7,0.6-2.6,0.5c-0.7,0.2-1.5,0.3-2.2,0.3
			c-0.7,0-1.4,0.3-2,0c-0.3-0.4-0.3-0.8-0.1-1.3c0.3-0.5,1.5,0,1.6-0.8c0.2,0.2,0.7,0,0.9,0.3c0.1-0.1,0.2-0.1,0.4-0.1
			c0.6,0.1,0.7-0.6,1-0.2c0.3-0.3,0.9,0.1,0.9-0.4c0.2,0.1,0.2,0.4,0.6,0.3c0.9-0.1,1.7-0.3,2.6-0.4
			C345.6,146.3,346.2,146.4,346.6,146.8z"/>
		<path id="Path_10989" class="st0" d="M23.7,150.3c0.1,0.3-0.2,0.3-0.1,0.6c-0.5,0.7-1.6,0.2-2.4,0c-0.4-0.1-0.6,0.1-0.9,0.1
			c0,0-0.1-0.4-0.3-0.2c0,0,0,0.3-0.1,0.2c-1.2-0.4-2.7-0.4-3.7-0.9c-0.5,0-0.9,0-1.4,0.1c-0.4,0-0.5-0.3-0.7-0.4
			c-0.3,0-0.5,0.3-0.6-0.1c-0.5,0.3-0.9-0.2-1.2,0.1c-0.6-0.5-1.5-0.5-2.2-0.6c-0.4-0.1-0.7-0.2-1.1-0.3c-1.4-0.3-3.5-0.3-5-0.9
			c-0.5,0-1.2,0.1-1.5-0.1c-0.3-0.2-0.4-1-0.1-1.4c0.1,0,0.1-0.1,0.3-0.1c2.4-0.3,4,0.9,6.2,0.5c0.2,0.4,0.4,0,0.6,0.4
			c1.3-0.2,2.7,0.4,4.2,0.4c0.4,0.1,0.8,0.2,1.1,0.5c0.6-0.3,1.2,0,1.9,0c0.5,0.1,0.9,0.5,1.1,0.5c0.9,0.2,2.5,0.2,4,0.5
			C22.5,149.4,23.5,149.5,23.7,150.3z"/>
		<path id="Path_10990" class="st0" d="M330.5,149.1c-1-0.4-2.1,0.4-3.1,0c-2.5,0.8-5.7,0.9-8.4,1.5c-0.4,0.1-0.3-0.4-0.7-0.2
			c0,0.5-0.6,0.1-0.8,0.4c0,0,0.2,0.1,0,0.1c0.1,0-0.5,0-0.4,0c-0.6,0-0.9-0.2-1.2,0.3c-0.2-0.2-0.5-0.1-0.9-0.1
			c-0.2,0-0.1,0.3-0.4,0.3c-1.8,0.4-3.7,0.6-5.6,0.5c0,0.6-0.4,0.2-0.6,0.3c0,0-0.1,0.2-0.1,0.3c-0.3,0.1-0.6,0.2-0.9,0.3
			c0.1,0.6,0.1,1.2,0.2,1.8c0.1,0,0.2,0,0.2,0c0.9-0.7,2.5-0.4,3.6-0.9c0.9,0.2,1.9,0.1,2.8-0.3c0.2,0.2,0.3,0,0.7,0.1
			c0.3-0.1,0.7-0.3,1-0.4c1.1,0,2.3-0.2,3.4-0.4c1.1-0.1,2.2-0.3,3.2-0.8c0.4,0.3,0.7-0.1,1,0.1c0.1-0.2,0.4-0.3,0.6-0.4
			c1.1-0.1,2.2-0.3,3.2-0.6c1.4,0,2.8,0,3.4-0.8C330.8,149.8,330.7,149.4,330.5,149.1z"/>
		<path id="Path_10991" class="st0" d="M35.6,153.5c0.1-0.3,0.8,0,1.1-0.1c0.2,0.1,0.5,0.2,0.6,0.4c0.3-0.1,0.7-0.1,1-0.1
			c0.3-0.5,0.6-1,1-1.5c-0.9-0.5-2.6-0.3-3.3-1c0,0.2-0.3,0.1-0.4,0.3c-0.4-0.5-1.5-0.3-2-0.6c0,0.3-0.3,0.3-0.4,0
			c-0.4-0.2-0.1,0.4-0.5,0.3c-0.9-0.2-3-1-2.7,0.8c0.7,1.1,2.8,0.7,4.1,1.1c0.2,0,0.1,0.4,0.4,0.4C34.8,153.2,35.3,153.3,35.6,153.5
			z"/>
		<path id="Path_10992" class="st0" d="M348.2,160.3v0.9c-0.4,0.4-0.9,0.5-1.4,0.5c-0.1,0.1-0.5,0-0.4,0.4c-0.4-0.1-0.7-0.2-1.1-0.2
			c-0.7,0.1-1.4,0.4-1.9,0.4c-0.4,0.1-0.3-0.2-0.5-0.2c-1.3,0.2-2.7,0.3-4,0.4c-0.2-0.4-0.5-0.4-0.5-0.9c0-1.5,2.5-0.5,3-1.3
			c0.2,0,0.3,0,0.3,0.3c0.1-0.3,0.7-0.2,0.9-0.4c2.1-0.1,3.1,0,5.2-0.1C347.9,160.1,348.1,160.2,348.2,160.3z"/>
		<path id="Path_10993" class="st0" d="M14.1,161.1c0,0.3,0.2,0.5,0.1,0.9c-0.1,0-0.1,0.2-0.1,0.2c-0.3,0.5-1.6,0-1.9,0.5
			c-0.9-0.6-2.7-0.3-3.1-0.2c-0.2,0,0-0.4-0.3-0.4c-1.4,0.1-2.9-0.1-4.2-0.5c-0.1-0.3-0.2-0.7-0.1-1c0.5-0.7,2-0.3,2.9-0.3
			c0.1,0,0.1-0.2,0.3-0.3c0.3,0.4,0.8,0,1.5,0.1c1,0.3,1.9,0,2.7,0.5C12.7,160.7,13.7,160.7,14.1,161.1z"/>
		<path id="Path_10994" class="st0" d="M332.1,161.5v1c-0.3,0.4-1,0.4-1.8,0.4c-0.3,0-0.4,0.2-0.6,0.3c-0.3-0.3-0.3,0.1-0.4,0.3
			c-0.5-0.3-1.5,0-2-0.3c-0.6,0.2-1.6,0.2-2.2,0.4c-0.4,0-1.4,0.2-2.1,0.3c-0.3,0.3-0.3-0.3-0.8-0.3c-0.4,0.1-0.8,0.1-1.2,0.3
			c-2.1,0-4.5,0.3-6.2,0.2c-0.3-0.3-0.4-0.7-0.4-1.1c0.1,0,0.1-0.2,0.1-0.2c1.2-0.5,3.1-0.3,4.6-0.5c0.5,0.2,0.2-0.3,0.6-0.2
			c0.2,0.3,0.4-0.1,0.5,0.2c0.3-0.1,0.3-0.6,0.6-0.2c0.9-0.4,2.4-0.2,3.6-0.3c0.4,0.1,0.5-0.2,0.8-0.2c1.4,0.2,2.8,0.1,4.2-0.1
			C330.6,161.4,331.5,160.9,332.1,161.5z"/>
		<path id="Path_10995" class="st0" d="M34.9,164.5c0.1-0.7,0.2-1.3,0.4-2c-0.3,0-0.6-0.1-0.9-0.1c-1.2-0.1-2.4-0.2-3.2-0.4
			c-0.5-0.1-0.5,0.3-1,0.2c-0.2-0.1,0.1-0.2-0.1-0.2c-0.2-0.1-0.5,0.2-0.6-0.1c-0.5-0.1-0.3,0.4-0.9,0.2c-2.4-0.3-4.8-0.5-7.2-0.6
			c-0.6,0-0.8,0.9-0.5,1.5c1.4,0.5,3,0.3,4.6,0.4c2.6,0.6,6,0.4,8.7,0.9c0.1,0.1,0.3,0.2,0.4,0.4C34.6,164.5,34.7,164.5,34.9,164.5z
			"/>
		<path id="Path_10996" class="st0" d="M0,174.9V174c0.1,0,0.1-0.1,0.1-0.3c1.9-0.5,4.2-0.1,6.4-0.1c0.5,0,0.6-0.2,1-0.2
			c0.5,0,0.4-0.2,0.6,0.1c0.3,0.1,0.3-0.2,0.5-0.2c0.1,0.4,0-0.3,0.4-0.1c1.5,0.2,3.1,0.3,4.6,0.3c0.5,0,1.1,0.1,1.2,0.1
			c0.4,0,0.6-0.2,1-0.2c0.5,0,1.4,0.1,1.7,0c0.2,0,0.3,0.1,0.4,0.1c0.3,0,0.7,0,1,0c0.3,0.1,0.6,0.2,0.9,0.2
			c1.4,0.1,3.2-0.3,4.6-0.1c0.6,0.1,1.2,0.2,1.4,0.8c0,1.7-1.6,0.8-2.9,0.9c-0.3-0.1-0.6,0.4-0.8,0c-0.3,0-0.1,0.5-0.6,0.4
			c-1.9-0.3-3.7-0.4-5.6-0.3c-0.1,0.1-0.9,0.3-1,0c-0.5-0.2-0.6,0.5-0.9,0.1c-0.3-0.1-0.7-0.1-1,0c-0.2,0-0.4,0-0.6,0
			c-0.2,0-0.3,0-0.5,0c-0.6,0-1.1-0.2-1.7-0.2c-1.9-0.1-4.1,0.2-6.1,0.1c-1.3-0.1-2.6,0-3.7-0.1C0.1,175.2,0.1,174.9,0,174.9z"/>
		<path id="Path_10997" class="st0" d="M314.9,173.5c-1.8,0.1-3.6,0.1-5.5,0c0.1,0.6,0.1,1.2,0.1,1.8c0.7,0.1,1.5,0.2,2.2,0.3
			c0.3,0.1,0.3-0.2,0.5-0.3c0.3-0.1,0.3,0.1,0.6,0c0.5-0.1,0.9-0.2,1.4-0.2c1.1,0,2.1,0.5,2.2-0.5
			C316.7,173.7,315.9,173.5,314.9,173.5z"/>
		<path id="Path_10998" class="st0" d="M344.7,174.1c0.4,1.6-1.6,1-2.6,1c-0.2,0-0.2,0.1-0.4,0.1c-0.1,0-0.3-0.1-0.3-0.1
			c-0.3,0.1-0.2,0.2-0.5,0.2c-0.4,0-0.8-0.1-1.3-0.1c-0.8,0-1.7,0-2.5-0.1c-0.4,0.1-0.9,0.1-1.1,0.4c-0.3,0-0.5-0.1-0.8-0.3
			c-0.3,0.1-1,0.2-1.2,0c0.1,0.5-0.7-0.2-0.7,0.4c-0.4-0.3-0.8-0.4-1.2-0.5c-2.2,0.1-4.5,0.1-6.7,0c-0.8,0-1.7,0.4-2.4-0.1
			c0-0.3-0.2-0.5-0.1-0.9c0.1-0.6,1-0.4,1.5-0.6h4.5c0.2,0,0.2-0.2,0.4-0.2c0.2,0.1,0.7,0,0.9,0.2c0.2-0.3,0.7-0.4,0.9,0
			c0.1-0.1,0.2-0.4,0.6-0.2c1.5,0.2,2.8-0.1,4,0.2c0.4,0,0.6-0.3,1-0.2c1,0.1,1.9,0.2,3.1,0.2c1.1,0,2.4,0,3.7,0
			C343.9,173.7,344.7,173.6,344.7,174.1z"/>
		<path id="Path_10999" class="st0" d="M332.1,186.1c-0.6-0.4-1.4-0.2-2.1-0.2c-1.4-0.1-2.9-0.5-4.2-0.5c-0.3-0.1-0.6-0.1-0.9,0
			c-0.1,0-0.2-0.1-0.2-0.1c-0.2,0-0.4,0-0.6,0c-0.5,0-1-0.2-1.5-0.4c-0.2,0.3-0.9,0-1.1,0.3c-1.6-0.3-3.2-0.5-4.9-0.5
			c-0.4-0.2-0.8-0.3-1.2-0.4c-0.2,0.3-0.5,0-0.9,0.4c0.1-0.6-0.4,0.1-0.4-0.2c-0.4-0.1-0.2,0.4-0.6,0.2c-1.1-0.3-2.2-0.4-3.3-0.4
			c0,0.6,0,1.1,0,1.7c0.4,0,0.8,0,1.2,0c1.3,0.4,2.7,0.6,4,0.4c0.4,0,0.6,0.2,1,0.2c0.8,0,1.7,0.1,2.5,0.4c0.2,0,0.4-0.1,0.6,0.1
			c0-0.4,0.5,0,0.8,0c0.4,0,0.7-0.1,1-0.1c0.2,0.1,0.5,0.2,0.7,0.2c0.2-0.4,0.8,0.1,1.3-0.2c1.3,0.2,2.6,0.3,3.9,0.4
			c0.3,0.1,0.5,0.2,0.8,0.4c0.9-0.5,2.8,0.2,4.2-0.3C332.2,187,332.2,186.5,332.1,186.1z"/>
		<path id="Path_11000" class="st0" d="M36.8,184.3c-0.2,0-0.3,0-0.5,0c-0.2,0-0.4,0-0.6,0c-1-0.1-2,0-3.5,0
			c-0.4,0.1-0.6,0.4-1.1,0.4h-3.4c-0.8,0.3-2.1,0.2-2.9,0.6c0.3-0.2-0.2-0.4-0.2-0.1c-0.2-0.1-0.5-0.2-0.8-0.3
			c-0.2,0.2-0.3,0.4-0.8,0.4c-2.1-0.1-3.4,0.6-5.5,0.5c-0.2,0.2-0.9,0-0.9,0.5c-0.3,0.1,0,0.6-0.1,0.9c0.3,0.5,1.8,0.5,2.4,0.3
			c1.4,0,2.8-0.4,4.4-0.5c1.8-0.1,3.7,0.1,4.9-0.4c0.4-0.2,0.1,0.4,0.5,0.3c0.6-0.1,1.3-0.1,1.9,0c0.1-0.4,0.2-0.2,0.4,0
			c0.3-0.4,0.9-0.3,1.5-0.4c0.7-0.2,1.3-0.3,2-0.4c0.6,0,1.3,0,2,0c0.3,0,0.6,0,0.8,0C37.1,185.5,37,184.9,36.8,184.3z"/>
		<path id="Path_11001" class="st0" d="M10.1,186.9c0.3,0.5,0,0.8-0.1,1.2c-0.5,0.2-1.4,0-1.6,0.5c-0.4-0.1-0.8-0.2-1.2-0.2
			c-0.4,0.1-0.8,0.2-1.2,0.4c-0.3-0.1-0.4-0.2-0.6,0.1c-0.2-0.1-0.2-0.4-0.6-0.2c-1.4-0.1-3,0.5-4,0c-0.1-0.4-0.2-0.7-0.1-1.1
			c0.5-0.5,1.7-0.4,2.6-0.5c0.3,0.1,0.2-0.2,0.4-0.3c0.5,0.1,0.9,0,1.4-0.1c0.7-0.1,1.1,0.3,1.4-0.1c0.5,0.2,0.7-0.1,1.3,0.3
			C8.3,186.6,9.6,186.3,10.1,186.9z"/>
		<path id="Path_11002" class="st0" d="M348.2,187.6v0.8c-0.2,0-0.1,0.3-0.3,0.4c-0.6,0.3-1.3-0.2-1.7,0.3c-0.5,0-0.7-0.3-1.1-0.4
			c-0.7,0.1-1.3,0.2-2,0.2c-0.1,0-0.1-0.2-0.1-0.4c-1.5-0.2-3.3,0-4.4-0.6c0-0.2,0-0.4-0.1-0.5c0-0.5,0.4-0.6,0.5-0.9
			c2.3,0.3,3.4-0.2,5.1,0.4c0.3-0.2,0.4-0.3,0.8-0.1c1,0.2,2.1,0.4,3.1,0.5C348,187.4,348.1,187.5,348.2,187.6z"/>
		<path id="Path_11003" class="st0" d="M40.3,194.6c-0.6,0.1-1.1,0.2-1.7,0.3c-0.4,0.1-0.5-0.1-0.8-0.1c0,0.2-0.1,0.4-0.2,0.4
			c0,0-0.2-0.1-0.1-0.1c-1,0.3-2.5,0.3-3.4,0.7c-0.2,0.4-0.2,1,0.1,1.4c0.8,0.3,1.6-0.1,2.5-0.2c1.2-0.2,2.6-0.1,3.5-0.6
			c0.2,0.1,0.5,0.1,0.7,0C40.7,195.8,40.5,195.2,40.3,194.6z"/>
		<path id="Path_11004" class="st0" d="M346.6,201.3v0.8c-0.9,1-2.1-0.3-3.6,0c-0.3,0-0.5-0.1-0.8-0.2c-0.2-0.3-0.4,0.2-0.4-0.3
			c-0.7,0.4-1,0-1.7-0.1c-0.4-0.1-0.5,0.2-0.9,0.1c-0.3-0.1-0.5-0.1-0.8-0.2c-0.6-0.3-1.1-0.4-1.8-0.5c-1,0-2-0.2-3-0.5
			c-0.2,0.1-0.1,0.4-0.5,0.3c-0.7-0.4-2-0.3-2.9-0.6c-0.2,0.1-0.3,0.2-0.5,0.2c-0.4-0.1-0.6-0.4-1.1-0.4c-0.4,0.2-0.1-0.4-0.4-0.4
			c-1.5,0.4-3.2-0.6-5-0.8c-0.5,0-1,0.1-1.5,0c-0.6-0.1-1.4-0.2-2.2-0.4c-0.8-0.1-1.5-0.3-2.2-0.4c-1.5-0.1-2.9-0.4-4.2-1
			c-0.1-0.4,0-0.9,0.3-1.2h0.2c0.1,0,0.1-0.1,0.3-0.1c2.5,0.7,5.4,0.8,8,1.4c0.4,0.1,0.5-0.1,0.6-0.2c0.6,0.1,0.7,0.4,1.1,0.1
			c0.3,0.1,0.4,0.3,0.6,0.4c0.3-0.1,0.5-0.1,0.8-0.2c0.1,0.4,0.5,0.1,0.9,0.4c0.4,0,0.9,0.1,1.2,0.3h1.6c1,0.6,3,0.3,4,1
			c1.6-0.6,2.5,0.7,3.9,0.3c0.5,0.4,0.8,0.3,1.5,0.4c0.4,0.1,0.7,0.3,1,0.5c1.5-0.2,2.9,0.1,4.2,0.8c0.5-0.1,1-0.1,1.5,0
			C345.4,200.8,346.3,200.7,346.6,201.3z"/>
		<path id="Path_11005" class="st0" d="M27.5,197.1c0,0.3,0.2,0.4,0.3,0.6c-0.1,0.7-0.6,0.9-1.4,1c-1.2,0.3-2.9,0.3-4.1,0.6
			c-0.2,0-0.5-0.1-0.6,0c0,0,0,0.4-0.3,0.2c-0.5,0-0.4,0.2-0.6-0.1c-0.3,0.5-1.2,0.3-1.8,0.6c-1.1,0.3-2.3,0.4-3.5,0.4
			c-0.5,0-0.6,0.3-1,0.4c-2.2,0-3.5,0.5-6,0.6c-0.8,0.2-1.8,0.7-2.4,0v-1c0.8-0.5,1.8-0.7,2.7-0.8c0.3-0.2,0.4,0.1,0.6-0.2
			c1.5,0.1,2.4-0.4,3.9-0.4c0.4-0.1,0.9-0.3,1.2-0.5c0.2,0,0.4,0,0.6,0.1c0-0.2,0.4-0.4,0.4-0.1c0.2,0,1-0.4,0.9,0
			c0.1,0,0.1-0.2,0.1-0.4c0.4,0.3,0.9-0.2,1.1,0.3c1.3-0.6,3.3-0.5,4.7-1C24.4,197.7,25.8,196.7,27.5,197.1z"/>
		<path id="Path_11006" class="st0" d="M43.8,204.8c-0.2,0.1-0.4,0.1-0.6,0.2c-0.7,0.1-1.4,0.1-2,0.2c-0.3,0.1-0.4,0.4-0.8,0.4
			c-1.5,0.1-3,0.4-4.5,0.9c-0.6,0.2-0.7,0.5-1.1,0.5c0.1,0,0.1-0.2-0.1-0.1c0,0.1,0,0.1-0.1,0.1c-0.6-0.1-0.5,0.3-0.9,0.4
			c-1,0.1-1.9,0.3-2.9,0.6c-0.9,0.2-2.1,0.1-2.6,0.9c0,0.4,0,0.7,0.3,1c1.6,0.3,3.2-0.4,4.7-0.8c0.8-0.2,1.6-0.3,2.4-0.5
			c0.8-0.2,1.6-0.5,2.4-0.6c0.5-0.2,0.2,0.1,0.6,0.1c0.3-0.4,0.7,0.1,0.9-0.5c0.8,0.4,1-0.5,1.9-0.1c0.5-0.5,1.5-0.6,2.2-0.8
			c0.1,0,0.1,0,0.2-0.1c0.1-0.3,0.3-0.6,0.5-0.9C44.1,205.5,44,205.1,43.8,204.8z"/>
		<path id="Path_11007" class="st0" d="M320.5,209.1c0.1,0.6-0.3,0.7-0.5,1c-0.5,0-0.9-0.1-1.4-0.3c-0.2,0-0.2,0.1-0.2,0.3
			c-0.5-0.2-1.1-0.4-1.6-0.4c-0.4-0.6-1.5-0.5-1.9-1c-0.1-0.5,0-0.9,0.4-1.3c0.5-0.2,1,0.3,1.1-0.1c0.3,0,0.2,0.3,0.5,0.4
			c0.5,0.2,0.4-0.2,1,0c0.3-0.1,0.2,0.3,0.4,0.4C319.2,208.2,320.3,208.2,320.5,209.1z"/>
		<path id="Path_11008" class="st0" d="M22.1,211.5c-0.2,0.5-1,0.5-1.4,0.8c-0.3,0-0.6,0.1-0.9,0.3c-0.1,0.3-0.5-0.3-0.4,0.4
			c-1.4-0.2-2.9,0.2-4.1,0.9c-0.3,0.1-0.3-0.1-0.5-0.1c-0.4,0.5-1,0.2-1.6,0.6c-0.2,0-0.2-0.1-0.3-0.3c-2,0.7-4.3,1-6.4,1.5
			c-0.4,0.4-1.6,0.4-1.9-0.1c0-0.3,0-0.7,0.1-1c1.4-0.6,2.8-1,4.2-1.1c0.3,0,0.3-0.2,0.5-0.4c0.2,0,0.4,0,0.4-0.1
			c0.2,0,0.2,0.1,0.3,0.3c0.2-0.4,0.5-0.4,0.9-0.5c1.1-0.3,2.1-0.5,3.2-0.6c0.3-0.1,0.5-0.2,0.7-0.4c0.5,0,1,0.1,1.1-0.2
			c0.5,0.3,0.6,0,1-0.1c0.2,0.2,0.3,0,0.7,0c1-0.2,2-0.5,3-0.9h0.3c0.5,0,0.9,0.5,0.9,1C22.1,211.3,22.1,211.4,22.1,211.5z"/>
		<path id="Path_11009" class="st0" d="M340,213.5c0.1,0.4,0.1,0.9-0.1,1.2c-1.2,0.1-2.3-0.1-3.4-0.6c-1.7,0.1-3.3-0.6-5.1-1
			c-0.8-0.2-1.7-0.5-2.5-0.8s-1.8-0.3-2.2-1c-0.1-0.7,0.2-1,0.6-1.1c1,0,1.6,0.5,2.2,0.2c0.3,0.3,0.8,0.4,1.1,0.6
			c1.4-0.1,2.3,0.5,3.3,0.4c0.2,0.1,0.3,0.4,0.5,0.5c1,0.2,2,0.4,3,0.6C338.3,212.8,339.1,213.1,340,213.5z"/>
		<path id="Path_11010" class="st0" d="M36.6,218.5c0.3,0.4,0.4,0.6,0.4,1c-0.1,0.8-1.3,0.7-1.6,1.3c-0.5,0-1,0.1-1.5,0.3
			c-0.1,0.1-0.5,0-0.4,0.4c-0.6,0.1-0.6,0-0.9,0.2c-0.3,0.3-0.2-0.1-0.5-0.1c-1.3,0.6-2.7,1-4.1,1.1c-0.4-0.4-0.5-0.9-0.2-1.4
			c0.7-0.4,1.4-0.6,2.1-0.8c0.5-0.4,1.3-0.6,1.9-1h0.8c0.4,0.1,0.3-0.4,0.8-0.4C34.2,219.3,35.1,218.4,36.6,218.5z"/>
		<path id="Path_11011" class="st0" d="M311.6,230.3c-0.8-0.3-1.7-0.7-2.4-1c-0.2-0.1-0.3-0.2-0.5-0.3c-0.3-0.2-0.6-0.3-1-0.5
			c-0.6-0.3-1.3-0.6-1.9-1c-0.4,0-0.5-0.2-1-0.1c-0.3-0.3-0.6-0.5-1-0.6c-0.2,0.6-0.5,1.2-0.7,1.9c0.4,0.3,1,0.3,1.5,0.6
			c1.7,0.5,3.4,1.3,4.9,2.2c0.2-0.6,0.2,0.2,0.8,0c0.7,0.5,1.5,0.8,2.4,0.9c0.3-0.3,0.7-0.4,0.6-1
			C313.1,230.7,312.2,230.7,311.6,230.3z"/>
		<path id="Path_11012" class="st0" d="M21.6,223.8c0.3,1.7-1.6,1.2-2.1,2c-0.6,0-1.1,0.1-1.6,0.4c-0.4,0.1-1,0.2-1.2,0.6
			c-0.5,0-0.4-0.2-0.6,0.1c-0.5-0.2-0.4,0.3-0.8,0.3c-0.1-0.2-0.1,0-0.1,0.1c-0.4,0.1-0.3-0.4-0.6-0.1c-0.9,0.4-1.8,0.6-2.7,0.9
			c-0.9,0.4-1.9,0.7-2.9,0.8c-0.2-0.3-0.7-0.7-0.4-1.1c0.2-0.6,1.2-0.8,1.9-1c0.7-0.3,1.6-0.3,2-0.9c1.2-0.2,1.9-0.9,3.2-0.9
			c0.4,0,0.4-0.3,0.8-0.4c0.9-0.1,1.8-0.3,2.6-0.6C19.8,223.7,20.9,223.1,21.6,223.8z"/>
		<path id="Path_11013" class="st0" d="M54.9,234c-1.1,0.7-2.3,1.2-3.5,1.6c0,0.3-0.2,0.6-0.5,0.8c-0.1,0.1-0.1-0.1-0.1-0.1
			c-0.2,0-0.3,0.4-0.6,0.2c0.1,0.4-0.2,0.4-0.4,0.5c-0.5,0.3-1.1,0.5-1.8,0.6c-0.8,0.6-1.7,1.1-2.6,1.5c-0.7,0.3-1.5,0.5-1.5,1.1
			c0,0.3,0.1,0.6,0.4,0.9c2.2-0.1,3.3-1.2,4.7-2c1.2-0.3,2.4-0.9,3.4-1.8c0.8-0.4,1.7-0.7,2.5-1.1c0.2-0.2,0.2,0.1,0.6,0
			c0.1-0.2,0.3-0.3,0.4-0.4C55.7,235.2,55.3,234.6,54.9,234z"/>
		<path id="Path_11014" class="st0" d="M316.6,245.9c-0.9-0.5-1.9-1-2.9-1.4c-0.3-0.3-0.7-0.6-1.1-0.9c-0.4-0.1-0.8-0.1-1.1-0.2
			c-0.7-0.6-1.5-1.1-2.4-1.4c-1.3-0.6-2.4-1.2-3.6-1.7c-0.1-0.2-0.2-0.3-0.2-0.5c-0.7,0.1-0.7-0.8-1.4-0.4c0.3-0.4-0.6-0.3-0.6-0.8
			c-0.6,0.1-0.5-0.4-1.1-0.2c-0.2-0.3-0.5-0.4-0.8-0.6c-0.5-0.1-0.6,0-1-0.1c-0.3-0.2-0.6-0.3-0.9-0.4c-0.3,0.6-0.5,1.1-0.8,1.7
			c0.3,0.1,0.6,0.2,0.7,0.5c0.6,0,0.9,0.5,1.6,0.4c0.9,0.6,2,1.3,2.9,1.8c0.8,0.4,1.6,0.9,2.4,1.4c0.3,0.1,0.7,0.2,1,0.4
			c0.3,0.3,0.7,0.2,0.7,0.5c0.4-0.1,0.9,0,1.2,0.1c-0.5,0.5,0.6,0,0.4,0.6c0.5-0.2,0.8,0.3,1.1,0.5c0.4,0,0.8,0.1,1.1,0.3
			c0.4,0.2,0.7,0.5,1,0.8c1.3,0.5,2.4,1.2,3.7,1.6c0.5,0.5,1.2,0.8,1.9,0.9C320.1,247.4,317.8,246.2,316.6,245.9z"/>
		<path id="Path_11015" class="st0" d="M335.6,240.8c0,0.5-0.4,0.6-0.5,0.9c-0.7,0-1.3-0.2-1.9-0.6c-0.2-0.1-0.6,0.1-0.6-0.1
			c0-0.2-0.2,0-0.3,0.1c-0.8-0.7-2-1-2.9-1.6c-0.4,0-0.5-0.2-1-0.1c-0.1-0.1-0.3-0.1-0.2-0.4c-0.7,0.2-1.3-0.4-1.8-0.3
			c-0.2,0-0.3-0.2-0.3-0.5c-1.3-0.4-2.5-1-3.7-1.5c-0.6-0.3-1.2-0.5-1.9-0.8c-0.6-0.2-1.2-0.5-1.6-1c-0.1-0.4,0.1-0.8,0.4-1.1
			c0.9,0.1,1.8,0.3,2.6,0.8c0.7,0.2,1.3,0.5,1.9,0.9c0.2,0,0.3-0.2,0.5-0.1c0,0.3,0.5,0.1,0.4,0.5c0.2-0.1,0.4-0.2,0.6-0.1
			c0.6,0.6,1.8,0.6,2.4,1.2c0.6,0.1,1.3,0.3,1.9,0.5c0.4,0.2,0.8,0.4,1.1,0.6c0,0,0.1-0.1,0.3,0c0.2,0.2,0.4,0.4,0.6,0.6
			c0.8,0.2,1.5,0.5,2.2,0.9C334.5,239.8,335.5,240,335.6,240.8z"/>
		<path id="Path_11016" class="st0" d="M60.1,243.1c-0.3,0.2-0.6,0.4-0.9,0.7c-0.4,0.1-0.8,0.3-1.1,0.6c-0.4-0.1-0.3,0.3-0.5,0.4
			c-0.1-0.3-0.2,0.3-0.6,0.1c0,0.3,0,0.5-0.3,0.5c-1.1,0.9-2.6,1.4-3.6,2.4c-0.1,0.5,0,0.9,0.4,1.2c0.4,0.1,0.8,0,1.1-0.2
			c0.3-0.2,0.7-0.4,1-0.6c0.1-0.1,0.1,0,0.2-0.1c0.5-0.3,0.9-0.6,1.4-0.9c1.2-0.8,2.3-1.4,3.5-2.1c0.2,0,0.2,0.2,0.4,0.1
			c0-0.1,0-0.1,0-0.2C60.8,244.4,60.4,243.7,60.1,243.1z"/>
		<path id="Path_11017" class="st0" d="M38.5,243.6c0.2,1.3-0.8,1.3-1.5,1.8c-0.2,0.3-0.8,0.2-0.8,0.8c-0.5,0-0.9,0-1,0.4
			c-0.5,0.1-1,0.2-1.5,0.5c-0.4,0.2-1,0.4-1.1,0.9c-0.7-0.1-0.6,0.2-1.1,0.5c0-0.3-0.3,0.1-0.4,0.3c-0.2,0.1-0.5,0-0.5,0.4
			c-0.1-0.1-0.3-0.1-0.5-0.1c-1.1,0.7-2.3,1.3-3.5,1.8c-1.1,0.6-2.3,1.2-3.5,1.6c0-0.2-0.4-0.1-0.5-0.3c-0.7-1.4,0.9-1.7,2-2.2
			c0.4-0.2,0.7-0.4,1.1-0.6c0.4-0.2,1-0.3,1-0.7c0.3,0.2,0.6-0.3,0.6,0c0.4-0.6,1.3-0.7,1.7-1.2c0.8-0.2,1.3-0.7,2.1-0.9
			c0.3-0.2,0.5-0.4,0.6-0.6c0.8,0.1,1-0.4,1.5-0.5c1.4-0.5,2.7-1.1,3.9-1.9C37.7,243.1,38.2,243.2,38.5,243.6z"/>
		<path id="Path_11018" class="st0" d="M298.5,249.4c-0.4-0.2-0.8-0.5-1.1-0.8c-0.4-0.3-0.9-0.4-1.1-0.9c-0.5,0.2-0.3-0.4-0.6-0.4
			c-0.1-0.3-0.6,0-0.5-0.5c-0.2,0-0.4,0-0.6-0.1c-0.3,0.6-0.7,1.1-1,1.7c0,0,0.1,0,0.1,0.1c0,0,0.1,0.2,0.1,0.2
			c0.4,0.2,0.7-0.1,0.9,0.2c0.7,0.3,1.3,0.8,1.7,1.4c0.8-0.3,1.1,1,2.2,0.7c0.2-0.1,0.4-0.3,0.5-0.5
			C299.3,250.2,299,249.6,298.5,249.4z"/>
		<path id="Path_11019" class="st0" d="M329.1,254.1c-0.7,0-1-0.7-1.6-0.4c-0.4-0.6-1.5-0.4-1.6-1.2c-0.4-0.1-0.8-0.3-1.1-0.5
			c-0.1-0.3-0.2-0.7-0.1-1c0.3-0.8,1.2-0.2,1.7-0.4c0.3,0.2,0.2,0.5,0.5,0.6c0.2,0.1,0.7-0.3,0.8,0.1c0.3-0.1,0.2,0.2,0.2,0.4
			c0.6,0.2,1.3,0.5,1.9,0.9c0.1,0.3,0.2,0.7,0.1,1C329.6,253.7,329.5,254,329.1,254.1z"/>
		<path id="Path_11020" class="st0" d="M47.8,252.1v0.5c0.1,0.6-0.8,0.8-1.1,1.1c-0.1,0.1-0.7,0.3-1,0.5c-0.3,0.2-0.4,0.5-0.8,0.5
			c-0.2,0-0.1,0.3-0.1,0.5c-0.2-0.2-0.4,0.2-0.6,0.2c-0.1,0-0.2-0.1-0.4,0c-0.1,0.1-0.1,0.2-0.3,0.2c-0.5,0.2-1,0.5-1.5,0.8
			c-0.8,0.7-2,1-2.6,1.9c-0.7,0-0.9,0.4-1.3,0.6c-0.4,0.2-0.8,0.5-1,0.9c-0.6-0.1-0.6,0.6-1.1,0.2c-1.2,0.8-2.5,1.6-3.7,2.2
			c-1.4,1.1-2.9,2-4.5,2.8c-0.5,0.4-1.1,1.2-2.1,0.8c-0.1-0.2-0.1-0.5-0.2-0.6c0.1-0.7,0.8-1,1.2-1.4c0.2-0.1,0.2-0.3,0.4-0.4
			c0.4-0.2,0.9-0.4,1.2-0.6c0.6-0.2,1.2-0.6,1.6-1c0.6-0.3,1.2-0.6,1.4-1.3H32c-0.1-0.3,0.2-0.3,0.3-0.1c0.3-0.3,0.6-0.6,1-0.9
			c0.2-0.2,0.7-0.4,1.1-0.6c0.2-0.1,0.4-0.4,0.6-0.5c0.4-0.2,0.8-0.4,1.2-0.6c0.5-0.4,1.1-0.7,1.8-1c0.2-0.2,0.4-0.4,0.6-0.6
			c0.4-0.1,0.8-0.2,1.1-0.5c2.2-1.2,4.7-2.6,6.9-4c0.1,0,0.2,0,0.3-0.1C47.2,251.6,47.6,251.7,47.8,252.1z"/>
		<path id="Path_11021" class="st0" d="M65.1,252.7c-0.4,0.3-0.8,0.6-1.2,0.8c-1.3,1.9-3.8,2.6-5.4,4.2c-0.5-0.1-0.6,0.2-1,0.2
			c-0.4,0.4-0.9,0.7-1.4,1c-0.5,0.3-0.9,0.7-1.4,1.1c-0.3,0.1-0.6,0.3-0.9,0.5c-0.4,0.1-0.4,0.5-0.9,0.5c-0.3,0.5-0.7,0.9-1.1,1.2
			c-1,0.4-1.6,1.1-2.6,1.5c-0.2,0.5-0.7,0.7-1.1,1c-0.4,0.3-0.7,0.7-1.1,1c-0.1,0.1-0.3,0.1-0.4,0.1c-0.3,0.2-0.7,0.4-1,0.6
			c-0.5,0.3-0.8,0.8-1.4,0.9c-0.2,0.4-0.5,0.8-0.9,1.1c-0.1-0.3-0.4,0-0.2,0.3c-0.2-0.2-0.5,0.1-0.9,0.1c-1,1.7-3.4,2-4.4,3.7
			c-0.9,0.5-1.9,1-2.7,1.6c-0.5,0.9-1.9,1.1-2,2.4c0.1,0,0.1,0.2,0.1,0.4c0.7,0.6,1.6,0,2-0.4c0.5-0.5,1-0.9,1.5-1.4
			c0.8-0.3,1.3-0.9,2.1-1.1c0.4-0.5,0.8-0.9,1.1-1.4c1.2-0.6,2.3-1.4,3.4-2.2c0.3-0.1,0.5-0.3,0.9-0.4c0.8-0.8,1.7-1.6,2.8-2.1
			c0.5-0.3,1-0.6,1.5-1c0.5-0.3,0.8-0.8,1.6-0.9c-0.1-0.5,0.7-0.5,0.4-0.9c0.1,0.1,0.3,0.1,0.5,0c0,0,0,0,0,0c0.2,0,0.1-0.3,0.3-0.4
			c0.5,0.1,0.4-0.5,0.9-0.4c0.4-0.1,0.3-0.7,0.8-0.4c0.2-0.5,0.6-0.7,0.9-1.1c0.9-0.5,1.7-1.1,2.4-1.9c0.9-0.5,1.6-1.2,2.5-1.8
			c0.4,0,0.5-0.2,0.9-0.2c0.5-0.7,1.4-1,2-1.6c0.5-0.1,1-0.7,1.4-0.5c0.1-0.6,0.6-0.8,1-1c0.3-0.4,0.7-0.8,1-1.1
			c0.4-0.2,0.7-0.5,1.1-0.7C65.6,253.7,65.3,253.2,65.1,252.7z"/>
		<path id="Path_11022" class="st0" d="M323.2,265c0,0.4-0.3,0.4-0.2,0.8c-0.7,0.3-1.4,0.1-1.9-0.5c-0.3-0.1-0.6-0.2-0.9-0.5
			c-0.5,0-0.4-0.4-0.9-0.1c-0.1-0.4-0.5-0.5-0.8-0.9c-1.2-0.7-2.1-1.6-3.6-1.9c0-0.3-0.4-0.2-0.4-0.6c-0.8,0.1-0.7-0.9-1.4-0.5
			c-0.1-0.3-0.2-0.5-0.6-0.4c0.1-0.3-0.1-0.3-0.1-0.5c-1.4-0.7-2.8-1.5-4.1-2.5c-1.5-0.6-2.8-1.5-4-2.5c-0.1-0.7,0.1-1.2,0.6-1.2
			c1.2,0.1,1.6,1,2.5,1.4c0.8,0.5,1.8,0.7,2.4,1.4c0.4,0.2,0.4-0.1,0.8,0.1c0.3,0.3,0.3,0.3,0.4,0.6c0.5,0,0.4-0.2,0.6,0.1
			c0.7,0.3,1.3,0.7,1.9,1.1c0.9,0.4,1.7,0.9,2.4,1.6c0.4-0.1,0.5,0.1,0.8,0.1c0.3,0.6,1.2,0.7,1.6,1.3c1,0.6,2,1.3,3,2
			c0.2,0.1,0.4,0.2,0.6,0.4C322.3,264,323.1,264.3,323.2,265z"/>
		<path id="Path_11023" class="st0" d="M284.7,267.5c-0.3-0.5-0.8-0.8-1.2-1.1c0.1-0.5-0.6-0.3-0.5-0.9c-0.7-0.1-0.7-0.8-1.4-0.9
			c-0.4-0.8-1.1-1.1-1.7-1.7c-0.6,0.4-1.2,0.7-1.9,1c0.5,0.4,0.9,0.8,1.3,1.2c0,0.1,0,0.4,0.1,0.4c0-0.1,0.2-0.1,0.1,0.1
			c0.1,0.2,0.5,0,0.5,0.2c0.1,0.3,0.2,0.3,0.4,0.1c0,0.2,0.1,0.3,0.1,0.5c0.6-0.2,0.5,0.4,1,0.4c0.2,0.3,0.4,0.5,0.6,0.8
			c0.2,0.3,0.6,0.4,0.6,0.9c1.2,0,1.2,1.2,2.6,1C286.2,268.9,285.5,267.7,284.7,267.5z"/>
		<path id="Path_11024" class="st0" d="M70.8,263.2c0.1,0.7-0.3,0.9-0.5,1.3c-0.4,0.2-0.5,0.7-1,0.8c0,0.5-0.6,0.2-0.3,0.8
			c-1.2,0.2-1.7,1.2-2.6,1.6c-0.2,0.3-0.4,0.5-0.5,0.9c-0.4,0.1-0.7,0.4-0.9,0.8c-0.4,0.1-0.7,0.3-0.8,0.8c-0.5-0.3-0.5,0.2-0.9,0.4
			c-0.3,0.2-0.4,0.6-0.9,0.6c-0.2,0.3-0.5,0.6-0.9,0.9c-0.1,0.1-0.3,0.1-0.4,0.1c-0.7,0.6-1.4,1.4-2.2,2.1c-0.4,0.3-0.8,0.6-1.2,0.9
			c-0.5,0-0.9-0.3-1-0.8c0.2-1.1,1.1-1.4,1.8-2c0.3-0.3,0.7-0.6,1-0.9c0.2-0.4,0.8-0.4,0.8-1c0.5,0.2,0.2-0.3,0.6-0.2
			c0.5-0.7,1.3-1.1,1.7-1.9c0.6-0.2,0.8-0.7,1.5-0.9c0.1-0.3,0.5-0.5,0.5-0.9c0.8-0.3,1.2-0.9,2-1.2c1-0.8,2-1.6,2.9-2.5
			C70.1,262.5,70.6,262.7,70.8,263.2z"/>
		<path id="Path_11025" class="st0" d="M312.4,273.9c0,0.4-0.2,0.8-0.5,1c-0.6,0.2-1-0.3-1.4-0.5c-0.3-0.2-0.7-0.5-1-0.8
			c-0.6-0.7-1.4-1.1-2.2-1.4c0.1-0.5-0.7-0.1-0.3-0.5c-0.1-0.1-0.4,0-0.4,0c-0.1-0.1-0.1-0.2-0.3-0.2c-0.3-0.2-0.5-0.4-0.9-0.6
			c-0.3-0.2-0.6-0.4-1-0.5c-0.5-0.7-1.2-1.2-2-1.5c0-0.4-0.4-0.4-0.6-0.6c-0.2-0.2-0.4-0.6-0.8-0.5c-0.2-0.4-0.5-0.7-0.9-1
			c-0.1-0.1-0.3,0-0.4-0.1c-0.1,0-0.1-0.2-0.1-0.3c-0.1-0.1-0.3,0-0.4-0.1c-0.1,0-0.1-0.2-0.1-0.3c-0.1-0.1-0.3,0-0.4-0.1
			c-0.1-0.1-0.1-0.2-0.1-0.2c-0.1-0.1-0.3,0-0.4-0.1c-0.1-0.1-0.1-0.2-0.1-0.3c-0.1-0.1-0.3,0-0.4-0.1c-0.2-0.3-0.3-0.6-0.2-1
			c0.1-0.2,0.3-0.4,0.5-0.5c1.5-0.1,1.5,1.2,2.9,1.3c0.1,0.6,0.9,0.6,1,1.2c0.5,0.2,0.9,0.5,1.4,0.8c0.2,0.5,1,0.3,1,1
			c0.4-0.1,0.5,0.1,0.7,0.1c-0.1,0.4,0.5,0.2,0.1,0.5c0.1-0.1,0.3-0.2,0.5,0c0,0,0,0,0,0c0.4,0.1,0.3,0.6,0.8,0.7
			c0.4,0.1,0.5,0.5,0.9,0.6c1.3,1,2.6,1.8,3.9,2.9C311.7,273.1,312.2,273.4,312.4,273.9z"/>
		<path id="Path_11026" class="st0" d="M83.6,279.2C83.6,279.2,83.6,279.2,83.6,279.2c-0.5,0.1-0.5,0.5-0.9,0.6
			c-0.2,0.6-0.8,0.8-0.9,1.5c-0.6,0-0.4,0.7-1,0.6c0.1,0.6-0.3,0.7-0.4,1.1c-0.2-0.2-0.3-0.1-0.3,0.3c-0.2,0.1-0.3,0.3-0.6,0.2v0.6
			c-1.1,1.1-2.2,2.2-3.1,3.4c-0.4,0.7-0.8,1.3-1.4,1.9c-0.5,0.6-1.3,0.9-1.1,2.1c0.2,0.1,0.4,0.2,0.5,0.4c1,0.2,1.2-0.7,1.6-1.1
			c0.4-0.5,0.9-1,1.4-1.4c0.1-0.5,0.4-0.9,0.8-1.1c0.1-0.1,0.1-0.4,0.2-0.5c0.2-0.2,0.4-0.4,0.6-0.6c1.1-1.1,2.1-2.3,3-3.6
			c0.5-0.3,0.8-0.8,1.3-1.1c0.2-0.5,0.6-0.7,0.8-1.2c0.4,0,0.5-0.4,0.8-0.5c0.1-0.1,0.2-0.1,0.3-0.2
			C84.6,280.1,84.1,279.6,83.6,279.2z"/>
		<path id="Path_11027" class="st0" d="M307.3,287.3c-0.1,0-0.1,0.2-0.1,0.4c-1,0.7-1.4-0.1-2-0.5c-0.5-0.5-1.1-0.9-1.8-1.1
			c-0.1-0.2-0.4-0.2-0.2-0.6c-0.2,0-0.4-0.1-0.5-0.3c-0.7-0.6-1.6-1.4-2.4-2.1c0-0.2-0.3-0.1-0.5-0.1c-0.2-0.2-0.3-0.4-0.5-0.6
			c-0.5-0.1-1-1-1.8-1.2c-0.1-0.2,0-0.3-0.1-0.5c-0.2-0.3-0.6-0.4-1-0.8c-0.3-0.3-0.6-0.7-0.9-0.9c-0.6-0.5-1.4-0.8-1.8-1.6
			c-0.7-0.4-1.4-0.9-2-1.5c-0.3-0.2-0.6-0.5-0.9-0.9c-0.4-0.1-0.6-0.5-0.8-0.9c0.1-0.6,0.3-1,1.1-0.9c0.9,0.7,1.8,1.4,2.6,2.1
			c0.5,0.3,0.9,0.7,1.2,1.1c0.4,0.4,1.2,0.5,1.1,1c0.4-0.1,0.4,0.2,0.8,0.1c0.5,0.7,1.1,1.2,1.9,1.6c0.5,0.8,1.3,1.3,1.9,2
			c0.3,0,0.5,0.1,0.8,0.3c0.1,0.8,1.1,0.6,1.1,1.5c0.5,0.2,0.9,0.6,1.2,1c0.6,0.1,0.7,0.8,1.3,1C305.8,285.7,307,286,307.3,287.3z"
			/>
		<path id="Path_11028" class="st0" d="M278,277c0,0.5-0.3,0.9-0.7,1c-0.7,0.1-0.6-0.6-1.4-0.5c0.1-0.8-0.6-0.8-1.1-1
			c0-0.2,0.1-0.2,0.1-0.4c-0.5-0.6-1.2-1-1.5-1.7c0-0.5,0.4-1,0.9-1c0,0,0,0,0,0c0.6,0.1,0.8,0.5,1.1,0.9c0.2,0.2,0.2,0,0.5,0
			c0.4,0.4,0.6,0.9,1.1,1.1C277.1,276.2,277.8,276.4,278,277z"/>
		<path id="Path_11029" class="st0" d="M242.1,305.6c-0.3-0.7-0.4-1.5-0.8-2.1c-0.3-0.5-0.8-0.8-1-1.4c-0.4-1.3-1.1-2.5-1.9-3.6
			c-0.1-0.5-0.3-0.9-0.5-1.3c-0.5,0.3-1.1,0.6-1.6,0.9c0,0,0.1,0.1,0.1,0.1c0.1,0.5,0.2,0.9,0.4,1.4c0,0.2,0.2,0.1,0.2,0.1
			c0.2,0.1,0,0.3,0.1,0.4c0.2,0.1,0.5,0.1,0.5,0.4c-0.3,0.3,0.1,0.3,0.3,0.5c-0.3,0.1,0.3,0.4,0.1,0.8c0.1,0.2,0.4,0.2,0.5,0.4
			c0,0.4,0.2,0.6,0.3,1c1,0.9,1.4,2.4,1.9,3.7c0.3,0.4,0.8,0.6,1,1.1c-0.1,0.5,0.1,0.6,0.1,1c0.4,0.5,0.7,1.1,1.1,1.6
			c0.1,0.8,0.4,1.4,1.5,1.3c0.1-0.2,0.2-0.3,0.4-0.4c0-2.1-1.5-2.5-1.6-4.5C242.9,306.5,242.3,306.2,242.1,305.6z"/>
		<path id="Path_11030" class="st0" d="M273.9,289.8c-0.9-1.3-1.9-2.6-3-3.7c-0.3-0.4-0.9-0.7-0.9-1.4c-0.3,0-0.5-0.2-0.5-0.6
			c-0.7,0.3,0-0.2-0.6-0.3c0.1-0.3,0-0.5-0.4-0.4c0.2-0.2,0.1-0.4-0.3-0.4c-0.1-0.2-0.2-0.5-0.2-0.8c-1.3-0.7-1.9-2.1-3-3
			c-0.3-0.6-0.7-1.3-1.1-1.8c-0.5,0.4-0.9,0.9-1.4,1.3c0.2,0.2,0.3,0.3,0.5,0.5c0.1,0.4,0.3,0.8,0.6,1c0.2,0.4,0.3,0.7,0.8,0.9
			c0.3,0.8,1.1,1.1,1.4,2c0.4,0.2,0.6,0.6,1,0.8c0.1,0.6,0.6,0.9,0.9,1.4c0.3,0.5,0.7,0.9,1.1,1.2c0.3,0.5,0.7,0.9,1.1,1.2
			c0.3,0.5,0.7,0.9,1.3,1.1c-0.4,0.4,0.4,0.3,0.2,0.9c0.8,0.1,1,0.9,1.4,1.4c0.5,0.4,1,0.9,1.4,1.4c0.5,0.5,0.9,1,1.2,1.5
			c0.4,0.5,0.9,1.2,1.9,0.8c0.6-1.2-0.7-1.8-1.1-2.8C275.3,291.4,274.8,290.4,273.9,289.8z"/>
		<path id="Path_11031" class="st0" d="M52.3,278.7c0,0.1,0,0.2,0.1,0.3c0.2,1.4-1.3,1.2-1.4,2.4c-0.6-0.2-0.5,0.4-1,0.4
			c-0.3,0.3-0.7,0.5-1,0.8c-0.3,0.2-0.4,0.8-0.9,0.8c0.1,0.7-0.7,0.5-0.8,1.1c-0.2,0-0.2-0.1-0.4-0.1c-0.8,0.8-1.6,1.5-2.5,2.1
			c-0.3,0.4-0.8,0.8-1.2,1.1c-0.4,0.5-1.1,0.6-1.6,0.4c-0.6-0.8,0.1-1.6,0.8-1.9c0.4-0.4,0.8-0.7,1.3-1c0-0.3,0.7-0.5,0.4-0.6
			c0.2-0.1,0.4-0.5,0.6-0.2c-0.1-0.4,0.2-0.4,0.3-0.6c0.8-0.5,1.3-1.2,2.1-1.6c0.2-0.1,0.2-0.4,0.4-0.6c1.4-0.7,2.7-1.6,3.7-2.7
			C51.6,278.3,52,278.4,52.3,278.7z"/>
		<path id="Path_11032" class="st0" d="M69.7,279.9c-0.1,1-0.9,1.2-1.5,1.7c-0.1,0.3-0.5,0.5-0.5,0.9c-0.3,0.1-0.6,0.2-0.5,0.8
			c-0.5-0.1-0.4,0.3-0.8,0.2c-1,1-2.1,2-3.1,3c-0.2,0.3-0.4,0.7-0.5,1c-0.3,0.1-0.4,0.3-0.7,0.3c0,0.5-0.2,0.6-0.4,0.6
			c-0.1,0.3-0.4,0.3-0.6,0.5c-0.2,0.1,0,0.2,0,0.4c-0.3,0-0.6,0.2-0.6,0.6c0,0,0,0,0,0.1H60c-0.4,0.5-0.8,1.1-1.2,1.5
			c-0.6,0.5-1.3,1-1.9,1.6c-0.3,0.3-0.5,0.7-0.8,1c-0.8,0.8-1.9,1.6-2.7,2.5c-0.5,0.6-0.9,1.5-1.9,1.5c0-0.1-0.2-0.1-0.4-0.1
			c-0.9-1.2,0.5-1.7,0.9-2.5c1.3-0.9,2.2-2.2,3.4-3.1c0.3-0.3,0-0.4,0.3-0.8c0.5-0.1,0.5-0.4,0.9-0.4c-0.1-0.3,0.2-0.3,0.1-0.6
			c0.7-0.4,1.3-1,1.8-1.7c0.6-0.5,1.2-1.1,1.8-1.7c0.4-0.2,0.7-0.5,1.1-0.8c0.1-0.3,0.2-0.5,0.4-0.8c0.6-0.4,1.1-0.8,1.5-1.4
			c0.6-0.5,1.2-1,1.8-1.6c0.1-0.1,0.2-0.2,0.3-0.3c0.1-0.1,0.3-0.1,0.4-0.1c0.4-0.3,0.7-0.8,1-1.1c0.6-0.7,1.3-1.4,2.1-1.9
			C69.1,279.1,69.5,279.4,69.7,279.9z"/>
		<path id="Path_11033" class="st0" d="M279.2,279.7c0.1,0,0.1-0.2,0.1-0.3c1.4-0.9,2.2,0.9,2.9,1.6c0.9,0.7,1.8,1.6,2.5,2.5
			c0.4,0,0.4,0.4,0.9,0.3c-0.2,0.4,0.5,0.4,0.1,0.5c0.1,0.3,0.6,0,0.3,0.4c0.4,0.1,0.5,0.4,0.9,0.5c0,0.4,0.5,0.4,0.5,0.8
			c0.6,0.3,0.9,0.8,1.5,1.1c0.5,0.9,1.4,1.5,1.9,2.5c0.3,0.1,0.6,0.2,0.9,0.4c0.2,0.4,0.5,0.7,0.9,1c0,0.3,0.3,0.2,0.5,0.4
			c0.1,0.2,0,0.5,0.4,0.5c0.3,0.3,0.5,0.7,0.8,1c0.3,0.2,0.6,0.6,0.8,1c0.6,0.4,1.2,0.9,1.7,1.5c0.6,0.5,1.1,1.1,1.5,1.7
			c-0.2,0.2-0.1,0.6-0.2,0.8c-1,0.5-1.5-0.4-2.1-0.8c-0.2-0.3-0.5-0.6-0.7-0.9c-0.2-0.3-0.6-0.5-1-0.5c-0.1-0.7-0.8-0.7-0.9-1.4
			c-0.4-0.4-0.7-0.8-1-1.2c-0.3-0.3-0.7-0.4-0.9-0.7c-0.2-0.3-0.6-0.4-0.8-0.8c-0.3,0.1-0.3-0.2-0.6-0.1c0-0.4-0.4-0.4-0.5-0.8
			c-0.1-0.2-0.4-0.3-0.6-0.2c-0.1-0.2-0.2-0.5-0.2-0.8c-0.2,0.1-0.5-0.2-0.3-0.2c0-0.4-0.4,0.3-0.4-0.1c0-0.2-0.1-0.3-0.2-0.4
			c-0.3-0.2-0.4-0.4-0.5-0.7c-1.5-1-2.3-2.7-3.9-3.6c-0.6-0.9-1.4-1.6-2.2-2.2C280.5,281.2,279.1,281.1,279.2,279.7z"/>
		<path id="Path_11034" class="st0" d="M250.2,296.3c-0.4-0.7-0.9-1.3-1.4-2c-0.1-0.6-0.8-0.9-0.5-1.5c-0.2,0-0.3,0-0.3-0.2
			c-0.3-0.4-0.6-0.9-0.9-1.3c-0.6,0.4-1.2,0.8-1.8,1.2c0.2,0.1,0.4,0.1,0.4,0.3c0.3,1.1,1.2,1.6,1.4,2.7c0.5-0.1,0.5,0.3,0.5,0.6
			c0.3,0,0.5,0,0.5,0.3c0.5,1,1.1,1.9,1.8,2.7c0.5,0.1,1.1-0.1,1.2-0.6c0.1-0.6-0.4-0.9-0.5-1.1C250.5,297,250.4,296.6,250.2,296.3z
			"/>
		<path id="Path_11035" class="st0" d="M257.8,287.9c0.1,0.2,0.3,0.3,0.5,0.5c0.3,0.3,0.5,0.7,0.9,1.1c0.4,0.6,0.9,1.1,1.3,1.7
			c0.5,0.8,0.8,1.7,1.7,2.1c0,0.4,0.4,0.4,0.4,0.9c0.1,0.2,0.4,0.2,0.6,0.4c0.5,0.9,1.1,1.7,1.7,2.4c0.4,0.9,0.9,1.7,1.5,2.5
			c0.5,0.5,0.9,1,1.2,1.6c0.1,0.2,0.4,0.4,0.6,0.5c0,0.3,0.2,0.6,0.4,0.8c0.1,0.3,0.6,0.3,0.2,0.6c0.4,0,0.3,0.4,0.5,0.6
			c0.2,0.1,0.2,0.4,0.4,0.6c0.3,0.4,0.9,1.1,1.5,2c0.1,0.2,0.1,0.5,0.2,0.6c0.3,0.4,1.1,0.8,1,1.5c-0.1,0.4-0.4,0.7-0.8,0.8
			c-0.4,0-0.6-0.3-0.9-0.5c-0.6-0.6-1.2-1.4-1.6-2.1c0-0.2-0.3-0.1-0.5-0.1c0.3-0.3-0.1-0.2-0.1-0.5c-0.4-0.5-0.6-1.1-0.9-1.6
			c-0.4-0.5-0.8-1.1-1.2-1.6c-0.4-0.5-0.9-1-1.4-1.4c-0.1-0.2-0.4-0.2-0.3-0.6c-0.2-0.3-0.5-0.4-0.8-0.6c0-0.4-0.2-0.8-0.6-0.8
			c0-0.5-0.1-0.7-0.5-0.8c-0.1-0.4,0.2-0.4,0-0.6c-0.7-1-1.6-2.3-2.5-3.4c-0.1-0.2-0.3-0.3-0.5-0.5c-0.1-0.1,0-0.3-0.1-0.4
			c-0.5-0.6-1-1.3-1.4-2c-0.4-0.6-0.8-1.1-1.3-1.6c-0.3-0.4-0.7-0.9-0.8-1.1C256.5,288.3,256.8,287.7,257.8,287.9z"/>
		<path id="Path_11036" class="st0" d="M218.2,306.8c-0.5,0.2-1.1,0.4-1.6,0.6c0.4,1.3,1,2.8,1.4,3.9c0.2,0.6,0.2,1.4,0.5,1.9
			c0.2,0.2,0.5,0.4,0.9,0.4c0.4-0.1,0.5-0.4,0.8-0.6c-0.3-2-1.2-3.7-1.7-5.5C218.3,307.2,218.2,307,218.2,306.8z"/>
		<path id="Path_11037" class="st0" d="M89.8,291.6c-0.1,1.7-1.6,2.1-1.9,3.7c-0.2,0.2-0.4,0.3-0.6,0.5c-0.1,0.3-0.3,0.4-0.5,0.6
			c-0.4,0.4-0.7,0.8-0.9,1.2c-0.7,0.8-1.2,1.6-1.8,2.5c-0.3,0-0.1,0.5-0.6,0.4c-0.1,0.5-0.4,0.9-0.8,1.3c-0.2,0,0.2,0.5-0.2,0.5
			c-0.1,0.2-0.4,0.2-0.3,0.6c-0.3,0.1-0.5,0.2-0.8,0.4c-0.4,1.4-1.6,2.2-2.4,3.2c-0.2,0.3-0.3,0.7-0.5,1c-0.5,0.8-1.2,1.6-1.9,2.2
			c-0.2,0.5-0.5,1-0.9,1.5c-0.3,0.4-0.8,0.8-1.3,1c-0.4,0-0.4-0.3-0.8-0.2c-0.4-1.1,0.4-1.8,1-2.2c0-0.6,0.5-0.7,0.6-1.2
			c0.8-0.5,1.1-1.4,1.8-2c0-0.5,0.5-0.7,0.3-1.1c0.2-0.1,0.5-0.2,0.6-0.4c-0.3-0.1,0.1-0.4,0.2-0.1c0-0.3,0.2-0.4,0.1-0.8
			c0.4,0,0.5-0.5,0.6-0.8c0.1-0.1,0.3-0.1,0.4-0.3c0.1-0.1,0-0.3,0.1-0.5c0.3-0.5,0.7-1,1.1-1.5c0.6-1.1,1.6-1.9,2.1-3
			c0.2,0,0.3-0.2,0.5-0.1c0.1-0.3,0.2-0.5,0.4-0.8c0.2-0.2,0.4-0.4,0.5-0.6c0.1-0.2,0.3-0.4,0.5-0.6c0.3-0.3,0.7-0.9,1.1-1.4
			c0.8-1.1,1.5-2.3,2.4-3.4c0-0.1,0.2-0.1,0.2-0.3C89,291,89.5,291.2,89.8,291.6z"/>
		<path id="Path_11038" class="st0" d="M101.2,294.1c0,0.3,0.2,0.4,0.2,0.6c-0.1,1.1-1.3,1.6-1,2.6c-0.7,0.3-0.8,1.1-1.4,1.5
			c-0.1,0.8-0.9,1-0.9,2c-0.3,0-0.2,0.3-0.5,0.3c0.2,0.2,0,0.3,0,0.6c-0.4-0.2-0.1,0.4-0.5,0.3c0,0.1,0.2,0.1,0.3,0.1
			c-0.1,0.3-0.5,0.2-0.4,0.8h-0.5c-0.7,1.3-1.5,2.3-2.1,3.6c-0.3,0.6-0.7,1.2-1.1,1.8c-0.3,0.5-0.5,1.4-1.5,1.2
			c-0.2-0.1-0.4-0.3-0.5-0.5c0.1-1.5,0.9-2.2,1.6-3.1c0-0.7,0.7-1.1,0.5-1.6c0.3,0,0.2-0.6,0.5-0.3c0.1-0.8,0.5-1.5,1-2.1
			c0.4-0.6,0.9-1.2,1.4-1.8c-0.1-0.4,0.1-0.5,0.1-0.7c0.2-0.3,0.5-0.3,0.6-0.5c0,0-0.2-0.2-0.1-0.3c0.1-0.1,0.3,0,0.4-0.4
			c0.3,0.1,0.3-0.4,0.4-0.5s0.3-0.2,0.4-0.4c0.6-1,1.2-2.1,1.7-3.1c0.1-0.1,0.3-0.1,0.4-0.3C100.5,294,100.8,294,101.2,294.1z"/>
		<path id="Path_11039" class="st0" d="M141.4,307.1c0,0.2,0,0.4,0,0.7c-0.3,0.2-0.2,0.8-0.5,1c-0.1,0.4,0.2,0.4,0.1,0.8
			c-0.4-0.2-0.1,0.4-0.4,0.4c-0.1,0.4,0.2,0.4,0.1,0.9c-0.2,1.3-0.8,2.8-1,4.2c-0.1,0.5-0.2,1,0.1,1.4c0.2,0.2,0.7,0.1,1.1,0.1
			c0.4-0.6,0.6-1.2,0.6-1.9c0.2-0.7,0.3-1.4,0.5-2.1c0.2-1.4,0.5-2.8,1-4.1c0.1-0.3,0.1-0.5,0.2-0.8
			C142.7,307.4,142.1,307.3,141.4,307.1z"/>
		<path id="Path_11040" class="st0" d="M70.3,296.8c0.2,1.2-0.9,1.2-0.8,2c-0.6,0.1-0.8,0.7-1.3,1c0,0.2-0.2,0.3,0,0.4
			c-0.3,0.3-0.6,0.6-0.8,1h-0.4c-0.4,0.6-0.9,1.1-1.4,1.6c-0.4,0.7-1.4,2-2.4,1c-0.1-0.3,0-0.6,0.1-0.9c0.2-0.5,0.5-0.6,0.9-1
			c0.1-0.1,0-0.3,0.1-0.4c0.1-0.2,0.5-0.2,0.3-0.6c0.4-0.1,0.6-0.6,0.9-0.9c0.1-0.2,0.2-0.3,0.4-0.5c0.1-0.1,0.2-0.4,0.5-0.4
			c0.2-0.5,0.5-0.9,1-1.1c0.5-0.5,1-1.1,1.4-1.6c0.2,0,0.4,0,0.4-0.1C69.7,296.3,70.1,296.5,70.3,296.8z"/>
		<path id="Path_11041" class="st0" d="M133,304.5l-1.8-0.6c0.1,0.2-0.1,0.4,0.1,0.6c-0.7,0.6-0.5,1.4-1.1,2.1
			c-0.1,0.5-0.1,1-0.1,1.5c-0.3,0.3-0.4,0.9-0.8,1.1c-0.1,0.7-0.3,1.4-0.6,2.1c-0.1,0.7-0.4,1.5-0.7,2.1c0.1,0.8-0.4,1.2-0.1,1.9
			c-0.1,0.4-0.4-0.1-0.4,0.4c0,0.3-0.1,0.5-0.4,0.6c0.3,0.8-0.4,1.3-0.2,2.2c-0.6,0.8-0.9,1.8-0.9,2.8c-0.4,0.4-0.3,0.9-0.5,1.4
			c-0.2,0.5-0.9,0.9-0.6,1.8c0.2,0.1,0.3,0.2,0.4,0.4c1.4,0.2,1.3-1,1.9-1.5c0.1-1,0.7-1.6,0.6-2.9c0.6-0.8,0.9-1.7,0.9-2.6
			c0.5-0.7,0.6-1.8,1.1-2.5v-1c0.4-0.7,0.6-1.5,0.8-2.2c0.2-0.1,0.3-0.2,0.5-0.2c-0.5-0.6,0.6-1,0-1.4c0.4,0.1,0.2-0.4,0.4-0.5
			c0-0.3,0.3-0.3,0.4-0.5c-0.1-0.5,0-0.9,0.4-1.2C131.8,306.8,132.9,306,133,304.5z"/>
		<path id="Path_11042" class="st0" d="M287.9,306.9c-1.2,0.8-2-0.6-2.5-1.2c-0.2-0.1-0.2-0.4-0.6-0.3c-0.1-0.2,0-0.2,0-0.4
			c-0.6-0.1-0.7-0.6-1-0.9c-0.3-0.5-0.7-0.9-1.1-1.3c-0.2-1.4-1.8-1.4-1.6-3.1c0.2-0.2,0.5-0.4,0.9-0.4c0.7,0,1.1,1.1,1.5,1
			c0.1,0.4,0.4,0.6,0.5,1c0.4,0.1,0.3,0.6,0.9,0.5c0,0.5,0.4,0.7,0.7,0.9c0,0.2-0.1,0.2-0.1,0.4c0.9,0.9,1.7,1.9,2.5,2.9
			L287.9,306.9z"/>
		<path id="Path_11043" class="st0" d="M111,299.8c0.1,0.7-0.1,1.4-0.5,2c-0.3,0.6-0.6,1.2-0.9,1.8c0.1,0.4-0.5,0.2-0.4,0.6
			c0.3,0.1-0.3,0.4-0.3,0.6c-0.1,0.5-0.5,0.8-0.6,1.4c-0.3,0.2-0.5,0.5-0.7,0.8c-0.6,1.3-1.1,2.6-1.5,4c-0.4,0-0.3,0.5-0.8,0.4
			c0.1,0.4,0,0.7-0.3,1c-0.2,0.2-0.1,0.6-0.5,0.6c0.1,0.1,0.3,0.1,0.3,0.4c-0.4,0.1-0.5,0.5-0.5,0.9c-0.6,0.2-0.8,0.9-1,1.4
			c-0.7,1.6-1.5,3.1-2.5,4.5c-0.3,1.3-1.1,2-1.5,3.2c-0.4,1.1-0.9,2.1-1.6,3h-0.9c-0.1-0.2-0.2-0.4-0.4-0.5c0-1,0.5-1.4,0.9-2
			c0.3-1.6,1.2-2.6,1.7-4c0.2-0.7,1-1.1,0.8-1.9c0.6,0.1,0.3-0.8,0.9-0.8c0.1-0.3-0.1-0.5,0-0.8c0-0.1,0.2-0.1,0.2-0.1
			c0-0.1,0-0.3,0-0.4c0,0,0.2-0.1,0.3-0.1c0-0.1-0.2-0.1-0.1-0.2c0-0.1,0.2-0.2,0.2-0.4c0.3-0.6,0.6-1.3,0.9-1.9
			c0.2-0.3,0.5-0.6,0.6-0.9c0.5-0.8,0.7-2,1.5-2.6c0-0.5,0.2-1,0.6-1.2c0.1-0.5,0.4-0.8,0.5-1.2c0.1-0.5,0.6-0.6,0.5-1.3
			c0.5-0.3,0.7-1,1.1-1.4c0.1-0.4,0.2-0.7,0.2-1.1c1.1-1.1,1.5-2.7,2.4-4C110.3,299.5,110.8,299.5,111,299.8z"/>
		<path id="Path_11044" class="st0" d="M186,311.2c-0.6,0-1.3-0.1-1.9-0.1c0,0.1,0,0.2,0,0.3c0.1,0,0.3,0.1,0.4,0.2
			c-0.2,0-0.3,0.1-0.2,0.4c0,0.2,0.3,0.1,0.2,0.4c-0.1,1.2,0.3,2.1,0.2,3.2c0.3,0.2,0.4,0.6,1,0.5c0.2,0,0.2-0.2,0.4-0.1
			c0.6-0.5,0.2-1.3,0.1-2.1C186,313,186,312.1,186,311.2z"/>
		<path id="Path_11045" class="st0" d="M265.9,322.4c0,1.3-1.9,1-1.9-0.1c-0.3-0.4-0.6-0.8-0.8-1.3c-0.7-0.8-1.2-1.6-1.6-2.5
			c0-0.2-0.2-0.3-0.5-0.2c0.4-0.5-0.5-0.4-0.1-0.8c-0.3-0.3-0.6-0.7-0.9-1.1c-0.8-1.1-1.5-2.3-2-3.6c-0.2-0.2-0.5-0.4-0.7-0.6
			c0-0.3-0.1-0.6-0.3-0.9c-0.1-0.2-0.4-0.4-0.5-0.5c-0.1-0.2-0.1-0.4-0.1-0.5c-0.2-0.3-0.4-0.7-0.5-1c-0.2-0.3-0.4-0.6-0.5-0.9
			c-0.6-1.2-1.8-1.9-1.9-3.6c0.4-0.4,0.9-0.5,1.4-0.4c0.4,0.7,0.9,1.5,1.4,2.1c0.1,0.3,0.3,0.5,0.6,0.5c0.2,0.8,0.6,1.6,1.1,2.2
			c0.3,0.8,0.7,1.5,1.4,2c0,0.2,0.5,0.5,0.1,0.6c0.1,0.2,0.3,0.3,0.5,0.2c-0.2,0.5,0.5,0.7,0.2,0.9c0.2,0.2,0.1-0.1,0.4,0.1
			c0.1,0.1-0.1,0.7,0.4,0.5c0,0.3-0.2,0.4,0,0.6c0.8,1.3,1.6,2.7,2.4,4.1C264.5,319.6,265.3,321,265.9,322.4z"/>
		<path id="Path_11046" class="st0" d="M175.2,313.5c0.2-0.2,0-0.4-0.1-0.8c0-0.3,0.1-0.6,0.1-0.9c-0.5,0-1.1,0.1-1.6,0.1
			c0,0.8,0,1.6,0,2.4c0,0.7,0,1.4-0.1,2.1c-0.1,0.2-0.1,0.4-0.3,0.6c0.3,0.9,0.3,1.9,0,2.8c0.4,0.3,0.2,1,0.3,1.5
			c0.2,1.2,0.1,2.4-0.3,3.5c0.2,0.4,0.3,0.9,0.4,1.4c-0.2,0.6-0.3,1.9,0.1,2.3c0.3,0,0.5,0.2,0.9,0.1c0.6-0.1,0.4-0.8,0.6-1.3
			c0-1.4-0.1-2.7,0-3.9c0.1-1.1,0.3-2.2,0.2-3.2c-0.1-1.9-0.1-3.8,0-5.7C175.5,314.1,175.2,314,175.2,313.5z"/>
		<path id="Path_11047" class="st0" d="M119.7,308.4c-0.1,0.7-0.3,1.3-0.8,1.9c0,1.1-0.4,2.2-1.1,3c0.1,0.4-0.1,0.6-0.1,0.9
			c-0.6,0.9-1.1,1.8-1.5,2.8c-0.5,0.1-1,0-1.4-0.4c-0.2-0.8,0.6-1.2,0.3-1.7c0.7-0.8,1-1.8,1.1-2.9c0.2-0.2,0.4-0.4,0.6-0.6
			c0.3-1.2,0.8-2.3,1.5-3.4C118.8,307.7,119.4,307.9,119.7,308.4z"/>
		<path id="Path_11048" class="st0" d="M153.7,310.2c-0.5-0.1-1.1-0.2-1.6-0.3c-0.2,1.7-0.5,3.3-0.9,4.9c0,0.1,0,0.3,0,0.4
			c-0.1,0.4-0.3,0.6-0.4,0.9c-0.1,0.7-0.1,1.4,0,2.1c-0.3,0.8-0.5,1.7-0.6,2.6c-0.2,1-0.5,2-0.1,2.7c-0.3,0.2-0.4,0.6-0.5,0.9
			c0.4-0.1,0.2,0.3,0.3,0.5c-0.2,0.9-0.3,1.9-0.5,2.9c-0.2,1-0.6,2-0.1,2.9c0.1,0,0.2,0,0.3,0.1c1.2,0.2,1.2-0.8,1.4-1.6
			c0.5-2.7,0.9-5.4,1.2-8.1c0-0.2,0.4-0.1,0.4-0.4c-0.4-0.2,0.1-0.5,0.1-0.6c-0.4,0-0.2-0.5,0-0.6c0-0.5,0.1-1.1,0.3-1.6
			c0-0.2-0.2-0.2-0.3-0.4c0.2-0.8,0.3-1.7,0.4-2.6c0.4-0.5,0.4-1.5,0.7-1.7C153.2,312.3,153.7,311.2,153.7,310.2z"/>
		<path id="Path_11049" class="st0" d="M201.3,340.4c0-0.9-0.4-1.8-0.4-2.8c0-0.4,0.1-0.7,0.1-1c-0.1-1.1-0.4-2.2-0.7-3.2
			c0.1-1.4-0.1-2.8-0.6-4.1c-0.1-0.4,0.2-0.3,0.1-0.6c-0.1-0.1-0.5-0.6-0.3-0.6c0.2-0.6-0.2-0.6-0.4-0.9c0.4,0,0.1-0.1,0.1-0.3
			c0.1-0.7,0-0.9,0.1-1.4c-0.6-0.4-0.2-1.1-0.4-1.9c-0.8-0.6-0.5-1.9-0.6-3.1c-0.1-1.4-0.8-3-0.5-4.1c-0.1-0.3-0.3-0.5-0.4-0.9
			c-0.1-0.3,0.1-0.6,0-0.9c0,0-0.2,0-0.3,0c0,0,0-0.2,0-0.3c-0.1-0.7-0.2-1.4-0.4-2.1c0.1-0.4,0.1-0.8,0.1-1.2
			c-0.6,0-1.2,0.1-1.7,0.1c0.2,2.1,0.2,4.3,0.9,5.8c0,1.1,0.1,2.1,0.4,3.1v1.1c-0.1,0-0.1,0.2,0.1,0.1c0,0.2-0.1,0.3-0.1,0.5
			c0.1,0.5,0.1,1,0,1.5c0.2,0.6,0.5,1,0.8,1.6c0.1,0.7,0.1,1.3,0,2c0,2.5,1.5,4.5,1.1,7c0,0.2,0.6,0.4,0.2,0.5
			c0.2,0.1,0.3,0.4,0.4,0.6c-0.4,0.1,0.1,0.2,0.1,0.4c-0.3,0-0.1,0.4-0.1,0.6c-0.1,0.4,0.4,0.2,0.2,0.6c-0.1,1.8,0.2,3.7,0.9,5.4
			c0.2,1.6,0.2,3.4,0.9,4.5c0.4,0.1,0.9,0,1.3-0.3c0.1-1.5-0.5-3.3-0.5-5C201.7,341,201.5,340.7,201.3,340.4z"/>
		<path id="Path_11050" class="st0" d="M232.7,312.8c0.6,1.7,1.4,3.4,2,5.1c0,0.5,0.2,0,0.4,0.3c-0.3,0.2,0.1,0.4,0.1,0.5
			c0.1,0.2-0.2,0.4,0,0.5c0.4,0.5,0.7,1,0.9,1.6c0.2,0.6,0.5,1.1,0.9,1.6c0.2,1,0.5,1.9,0.9,2.9c0.2,0.3,0.4,0.5,0.6,0.8
			c0,0.6,0.2,0.8,0.2,1.1c0.3,0.3,0.2,0.4,0.4,1c0.3,0.8,0.6,1.6,0.9,2.4c0.2,0.3,0.4,0.7,0.5,1.1c0.2,0.4,0.3,0.8,0.5,1.1
			c0.5,0.7,0.7,1.5,0.8,2.4c-0.3,0.4-0.9,0.5-1.4,0.4c-0.3-0.6-0.6-1.1-0.8-1.7c-0.1-0.6-0.8-0.7-0.7-1.5c0-0.2-0.4,0-0.4-0.3
			c0.1-0.4-0.3-0.5,0-0.7c-0.3-0.6-0.5-1.3-0.9-2c-0.1-0.2-0.2-0.3-0.3-0.5c-0.3-0.7-0.5-1.9-1.2-2.2c0.1-0.5-0.1-1-0.5-1.3
			c0.1-0.4-0.2-0.4,0-0.6c0.1-0.2-0.5-0.3-0.1-0.4c-0.4-0.1-0.1-0.9-0.6-0.9c-0.1-0.4,0.2-0.3,0.1-0.6c-0.9-1.7-1.6-3.5-2.2-5.2
			c-0.3-0.7-0.5-1.4-0.8-2.1c0-0.1-0.2-0.2-0.3-0.3c0-0.1,0-0.3,0-0.4c-0.5-0.8-0.9-1.8-1-2.7C231.3,310.9,232.5,311.8,232.7,312.8z
			"/>
		<path id="Path_11051" class="st0" d="M88.7,315c0.2,1-0.8,1.5-0.4,1.9c-0.5,0.5-1.3,1.1-1.1,1.9c-0.2,0.2-0.7,0.7-0.5,0.9
			c-0.2,0.2-0.5,0.2-0.6,0.4c-0.2,0.6-0.6,1.2-1,1.7c-0.4,0.6-0.6,1.2-1.2,1.5c-0.4,0-0.8-0.2-1-0.6c-0.1-0.5,0.1-0.9,0.5-1.2
			c0.1-0.4,0.3-0.7,0.6-1c0.1-0.5,0.3-1.1,0.6-1.5c0.3-0.5,0.7-0.9,0.8-1.5c0.3,0,0.4-0.4,0.6-0.6s0.4-0.4,0.6-0.6
			c0.2-0.6,0.5-1.1,0.9-1.5C87.9,314.5,88.3,314.7,88.7,315z"/>
		<path id="Path_11052" class="st0" d="M249.4,319.1c-0.1,0.6,0.3,0.6,0.2,1.1c0.3,0.6,0.7,1,0.9,1.8c0.4,0.1,0.2,0.5,0.6,0.8
			c-0.2,0.1,0.2,0.5,0.4,0.6c0,0.3-0.2,0.3,0,0.5c0.6,1.3,1.3,2.6,2,4c0.3,0.4,0.5,1,0.5,1.5c-1.4,1.8-2.4-1.6-3-2.6
			c0-0.2-0.4,0-0.4-0.2c0.2-0.1,0-0.1-0.1-0.1c0-0.3,0.3-0.4-0.3-0.4c-0.1-0.6-0.4-1.2-0.7-1.8c-0.3-0.5-0.4-1.2-0.9-1.5
			c0.1-0.6-0.3-0.8-0.4-1.2c-0.4-1.2-1.1-2.1-1.5-3.2c0-0.5,0.4-0.9,0.9-0.9C248.6,317.3,248.6,318.9,249.4,319.1z"/>
		<path id="Path_11053" class="st0" d="M212,327.9c-0.4,0.4-1,0.5-1.5,0.2c-0.2-0.5-0.1-1.3-0.8-1.4c0.2-0.2,0.1-0.6,0.1-1
			c-0.2-0.3,0-1-0.5-1c0.1-0.5,0-0.5-0.3-0.9c0.1-0.2,0.1-0.3-0.1-0.3c0-0.2,0.2-0.2,0.2-0.4c-0.4-1.3-0.7-2.7-0.8-4.1
			c0.4-0.4,0.9-0.5,1.4-0.3c0.3,0.8,0.6,1.6,0.6,2.4c0,0.3,0.4,0.1,0.4,0.4c-0.2,0,0,0.2,0.1,0.3c-0.1,0.8,0.4,1,0.2,1.9
			c-0.1,0.4,0.4,0.3,0.4,0.8C211.3,325.3,212,326.6,212,327.9z"/>
		<path id="Path_11054" class="st0" d="M222.3,319.5c0.3,0.5,0.4,1,0.5,1.5c0.3,0.3,0.2,0.9,0.8,0.9c0,0.8,0.1,1.7,0.4,2.5
			c0.1,0.6,0.4,1.1,0.7,1.5c0.2,0.4-0.1,0.7,0.4,0.9c-0.1,0.4,0.1,0.8,0.4,1.1c0.1,0.4-0.3,0.5,0,0.8c0.5,1.8,1.1,3.6,1.8,5.4
			c0.3,0.6,0.4,1.2,0.5,1.9c-0.2,0.2-0.4,0.5-0.7,0.6c-1.2-0.1-1.1-1.4-1.5-2.2c-0.2-0.4-0.4-0.9-0.5-1.4c-0.1-0.5-0.3-0.9-0.6-1.2
			c0.1-0.3-0.4-0.5,0.1-0.5c-0.4-0.1-0.4-0.6-0.5-0.9c-0.5-0.9-0.7-2-0.9-3c-0.1-0.4-0.3-0.7-0.6-0.9c0.3-0.6-0.3-0.9-0.3-1.6
			c-0.1-0.5-0.2-1.1-0.4-1.6c-0.5-1-0.8-2.1-0.9-3.2C221.3,319.4,221.8,319.3,222.3,319.5z"/>
		<path id="Path_11055" class="st0" d="M163.4,322.6c0.4,0.7,0,1.8,0,2.6c0,0.2,0.2,0.3,0.1,0.4c0,0-0.2,0.2-0.2,0.1
			c0,0.2,0.4,0.3,0.2,0.5c-0.2,0.7-0.2,1.4-0.5,2.3c0,0.6,0,1.2-0.1,1.7c0.1,0.1,0.1,0.2,0.1,0.4c0,0.4-0.2,1,0.1,1.5
			c-0.2,0.1,0,0.6-0.2,0.6c0.1,0.1,0.3,0.5-0.1,0.4c0.5,0.1,0,0.6,0.3,0.8c0.1,0.4-0.3,0.3-0.4,0.5c0,0.4,0,0.8-0.1,1.1
			c-0.1,2.1-0.2,4.8-0.5,7c-0.1,0.5,0,1.2-0.4,1.6c-0.3,0.1-0.7,0.2-1,0.1c-0.8-0.7-0.2-1.9-0.1-3.1c0.1-1.1,0.1-2.2,0-3.2
			c0-0.3,0.1-0.8,0.3-0.9c-0.2-1.4-0.1-2.8,0.3-4.1c-0.1-1.2,0.3-1.5-0.1-2.2c0.4-0.8,0.2-2.3,0.6-3c0.1-1.6,0.2-3.2,0.5-4.7
			c0-0.2,0.2-0.2,0.3-0.4C162.6,322.5,163.2,322.4,163.4,322.6z"/>
		<path id="Path_11056" class="st0" d="M186.7,322.6c0.3,0.6,0.3,1.2,0.2,1.9c0.2,0.4,0.1,1,0.4,1.2c-0.3,0.5,0,0.7,0.1,1.1
			c-0.3,0.3-0.1,0.8-0.1,1.2c0,1.5,0.1,3,0.5,4.5c0,0.3,0,0.7-0.1,1c0.4,0.5,0,1.1,0.5,1.5c0.1,0.3-0.1,0.3-0.1,0.5
			c0,0.2,0.1,0.2,0.2,0.2c0,0.3-0.2,0.4-0.4,0.5c0.6,2.8-0.1,5.4,0.7,7.9c-0.1,0.9,0.2,1.4,0.1,2.4c0,0.7,0,1.2-0.5,1.6h-0.9
			c-0.6-0.6-0.3-2.1-0.4-3.2c-0.1-0.4-0.2-0.9-0.4-1.3c0.1-0.9-0.2-1.4-0.1-2.4c0.2-0.5-0.3-0.2-0.2-0.6c0.4-0.3-0.3-0.8,0.2-0.9
			c-0.4-1.4-0.6-2.9-0.5-4.4c-0.2-0.7-0.3-1.5-0.2-2.2c0-0.3-0.2-0.7-0.3-1c0-0.3,0.1-0.6,0.1-0.9c0-0.7-0.3-1.4-0.3-2.1
			c0-1,0-2,0.1-3c-0.3-1.1-0.4-2.2-0.4-3.2C185.3,322.5,186.2,322.3,186.7,322.6z"/>
		<path id="Path_11057" class="st0" d="M113.4,323.1c0,1.5-0.8,2.2-1.1,3.4c0.1,0.3-0.4,0.4,0.1,0.4c-0.7,1.1-0.8,2.8-1.8,3.6
			c0.1,0.1,0.2,0.3,0.1,0.5c-0.1,0.1-0.3,0.3-0.4,0.5c-0.2,0.1,0,0.6-0.4,0.5c-0.2,0.6-0.5,1.2-0.9,1.8c-0.2,0.6-0.4,1.2-0.8,1.7
			c-0.3-0.1-0.3,0.1-0.5,0.1c-0.4,0-0.7-0.3-0.9-0.6c-0.1-1,0.8-1.6,0.5-2.4c0.7-0.7,1.2-1.5,1.2-2.5c0-0.3,0.1-0.4,0.4-0.4
			c-0.3-0.4,0.3-0.6,0-1c0.3,0.1,0.3-0.2,0.1-0.2c0-0.1,0.2-0.1,0.4-0.1c0.8-1.7,1.4-3.6,2.2-5.2c-0.1-0.3,0.2-0.2,0.2-0.4
			C112.6,322.6,113.1,322.8,113.4,323.1z"/>
		<path id="Path_11058" class="st0" d="M139.4,323c0.4,1.2-0.8,2.4-0.4,3.6c-0.5,0.3-0.4,1.2-0.8,1.6c-0.1,0.6-0.2,1.3-0.5,1.9
			c0,0.3,0,0.7-0.1,0.9c0.4,0.1,0.1,0.2,0.1,0.5c0.2,0.5-0.7,0.6-0.3,0.9c-0.1,0.3-0.1,0.7-0.4,0.9c0.2,0.2,0.2,0.1,0.1,0.5
			c-0.1,0-0.1,0.2-0.1,0.4c0.1,0.4-0.4,0.2-0.4,0.5c-0.1,0.8-0.3,1.6-0.6,2.4c-0.3,1.7-0.9,3.1-1.1,4.9c-0.2,0.8-0.2,1.8-0.9,2.1
			h-0.8c-0.6-0.4-0.4-1.7,0-2.1c0.1-1.3,0.4-2.6,0.9-3.9c0-0.3-0.3-0.2-0.3-0.5c0,0,0.4-0.4,0.4-0.5c0.1-0.3-0.1-0.4-0.1-0.8
			c0.8-1.2,0.7-3.5,1.5-4.7c-0.1-0.2,0.2-0.7-0.1-0.7c0.3-0.5,0.5-1.1,0.5-1.8c0.4-0.9,0.7-1.9,0.9-2.9c0.3-1,0.6-2,0.9-3
			c0-0.2,0.2-0.2,0.3-0.4C138.6,322.7,139,322.8,139.4,323z"/>
		<path id="Path_11059" class="st0" d="M123.9,331.1c0.5,0.7-0.3,1.5,0,2c-0.4,0.3-0.5,0.9-0.8,1.4c0.2,0.8-0.2,1.1-0.1,1.6
			c-0.1,0.2-0.4,0.2-0.5,0.4c-0.1,0.7-0.3,1.4-0.6,2c-0.1,0.6-0.4,1.2-0.8,1.8c-0.4,0-0.8,0-1.1-0.1c-0.2-0.9,0-1.9,0.5-2.8
			c-0.1-0.2-0.1-0.5,0-0.8c0.2-0.6,0.3-1.5,0.8-1.9c-0.2-0.7,0.3-1.1,0.6-1.6c0-0.7,0.5-1,0.5-1.7c0.2-0.1,0.3-0.2,0.4-0.4
			C123.2,331,123.5,331,123.9,331.1z"/>
		<path id="Path_11060" class="st0" d="M213.5,334.5c0.4,0.8,0.7,1.6,0.8,2.5c0,0.2,0.4,0,0.4,0.3c0,0.2-0.1,0.2-0.3,0.3
			c0,0.1,0.2,0.1,0.4,0.1c0.2,1.5,0.7,2.3,0.6,3.9c0.3,0.7,0.4,1.4,0.4,2.1c-0.2,0.1-0.3,0.2-0.4,0.4c-1.5,0.4-1-1.3-1.9-1.5
			c0.1-0.4,0.2-0.7,0.1-1.1c0.1-0.3-0.2-0.3-0.1-0.6c-0.1-0.1,0-0.5-0.4-0.4c-0.1-0.3,0.4-0.4-0.1-0.4c-0.1-0.3,0.4-0.4-0.1-0.4
			c0.1-0.1,0.2-0.2,0-0.3c0-0.2,0.1-0.2,0.3-0.3c-0.5-1.4-0.8-2.8-0.9-4.2C212.5,334.5,213,334.4,213.5,334.5z"/>
		<path id="Path_11061" class="st0" d="M174.9,348.7h-1c-0.6-0.4,0.1-2.1-0.6-2.4c0.5-0.4,0.1-1.7,0.4-2.2c-0.2-0.3-0.2-0.7-0.1-1.1
			c0.1-0.1-0.1-0.2-0.1-0.2c-0.1-0.4,0-0.7-0.1-1c0.1-0.1,0.1-0.3,0.4-0.5c-0.2-2-0.2-4,0-6c0.4-0.3,1-0.3,1.4,0
			c0.2,1,0.1,2.4,0.3,3.5c0,0.2,0,0.4,0.2,0.4c-0.4,0.4,0.1,0.7-0.1,1c0.2,0.3,0.1,1,0.1,1.5c-0.1,0.3,0,0.9-0.2,1.1
			c-0.1,0.4,0.3,0.2,0.2,0.6c-0.2,1.7-0.3,3.3-0.2,5C175.1,348.4,174.9,348.6,174.9,348.7z"/>
		<path id="Path_11062" class="st0" d="M149.3,337.4v1.3c0,0.3,0,0.4,0.3,0.4c-0.6,0.9-0.8,2.1-0.5,3.1c0.1,0.3-0.2,0.2-0.4,0.2
			c-0.1,0.8-0.3,1.7-0.5,2.5c-0.1,0.7,0,1.4-0.5,1.8c-0.5,0.1-0.9,0-1.2-0.4c-0.1-0.9,0.1-1.8,0.4-2.6c-0.4-0.2-0.1-0.2-0.1-0.7
			c0.2-0.5,0-1.3,0.4-1.6c-0.4-0.6,0.2-0.8,0-1.3c0.3-0.2,0.3-0.7,0.5-1c-0.1-0.6,0-1.2,0.3-1.8
			C148.2,336.9,148.9,336.9,149.3,337.4z"/>
		<path id="Path_11063" class="st0" d="M344,133.5v0.9c-0.3,0.5-1,0.5-1.9,0.5c-0.7,0.2-1.7,0.8-2.5,0.6c-0.2,0.3-0.7,0.3-0.9,0.6
			c-2,0.1-4,0.5-6,1c-0.6,0.1-1.1,0.4-1.5,0.8h-1.1c-0.6,0.4-0.9,0.2-1.5,0.5c-0.5-0.1-0.5,0.2-0.9,0.3c-0.3,0-0.6,0-0.9,0.2
			c-0.4-0.2-0.9,0-1.6,0c-0.5,0.2-0.9,0.4-1.4,0.6c-0.8,0.1-0.9,0.1-1.5,0.1c-1.2,0.4-2.5,0.6-3.7,0.9c-0.6,0-0.8,0.5-1.2,0.6
			c-1.4,0.3-2.7,0.5-4.1,0.6c-0.5,0.2-1.7,0.7-2.2,0.1c0-0.1,0-0.2-0.1-0.2c-0.1-1.4,1.4-1.2,2.2-1.6c1.2,0,2.4-0.2,3.5-0.5
			c0.5-0.1,0.7-0.5,1.2-0.6c0.5-0.1,1.1-0.2,1.6-0.2c0.4-0.1,0.6-0.5,1.2-0.4c0-0.1,0.1-0.1,0.1-0.3c0.2,0,0.3,0.1,0.1,0.1
			c0,0.2,0.5-0.1,0.6-0.1c0.1-0.2,0.2,0.1,0.4-0.3c0.6,0,0.8-0.2,1.1,0c0.5-0.3,1-0.5,1.5-0.8c2-0.1,3.3-0.8,5.4-0.9
			c0.7-0.4,1.5-0.7,2.4-0.9c0.9-0.1,1.8-0.2,2.6-0.5c1.3,0,2.7-0.3,3.9-0.9c0.6,0,0.9-0.2,1.5-0.1c0.4-0.2,0.9-0.4,1.4-0.6
			C342.6,133.2,343.7,133,344,133.5z"/>
		<path id="Path_11064" class="st0" d="M340.2,227.6c0.3,0.5-0.1,0.9-0.4,1.3c-1.1-0.1-2.2-0.4-3.2-0.9c-0.3-0.1-0.9,0.1-1-0.4
			c-0.8,0.2-0.4,0.1-1.3,0c-1.4-0.6-2.4-1.6-4.2-1.6c-0.2-0.3-0.8-0.3-1-0.6c-0.9,0.1-1.4-0.3-2-0.1c-0.2-0.2-0.6-0.4-0.8-0.6
			c-0.2-0.2-0.8,0-1-0.2c-0.3-0.1-0.9,0-0.9-0.4c-0.3-0.2-0.4,0.5-0.5,0.1c-0.5,0.1-0.3-0.6-0.6-0.3c-0.2-0.5-0.4,0.1-0.5-0.1
			c-0.3,0.1-0.2-0.3-0.4-0.4c-0.1-0.1-0.5-0.1-0.6-0.1c-0.9-0.4-2.1-0.9-3.2-1.2h-1.1c-1.4-0.8-3.3-1.1-4.9-1.8
			c-0.7-0.4-1.7-0.4-2.5-0.8c-0.6-0.4-1.9-0.3-2.2-1c-0.1-0.4,0.1-0.9,0.5-1.1c1.2-0.1,2.4,0.6,3.4,0.9c0.7,0.2,1.5,0.1,2,0.6
			c0.8,0.1,1.2,0.5,2,0.6c0.8,0.1,1.3,0.6,2,0.4c-0.1,0.3,0.2,0.2,0.4,0.2c0.2,0.1,0,0.1,0,0.3c0.5-0.1,0.8,0,1.1-0.1
			c1,0.2,1.8,0.7,2.9,0.9c0.7,0.5,1.9,0.5,2.5,1.1c1,0,2.1,0.4,2.9,1c1,0.1,2,0.4,3,0.8c0.3,0.1,0.6,0.2,0.7,0.5
			c0.3-0.3,0.6,0.1,1.1,0c-0.1,0.4,0.4,0.2,0.5,0.4c0.2,0.1,0.3,0.3,0.6,0.3c0.4,0.1,0.7,0.4,1,0.6c0.5,0,0.7,0.2,1.2,0.1
			c0.7,0.3,1.5,0.6,2.2,0.9C338.8,226.9,339.7,227,340.2,227.6z"/>
		<path id="Path_11065" class="st0" d="M48.3,226.4v0.9c-0.5,0.5-1.2,0.8-1.9,1c-0.7,0.2-1.3,0.5-1.9,0.9c-0.4,0.2-1,0.2-1.1,0.8
			c-0.2-0.2-0.6,0.1-0.9,0.2c-0.5-0.1-0.6,0.3-0.9,0.4c-2.7,0.1-4,1.7-6.2,2.2c-0.4,0.2-1,0.9-1.5,0.6c-0.4,0.2-0.5,0.5-0.8,0.8
			c-0.7-0.1-0.7,0.3-1.6,0.3c-0.5-0.1,0.1,0.3-0.4,0.4c-0.5-0.1-0.7,0.2-0.9,0c0.1,0.6-0.4,0-0.4,0.5c-0.4-0.2-0.7,0-1.3,0.1
			c-0.4,0.1-1.2,0.5-1.7,0.8c-0.9,0.4-1.8,0.9-2.6,1.4c-0.5,0-0.6,0.3-1.1,0.3c-0.6,0.2-1,0.6-1.7,0.9c-0.2,0.1-0.6,0.1-0.8,0.1
			c-0.1,0-0.2,0.2-0.3,0.3c-0.1,0-0.3,0-0.4,0c-0.1,0-0.2,0.2-0.3,0.2c-0.1,0-0.3,0-0.4,0c-0.4,0.2-0.7,0.5-1.1,0.6
			c-0.4,0.2-1,0.2-1.4,0.4c-0.6,0.3-0.9,0.7-1.6,1c-0.6,0.4-1.3,0.5-2,0.3c-0.6-1.2,0.5-1.7,1.4-1.9c0.7-0.5,1.5-0.9,2.2-1.1
			c1.3-0.6,2.6-1.1,4-1.5c0.3-0.2,0.6-0.4,1-0.5c0.3-0.2,0.7-0.3,0.8-0.6c0.8,0.1,1-0.3,1.4-0.3c0.3-0.2,0.5-0.3,0.6-0.6
			c0.5,0,0.9-0.4,1.4-0.6c2-0.9,4-1.6,6.1-2.1c0.8-0.3,1.5-0.7,2.1-1.3c0.6-0.1,1.4-0.5,1.6-0.2c0.6-0.7,2-0.8,2.6-1.5
			c0.5,0.1,0.9-0.1,1.3-0.4c0.4,0,0.9,0.1,1.1-0.1c1.1-0.4,2.6-1.2,3.9-1.8c0.3-0.1,0.6-0.1,0.9-0.3
			C46.5,226.5,47.4,225.6,48.3,226.4z"/>
		<path id="Path_11066" class="st0" d="M290.9,258c-0.3-0.3-0.6-0.7-0.9-0.9c-0.2-0.1-0.4-0.1-0.6-0.2c-0.3-0.2-0.5-0.4-0.8-0.6
			c-0.1-0.1-0.3-0.1-0.4-0.1c-0.1-0.1-0.2-0.1-0.3-0.2c-0.4,0.4-0.8,0.9-1.2,1.3c0.7,0.6,1.5,1,2.3,1.4c0.4,0.5,0.8,0.9,1.4,1.3
			c0.4,0.3,1,1,1.9,0.8C293.6,259.5,291.7,258.8,290.9,258z"/>
	</g>
</g>
</svg>
