<svg xmlns="http://www.w3.org/2000/svg" width="301.193" height="366.482" viewBox="0 0 301.193 366.482">
  <g id="Group_46" data-name="Group 46" transform="translate(-453.742 1393.645) rotate(-79)">
    <path id="Path_10364" data-name="Path 10364" d="M1237.5,248.3a3.132,3.132,0,0,0,.427-.028,2.461,2.461,0,0,0,2.232-2.457,1.073,1.073,0,0,0,.746-.078,1.088,1.088,0,0,0,.5-1.456c-.892-1.815-3.467-2.42-5.223-1.828a2.768,2.768,0,0,0-1.939,3.335A3.264,3.264,0,0,0,1237.5,248.3Zm-.624-3.784a2.25,2.25,0,0,1,.711-.108,2.937,2.937,0,0,1,1.014.183,1.088,1.088,0,0,0-.622,1.066c.023.319-.051.416-.345.456a1.138,1.138,0,0,1-1.256-.749C1236.293,244.965,1236.349,244.7,1236.872,244.519Z" transform="translate(69.542 1.252)" fill="#0a0a0a"/>
    <path id="Path_10365" data-name="Path 10365" d="M1466.451,435.742c-.937-3.512-2.781-4.331-3.8-4.507a3.7,3.7,0,0,0-3.652,1.678,4.608,4.608,0,0,0-.613,1.268c-8.476-3.765-13.338-5.113-23.135-5.113a1.055,1.055,0,0,0-.4.082q-4.194-3.481-8.495-6.909c-.219-.3-.456-.584-.706-.862,5.094-2.192,22.337-.483,25.347,2.087a1.177,1.177,0,0,0,.143.082c.059.148.112.293.194.453,1.11,2.159,2.536,2.54,3.406,2.54a2.921,2.921,0,0,0,.474-.038,3.414,3.414,0,0,0,1.34-.556,1.09,1.09,0,0,0,2.033-.46,6.465,6.465,0,0,0-.2-2.211,4.37,4.37,0,0,0,.087-.449,3.276,3.276,0,0,0-1.861-3.571,1.083,1.083,0,0,0-1.448.5,3.462,3.462,0,0,0-3.685.6,2.443,2.443,0,0,0-.424.65c-5.788-2.739-22.619-4.08-27.2-1.167a1.1,1.1,0,0,0-.237.23q-4.461-3.486-9.077-6.81a63.687,63.687,0,0,1,22.274-4.089,3.45,3.45,0,0,0,2.381,2.878,3.177,3.177,0,0,0,.819.1,5.735,5.735,0,0,0,3.793-1.845,1.108,1.108,0,0,0,.415.125,1.085,1.085,0,0,0,1.188-.979,4.553,4.553,0,0,0-.085-1.411,3.073,3.073,0,0,0-.023-2.444,1.091,1.091,0,0,0-1.7-.331,5.788,5.788,0,0,0-.8-.563,4.491,4.491,0,0,0-4.746-.186,3.37,3.37,0,0,0-1.4,2.477,67.412,67.412,0,0,0-24.288,4.728q-4.087-2.872-8.316-5.552c-.1-.162-.185-.347-.282-.5,4.167-2.9,8.4-3.4,13.223-3.93,1.967-.22,4-.455,6.11-.861a4.968,4.968,0,0,0,4.221,2.066,6.732,6.732,0,0,0,2.176-.364c2.263-.779,4.3-2.841,3.753-5.69a1.089,1.089,0,0,0-2.157.146,5.826,5.826,0,0,0-2.9-2.4,4.838,4.838,0,0,0-5.334.784,3.558,3.558,0,0,0-.664,3.415c-1.863.334-3.679.542-5.448.737-5.281.584-10.272,1.162-15.22,5.035q-4.477-2.72-9.093-5.155c3.911-2.943,9.946-6.122,14.934-6.721a3.487,3.487,0,0,0,2.974,1.821l.089,0a4.384,4.384,0,0,0,3.9-3.153l.005-.017a1.072,1.072,0,0,0,.138-.415,3.939,3.939,0,0,0-2.131-4.009,4.4,4.4,0,0,0-4.781.164,3.379,3.379,0,0,0-1.011,3.544c-5.615.849-12.085,4.352-16.178,7.615-.026.021-.038.052-.062.075q-4.719-2.4-9.6-4.5c-.063-.064-.113-.134-.178-.2-.009-.009-.019-.01-.029-.019,2.537-3.777,9.418-5.533,14.035-6.7l.209-.054a2.691,2.691,0,0,0,2.545,2.045h.007c1.817,0,3.782-1.937,4.883-4.108.021.1.042.206.058.312a1.089,1.089,0,0,0,2.151-.341,6.909,6.909,0,0,0-1.507-3.39,1.089,1.089,0,0,0-.26-.291,5.626,5.626,0,0,0-4.627-1.829c-1.894.23-3.989,1.8-3.69,5.467l-.307.078c-5.408,1.373-12.8,3.251-15.6,8.051q-4.362-1.808-8.857-3.385l.007-.019c1.012-5.2,7.727-8.434,12.629-10.795l.742-.361a3.807,3.807,0,0,0,2.563,2.925,3.34,3.34,0,0,0,1.059.183,2.83,2.83,0,0,0,2.551-1.706,5.257,5.257,0,0,0,.409-1.148,1.088,1.088,0,0,0,1.823-.65,3.312,3.312,0,0,0-1.2-2.977,4.729,4.729,0,0,0-.779-.559,2.591,2.591,0,0,0-.85-1.24,1.708,1.708,0,0,0-2.3.336,1.1,1.1,0,0,0-.153.2,4.352,4.352,0,0,0-.5.1,3.594,3.594,0,0,0-2.394,2.2,1.064,1.064,0,0,0-.573.089l-1.342.652c-5.237,2.521-12.369,5.969-13.749,12.065q-5.182-1.751-10.556-3.213c.906-.848,1.774-1.723,2.6-2.6,2.937-3.125,5.711-6.077,10.875-6.251a1.091,1.091,0,0,0,.754-.341,2.688,2.688,0,0,0,1.385.4,3.014,3.014,0,0,0,1.225-.27,3.973,3.973,0,0,0,1.592-1.321,1.089,1.089,0,0,0,2,.859,2.988,2.988,0,0,0-.967-4.009c-1.756-1.155-4.925-.934-6.164.43a2.109,2.109,0,0,0-.451,2.132c-5.692.394-8.826,3.676-11.836,6.878a39.515,39.515,0,0,1-3.528,3.429q-6.225-1.6-12.725-2.817a44.491,44.491,0,0,1,16.5-7.469,3.626,3.626,0,0,0,2.9,1.735,2.932,2.932,0,0,0,1.05-.2,4.572,4.572,0,0,0,2.371-2.51,1.088,1.088,0,0,0,1.991-.866,5.118,5.118,0,0,0-2.1-2.639,2.166,2.166,0,0,0-1.566-.807,1.175,1.175,0,0,0-.294.016,6.136,6.136,0,0,0-.838-.143,4.127,4.127,0,0,0-4.093,1.6,2.729,2.729,0,0,0-.341,1.788,45.311,45.311,0,0,0-18.171,8.742,1.127,1.127,0,0,0-.185.232q-2.3-.4-4.645-.758-3.5-.533-7.019-1.005c1.225-1.279,2.47-2.592,3.751-3.941,3.488-3.683,7.19-7.573,11.058-11.389a.426.426,0,0,0,.064-.014c4.108-1.819,8.932-.782,13.6.22a42.032,42.032,0,0,0,8.584,1.24c.117,0,.231-.007.347-.01a2.925,2.925,0,0,0,.883,2.516,3.976,3.976,0,0,0,2.936,1.338,4.159,4.159,0,0,0,1.4-.251,4.685,4.685,0,0,0,3.117-3.808,3.148,3.148,0,0,0-1.847-3.063,1.09,1.09,0,0,0-1.469.463,1.137,1.137,0,0,0-.106.314,4.7,4.7,0,0,0-3.6.648,1.11,1.11,0,0,0-.838-.347,35.023,35.023,0,0,1-8.95-1.169c-3.636-.781-7.361-1.564-10.949-1.138,2.7-2.554,5.47-5.03,8.317-7.34a1.071,1.071,0,0,0,.359.071,98.558,98.558,0,0,1,10.667.477,25.346,25.346,0,0,1,3.725.92,26.611,26.611,0,0,0,6,1.284,2.55,2.55,0,0,0,.821,2.369,3.446,3.446,0,0,0,2.413.909,5.426,5.426,0,0,0,2.031-.43,7.832,7.832,0,0,0,1.913-1.145,1.092,1.092,0,0,0,.6.179h0a1.089,1.089,0,0,0,1.089-1.089,7.058,7.058,0,0,0-.057-.93,4.087,4.087,0,0,0,.6-1.9,3.176,3.176,0,0,0-1.957-3.044,1.089,1.089,0,0,0-1.413,1.557,5.524,5.524,0,0,0-4.375,1.129c-1.381.681-4.524-.24-7.058-.984a26.6,26.6,0,0,0-4.1-.995c-2.425-.27-5.274-.42-8.6-.469.542-.413,1.078-.843,1.624-1.24,3.326-2.418,6.514-5.206,9.6-7.9,1.018-.889,2.045-1.782,3.082-2.669a1.08,1.08,0,0,0,.772.331c7.756.056,13.908,1.251,18.805,3.65.01.005.022,0,.033.009a3.544,3.544,0,0,0-1.119,1.416c-.258.66-.587,2.335,1.937,3.648a4.637,4.637,0,0,0,2.148.54,4.808,4.808,0,0,0,3.214-1.3c1.669-1.491,2.448-3.862,1.812-5.516a3.324,3.324,0,0,0-3.256-1.948,1.089,1.089,0,0,0-.856,1.754,6.819,6.819,0,0,0-2.357.51,1.083,1.083,0,0,0-.6-1.073c-4.9-2.4-10.941-3.65-18.392-3.836,1.758-1.451,3.54-2.836,5.34-4.066a46.787,46.787,0,0,1,9.652-4.836c11.584.033,21.468,2.761,27.138,7.5a1.048,1.048,0,0,0,.305.174,3.392,3.392,0,0,0,.841,1.5,4.008,4.008,0,0,0,4.146,1.167,3.95,3.95,0,0,0,1.038-.477,1.088,1.088,0,0,0,2.04-.281,4.153,4.153,0,0,0-.585-3.268,5.787,5.787,0,0,0-2.582-3.279,1.089,1.089,0,0,0-1.551,1.463,4.035,4.035,0,0,0-2.7,1c-6.488-5.157-15.9-6.9-22.624-7.443q1.2-.4,2.4-.791c2.545-.838,5.178-1.7,7.687-2.66a50.28,50.28,0,0,1,8.057-2.265,80.567,80.567,0,0,1,16.542,4.974,36.426,36.426,0,0,1,7.711,4.918,37.645,37.645,0,0,0,7.714,4.93,6.433,6.433,0,0,0-.056,1.518,4.768,4.768,0,0,0,2.481,4.082,4.719,4.719,0,0,0,1.99.483,3.492,3.492,0,0,0,2.342-.9,5.78,5.78,0,0,0,1.31-5.854,3.78,3.78,0,0,0-1.587-2.113,3.448,3.448,0,0,0-.491-.4,3.727,3.727,0,0,0-4.3.167,3.669,3.669,0,0,0-.918.983,36.115,36.115,0,0,1-7.171-4.631,37.742,37.742,0,0,0-8.218-5.206,104.088,104.088,0,0,0-11.378-3.875,114.122,114.122,0,0,1,12.256-.582c5.868,0,17.732-.016,26.06,2.329-.038.078-.1.143-.132.225-.26.685-.633,2.493,1.509,4.525a5.1,5.1,0,0,0,3.4,1.713,2.787,2.787,0,0,0,1.388-.369c2.223-1.26,2.485-5.145,1.958-7.5a1.085,1.085,0,0,0-.779-.814,2.794,2.794,0,0,0-.882-.065,1.094,1.094,0,0,0-1.125.535,4.588,4.588,0,0,0-1.922-.35,4.3,4.3,0,0,0-1.585.388c-7.6-2.463-17.911-2.8-27.9-2.794a106.192,106.192,0,0,0-15.211.949c.214-.225.439-.444.652-.671,2.735-2.908,5.32-5.655,9.059-7.511,4.439-2.2,9.138-2.329,14.1-2.34a4.213,4.213,0,0,0,.985.965,4.165,4.165,0,0,0,4.561.261,3.046,3.046,0,0,0,.57-.481,1.533,1.533,0,0,1-.084.9c-.047.1-.2.392-.981.334a1.089,1.089,0,0,0-.171,2.171c.12.01.237.016.352.016a2.912,2.912,0,0,0,2.742-1.531c.728-1.434.265-3.58-1.127-5.24a1.091,1.091,0,0,0-.838-.838,6.106,6.106,0,0,0-5.943-1.084,1.092,1.092,0,0,0-.723.784,5.1,5.1,0,0,0-.125,1.565c-4.945.023-9.646.265-14.286,2.566-4.091,2.03-6.93,5.051-9.679,7.969-.838.892-1.687,1.779-2.561,2.645a1.065,1.065,0,0,0-.711.268,51.733,51.733,0,0,0-7.64,2.214c-2.462.939-5.069,1.8-7.59,2.625-2.594.854-5.22,1.725-7.793,2.707l-.049.019c-.493.188-.986.375-1.474.573.145-.254.3-.521.446-.772,3.648-6.408,6.819-11.951,14.89-15.237a1.082,1.082,0,0,0,.69.442,4.453,4.453,0,0,0,.676.052,4.105,4.105,0,0,0,2.378-.744,1.122,1.122,0,0,0,.429.172,1.092,1.092,0,0,0,1.258-.892,4,4,0,0,0-.253-2.505,2.281,2.281,0,0,0-.133-.383,2.455,2.455,0,0,0-2.251-1.375,1.105,1.105,0,0,0-.949.441,3.505,3.505,0,0,0-1.542.937,3,3,0,0,0-.819,1.709c-9,3.549-12.371,9.462-16.267,16.3-.624,1.1-1.263,2.218-1.941,3.356a40.444,40.444,0,0,0-5.366,3.042c-1.632,1.117-3.237,2.359-4.821,3.645.06-.326.12-.665.183-1.016.723-4.03,1.769-9.814,4.068-12.49a4.036,4.036,0,0,0,2.46.761,6.086,6.086,0,0,0,1.645-.239c1.575-.443,3.263-1.575,3.481-3.1a2.533,2.533,0,0,0-1.4-2.566,1.133,1.133,0,0,0-.334-.138,4.843,4.843,0,0,0-6.967,1.159,2.9,2.9,0,0,0-.146,2.288c-2.981,3.024-4.1,9.237-4.944,13.944-.249,1.385-.465,2.582-.686,3.467a.82.82,0,0,0-.007.145c-1.108.948-2.209,1.9-3.292,2.848-3.049,2.664-6.2,5.418-9.446,7.779-.54.394-1.068.819-1.6,1.225,1.24-4.1,3.411-10.477,6.767-14.206a4.892,4.892,0,0,0,3.291-1.538,3.292,3.292,0,0,0,.216-4.484,1.088,1.088,0,0,0-1.531-.159l-.012.009a2.169,2.169,0,0,0-.786-.444,4.382,4.382,0,0,0-4.664,2.234,2.862,2.862,0,0,0,1.2,3.72c-3.761,4.727-5.949,12.129-7.051,15.877-.157.533-.286.967-.4,1.319-3.1,2.531-6.12,5.241-9.039,8.033.124-.652.293-1.291.481-1.97a20.559,20.559,0,0,0,.76-3.669,36.77,36.77,0,0,1,.888-4.474,31.152,31.152,0,0,0,1.049-6.133,3.73,3.73,0,0,0,1.042-.888,3.6,3.6,0,0,0,.026-4.535c-.643-1.408-1.507-2.139-2.577-2.179-1.248-.042-2.476,1.021-3.078,2.723-.669,1.894-.3,3.721.948,4.653a3.379,3.379,0,0,0,1.462.652,36.794,36.794,0,0,1-.99,5.2,37.773,37.773,0,0,0-.937,4.772,18.767,18.767,0,0,1-.691,3.294,14.8,14.8,0,0,0-.708,4.814c-3.924,3.864-7.671,7.8-11.2,11.53-1.54,1.625-3.043,3.213-4.505,4.732a1.082,1.082,0,0,0-.234.375q-6.9-.9-13.842-1.636c.235-.056.469-.113.709-.169a25.838,25.838,0,0,0,3.063-.847c.509-.186,1.113-.388,1.768-.6,2.47-.821,5.455-1.817,7.237-3.274.144.12.268.24.436.359a3.494,3.494,0,0,0,2.031.66,4.109,4.109,0,0,0,2.448-.875,5.781,5.781,0,0,0,1.258-1.31,1.054,1.054,0,0,0,.848-.38,1.089,1.089,0,0,0-.042-1.465,2.631,2.631,0,0,0-.073-1.315,2.221,2.221,0,0,0-2.314-1.469h-.042a1.09,1.09,0,0,0-1.077,1.1,1.171,1.171,0,0,0,.012.159,6.784,6.784,0,0,0-3.309.251,2.192,2.192,0,0,0-1.575,1.761,1.954,1.954,0,0,0,.075.787c-1.417,1.213-4.373,2.2-6.6,2.941-.68.227-1.3.434-1.834.629a23.781,23.781,0,0,1-2.8.768,15.387,15.387,0,0,0-4.962,1.794q-3.985-.4-7.96-.775a15.241,15.241,0,0,0,2.092-.573c4.779-1.727,9.333-3.6,12.538-7.275.017-.007.031-.023.047-.03a3.378,3.378,0,0,0,1,.167,3.869,3.869,0,0,0,1.9-.517,4.385,4.385,0,0,0,1.833-2.035l.018,0a1.089,1.089,0,0,0,.784-1.326,3.951,3.951,0,0,0-.636-1.355,4.4,4.4,0,0,0-.3-.746,1.086,1.086,0,0,0-.845-.587,2.045,2.045,0,0,0-.566.012,4.577,4.577,0,0,0-1-.284,4.477,4.477,0,0,0-4.429,1.573,3.021,3.021,0,0,0,.12,3.392,4.416,4.416,0,0,0,.317.4c-2.876,3.223-7.082,4.962-11.523,6.568a20.192,20.192,0,0,1-3.471.8,21.329,21.329,0,0,0-3.871.911,1.044,1.044,0,0,0-.4.27.923.923,0,0,0-.167.035q-4.806-.434-9.573-.85l-1.042-.094c.272-.141.542-.284.807-.425.7-.375,1.367-.732,1.972-.99.54-.23,1.089-.453,1.643-.678a29.89,29.89,0,0,0,5.633-2.758c.444-.3.977-.6,1.552-.936a25.915,25.915,0,0,0,3.6-2.385,3.59,3.59,0,0,0,.935.132,5.238,5.238,0,0,0,1.694-.3,4.344,4.344,0,0,0,2.345-1.707,1.009,1.009,0,0,0,.352-.028,1.088,1.088,0,0,0,.793-1.321,4.126,4.126,0,0,0-3.528-3.3,4.559,4.559,0,0,0-4.488,2.009,3,3,0,0,0,.148,3.131,26.485,26.485,0,0,1-2.937,1.883c-.625.361-1.2.7-1.687,1.023a28.322,28.322,0,0,1-5.23,2.542c-.565.228-1.127.456-1.678.692-.657.281-1.382.664-2.143,1.071-1.826.972-3.894,2.073-5.469,1.843q-6.419-.572-12.87-1.19a.9.9,0,0,0-.652-.2,1.082,1.082,0,0,0-.432.1c-20.511-2.01-41.17-4.646-60.9-9.627a212.972,212.972,0,0,1-28.344-9.2,54.338,54.338,0,0,0,16.671-4.6,1.067,1.067,0,0,0,.972.134c3.336-1.228,7.187-1.207,10.518-1.021.5.026,1.124.04,1.815.057a34.391,34.391,0,0,1,6.542.571,3.334,3.334,0,0,0-.549,1.014c-.172.575-.5,2.544,2.464,3.721a5.241,5.241,0,0,0,1.92.392,3.843,3.843,0,0,0,2.993-1.39c.093-.108.18-.221.261-.336a1.155,1.155,0,0,0,.211.045,1.094,1.094,0,0,0,1.207-.955,4.81,4.81,0,0,0-.587-3.3A5.386,5.386,0,0,0,1215.9,347a1.089,1.089,0,0,0-1.974.219,6.25,6.25,0,0,0-3.328.721c-1.878-.909-4.955-1.063-8.465-1.145-.667-.016-1.267-.028-1.747-.056a45.038,45.038,0,0,0-5.409-.021c1.369-.747,2.681-1.5,3.918-2.24.458-.272.888-.568,1.335-.852.01,0,.021.007.033.007a1.091,1.091,0,0,0,.984-.622l.018-.045q.483-.327.958-.659a22.025,22.025,0,0,0,3.821-.866,23.159,23.159,0,0,1,3.1-.765,26.966,26.966,0,0,1,8.749.4c.066.88.6,2.014,2.448,3.1a4.232,4.232,0,0,0,2.133.66,2.721,2.721,0,0,0,1.744-.615,3.065,3.065,0,0,0,.7-.822,1.15,1.15,0,0,0,.188.052,1.081,1.081,0,0,0,1.273-.864c.47-2.469-.446-4.315-2.454-4.943a5.38,5.38,0,0,0-5.267,1.369,29.544,29.544,0,0,0-9.836-.49,19.189,19.189,0,0,0-2.342.533,108.369,108.369,0,0,0,8.068-7.549,30.8,30.8,0,0,0,6.6-.592c3.512-.571,7.127-1.15,9.871.091a3.718,3.718,0,0,0-.467,2.493,4.054,4.054,0,0,0,4.016,3.584,3.21,3.21,0,0,0,2.539-1.2,4.774,4.774,0,0,0,.965-3.268,1.732,1.732,0,0,1,.6,1.648,1.09,1.09,0,1,0,2.131.456,4.1,4.1,0,0,0-2.084-4.352,7.517,7.517,0,0,0-2.575-1.024,3.359,3.359,0,0,0-2.009-.284,1.092,1.092,0,0,0-.54.24,4.787,4.787,0,0,0-.77.228c-3.477-2.115-7.816-1.441-12.025-.756-1.443.233-2.824.442-4.118.542q.75-.779,1.493-1.556c1.932-2.019,3.936-4.07,5.984-6.082a27.218,27.218,0,0,0,4.967-.812,20.323,20.323,0,0,1,12.361.329,3.631,3.631,0,0,0-.632.737,3.531,3.531,0,0,0,.451,4.174,3.415,3.415,0,0,0,2.739,1.4,3.677,3.677,0,0,0,.758-.08,5.111,5.111,0,0,0,3.61-3.335,1.091,1.091,0,0,0,.3-.922,4.162,4.162,0,0,0-.317-1.087,2.875,2.875,0,0,0-.885-1.225,1.15,1.15,0,0,0-.157-.108,3.825,3.825,0,0,0-1.594-.727,4.931,4.931,0,0,0-2.249.082,1.077,1.077,0,0,0-.729-.808,26.929,26.929,0,0,0-8.472-1.409,30.125,30.125,0,0,0-5.673.855c-.636.148-1.26.286-1.876.409,1.413-1.317,2.807-2.653,4.214-3.981a1.06,1.06,0,0,0,.521-.493l.208-.2a9.274,9.274,0,0,0,1.756.183,21.575,21.575,0,0,0,5.242-.88,15.849,15.849,0,0,1,6.115-.754c-.017.035-.044.063-.061.1a3.774,3.774,0,0,0-.012,3.355,3.356,3.356,0,0,0,2.923,2.091,3.192,3.192,0,0,0,1.165-.23,5.825,5.825,0,0,0,2.965-3.108,1.087,1.087,0,0,0,.415-1.221,4.972,4.972,0,0,0,.012-2.4,1.089,1.089,0,0,0-1.983-.279,3.251,3.251,0,0,0-2.76-.463,3.662,3.662,0,0,0-.953.371,1.063,1.063,0,0,0-.233-.12c-2.819-.791-5.518-.108-8.129.554a21.9,21.9,0,0,1-4.336.8c2.5-2.376,4.969-4.727,7.432-7.092h.005a1.074,1.074,0,0,0,.505-.488l.082-.08c1.124-.007,2.234-.059,3.324-.118,2.986-.162,5.819-.3,8.451.725a4.63,4.63,0,0,0,3.977,5.014,2.973,2.973,0,0,0,1.441-.369,3.383,3.383,0,0,0,1.611-2.251,1.189,1.189,0,0,0,.265-.021,1.091,1.091,0,0,0,.842-1.291,4.58,4.58,0,0,0-6.871-2.9c-3.213-1.411-6.575-1.251-9.831-1.077-.281.014-.57.016-.852.03.852-.819,1.726-1.655,2.572-2.469,2.171-2.089,4.392-4.22,6.6-6.342,3.583-1.035,8.061-.449,13.652,1.786a4.263,4.263,0,0,0,.568,2.561,3.2,3.2,0,0,0,2.828,1.986l.063,0a3.32,3.32,0,0,0,2.721-1.784h.005a1.09,1.09,0,0,0,1.087-1.04,4.069,4.069,0,0,0-2.409-4.185,3.739,3.739,0,0,0-3.8.54c-4.589-1.864-8.54-2.69-11.96-2.507,2.059-1.969,4.138-3.92,6.213-5.88,1.049-.035,2.284-.167,3.585-.3,3.451-.368,8.174-.869,9.831.584a1.05,1.05,0,0,0,.432.22,3.256,3.256,0,0,0,.373,2.272,3.3,3.3,0,0,0,2.9,1.918,3.255,3.255,0,0,0,.516-.04,4.228,4.228,0,0,0,3.319-3.293,3.151,3.151,0,0,0-1.652-3.382,1.089,1.089,0,0,0-1.1,0,4.407,4.407,0,0,0-3.245.812.915.915,0,0,0-.112-.146c-2.375-2.084-7.219-1.568-11.5-1.113l-.836.085c.474-.444.944-.9,1.418-1.34a52.025,52.025,0,0,1,4.458-3.676c1.091-.056,2.237-.146,3.464-.261,3.446-.322,7.354-.69,9.777.244.024.009.047.007.071.014a3.806,3.806,0,0,0,.779,2.855,3.713,3.713,0,0,0,3.016,1.831,3.125,3.125,0,0,0,.667-.073,3.393,3.393,0,0,0,2.4-2.1,1.089,1.089,0,0,0,1.077-.951,3.553,3.553,0,0,0-2.15-3.906,4.764,4.764,0,0,0-4.707.533,1.077,1.077,0,0,0-.365-.232c-2.859-1.1-6.956-.739-10.6-.4.57-.392,1.141-.786,1.707-1.172,1.761-1.2,3.545-2.423,5.286-3.732a1.086,1.086,0,0,0,.373-.2,2.521,2.521,0,0,0,.256-.284q.632-.489,1.256-1c1.759.382,4.59.674,7.347.956,2.437.251,5.376.554,6.653.869a5.024,5.024,0,0,0,.22,1.951c.765,2.366,1.942,2.831,2.753,2.831a2.162,2.162,0,0,0,.6-.085,4.829,4.829,0,0,0,2.662-3.1,1.078,1.078,0,0,0,1.221-.873,3.364,3.364,0,0,0-1.481-3.674,4.211,4.211,0,0,0-4.651.321,3.542,3.542,0,0,0-.535.587,53.941,53.941,0,0,0-7.22-1c-1.925-.2-3.887-.4-5.443-.627a36.022,36.022,0,0,0,3.176-3.293,23.215,23.215,0,0,1,4.253-3.957,28.075,28.075,0,0,1,10.153,2.1,1.071,1.071,0,0,0,.406.078,1.048,1.048,0,0,0,.349-.106c-.017.1-.044.193-.056.289-.331,2.286.451,4.145,2.042,4.85a3.627,3.627,0,0,0,1.479.336,2.814,2.814,0,0,0,1.876-.707,4.617,4.617,0,0,0,1.4-3.451,1.091,1.091,0,0,0,.448-1.368c-1.155-2.706-2.552-3.97-4.155-3.763a3.45,3.45,0,0,0-2.52,2.193,1.041,1.041,0,0,0-.454-.373,33.271,33.271,0,0,0-8.031-2.106l.24-.162a28.861,28.861,0,0,0,3.073-2.514c1.753-1.573,3.564-3.2,5.451-3.545a1.09,1.09,0,0,0-.4-2.143c-2.488.46-4.533,2.293-6.511,4.066a27.035,27.035,0,0,1-2.829,2.328l-.254.171c-.7.467-1.347.9-1.967,1.336.049-.486.134-1.009.219-1.507a11.812,11.812,0,0,0,.263-3.12c-.165-1.556-.751-5.335-2.6-6.8a1.078,1.078,0,0,0-.909-.193,3.827,3.827,0,0,0,.7-1.42,1.049,1.049,0,0,0,.141-.037,1.088,1.088,0,0,0,.7-1.371,3.225,3.225,0,0,0-2.516-2.375,3.574,3.574,0,0,0-3.33,1.488,3.381,3.381,0,0,0-.261,3.591,2.487,2.487,0,0,0,2.212,1.443,2.636,2.636,0,0,0,.432-.038,2.9,2.9,0,0,0,1.1-.486,1.091,1.091,0,0,0,.375,1.106c.786.62,1.519,2.812,1.788,5.326a10.34,10.34,0,0,1-.244,2.519,12.5,12.5,0,0,0-.254,2.913,1.071,1.071,0,0,0-.065.444.983.983,0,0,0,.043.16,24.887,24.887,0,0,0-3.457,3.4,34.875,34.875,0,0,1-3.617,3.662,38.347,38.347,0,0,0-.915-10.887,1.074,1.074,0,0,0-.84-.744,6.152,6.152,0,0,0,0-3.685,1.089,1.089,0,1,0-2.035.777,4.046,4.046,0,0,1-.167,2.6,2.284,2.284,0,0,1-.413-.382c-.474-.53-.281-2.854.664-3.876.312-.34.568-.436,1.093-.04a1.089,1.089,0,1,0,1.314-1.737,2.816,2.816,0,0,0-4.007.3c-1.5,1.627-2.1,5.22-.688,6.8a2.892,2.892,0,0,0,2.119,1.167,1.858,1.858,0,0,0,.955-.265c.81,3.042,1.307,10.538.173,12.22-1.814,1.387-3.714,2.692-5.669,4.024-1.292.882-2.6,1.788-3.9,2.723.749-4.659,1.183-10.58-1.226-14.418a2.532,2.532,0,0,0-.524-2.446,1.086,1.086,0,0,0,.134-.627,2.273,2.273,0,0,0-1.692-2.291c-1.4-.307-2.889.843-3.65,2.145a3.48,3.48,0,0,0,.244,4.249,3.01,3.01,0,0,0,2.281.929,4.039,4.039,0,0,0,1.606-.35c2.2,4.167.869,11.523.416,14a1.009,1.009,0,0,0,.007.347,1.05,1.05,0,0,0-.024.12,1.2,1.2,0,0,0,.026.138c-1.207.939-2.4,1.911-3.545,2.981-.93.868-1.85,1.754-2.779,2.629a32.228,32.228,0,0,0-2.214-11.31,1.038,1.038,0,0,0-.2-.312,3.813,3.813,0,0,0,.472-3.108,2.352,2.352,0,0,0-.676-1,1.09,1.09,0,0,0-.169-1.453c-1.406-1.232-2.516-1.108-3.2-.789-1.446.676-1.92,2.688-1.882,4.343.045,1.868.7,3.242,1.765,3.679a2.457,2.457,0,0,0,.935.188,2.6,2.6,0,0,0,1.1-.261,31.829,31.829,0,0,1,1.923,12.049c-2.275,2.153-4.535,4.289-6.786,6.446l0-.176c.05-4.439.1-8.274-1.439-12.761l0-.005a2.81,2.81,0,0,0,.557-1.594,1.089,1.089,0,0,0,.178-1.31,2.951,2.951,0,0,0-2.842-1.528,4.5,4.5,0,0,0-3.664,2.62,2.441,2.441,0,0,0,.437,2.648,2.733,2.733,0,0,0,2.075.894,3.827,3.827,0,0,0,1.42-.3c1.174,3.842,1.148,7.322,1.1,11.31-.009.746-.016,1.517-.017,2.307-1.882,1.807-3.781,3.624-5.629,5.4-1.2,1.159-2.444,2.345-3.66,3.514.037-.878.169-1.848.294-2.716a23.528,23.528,0,0,0,.281-2.51,20.712,20.712,0,0,0-.693-6.528,4.451,4.451,0,0,0,1.152-2.065,1.089,1.089,0,0,0,.145-1.458l-.094-.122a4.08,4.08,0,0,0-.343-1.063,1.09,1.09,0,0,0-1.455-.507,1.048,1.048,0,0,0-.2.124,4.418,4.418,0,0,0-4.026.488,2.955,2.955,0,0,0-.582,4.345,3.327,3.327,0,0,0,2.718,1.523,3.251,3.251,0,0,0,.744-.106,19.385,19.385,0,0,1,.458,5.3c-.021.625-.138,1.425-.259,2.27a14.872,14.872,0,0,0-.152,4.96c-2.423,2.326-4.849,4.636-7.308,6.97a64.15,64.15,0,0,0,.92-8.023,35.337,35.337,0,0,0-.31-5.2,24.866,24.866,0,0,1-.246-4.214,1.1,1.1,0,0,0-.016-.152,1.076,1.076,0,0,0,.838-1.026,4.312,4.312,0,0,0-1.913-3.969,3.309,3.309,0,0,0-3.326.005,4.025,4.025,0,0,0-1.857,3.686,3.331,3.331,0,0,0,1.707,3.136,2.831,2.831,0,0,0,1.239.279,3.24,3.24,0,0,0,1.16-.242c.05.85.145,1.77.247,2.728a33.674,33.674,0,0,1,.3,4.866,64.282,64.282,0,0,1-1.47,10.7c-1.571,1.483-3.131,2.977-4.709,4.448-.47.437-.911.9-1.373,1.341.047-.934.108-1.871.171-2.793.333-4.906.65-9.958-1.362-14.62a5.349,5.349,0,0,0,.913-2.693,2.168,2.168,0,0,0-1.312-2.188,1.2,1.2,0,0,0-1.169.174c-.052-.012-.1-.024-.157-.035a3.838,3.838,0,0,0-3.829,1.824,3.061,3.061,0,0,0,.355,3.636,2.951,2.951,0,0,0,2.266,1.183,2.706,2.706,0,0,0,.894-.157,3.093,3.093,0,0,0,.343-.166c1.479,3.974,1.2,8.324.885,12.894-.115,1.688-.23,3.43-.247,5.139-1.578,1.589-3.125,3.185-4.631,4.76q-1.022,1.069-2.033,2.118a44.257,44.257,0,0,0,.2-4.488c.005-.634.009-1.2.031-1.636a20.689,20.689,0,0,0-1.611-8.277l-.34-.986a4.481,4.481,0,0,0,.225-.927,1.083,1.083,0,0,0,.251-.829c-.384-3.324-2.251-4.193-3.037-4.413a3.6,3.6,0,0,0-3.8,1.317,4.568,4.568,0,0,0-.04,5.206,3.744,3.744,0,0,0,3.2,2.2,3.01,3.01,0,0,0,1.352-.321,2.905,2.905,0,0,0,.251-.173,17.911,17.911,0,0,1,1.375,7.1c-.024.463-.03,1.059-.035,1.732-.016,2.091-.047,6.443-1.174,7.308a1.07,1.07,0,0,0-.411.807,81.412,81.412,0,0,1-8.612,7.526c.357-1.54.6-3.138.819-4.632.1-.706.2-1.4.312-2.051.432-2.617.841-6.207-.173-8.763.031-.012.066-.005.1-.019a1.091,1.091,0,0,0,.524-1.449c-.385-.817-1.789-3.481-3.8-3.244-1.152.129-1.937,1.108-2.333,2.908-.552,2.5.315,3.531.883,3.923a1.967,1.967,0,0,0,1.132.354,2.245,2.245,0,0,0,1.227-.378,2.736,2.736,0,0,0,.5-.439,18.887,18.887,0,0,1-.2,6.753c-.11.669-.213,1.373-.317,2.094a31.344,31.344,0,0,1-1.563,6.955c-.566.368-1.124.742-1.712,1.092-2.171,1.294-4.561,2.639-7.135,3.908,1.875-4.143,1.8-10.472,1.74-14.718l0-.172c.1-.052.2-.1.3-.155,1.894-1.169,2.6-3.1,1.754-4.815a1.081,1.081,0,0,0-.4-.446,2.82,2.82,0,0,0-1.843-1.524c-1.782-.437-3.815.927-4.819,2.443a3.341,3.341,0,0,0-.186,3.951,3.22,3.22,0,0,0,2.671,1.223c.12,0,.242-.019.362-.028.064,5.044.078,13.8-3.544,15.8a1.044,1.044,0,0,0-.411.441,48.519,48.519,0,0,1-18.467,3.932h-.018c-.042,0-.075.019-.115.023-.432-.2-.873-.38-1.3-.58-3.876-1.824-7.725-4.071-11.446-6.246a128,128,0,0,0-12.915-6.9,1.09,1.09,0,0,0-.873,2,126.776,126.776,0,0,1,12.688,6.786c3.763,2.2,7.654,4.472,11.617,6.335,11.927,5.608,25.337,9.542,34.486,11.854,19.744,4.984,40.367,7.631,60.834,9.645a34.509,34.509,0,0,0,1.5,8.307,24.488,24.488,0,0,0-.611,4.939,24.963,24.963,0,0,1-.436,4.112l-.465,2.059c-.458,2.047-.941,4.127-1.449,6.166a1.085,1.085,0,0,0-.754.319,5.252,5.252,0,0,0-3.821,4.857c.025.93.481,3.167,4.176,3.8a5.394,5.394,0,0,0,.894.08,3.456,3.456,0,0,0,2.8-1.265,4.948,4.948,0,0,0,.4-4.894,5.025,5.025,0,0,0-1.643-2.134c.536-2.136,1.042-4.315,1.521-6.453l.462-2.052a26.944,26.944,0,0,0,.488-4.481c.01-.2.023-.4.035-.6a120.3,120.3,0,0,0,6.007,11.974q.844,1.531,1.672,3.059c.1.186.213.366.315.551-.016,1.786-.145,3.758-.291,5.855-.285,4.091-.583,8.606.026,12.443a6.7,6.7,0,0,0-3.658,5.146,3.806,3.806,0,0,0,2.422,4.143,4.272,4.272,0,0,0,1.65.348,3.777,3.777,0,0,0,2.857-1.347,6.057,6.057,0,0,0,1.368-4.76,1.091,1.091,0,0,0,.416-1.439,4.161,4.161,0,0,0-2.9-2.408c-.577-3.591-.284-7.993-.007-11.976.059-.861.112-1.683.16-2.5a96.764,96.764,0,0,0,8.037,11.117c-.005,2.2-.077,4.43-.155,6.786a105.569,105.569,0,0,0,.232,14.859c-1.829,1-3.469,2.9-3.674,4.662-.082.69-.078,2.991,3.356,3.655a4.779,4.779,0,0,0,.9.089,4.168,4.168,0,0,0,3.549-1.986,5.493,5.493,0,0,0,.9-2.767,1.083,1.083,0,0,0,.341-.826c-.1-3.186-2.209-3.523-2.852-3.549a3.62,3.62,0,0,0-.4.04,108.078,108.078,0,0,1-.171-14.1c.049-1.441.091-2.9.12-4.359,2.864,3.251,5.9,6.345,9.031,9.289.033,3.221.338,6.425.64,9.528l.16,1.659c.24,2.533.486,4.542.775,6.324a21.119,21.119,0,0,0,.685,2.619,20.749,20.749,0,0,1,.723,2.829,7.405,7.405,0,0,0-1.974,3.024,3.318,3.318,0,0,0,1.286,4.009,3.493,3.493,0,0,0,1.9.557,4.191,4.191,0,0,0,2.031-.557,5.977,5.977,0,0,0,3.026-4.957c0-.138-.009-.272-.023-.406a1.105,1.105,0,0,0-.009-.453,3.161,3.161,0,0,0-2.183-2.62l-.005,0a1.079,1.079,0,0,0-.74-.1,3.613,3.613,0,0,0-1.337.256c-.164-.718-.385-1.469-.611-2.213a20.164,20.164,0,0,1-.618-2.333c-.281-1.733-.521-3.7-.758-6.181l-.158-1.666c-.232-2.382-.469-4.824-.579-7.267.381.345.76.7,1.143,1.038a1.066,1.066,0,0,0,.676.591c3.436,3.024,6.941,5.887,10.429,8.6.341,3.92,1.876,7.8,3.38,11.556,1.746,4.368,3.552,8.883,3.368,13.333a1.051,1.051,0,0,0,.03.179c-1.911.321-3.507,2.629-3.953,4.711-.415,1.939.122,3.542,1.474,4.4a3.019,3.019,0,0,0,1.638.479,3.874,3.874,0,0,0,1.967-.585,9.668,9.668,0,0,0,4.181-7.713,3.252,3.252,0,0,0-1.9-2.965,1.074,1.074,0,0,0-1.268.322c-.129-4.465-1.836-8.782-3.51-12.967a51.1,51.1,0,0,1-2.943-8.852c1.416,1.08,2.828,2.146,4.221,3.181a119.281,119.281,0,0,0,17.607,10.788h0l0,0c.11.054.221.108.331.164a19.993,19.993,0,0,1,2.617,5.951c.24.767.479,1.519.732,2.23.364,1.017.815,2,1.252,2.946a30.863,30.863,0,0,1,1.273,3.028,13.667,13.667,0,0,1,.385,1.556,8.728,8.728,0,0,0,1.312,3.545,4.345,4.345,0,0,0-1.613,2.672c-.1.861.066,2.936,3.744,3.587a4.3,4.3,0,0,0,.763.07,3.179,3.179,0,0,0,2.646-1.3,5.009,5.009,0,0,0,.256-5,3.184,3.184,0,0,0-2.939-1.934,1.076,1.076,0,0,0-.995.709,6.292,6.292,0,0,1-1.042-2.788,16.077,16.077,0,0,0-.456-1.81,33.1,33.1,0,0,0-1.357-3.24c-.436-.946-.848-1.84-1.178-2.765-.245-.686-.474-1.413-.707-2.153-.385-1.225-.787-2.462-1.277-3.639.746.352,1.486.7,2.254,1.05,4.221,1.909,8.314,4.026,12.27,6.072a24.091,24.091,0,0,1,4.88,3.8c1.862,1.718,3.787,3.491,6.043,4.364a1.109,1.109,0,0,0,.394.073,1.076,1.076,0,0,0,.537-.153l0,.014c-.89,3.6,1.11,4.683,1.744,4.932a3.256,3.256,0,0,0,1.9.136,1.092,1.092,0,0,0,.958.575,1.109,1.109,0,0,0,.3-.042,3.145,3.145,0,0,0,2.518-3.474c-.235-2.251-2.432-4.6-4.436-4.735a2.662,2.662,0,0,0-2.481,1.385,1.065,1.065,0,0,0-.641-.742,18.585,18.585,0,0,1-5.354-3.934,25.615,25.615,0,0,0-5.354-4.129c-3.983-2.059-8.1-4.188-12.375-6.122-.706-.319-1.385-.643-2.071-.965.726-.237,1.439-.524,2.12-.807a18.068,18.068,0,0,1,2.507-.9,37.271,37.271,0,0,1,9.809-.855,3.9,3.9,0,0,0,.688,1.5,3.386,3.386,0,0,0,2.688,1.587,2.424,2.424,0,0,0,.436-.038,2.767,2.767,0,0,0,2.009-1.688c.042.005.08.005.129.007a1.089,1.089,0,0,0,1.072-1.106c-.052-3.237-1.8-4.118-2.556-4.347a3.693,3.693,0,0,0-4,1.463,3.483,3.483,0,0,0-.218.451,39.135,39.135,0,0,0-10.575.908,19.767,19.767,0,0,0-2.828,1.01c-1.625.674-3.174,1.3-4.545,1.085-.028-.031-.047-.07-.075-.1a1.077,1.077,0,0,0-1.044-.3,116.563,116.563,0,0,1-16.65-10.249c.206.007.4.028.613.028a41.256,41.256,0,0,0,6.172-.632c.478-.075.913-.141,1.289-.193.822-.112,1.721-.256,2.664-.408a38.021,38.021,0,0,1,8.925-.76,2.871,2.871,0,0,0,1.556,2.956,3.483,3.483,0,0,0,1.789.514,3.31,3.31,0,0,0,1.794-.54,4.526,4.526,0,0,0,1.706-2.134,1.076,1.076,0,0,0,.92,0,1.089,1.089,0,0,0,.526-1.448,4.856,4.856,0,0,0-1.774-2.1,2.915,2.915,0,0,0-1.282-.913,1.094,1.094,0,0,0-1.209.314c-.045,0-.091.007-.136.012a4.858,4.858,0,0,0-2.782,1.314,1.043,1.043,0,0,0-.158-.061c-2.917-.483-6.8.141-10.22.692-.923.148-1.807.291-2.615.4-.387.052-.834.122-1.329.2-2.746.429-7.859,1.223-9.528-.223a1.085,1.085,0,0,0-1.115-.176c-.662-.505-1.326-1.01-1.991-1.528a1.063,1.063,0,0,0-.512-.4c-2.7-2.1-5.413-4.289-8.094-6.573a33.1,33.1,0,0,0,5.532-.65,57.8,57.8,0,0,1,11.49-.517c1.1.023,2.2.04,3.286.045a3.831,3.831,0,0,0,.15.983,4.65,4.65,0,0,0,4.455,3.326,3.621,3.621,0,0,0,3.674-3.387c.423-2.716-1.031-6.267-3.542-6.774a1.089,1.089,0,1,0-.43,2.136,1.305,1.305,0,0,1,.58.3,3.244,3.244,0,0,0-3.606.622,3.636,3.636,0,0,0-.6.659,1.116,1.116,0,0,0-.185-.037c-1.232,0-2.481-.026-3.734-.052a59.257,59.257,0,0,0-11.934.556,22.289,22.289,0,0,1-7.889.394,136.358,136.358,0,0,1-14.74-15.093c1.15.134,2.3.242,3.425.333,1.573.127,3.2.258,4.763.5a30.634,30.634,0,0,0,4.9.179c2.4-.031,4.881-.064,6.58.591a.964.964,0,0,0,.251.047,5.194,5.194,0,0,0,2.042,2.835,4.063,4.063,0,0,0,1.72.411,3.106,3.106,0,0,0,2.225-.925,4.977,4.977,0,0,0,.838-5.3,3.572,3.572,0,0,0-1.979-1.922,4.164,4.164,0,0,0-1.629-.932,3.031,3.031,0,0,0-3.422,1.493,3.133,3.133,0,0,0-.354,1.96,26.328,26.328,0,0,0-6.3-.437,29.585,29.585,0,0,1-4.54-.153c-1.641-.251-3.3-.385-4.915-.514-1.7-.138-3.462-.281-5.143-.559a1.078,1.078,0,0,0-.375.014,91.563,91.563,0,0,1-6.04-8.718,12.63,12.63,0,0,0,3.249.415,34,34,0,0,0,5.3-.563,19.433,19.433,0,0,1,6.964-.274,6.615,6.615,0,0,0,.354.774,3.2,3.2,0,0,0,2.326,1.838c.083.007.164.01.245.01a2.926,2.926,0,0,0,2.526-1.634,4.719,4.719,0,0,0,.03-4.754,2.468,2.468,0,0,0-1.839-1.038,3.147,3.147,0,0,0-.566-.193,2.848,2.848,0,0,0-3.286,1.643,2.685,2.685,0,0,0-.239,1.045,24.445,24.445,0,0,0-6.857.434c-3.279.521-6.375,1.012-9.108-.334a1.063,1.063,0,0,0-.627-.082,1.152,1.152,0,0,0-.16-.237c-.091-.165-.192-.324-.28-.49-.552-1.026-1.117-2.051-1.68-3.077-1.841-3.349-3.707-6.747-5.253-10.234a36.24,36.24,0,0,0,4.247,1.382,21.3,21.3,0,0,0,3.747.512c1.824.141,3.711.289,4.932,1.057a1.09,1.09,0,0,0,.58.167.2.2,0,0,0,.031-.009,5.09,5.09,0,0,0,2.045,2.545,4.17,4.17,0,0,0,2.462.883,3.428,3.428,0,0,0,2.756-1.422,3.747,3.747,0,0,0-.93-5.324,1.086,1.086,0,0,0-1.179-.075,3.36,3.36,0,0,0-1.017-.423,3.6,3.6,0,0,0-3.95,1.641,14.043,14.043,0,0,0-5.561-1.213,19.519,19.519,0,0,1-3.355-.446,25.749,25.749,0,0,1-6.037-2.273q-.431-1.142-.8-2.3a1.057,1.057,0,0,0-.2-.641,32.585,32.585,0,0,1-1.352-7.3q4.453.429,8.89.829a42.893,42.893,0,0,0,6.262,2.244,31.161,31.161,0,0,1,7.939,3.2c3.744,2.326,6.024,4.993,8.668,8.08.928,1.085,1.89,2.209,2.962,3.371.026.028.063.038.091.064a5.455,5.455,0,0,0-.286,1.2,4.248,4.248,0,0,0,4.087,5.031,2.768,2.768,0,0,0,1.948-.765,4.748,4.748,0,0,0,1.014-4.31,1.1,1.1,0,0,0-.125-.664c-.03-.052-.059-.1-.087-.153-.038-.113-.078-.225-.12-.333a3.562,3.562,0,0,0-3.2-2.528c-.077.026-.206.014-.3.042a2.647,2.647,0,0,0-.469.049,2.8,2.8,0,0,0-1.218.594c-.942-1.037-1.814-2.045-2.646-3.019-2.645-3.091-5.143-6.01-9.173-8.512a27.652,27.652,0,0,0-6.368-2.8c.341.03.687.059,1.028.091,3.244.284,6.524.578,9.8.875a81.413,81.413,0,0,0,7.1,4.324c5.444,3.052,10.586,5.941,13.777,11.943a4.569,4.569,0,0,0-.375.916,4.011,4.011,0,0,0,1.77,4.535,3.871,3.871,0,0,0,2.16.747,2.726,2.726,0,0,0,1.659-.556,4.148,4.148,0,0,0,1.16-4.409,3.084,3.084,0,0,0-.321-.678c-.986-2.4-2.594-2.587-3.237-2.549a2.968,2.968,0,0,0-1.253.375c-3.5-6.138-8.73-9.113-14.275-12.225-1.15-.645-2.317-1.3-3.479-1.993q5.984.554,11.99,1.171c7.521,2,14.992,8.181,18.709,15.479a4.072,4.072,0,0,0-1.3,2.69,4.188,4.188,0,0,0,2.578,3.929,4.764,4.764,0,0,0,2.18.57,3.828,3.828,0,0,0,2.287-.76,4.87,4.87,0,0,0,1.821-4.6,3.207,3.207,0,0,0-2.265-2.641,1.079,1.079,0,0,0-.734.038,3.983,3.983,0,0,0-2.674-.287,33.97,33.97,0,0,0-13-13.556q5.117.588,10.19,1.273a33.3,33.3,0,0,0,6.833,4.666c5.371,3.1,10.9,6.314,10.136,10.922a3.623,3.623,0,0,0-2.493,1.493c-.423.636-1.211,2.376.617,4.781a3.757,3.757,0,0,0,3.016,1.6,3.639,3.639,0,0,0,2.1-.674,3.853,3.853,0,0,0,.761-5.462,1.082,1.082,0,0,0-.19-.214,3.823,3.823,0,0,0-1.639-1.291c.932-6-5.5-9.735-11.216-13.039-1.294-.747-2.549-1.477-3.657-2.2,1.2.172,2.4.312,3.594.493,2.289.348,4.542.74,6.777,1.155a1.085,1.085,0,0,0,.653.542c3.772,1.115,9.129,6.228,11.167,10.256-.887.064-2.406.533-3.1,2.88-.727,2.43,1.124,4.608,3.331,5.31a4.773,4.773,0,0,0,1.458.239,3.323,3.323,0,0,0,3.117-1.922,1.088,1.088,0,0,0,1.3-1.294,7.773,7.773,0,0,0-3.42-4.41c-1.068-3.469-4.608-7.589-8.2-10.336q3.8.831,7.5,1.8a1.092,1.092,0,0,0,.364.256c3.729,1.587,9.7,8.223,8.943,13a4.111,4.111,0,0,0-.781-.045,3.425,3.425,0,0,0-3.3,3.448,4.158,4.158,0,0,0,2.016,4.016,5.433,5.433,0,0,0,2.827.8,4.009,4.009,0,0,0,2.082-.53,2.507,2.507,0,0,0,1.25-2.2,1.094,1.094,0,0,0,.521-1.132,5.409,5.409,0,0,0-2.563-3.568c.948-4.186-1.937-9.059-5.334-12.371q4.233,1.257,8.34,2.706a1.064,1.064,0,0,0,.256.369c3.323,3.1,6.918,9.842,5.592,14.972-2.192-.319-3.993.6-4.6,2.423-.731,2.214-.1,3.441.566,4.08a4.534,4.534,0,0,0,3.2,1.023,12.85,12.85,0,0,0,4.192-.8,20.293,20.293,0,0,0,1.51-1.369c.38-2.066-1.009-3.774-2.8-4.69,1.327-4.887-1-10.622-3.817-14.5q3.241,1.233,6.406,2.589c1.807,2.07,2.559,4.918,3.277,7.688a24.925,24.925,0,0,0,2.2,6.2,5.025,5.025,0,0,0-.834,1.429c-.753,1.909.313,5.744,2.3,6.789a2.424,2.424,0,0,0,1.1.274,2.824,2.824,0,0,0,2.338-1.491,1.089,1.089,0,1,0-1.8-1.218c-.125.185-.441.613-.624.509-.873-.46-1.692-3.044-1.289-4.066a4.441,4.441,0,0,1,.2-.437,1.031,1.031,0,0,0,1.265-.1,1.057,1.057,0,0,0,.3-.5,4.591,4.591,0,0,1,2.033,3.95,1.089,1.089,0,1,0,2.174.119c.155-2.819-1.826-5.849-4.153-6.356a3.059,3.059,0,0,0-1.143-.033,23.29,23.29,0,0,1-1.958-5.606,32.467,32.467,0,0,0-1.815-5.568q3.3,1.508,6.531,3.157a1.085,1.085,0,0,0,.477,1.061c4.418,2.873,6.221,9.035,6.5,14.284a3.32,3.32,0,0,0-.633-.127c-.9-.037-2.493.324-3.146,3.066a3.652,3.652,0,0,0,2.1,4.3,5.549,5.549,0,0,0,2.357.512,4.746,4.746,0,0,0,2.76-.812,1.089,1.089,0,0,0,2.021-.714,9.736,9.736,0,0,0-3.221-5.026c-.019-2.331-.423-8.824-3.863-13.7q3.615,2.012,7.146,4.2c.139.085.274.178.411.265,1.936,3.552,3.19,9.31,2.432,13.392a3.526,3.526,0,0,0-.533.119c-1.988.711-2.591,2.507-1.791,5.342.943,3.345,2.654,3.875,3.643,3.875h.078a3.194,3.194,0,0,0,2.918-2.4,2.027,2.027,0,0,0-.131-1.31l.068.064a1.088,1.088,0,0,0,1.5-1.577,10.584,10.584,0,0,1-1.009-1.235,8.677,8.677,0,0,0-2.585-2.561,23.994,23.994,0,0,0-1.269-11.565c2.3,1.51,4.579,3.054,6.815,4.652a1.068,1.068,0,0,0,.3.916c2.815,2.744,4.218,8.141,3.523,12.687a3.09,3.09,0,0,0-.754-.167c-.612-.028-2.672.1-3.049,3.531-.232,2.122,1.449,4.883,3.6,5.909a3.848,3.848,0,0,0,1.664.4,3.211,3.211,0,0,0,2.313-1,1.089,1.089,0,0,0-.005-1.54l-.047-.044a1.09,1.09,0,0,0,.367-.8,7.389,7.389,0,0,0-2.131-5.014,19.1,19.1,0,0,0-1.317-11.617q3.912,2.924,7.713,5.962c2.833,4.038,2.845,10.031,2.838,15a3.138,3.138,0,0,0-2.892,2.035c-.92,1.944.206,4.256,1.826,5.369a3.754,3.754,0,0,0,2.129.711,3.286,3.286,0,0,0,2.321-.991,1.089,1.089,0,0,0,1.76-.751c.178-1.866-1.228-4.3-2.967-5.547v-.737c.005-3.789.005-8.143-1.164-12q3.713,3.018,7.354,6.068c4.187,5.094,5.127,9.1,5.242,15.849a3.713,3.713,0,0,0-4.11,3.467c-.31,2.559,1.566,4.042,3.565,4.375a5.524,5.524,0,0,0,.915.077,3.758,3.758,0,0,0,3.4-1.72,1.091,1.091,0,0,0,.559-.845,4.754,4.754,0,0,0-2.138-4.57c-.04-4.9-.455-8.572-1.988-12.07l.187.157c4.014,3.376,8.166,6.868,12.314,10.254a.952.952,0,0,0,.131.073,3.269,3.269,0,0,0,.815,3.066,3.8,3.8,0,0,0,2.808,1.178,4.6,4.6,0,0,0,1.23-.169,4.854,4.854,0,0,0,2.294-1.373,1.09,1.09,0,0,0,.685-1v-.08a2.568,2.568,0,0,0,.125-.409,2.646,2.646,0,0,0-.521-2.244,3.373,3.373,0,0,0-2.24-2.268,4.237,4.237,0,0,0-4.122,1.4c-4.08-3.335-8.165-6.768-12.119-10.093q-2.712-2.281-5.458-4.578l-.021-.028c-.025-.03-.059-.042-.085-.068,8.125.2,12.708,1.6,20.429,5.047a1.051,1.051,0,0,0,.4.084,5.829,5.829,0,0,0,.753,2.082c1.017,1.714,2.164,2.092,2.974,2.092a2.608,2.608,0,0,0,.784-.12,4.974,4.974,0,0,0,2.8-3.359,1.051,1.051,0,0,0,.125-.024A1.092,1.092,0,0,0,1466.451,435.742Zm-13.381-13.9a.894.894,0,0,1,.616-.176,2.375,2.375,0,0,1,.939.211,3,3,0,0,1,1.446,1.4,1.936,1.936,0,0,1-1.216,1.07c-.7.127-1.294-.794-1.58-1.35C1452.958,422.388,1452.944,421.978,1453.07,421.844ZM1439.3,406.311a1.424,1.424,0,0,1,.807-.209,3.25,3.25,0,0,1,1.6.476,3.461,3.461,0,0,1,1.281,1.308,4.706,4.706,0,0,1-.336.465c-.873,1.068-2.162,1.781-2.887,1.589-.547-.146-.789-.941-.894-1.58C1438.77,407.771,1438.7,406.722,1439.3,406.311Zm-14.809-9.427a1.994,1.994,0,0,1,1.474-.5,4,4,0,0,1,1.451.284,3.51,3.51,0,0,1,2.329,3.408,4.522,4.522,0,0,1-.942.449,3.424,3.424,0,0,1-3.763-.7,1.113,1.113,0,0,0,0-.456,1.066,1.066,0,0,0-.624-.739A1.756,1.756,0,0,1,1424.487,396.884Zm-15.537-8.077a1.6,1.6,0,0,1,1-.294,2.878,2.878,0,0,1,1.352.352,2.554,2.554,0,0,1,.282.181,1.09,1.09,0,0,0,.465,1.376c.159.089.249.164.179.451a2.248,2.248,0,0,1-1.848,1.5c-.857.014-1.347-.963-1.6-1.8C1408.593,389.985,1408.473,389.2,1408.95,388.807Zm-10.673-7.371a2.57,2.57,0,0,1,.307-.019,3.39,3.39,0,0,1,2.228.925c-.453,2.092-2.535,4.4-3.495,4.4h0c-.188,0-.4-.287-.568-.817a1,1,0,0,0-.232-1.2c-.007-.056-.017-.092-.022-.15C1396.339,382.739,1396.987,381.593,1398.277,381.436Zm-12.16-5.559a2.052,2.052,0,0,1,.521-.063,3.23,3.23,0,0,1,.88.132,4.918,4.918,0,0,1-.451,2.962c-.2.3-.394.423-.869.263a1.7,1.7,0,0,1-1.166-1.728A1.611,1.611,0,0,1,1386.117,375.877Zm-13.073-2.383a1.053,1.053,0,0,0,.511.186,1.562,1.562,0,0,1,.158.024,1.664,1.664,0,0,1-.9.841.6.6,0,0,1-.765-.244,1.314,1.314,0,0,1-.215-.348A1.935,1.935,0,0,1,1373.044,373.493Zm-13.54-1.566a1.966,1.966,0,0,1,1.615-.575,3.82,3.82,0,0,1,.392.021,4.063,4.063,0,0,1,1.256.336,2.621,2.621,0,0,1-.3,1.232c-.34.7-.878,1.2-1.31,1.235a1.5,1.5,0,0,1-1.01-.625,1.046,1.046,0,0,0,.024-.505,1.074,1.074,0,0,0-.718-.782A.548.548,0,0,1,1359.5,371.927Zm7.356-5.746a2.258,2.258,0,0,1,1.721-.707,1.82,1.82,0,0,1,.542.078c.361.115.481.3.458.721a1.079,1.079,0,0,0,.294.808,2.735,2.735,0,0,1-.706.385,1.773,1.773,0,0,1-2.021-.524C1366.688,366.45,1366.812,366.254,1366.859,366.181Zm13.058-10.735a1.265,1.265,0,0,1,.866.786,5.691,5.691,0,0,1-2.016,1.43c-.436.178-1.516.528-2.132-.051-.167-.159-.272-.3-.07-.667a3.725,3.725,0,0,1,2.873-1.556A1.883,1.883,0,0,1,1379.917,355.446Zm14.218-10.507a2.18,2.18,0,0,1,.578.071c.27.075.6.166.467,1a1.09,1.09,0,0,0,.037.505,4.409,4.409,0,0,1-.334.34,2.441,2.441,0,0,1-2.906.448c-.179-.092-1.054-.57-.916-.92C1391.326,345.705,1392.92,344.939,1394.135,344.939Zm25.531-8.65a2.494,2.494,0,0,1,.84.422l0,.019a1.361,1.361,0,0,1-1.018.993,1.849,1.849,0,0,1-1.915-.545c-.366-.4-.364-.6-.366-.6A2.689,2.689,0,0,1,1419.666,336.289Zm27.607-1.267h.028a1.087,1.087,0,0,0,.852.549,1.152,1.152,0,0,1,.223.042,1.719,1.719,0,0,1,.175,1.345,1.089,1.089,0,0,0,.81,1.31l.042.01a3.055,3.055,0,0,1-.843,1.913c-.178.157-.72.641-1.962.064a2.745,2.745,0,0,1-1.23-2.3,4.275,4.275,0,0,1,0-.775,1.065,1.065,0,0,0,.669-1.627,1.417,1.417,0,0,1,.146-.157A1.929,1.929,0,0,1,1447.273,335.022Zm11.789-12.314.073,0a2.785,2.785,0,0,1,2.535,1.855,3.227,3.227,0,0,1-1.005,2.268c-.633.362-1.763-.6-2.218-1.031-.84-.8-1.193-1.585-.972-2.169A1.726,1.726,0,0,1,1459.063,322.708Zm-16.171-15.775a1.126,1.126,0,0,1-.428,1.024,1.846,1.846,0,0,1-1.587.054,1.051,1.051,0,0,0,.171-.549,1.088,1.088,0,0,0-1.089-1.089l-.436,0a2.141,2.141,0,0,1-.039-.434A3.88,3.88,0,0,1,1442.891,306.933Zm-40.133,2.672a1.326,1.326,0,0,1,.906-.4.673.673,0,0,1,.247.044,1.21,1.21,0,0,1-.2.345,1.808,1.808,0,0,1-1.205.664A.814.814,0,0,1,1402.759,309.605Zm-23.638,8.941c.08,0,.16,0,.242.01a2.419,2.419,0,0,1,2.12,1.512,3.61,3.61,0,0,1-1.746,1.007,3.151,3.151,0,0,1-1.817.023,1.047,1.047,0,0,0-.9-1.544l.01-.028A2.41,2.41,0,0,1,1379.121,318.546Zm-18.857,13.95a2.642,2.642,0,0,1,1.859-1.077.313.313,0,0,1,.12.017.833.833,0,0,1,0,.425,1.087,1.087,0,0,0,.9,1.249,1.038,1.038,0,0,0,.164.014,2.791,2.791,0,0,1-1.326.672,1.085,1.085,0,0,0-.942-.08,1.3,1.3,0,0,1-.258-.091C1359.93,333.045,1360.139,332.7,1360.263,332.5Zm-16.648,7.68c.313-.887.8-1.27.941-1.27.016-.017.122.047.251.2a1.083,1.083,0,0,0,.394.847c.054.045.1.092.151.138a9.123,9.123,0,0,1,.31.944,1.045,1.045,0,0,0,.148.326,1.613,1.613,0,0,1-.331.735,1.28,1.28,0,0,1-.089.1,1.019,1.019,0,0,0-1.261.35,1.475,1.475,0,0,1-.314-.181C1343.285,341.967,1343.341,340.951,1343.615,340.176ZM1327.824,370.8a3.556,3.556,0,0,1-.547.521,1.532,1.532,0,0,1-1.944.2,3.412,3.412,0,0,1-.864-.787A5.143,5.143,0,0,1,1327.824,370.8ZM1312.4,364.8a2.186,2.186,0,0,1,1.737-.681,3.063,3.063,0,0,1,.514.042l.079.016a1.177,1.177,0,0,0,.089.127,1.074,1.074,0,0,0,.885.4,2.037,2.037,0,0,1-1.047,1.749,1.583,1.583,0,0,1-1.065.19,1.083,1.083,0,0,0-.845-.563,2.409,2.409,0,0,1-.193-.253C1312.149,365.176,1312.339,364.894,1312.4,364.8Zm-16.213-1.4a2.518,2.518,0,0,1,2.3-.918,2.036,2.036,0,0,1,.434.1,1.228,1.228,0,0,0-.248.4,1.126,1.126,0,0,0,.308,1.2,3.565,3.565,0,0,1-1.637.61h-.017a1.043,1.043,0,0,0-.208-.31,1.064,1.064,0,0,0-.927-.289A.8.8,0,0,1,1296.189,363.4Zm-82.737-14.028a2.385,2.385,0,0,1,.467.045,1.261,1.261,0,0,1,.542.228,3.227,3.227,0,0,1-.667,2.221,1.992,1.992,0,0,1-2.455.388c-.4-.16-1.326-.585-1.179-1.073a2.2,2.2,0,0,1,.936-1.024l.01-.007A4.563,4.563,0,0,1,1213.452,349.371Zm8.828-9.755a1.13,1.13,0,0,0,.27.042c.342.009.531.422.615.665a2.282,2.282,0,0,1-.329,2.207c-.363.3-1.031-.021-1.4-.235-.787-.462-1.554-1.125-1.343-1.6A2.731,2.731,0,0,1,1222.28,339.616Zm12.439-8.254a4.807,4.807,0,0,1,.624.042,1.255,1.255,0,0,1,.282.35,2.7,2.7,0,0,1-.206,2.739,1.206,1.206,0,0,1-1.491.3,2.043,2.043,0,0,1-1.228-1.629,1.427,1.427,0,0,1,.461-1.392A2.677,2.677,0,0,1,1234.719,331.362Zm10.587-9.213a1.445,1.445,0,0,1,1.047.721.939.939,0,0,1-.009.5,2.937,2.937,0,0,1-2,1.922,1.22,1.22,0,0,1-1.321-.521c-.765-.991-.437-1.516-.328-1.69a2.572,2.572,0,0,1,2.1-.979A2.6,2.6,0,0,1,1245.307,322.149Zm2.632-9.159a2.324,2.324,0,0,1,.476-.061c.544,0,.843.341,1.43,1.321a3.91,3.91,0,0,1-1.812,2.061c-.256.1-.781.3-1.366-.831a1.644,1.644,0,0,1,.051-1.43A1.879,1.879,0,0,1,1247.939,312.991Zm9.279-7.908a2.719,2.719,0,0,1,1.075.219,1.083,1.083,0,0,0,.045.781,1.561,1.561,0,0,1-.352,2.07c-.53.291-1.215-.068-1.788-.937-.261-.4-.657-1.139-.348-1.6A1.666,1.666,0,0,1,1257.218,305.083Zm12.166-9.774a1.36,1.36,0,0,1,1-.371,1.816,1.816,0,0,1,.655.12,1.069,1.069,0,0,0,.23.627,1.345,1.345,0,0,1,.1,1.416,1.266,1.266,0,0,1-.932.787c-.43-.023-.781-.578-.915-.833C1269.282,296.61,1268.95,295.79,1269.384,295.309Zm9.046-9.43a2.012,2.012,0,0,1,1.477-.559,1.949,1.949,0,0,1,.6.085.74.74,0,0,1,.608.7.933.933,0,0,0,.026.172,2.075,2.075,0,0,1-1.495,1.425c-.171.026-.685.11-1.162-.768C1278.112,286.264,1278.342,285.985,1278.429,285.879Zm7.917-8.044a2.127,2.127,0,0,1,1.591-.577h.028a1.09,1.09,0,0,0,.472,1.265c.568.345.505.721.486.845a1.212,1.212,0,0,1-.876.923c-.6.131-1.1-.394-1.415-.857C1286.3,278.948,1285.981,278.276,1286.346,277.835Zm13.371-7.943a2.046,2.046,0,0,1,1.249-.4h.045a1.089,1.089,0,0,0,.333,1.746,4.513,4.513,0,0,1-.693,1.571,2.261,2.261,0,0,1-.6.615s-.343-.178-.718-1.331A1.924,1.924,0,0,1,1299.717,269.892Zm5.887-7.321a4.166,4.166,0,0,1,.7-1.848,1.082,1.082,0,0,0,.754.521c.519.089.772.622.892,1.052a3.079,3.079,0,0,1-.524,2.794c-.113.1-.38.326-1.049.03C1305.635,264.791,1305.456,263.6,1305.6,262.572Zm-17.683-18.87a1.4,1.4,0,0,1-.908,1.22c-.073.009-.18.031-.329-.258a1.2,1.2,0,0,1,.091-1.317,1.456,1.456,0,0,1,1.1-.622.8.8,0,0,1,.129.01.714.714,0,0,1,.392.2A1.091,1.091,0,0,0,1287.921,243.7Zm-20.572,16.438a1.481,1.481,0,0,1-1.7.132,1.276,1.276,0,0,1-.082-1.507,3.3,3.3,0,0,1,1.289-1.368.9.9,0,0,1,.1.422,4.178,4.178,0,0,1,.265,1.707C1267.579,259.936,1267.467,260.035,1267.349,260.14Zm-10.577,10.434a3.787,3.787,0,0,1-.388-2.666,3.5,3.5,0,0,1,.275-.986.933.933,0,0,0-.047.244,1.089,1.089,0,0,0,1,1.169c.354.026.392.136.409.188a2.126,2.126,0,0,1-.677,1.781C1257.235,270.41,1256.958,270.648,1256.772,270.573Zm-8.85,6.847c-.054-.058-.12-.129-.022-.371a2.357,2.357,0,0,1,1.792-1.256c.03,0,.059,0,.087,0h.028a1.117,1.117,0,0,0,.157.469c.239.387-.387.875-.46.93C1248.99,277.577,1248.233,277.762,1247.922,277.42Zm-10.063,11.324c-.523-.733-.228-1.091.085-1.319a2.067,2.067,0,0,1,1.192-.348,2.332,2.332,0,0,1,1.4.462,2.358,2.358,0,0,1-1.068,1.6A1.1,1.1,0,0,1,1237.859,288.745Zm-8.828,4.46c-.3-.143-.47-.584-.479-1.206a1.932,1.932,0,0,1,.777-1.775,1.131,1.131,0,0,1,.575-.159,1.089,1.089,0,0,1,.558.153,1.2,1.2,0,0,1,.3.247,1.088,1.088,0,0,0-.268.943,1.575,1.575,0,0,1-.5,1.613A.965.965,0,0,1,1229.031,293.2Zm-10.27,8a.9.9,0,0,1-.159-1.136,1.779,1.779,0,0,1,1.375-.81,1.051,1.051,0,0,1,.167.014c.108.021.373.1.5.657a1.057,1.057,0,0,0-.5.122,1.081,1.081,0,0,0-.446,1.425C1219.435,301.642,1219.186,301.715,1218.761,301.2Zm-8.741,12.059c-.747.373-1.38-.477-1.692-1.017a2.46,2.46,0,0,1-.127-2.782,1.508,1.508,0,0,1,1.167-.6,1.206,1.206,0,0,1,.326.044,1.63,1.63,0,0,1,.943.81,1.1,1.1,0,0,0,.054.7A2.208,2.208,0,0,1,1210.02,313.262ZM1199.968,324.4c-.08-.085-.253-.575-.01-1.676a3.765,3.765,0,0,1,.441-1.209.449.449,0,0,1,.1.038,1.088,1.088,0,0,0-.223.89A2.4,2.4,0,0,1,1199.968,324.4Zm-11.052,5.368c-.34-.451.117-1.214.265-1.439a3.311,3.311,0,0,1,2.284-1.551.812.812,0,0,1,.19.021c.526.131.676,1.115.716,1.531a1.133,1.133,0,0,0,.094.354,1.934,1.934,0,0,1-.367.481,1.074,1.074,0,0,0-.817-.394h0a1.088,1.088,0,0,0-1.089,1.085v.235A1.357,1.357,0,0,1,1188.915,329.766Zm71.966,77.6a1.6,1.6,0,0,1-1.624.4c-1.064-.183-2.34-.629-2.369-1.714a3.107,3.107,0,0,1,1.976-2.617,1.071,1.071,0,0,0,.728.7,1.129,1.129,0,0,0,.282.037,1.067,1.067,0,0,0,.47-.122,2.365,2.365,0,0,1,.169.293,1.077,1.077,0,0,0,.542.547A2.8,2.8,0,0,1,1260.882,407.367Zm12.338,21.472a1.634,1.634,0,0,1-2.04.439,1.671,1.671,0,0,1-1.1-1.908,4.783,4.783,0,0,1,1.8-3.052,1.921,1.921,0,0,0,1.328,1.089,1.057,1.057,0,0,0,.334-.054,1.081,1.081,0,0,0,.228-.127.767.767,0,0,1,.133.167A3.54,3.54,0,0,1,1273.22,428.839Zm11.4,13.636a2.81,2.81,0,0,1-.31,2.714,2.035,2.035,0,0,1-2.221.956c-1.714-.331-1.636-1.01-1.606-1.265a4.592,4.592,0,0,1,1.876-2.575,1.086,1.086,0,0,0,.922.523,1.133,1.133,0,0,0,.171-.014,1.064,1.064,0,0,0,.777-.573A.535.535,0,0,1,1284.623,442.475Zm15.544,12.7a3.792,3.792,0,0,1-1.9,3.026,1.571,1.571,0,0,1-1.7.07c-.214-.138-.716-.458-.381-1.523a4.7,4.7,0,0,1,1.009-1.671,1.086,1.086,0,0,0,1.05-.9v0a2.33,2.33,0,0,1,1.127-.434A1.654,1.654,0,0,1,1300.166,455.172Zm14.2,19.417c-.807.476-1.2.225-1.334.139-.734-.463-.634-1.514-.509-2.1.333-1.551,1.472-2.925,2.2-3.03.021,0,.04,0,.059,0,.253,0,.507.235.76.7a1.087,1.087,0,0,0,1.476.439.973.973,0,0,0,.207-.145A7.665,7.665,0,0,1,1314.367,474.589Zm2.507-6.808c.153.066.556.244.606,1.1a3.266,3.266,0,0,1,0,.429l-.025-.049a3.839,3.839,0,0,0-1.148-1.352,1.054,1.054,0,0,0,.169-.449A1.07,1.07,0,0,0,1316.874,467.78Zm25.6,10.981c.352.019.428.6.43,1.094a1.092,1.092,0,0,0,.9,1.066,1.723,1.723,0,0,1-.242.484,1.146,1.146,0,0,1-1.281.39c-.484-.085-2.051-.425-1.962-1.193a2.673,2.673,0,0,1,2.113-1.843Zm21.627-2.943c.218-.885.524-.96.671-.96l.044,0a1.78,1.78,0,0,1,.855.375,1.089,1.089,0,0,0-.817,1.953c.612.449.718.756.713.812a.958.958,0,0,1-.97.225C1363.648,477.948,1363.974,476.312,1364.1,475.819Zm-10.716-21.581a1.609,1.609,0,0,1,1.03-.65,1.089,1.089,0,0,0,.256,1.186,1.19,1.19,0,0,1,.323,1.214.728.728,0,0,1-.441.533c-.181.031-.557-.136-1.005-.725A1.238,1.238,0,0,1,1353.381,454.238Zm-15.92-10.126a2.4,2.4,0,0,1,1.995-1.448,2.516,2.516,0,0,1,.255-.014,1.851,1.851,0,0,1,.561.082.966.966,0,0,1,.026.157,2.406,2.406,0,0,1-1.01,2.042,1.124,1.124,0,0,1-1.291-.01C1337.367,444.547,1337.435,444.231,1337.461,444.113Zm-13.622-12.2a1.561,1.561,0,0,1,.932-.432.669.669,0,0,1,.319.078,2.457,2.457,0,0,1,.884,2.293,1.088,1.088,0,0,0,.627,1.092,1.644,1.644,0,0,1-1.117.193,2.576,2.576,0,0,1-2.07-1.751A1.288,1.288,0,0,1,1323.839,431.91Zm-18.934-16.753a1.619,1.619,0,0,1,.5-.526,1.079,1.079,0,0,0,1.1.7,2.365,2.365,0,0,1,.5.014,4.061,4.061,0,0,1,1.052,2.216,1.066,1.066,0,0,0,.192.57,2.092,2.092,0,0,1-.505.943c-.232.228-.643.488-1.474.1C1305.581,418.743,1304.607,415.839,1304.905,415.158Zm-12.234-12.422a.814.814,0,0,1,.493-.483,1.117,1.117,0,0,0,.835.282,1.432,1.432,0,0,1,.448,1.078,1.082,1.082,0,0,0,.3.77,2.747,2.747,0,0,1-.263.659c-.148.26-.378.573-.671.537a2.045,2.045,0,0,1-.772-.995A3.122,3.122,0,0,1,1292.671,402.736ZM1282.128,390.8a1.387,1.387,0,0,1,1.213-.618,1.345,1.345,0,0,1,.333.038c.862.207,1.005,1.167.974,1.936a1.093,1.093,0,0,0,.415.9,1.683,1.683,0,0,1-1.685-.352C1282.394,391.985,1281.915,391.255,1282.128,390.8Zm17.5,4.019c.115-.955.61-1.676,1-1.753a.314.314,0,0,1,.071-.007c.359,0,.955.462,1.594,1.519a3.073,3.073,0,0,1-.293,2.669c-.253.242-.7.218-1.324-.07A2.226,2.226,0,0,1,1299.623,394.816Zm15.823-.211h.007a1.1,1.1,0,0,0-.045.315,1.089,1.089,0,0,0,1.089,1.087h0c.036-.017.2,0,.326.35a2.033,2.033,0,0,1-.423,1.981c-.34.258-.883-.005-1.282-.272a1.867,1.867,0,0,1-.883-2.15A1.685,1.685,0,0,1,1315.445,394.605Zm14.359,1.624a2.478,2.478,0,0,1,1.712.824,1.093,1.093,0,0,0,.911.307l.016.077a2.737,2.737,0,0,1-.969,2.479,1.97,1.97,0,0,1-2.185,0c-.949-.484-1.432-1.134-1.394-1.878a2,2,0,0,1,1.27-1.688A1.727,1.727,0,0,1,1329.8,396.229Zm15.852,5.761a1.527,1.527,0,0,1-.61.911,1.463,1.463,0,0,1-2.115-.47c-.69-.909-.887-1.73-.537-2.256a1.567,1.567,0,0,1,1.3-.606,1.811,1.811,0,0,1,.462.057,2.178,2.178,0,0,1,1.467,2.183A.874.874,0,0,0,1345.656,401.99Zm9.823-1.7c-.369,1.094-1.429.937-2.03.749-.99-.315-2.279-1.364-1.9-2.613s.928-1.336,1.207-1.336l.077,0a2.049,2.049,0,0,1,.591.134,1.079,1.079,0,0,0,.978.646,1.092,1.092,0,0,0,.148-.014,6.4,6.4,0,0,1,1.587,1.76A1.088,1.088,0,0,0,1355.479,400.286Zm10.291,5.608a.342.342,0,0,1-.2.378,2.845,2.845,0,0,1-2.627-.263,1.974,1.974,0,0,1-.995-1.974c.112-1.268.752-1.443,1.223-1.463.03,0,.059,0,.089,0a3.431,3.431,0,0,1,3,2.324A1.09,1.09,0,0,0,1365.77,405.894Zm11.6,5.7c-1.878.7-4.384.962-5.121.251-.385-.373-.219-1.2-.012-1.829a1.6,1.6,0,0,1,1.685-1,4.208,4.208,0,0,1,.993.127c1.319.336,2.566,1.3,2.6,2.406A.883.883,0,0,0,1377.366,411.591Zm21.654,8.965a1.187,1.187,0,0,0-.085.1,2.845,2.845,0,0,1-3.174.359,1.465,1.465,0,0,1-.918-1.835c.151-.639.437-1.4.932-1.4h.018C1396.72,417.818,1398.135,419.193,1399.02,420.557Zm9.357,5.408a1.994,1.994,0,0,0-.2-.115,1.089,1.089,0,0,0-1.164,1.828,1.1,1.1,0,0,1-.77.577c-.571.052-1.2-.835-1.608-2.284-.545-1.934-.162-2.416.214-2.608a1.017,1.017,0,0,0,.789.362,1.092,1.092,0,0,0,.634-.2,8.418,8.418,0,0,1,1.587,1.761C1408.036,425.517,1408.2,425.747,1408.377,425.964Zm10.244,9.291a1.148,1.148,0,0,1-1.493.164,4.507,4.507,0,0,1-2.373-3.709c.03-.268.2-1.594.728-1.594l.019,0a1.138,1.138,0,0,1,.4.113c-.005.014-.005.031-.01.047a1.088,1.088,0,0,0,.681,1.38,1.114,1.114,0,0,0,.349.058,1.074,1.074,0,0,0,.442-.106,4.938,4.938,0,0,1,.941,2.763,1.086,1.086,0,0,0,.369.835C1418.656,435.222,1418.638,435.238,1418.621,435.255Zm10.873,9a1.191,1.191,0,0,1-1.742.092,2.453,2.453,0,0,1-1.09-2.645c.315-.667.627-.8.866-.8a.957.957,0,0,1,.26.044,5.045,5.045,0,0,1,2.626,2.983A1.1,1.1,0,0,0,1429.494,444.254Zm13.607,9.509c-.111.526-1.089.841-2.094.674a1.808,1.808,0,0,1-1.76-1.963c.16-1.319.963-1.577,1.563-1.577.089,0,.173.007.249.014a2.364,2.364,0,0,1,.376.077,1.067,1.067,0,0,0,.873.472c.01,0,.021-.007.031-.007a2.544,2.544,0,0,1,1.017,1.807A1.077,1.077,0,0,0,1443.1,453.763Zm13.255-5.817a2.585,2.585,0,0,1,1.969-1.251,1.121,1.121,0,0,1,.3.04.989.989,0,0,1,.516.385,1.089,1.089,0,0,0,.382.894l0,0a5.794,5.794,0,0,1,.146,1.042,2.624,2.624,0,0,1-1.364.862,1.85,1.85,0,0,1-1.875-.4A1.161,1.161,0,0,1,1456.355,447.946Zm5.74-9.563c-.49.157-1.017-.653-1.228-1.007a2.95,2.95,0,0,1-.072-3.228,1.641,1.641,0,0,1,1.295-.784,1.207,1.207,0,0,1,.193.016c.044.009.089.019.133.031h0a1.086,1.086,0,0,0,.914,1.239c.1.016.274.042.315.577C1463.739,436.391,1462.883,438.134,1462.1,438.383Z" transform="translate(0 0)" fill="#0a0a0a"/>
  </g>
</svg>
