<?xml version="1.0" encoding="utf-8"?>
<!-- Generator: Adobe Illustrator 25.1.0, SVG Export Plug-In . SVG Version: 6.00 Build 0)  -->
<svg version="1.1" id="Layer_1" xmlns="http://www.w3.org/2000/svg" xmlns:xlink="http://www.w3.org/1999/xlink" x="0px" y="0px"
	 viewBox="0 0 357.6 417.3" style="enable-background:new 0 0 357.6 417.3;" xml:space="preserve">
<style type="text/css">
	.st0{fill:#1E1E1E;}
</style>
<g id="Group_47" transform="translate(103.869 417.305) rotate(-107)">
	<path id="Path_10364" class="st0" d="M181.5,255.5c0.2,0,0.3,0,0.5,0c1.4,0.1,2.4,1.3,2.4,2.7c0.3-0.1,0.6,0,0.8,0.1
		c0.6,0.3,0.8,1,0.5,1.6c0,0,0,0,0,0c-1,2-3.8,2.6-5.7,2c-1.6-0.4-2.5-2-2.1-3.6C178.3,256.6,179.8,255.4,181.5,255.5z M180.8,259.6
		c0.3,0.1,0.5,0.1,0.8,0.1c0.4,0,0.7-0.1,1.1-0.2c-0.4-0.2-0.7-0.7-0.7-1.2c0-0.3-0.1-0.5-0.4-0.5c-0.6-0.1-1.2,0.2-1.4,0.8
		C180.2,259.1,180.3,259.4,180.8,259.6z"/>
	<path id="Path_10365" class="st0" d="M355.2,52.6c-1,3.8-3,4.7-4.1,4.9c-1.6,0.2-3.1-0.5-4-1.8c-0.3-0.4-0.5-0.9-0.7-1.4
		c-9.2,4.1-14.5,5.6-25.2,5.6c-0.2,0-0.3,0-0.4-0.1c-3,2.5-6.1,5-9.3,7.5c-0.2,0.3-0.5,0.6-0.8,0.9c5.6,2.4,24.3,0.5,27.6-2.3
		c0,0,0.1-0.1,0.2-0.1c0.1-0.2,0.1-0.3,0.2-0.5c1.2-2.4,2.8-2.8,3.7-2.8c0.2,0,0.3,0,0.5,0c0.5,0.1,1,0.3,1.5,0.6
		c0.3-0.6,1-0.8,1.6-0.4c0.3,0.2,0.6,0.6,0.6,0.9c0.1,0.8,0,1.6-0.2,2.4c0,0.2,0.1,0.3,0.1,0.5c0.3,1.6-0.5,3.2-2,3.9
		c-0.6,0.3-1.3,0-1.6-0.5c0,0,0,0,0,0c-1.4,0.6-2.9,0.3-4-0.7c-0.2-0.2-0.3-0.4-0.5-0.7c-6.3,3-24.6,4.4-29.6,1.3
		c-0.1-0.1-0.2-0.2-0.3-0.3c-3.2,2.5-6.5,5-9.9,7.4c7.8,2.9,16,4.4,24.3,4.5c0.5-2.1,1.7-2.9,2.6-3.1c0.3-0.1,0.6-0.1,0.9-0.1
		c1.6,0.1,3.1,0.8,4.1,2c0.1-0.1,0.3-0.1,0.4-0.1c0.7-0.1,1.2,0.4,1.3,1.1c0,0,0,0,0,0c0,0.5,0,1-0.1,1.5c0.4,0.9,0.4,1.8,0,2.7
		c-0.3,0.6-1,0.8-1.6,0.5c-0.1,0-0.2-0.1-0.3-0.2c-0.3,0.2-0.6,0.4-0.9,0.6c-1.5,1-3.6,1.1-5.2,0.2c-0.9-0.6-1.4-1.6-1.5-2.7
		c-9.1-0.1-18-1.8-26.5-5.2c-3,2.1-6,4.1-9.1,6c-0.1,0.2-0.2,0.4-0.3,0.5c4.5,3.2,9.1,3.7,14.4,4.3c2.1,0.2,4.4,0.5,6.7,0.9
		c1.1-1.5,2.8-2.3,4.6-2.3c0.8,0,1.6,0.1,2.4,0.4c2.5,0.8,4.7,3.1,4.1,6.2c-0.1,0.6-0.7,1.1-1.4,0.9c-0.5-0.1-0.9-0.6-1-1.1
		c-0.7,1.2-1.8,2.1-3.2,2.6c-2.2,0.9-4.6,0.5-5.8-0.9c-0.9-1-1.1-2.4-0.7-3.7c-2-0.4-4-0.6-5.9-0.8c-5.8-0.6-11.2-1.3-16.6-5.5
		c-3.3,2-6.6,3.8-9.9,5.6c4.3,3.2,10.8,6.7,16.3,7.3c0.6-1.2,1.9-2,3.2-2h0.1c2,0.1,3.7,1.5,4.2,3.4l0,0c0.1,0.1,0.1,0.3,0.1,0.5
		c0.2,1.8-0.7,3.5-2.3,4.4c-1.6,1-3.7,0.9-5.2-0.2c-1.1-1-1.5-2.5-1.1-3.9c-6.1-0.9-13.2-4.7-17.6-8.3c0,0,0-0.1-0.1-0.1
		c-3.4,1.7-6.9,3.4-10.5,4.9c-0.1,0.1-0.1,0.1-0.2,0.2c0,0,0,0,0,0c2.8,4.1,10.3,6,15.3,7.3l0.2,0.1c0.3-1.3,1.5-2.2,2.8-2.2h0
		c2,0,4.1,2.1,5.3,4.5c0-0.1,0-0.2,0.1-0.3c0.1-0.6,0.7-1.1,1.4-1c0.6,0.1,1,0.7,1,1.3c-0.2,1.4-0.8,2.6-1.6,3.7
		c-0.1,0.1-0.2,0.2-0.3,0.3c-1.3,1.4-3.1,2.1-5,2c-2.1-0.3-4.3-2-4-6l-0.3-0.1c-5.9-1.5-13.9-3.5-17-8.8c-3.2,1.3-6.4,2.5-9.7,3.7
		l0,0c1.1,5.7,8.4,9.2,13.8,11.8l0.8,0.4c0.3-1.5,1.3-2.7,2.8-3.2c0.4-0.1,0.8-0.2,1.2-0.2c1.2,0,2.3,0.7,2.8,1.9
		c0.2,0.4,0.3,0.8,0.4,1.3c0.2-0.2,0.4-0.3,0.7-0.3c0.6-0.1,1.2,0.4,1.3,1c0.2,1.2-0.3,2.5-1.3,3.2c-0.3,0.2-0.5,0.4-0.8,0.6
		c-0.2,0.5-0.5,1-0.9,1.4c-0.8,0.6-1.9,0.4-2.5-0.4c-0.1-0.1-0.1-0.1-0.2-0.2c-0.2,0-0.4-0.1-0.5-0.1c-1.2-0.3-2.2-1.2-2.6-2.4
		c-0.2,0-0.4,0-0.6-0.1l-1.5-0.7c-5.7-2.7-13.5-6.5-15-13.1c-3.8,1.3-7.6,2.4-11.5,3.5c1,0.9,1.9,1.9,2.8,2.8
		c3.2,3.4,6.2,6.6,11.9,6.8c0.3,0,0.6,0.1,0.8,0.4c0.5-0.3,1-0.4,1.5-0.4c0.5,0,0.9,0.1,1.3,0.3c0.7,0.3,1.3,0.8,1.7,1.4
		c-0.3-0.6,0-1.3,0.6-1.6c0.6-0.3,1.3,0,1.6,0.6c0.9,1.5,0.4,3.4-1.1,4.4c-1.9,1.3-5.4,1-6.7-0.5c-0.6-0.6-0.8-1.5-0.5-2.3
		c-6.2-0.4-9.6-4-12.9-7.5c-1.2-1.3-2.5-2.6-3.9-3.7c-4.5,1.2-9.1,2.2-13.9,3.1c5.4,3.9,11.5,6.7,18,8.1c0.7-1.1,1.9-1.8,3.2-1.9
		c0.4,0,0.8,0.1,1.1,0.2c1.2,0.5,2.1,1.5,2.6,2.7c0.3-0.6,1-0.8,1.6-0.5c0.5,0.3,0.8,0.9,0.6,1.5c-0.4,1.2-1.2,2.2-2.3,2.9
		c-0.4,0.5-1,0.8-1.7,0.9c-0.1,0-0.2,0-0.3,0c-0.3,0.1-0.6,0.1-0.9,0.2c-1.7,0.3-3.4-0.4-4.5-1.7c-0.3-0.6-0.5-1.3-0.4-1.9
		c-7.8-1.9-14.8-5.3-19.8-9.5c-0.1-0.1-0.1-0.2-0.2-0.3c-1.7,0.3-3.4,0.6-5.1,0.8c-2.5,0.4-5.1,0.8-7.6,1.1c1.3,1.4,2.7,2.8,4.1,4.3
		c3.8,4,7.8,8.3,12,12.4c0,0,0,0,0.1,0c4.5,2,9.7,0.9,14.8-0.2c3.1-0.8,6.2-1.2,9.4-1.4c0.1,0,0.3,0,0.4,0c-0.1-1,0.2-2,1-2.7
		c0.8-0.9,2-1.4,3.2-1.5c0.5,0,1,0.1,1.5,0.3c1.8,0.6,3.1,2.2,3.4,4.2c0.1,1.4-0.7,2.8-2,3.3c-0.6,0.3-1.3,0.1-1.6-0.5
		c-0.1-0.1-0.1-0.2-0.1-0.3c-1.4,0.3-2.8,0.1-3.9-0.7c-0.2,0.3-0.6,0.4-0.9,0.4c-3.3,0-6.6,0.4-9.8,1.3c-4,0.9-8,1.7-11.9,1.2
		c2.9,2.8,6,5.5,9.1,8c0.1,0,0.3-0.1,0.4-0.1c3.9,0,7.8-0.1,11.6-0.5c1.4-0.2,2.7-0.6,4.1-1c2.1-0.7,4.3-1.2,6.5-1.4
		c-0.2-1,0.2-1.9,0.9-2.6c0.7-0.7,1.7-1,2.6-1c0.8,0,1.5,0.2,2.2,0.5c0.8,0.3,1.5,0.7,2.1,1.2c0.2-0.1,0.4-0.2,0.7-0.2l0,0
		c0.7,0,1.2,0.5,1.2,1.2c0,0,0,0,0,0c0,0.3,0,0.7-0.1,1c0.4,0.6,0.6,1.3,0.7,2.1c0,1.4-0.8,2.8-2.1,3.3c-0.6,0.3-1.3,0.1-1.6-0.5
		c-0.2-0.4-0.2-0.8,0.1-1.2c-1.7,0.3-3.4-0.2-4.8-1.2c-1.5-0.7-4.9,0.3-7.7,1.1c-1.5,0.5-3,0.8-4.5,1.1c-2.6,0.3-5.7,0.5-9.4,0.5
		c0.6,0.4,1.2,0.9,1.8,1.4c3.6,2.6,7.1,5.7,10.5,8.6c1.1,1,2.2,1.9,3.4,2.9c0.2-0.2,0.5-0.4,0.8-0.4c8.4-0.1,15.1-1.4,20.5-4
		c0,0,0,0,0,0c-0.5-0.4-1-0.9-1.2-1.5c-0.3-0.7-0.6-2.5,2.1-4c0.7-0.4,1.5-0.6,2.3-0.6c1.3,0,2.5,0.5,3.5,1.4c1.8,1.6,2.7,4.2,2,6
		c-0.6,1.4-2,2.2-3.5,2.1c-0.7,0-1.2-0.5-1.2-1.2c0-0.3,0.1-0.5,0.2-0.7c-0.9,0-1.8-0.2-2.6-0.6c0,0.5-0.2,1-0.7,1.2
		c-5.3,2.6-11.9,4-20,4.2c1.9,1.6,3.9,3.1,5.8,4.4c3.3,2.2,6.8,3.9,10.5,5.3c12.6,0,23.4-3,29.6-8.2c0.1-0.1,0.2-0.1,0.3-0.2
		c0.2-0.6,0.5-1.2,0.9-1.6c1.1-1.3,2.9-1.8,4.5-1.3c0.4,0.1,0.8,0.3,1.1,0.5c0.3-0.6,1-0.8,1.6-0.5c0.3,0.2,0.6,0.5,0.6,0.8
		c0.3,1.2,0.1,2.5-0.6,3.6c-0.5,1.5-1.5,2.8-2.8,3.6c-0.5,0.4-1.3,0.2-1.7-0.3c-0.3-0.4-0.3-0.9,0-1.3c-1.1,0-2.1-0.4-2.9-1.1
		c-7.1,5.6-17.3,7.5-24.7,8.1c0.9,0.3,1.7,0.6,2.6,0.9c2.8,0.9,5.6,1.9,8.4,2.9c2.9,1.1,5.8,1.9,8.8,2.5c6.2-1.2,12.2-3,18-5.4
		c2.8-1.1,5.6-3.3,8.4-5.4c2.6-2.1,5.4-3.9,8.4-5.4c-0.1-0.5-0.1-1.1-0.1-1.7c0-1.9,1.1-3.6,2.7-4.4c0.7-0.3,1.4-0.5,2.2-0.5
		c0.9,0,1.9,0.3,2.6,1c1.6,1.7,2.2,4.2,1.4,6.4c-0.3,0.9-0.9,1.8-1.7,2.3c-0.2,0.2-0.3,0.3-0.5,0.4c-1.4,0.9-3.3,0.9-4.7-0.2
		c-0.4-0.3-0.7-0.7-1-1.1c-2.8,1.4-5.4,3.1-7.8,5c-2.9,2.2-5.9,4.4-9,5.7c-4,1.6-8.2,3.1-12.4,4.2c4.4,0.5,8.9,0.7,13.4,0.6
		c6.4,0,19.3,0,28.4-2.5c0-0.1-0.1-0.2-0.1-0.2c-0.3-0.7-0.7-2.7,1.6-4.9c0.9-1.1,2.3-1.7,3.7-1.9c0.5,0,1.1,0.1,1.5,0.4
		c2.4,1.4,2.7,5.6,2.1,8.2c-0.1,0.4-0.4,0.8-0.8,0.9c-0.3,0.1-0.6,0.1-1,0.1c-0.5,0.1-1-0.2-1.2-0.6c-0.7,0.3-1.4,0.4-2.1,0.4
		c-0.6,0-1.2-0.2-1.7-0.4c-8.3,2.7-19.5,3.1-30.4,3c-5.5,0.1-11.1-0.3-16.6-1c0.2,0.2,0.5,0.5,0.7,0.7c3,3.2,5.8,6.2,9.9,8.2
		c4.8,2.4,10,2.5,15.4,2.6c0.3-0.4,0.7-0.8,1.1-1.1c1.5-1.1,3.4-1.2,5-0.3c0.2,0.1,0.4,0.3,0.6,0.5c0.1-0.3,0-0.7-0.1-1
		c-0.1-0.1-0.2-0.4-1.1-0.4c-0.7,0.1-1.2-0.4-1.3-1.1c-0.1-0.7,0.4-1.2,1.1-1.3c0.1,0,0.3,0,0.4,0c1.2-0.1,2.4,0.6,3,1.7
		c0.8,1.6,0.3,3.9-1.2,5.7c-0.1,0.5-0.5,0.8-0.9,0.9c-1.8,1.5-4.3,2-6.5,1.2c-0.4-0.1-0.7-0.5-0.8-0.9c-0.1-0.6-0.2-1.1-0.1-1.7
		c-5.4,0-10.5-0.3-15.6-2.8c-4.5-2.2-7.6-5.5-10.5-8.7c-0.9-1-1.8-1.9-2.8-2.9c-0.3,0-0.6-0.1-0.8-0.3c-2.8-0.6-5.6-1.4-8.3-2.4
		c-2.7-1-5.5-2-8.3-2.9c-2.8-0.9-5.7-1.9-8.5-2.9l-0.1,0c-0.5-0.2-1.1-0.4-1.6-0.6c0.2,0.3,0.3,0.6,0.5,0.8c4,7,7.4,13,16.2,16.6
		c0.2-0.3,0.4-0.4,0.8-0.5c0.2,0,0.5-0.1,0.7-0.1c0.9,0,1.8,0.3,2.6,0.8c0.1-0.1,0.3-0.2,0.5-0.2c0.6-0.1,1.3,0.3,1.4,1
		c0.2,0.9,0.1,1.9-0.3,2.7c0,0.1-0.1,0.3-0.1,0.4c-0.5,0.9-1.4,1.5-2.5,1.5c-0.4,0-0.8-0.2-1-0.5c-0.6-0.2-1.2-0.5-1.7-1
		c-0.5-0.5-0.8-1.2-0.9-1.9c-9.8-3.9-13.5-10.3-17.7-17.8c-0.7-1.2-1.4-2.4-2.1-3.7c-2-1-4-2.1-5.8-3.3c-1.8-1.2-3.5-2.6-5.3-4
		c0.1,0.4,0.1,0.7,0.2,1.1c0.8,4.4,1.9,10.7,4.4,13.6c0.8-0.6,1.7-0.9,2.7-0.8c0.6,0,1.2,0.1,1.8,0.3c1.7,0.5,3.6,1.7,3.8,3.4
		c0.1,1.2-0.5,2.3-1.5,2.8c-0.1,0.1-0.2,0.1-0.4,0.1c-2.3,1.8-5.6,1.3-7.4-1c-0.1-0.1-0.1-0.2-0.2-0.3c-0.4-0.8-0.5-1.7-0.2-2.5
		c-3.2-3.3-4.5-10.1-5.4-15.2c-0.3-1.5-0.5-2.8-0.7-3.8c0-0.1,0-0.1,0-0.2c-1.2-1-2.4-2.1-3.6-3.1c-3.3-2.9-6.8-5.9-10.3-8.5
		c-0.6-0.4-1.2-0.9-1.7-1.3c1.4,4.5,3.7,11.4,7.4,15.5c1.4,0.1,2.7,0.7,3.6,1.7c1.3,1.3,1.5,3.4,0.2,4.9c-0.4,0.5-1.2,0.6-1.7,0.2
		c0,0,0,0,0,0l0,0c-0.2,0.2-0.5,0.4-0.9,0.5c-2,0.4-4.1-0.6-5.1-2.4c-0.7-1.5-0.2-3,1.3-4.1c-4.1-5.2-6.5-13.2-7.7-17.3
		c-0.2-0.6-0.3-1.1-0.4-1.4c-3.4-2.8-6.7-5.7-9.8-8.8c0.1,0.7,0.3,1.4,0.5,2.1c0.4,1.3,0.7,2.6,0.8,4c0.2,1.6,0.5,3.3,1,4.9
		c0.6,2.2,1,4.4,1.1,6.7c0.4,0.2,0.8,0.6,1.1,1c1.2,1.4,1.2,3.5,0,4.9c-0.7,1.5-1.6,2.3-2.8,2.4c-1.4,0-2.7-1.1-3.4-3
		c-0.7-2.1-0.3-4.1,1-5.1c0.5-0.4,1-0.6,1.6-0.7c-0.2-1.9-0.6-3.8-1.1-5.7c-0.5-1.7-0.8-3.4-1-5.2c-0.1-1.2-0.4-2.4-0.8-3.6
		c-0.5-1.7-0.8-3.5-0.8-5.2c-4.3-4.2-8.4-8.5-12.2-12.6c-1.7-1.8-3.3-3.5-4.9-5.2c-0.1-0.1-0.2-0.3-0.3-0.4c-5,0.7-10,1.2-15.1,1.8
		c0.3,0.1,0.5,0.1,0.8,0.2c1.1,0.2,2.2,0.5,3.3,0.9c0.6,0.2,1.2,0.4,1.9,0.7c2.7,0.9,5.9,2,7.9,3.6c0.2-0.1,0.3-0.3,0.5-0.4
		c0.6-0.5,1.4-0.7,2.2-0.7c1,0,1.9,0.4,2.7,1c0.5,0.4,1,0.9,1.4,1.4c0.4,0,0.7,0.1,0.9,0.4c0.4,0.5,0.4,1.2,0,1.6
		c0.1,0.5,0.1,1-0.1,1.4c-0.4,1-1.4,1.7-2.5,1.6h0c-0.7,0-1.2-0.5-1.2-1.2c0-0.1,0-0.1,0-0.2c-1.2,0.2-2.4,0.1-3.6-0.3
		c-0.9-0.3-1.6-1-1.7-1.9c0-0.3,0-0.6,0.1-0.9c-1.5-1.3-4.8-2.4-7.2-3.2c-0.7-0.2-1.4-0.5-2-0.7c-1-0.3-2-0.6-3.1-0.8
		c-1.9-0.3-3.7-1-5.4-2c-2.9,0.3-5.8,0.6-8.7,0.8c0.8,0.2,1.5,0.4,2.3,0.6c5.2,1.9,10.2,3.9,13.7,7.9c0,0,0,0,0.1,0
		c0.4-0.1,0.7-0.2,1.1-0.2c0.7,0,1.4,0.2,2.1,0.6c0.9,0.5,1.6,1.3,2,2.2h0c0.6,0.2,1,0.8,0.9,1.4c0,0,0,0,0,0
		c-0.1,0.5-0.4,1-0.7,1.5c-0.1,0.3-0.2,0.6-0.3,0.8c-0.2,0.4-0.5,0.6-0.9,0.6c-0.2,0-0.4,0-0.6,0c-0.3,0.1-0.7,0.2-1.1,0.3
		c-1.8,0.4-3.7-0.3-4.8-1.7c-0.7-1.1-0.7-2.6,0.1-3.7c0.1-0.2,0.2-0.3,0.3-0.4c-3.1-3.5-7.7-5.4-12.6-7.2c-1.2-0.4-2.5-0.7-3.8-0.9
		c-1.4-0.2-2.8-0.5-4.2-1c-0.2-0.1-0.3-0.2-0.4-0.3c-0.1,0-0.1,0-0.2,0c-3.5,0.3-7,0.6-10.4,0.9l-1.1,0.1c0.3,0.2,0.6,0.3,0.9,0.5
		c0.8,0.4,1.5,0.8,2.1,1.1c0.6,0.3,1.2,0.5,1.8,0.7c2.1,0.8,4.2,1.8,6.1,3c0.5,0.3,1.1,0.7,1.7,1c1.4,0.8,2.7,1.6,3.9,2.6
		c0.3-0.1,0.7-0.1,1-0.1c0.6,0,1.3,0.1,1.8,0.3c1,0.3,1.9,1,2.6,1.9c0.1,0,0.3,0,0.4,0c0.6,0.2,1,0.8,0.9,1.4c0,0,0,0,0,0
		c-0.4,1.9-1.9,3.4-3.8,3.6c-1.9,0.3-3.8-0.6-4.9-2.2c-0.6-1.1-0.5-2.4,0.2-3.4c-1-0.8-2.1-1.4-3.2-2.1c-0.7-0.4-1.3-0.8-1.8-1.1
		c-1.8-1.1-3.7-2-5.7-2.8c-0.6-0.2-1.2-0.5-1.8-0.8c-0.7-0.3-1.5-0.7-2.3-1.2c-2-1.1-4.2-2.3-6-2c-4.7,0.4-9.3,0.8-14,1.3
		c-0.2,0.2-0.5,0.2-0.7,0.2c-0.2,0-0.3,0-0.5-0.1c-22.4,2.2-44.9,5.1-66.4,10.5c-10.5,2.6-20.8,6-30.9,10c6.3,0.7,12.4,2.4,18.2,5
		c0.3-0.2,0.7-0.3,1.1-0.2c3.6,1.3,7.8,1.3,11.5,1.1c0.5,0,1.2,0,2-0.1c2.4,0,4.8-0.2,7.1-0.6c-0.3-0.3-0.5-0.7-0.6-1.1
		c-0.2-0.6-0.5-2.8,2.7-4.1c0.7-0.3,1.4-0.4,2.1-0.4c1.3,0,2.5,0.5,3.3,1.5c0.1,0.1,0.2,0.2,0.3,0.4c0.1,0,0.2,0,0.2,0
		c0.6-0.1,1.2,0.4,1.3,1c0.2,1.2,0,2.5-0.6,3.6c-0.1,0.7-0.4,1.3-0.7,1.9c-0.3,0.6-1.1,0.8-1.6,0.4c-0.2-0.1-0.4-0.4-0.5-0.7
		c-1.3,0.1-2.5-0.2-3.6-0.8c-2,1-5.4,1.2-9.2,1.2c-0.7,0-1.4,0-1.9,0.1c-2,0.1-3.9,0.1-5.9,0c1.5,0.8,2.9,1.6,4.3,2.4
		c0.5,0.3,1,0.6,1.5,0.9c0,0,0,0,0,0c0.5,0,0.9,0.3,1.1,0.7l0,0c0.4,0.2,0.7,0.5,1,0.7c1.4,0.2,2.8,0.5,4.2,0.9
		c1.1,0.4,2.2,0.6,3.4,0.8c3.2,0.4,6.4,0.2,9.5-0.4c0.1-1,0.7-2.2,2.7-3.4c0.7-0.4,1.5-0.7,2.3-0.7c0.7,0,1.4,0.2,1.9,0.7
		c0.3,0.3,0.6,0.6,0.8,0.9c0.1,0,0.1,0,0.2-0.1c0.6-0.1,1.3,0.3,1.4,0.9c0,0,0,0,0,0c0.5,2.7-0.5,4.7-2.7,5.4c-2,0.6-4.2,0-5.7-1.5
		c-3.5,0.8-7.1,1-10.7,0.5c-0.9-0.1-1.7-0.3-2.6-0.6c3.1,2.6,6,5.3,8.8,8.2c2.4,0,4.8,0.2,7.2,0.6c3.8,0.6,7.8,1.3,10.8-0.1
		c-0.5-0.8-0.7-1.8-0.5-2.7c0.3-2.2,2.1-3.9,4.4-3.9c1.1,0,2.1,0.5,2.8,1.3c0.8,1,1.2,2.3,1.1,3.6c0.5-0.4,0.8-1.1,0.7-1.8
		c-0.1-0.6,0.3-1.3,0.9-1.4c0.6-0.1,1.3,0.3,1.4,0.9c0.4,1.9-0.6,3.8-2.3,4.7c-0.9,0.5-1.8,0.9-2.8,1.1c-0.7,0.3-1.4,0.4-2.2,0.3
		c-0.2,0-0.4-0.1-0.6-0.3c-0.3-0.1-0.6-0.1-0.8-0.2c-3.8,2.3-8.5,1.6-13.1,0.8c-1.6-0.3-3.1-0.5-4.5-0.6c0.5,0.6,1.1,1.1,1.6,1.7
		c2.1,2.2,4.3,4.4,6.5,6.6c1.8,0.1,3.6,0.4,5.4,0.9c1.8,0.5,3.7,0.8,5.6,0.9c2.7,0,5.3-0.4,7.8-1.2c-0.3-0.2-0.5-0.5-0.7-0.8
		c-0.9-1.5-0.7-3.3,0.5-4.5c0.7-1,1.8-1.5,3-1.5c0.3,0,0.6,0,0.8,0.1c1.8,0.5,3.3,1.8,3.9,3.6c0.3,0.3,0.4,0.6,0.3,1
		c-0.1,0.4-0.2,0.8-0.3,1.2c-0.2,0.5-0.5,1-1,1.3c-0.1,0-0.1,0.1-0.2,0.1c-0.5,0.4-1.1,0.7-1.7,0.8c-0.8,0.2-1.7,0.1-2.5-0.1
		c-0.1,0.4-0.4,0.8-0.8,0.9c-3,1-6.1,1.5-9.2,1.5c-2.1-0.1-4.2-0.4-6.2-0.9c-0.7-0.2-1.4-0.3-2-0.4c1.5,1.4,3.1,2.9,4.6,4.3
		c0.2,0.1,0.4,0.3,0.6,0.5l0.2,0.2c0.6-0.1,1.3-0.2,1.9-0.2c1.9,0.1,3.9,0.4,5.7,1c2.1,0.7,4.4,1,6.7,0.8c0,0,0-0.1-0.1-0.1
		c-0.6-1.1-0.6-2.5,0-3.7c0.5-1.3,1.8-2.2,3.2-2.3c0.4,0,0.9,0.1,1.3,0.3c1.5,0.7,2.6,1.9,3.2,3.4c0.4,0.3,0.6,0.8,0.5,1.3
		c0.2,0.9,0.2,1.8,0,2.6c-0.2,0.6-0.8,1-1.5,0.8c-0.3-0.1-0.5-0.3-0.7-0.5c-0.9,0.6-2,0.8-3,0.5c-0.4-0.1-0.7-0.2-1-0.4
		c-0.1,0.1-0.2,0.1-0.3,0.1c-3.1,0.9-6,0.1-8.9-0.6c-1.5-0.4-3.1-0.7-4.7-0.9c2.7,2.6,5.4,5.2,8.1,7.7h0c0.2,0.1,0.4,0.3,0.6,0.5
		l0.1,0.1c1.2,0,2.4,0.1,3.6,0.1c3.3,0.2,6.3,0.3,9.2-0.8c-0.2-2.7,1.7-5.1,4.3-5.5c0.5,0,1.1,0.1,1.6,0.4c0.9,0.5,1.5,1.4,1.8,2.5
		c0.1,0,0.2,0,0.3,0c0.6,0.1,1.1,0.8,0.9,1.4c-0.6,2.7-3.3,4.4-6,3.8c-0.5-0.1-1.1-0.3-1.5-0.6c-3.5,1.5-7.2,1.4-10.7,1.2
		c-0.3,0-0.6,0-0.9,0c0.9,0.9,1.9,1.8,2.8,2.7c2.4,2.3,4.8,4.6,7.2,6.9c3.9,1.1,8.8,0.5,14.9-1.9c-0.1-1,0.1-1.9,0.6-2.8
		c0.5-1.3,1.7-2.1,3.1-2.2h0.1c1.3,0.1,2.4,0.8,3,1.9h0c0.6,0,1.2,0.5,1.2,1.1c0.2,1.9-0.8,3.8-2.6,4.6c-1.4,0.6-3,0.4-4.1-0.6
		c-5,2-9.3,2.9-13,2.7c2.2,2.1,4.5,4.3,6.8,6.4c1.1,0,2.5,0.2,3.9,0.3c3.8,0.4,8.9,0.9,10.7-0.6c0.1-0.1,0.3-0.2,0.5-0.2
		c-0.2-0.8,0-1.7,0.4-2.5c0.6-1.2,1.8-2,3.2-2.1c0.2,0,0.4,0,0.6,0c1.8,0.4,3.2,1.8,3.6,3.6c0.3,1.5-0.5,3-1.8,3.7
		c-0.4,0.2-0.8,0.2-1.2,0c-1.2,0.2-2.5-0.1-3.5-0.9c0,0.1-0.1,0.1-0.1,0.2c-2.6,2.3-7.9,1.7-12.5,1.2l-0.9-0.1c0.5,0.5,1,1,1.5,1.5
		c1.5,1.4,3.2,2.8,4.9,4c1.2,0.1,2.4,0.2,3.8,0.3c3.8,0.4,8,0.8,10.7-0.3c0,0,0.1,0,0.1,0c-0.1-1.1,0.2-2.2,0.8-3.1
		c0.7-1.2,1.9-1.9,3.3-2c0.2,0,0.5,0,0.7,0.1c1.2,0.3,2.2,1.1,2.6,2.3c0.6,0,1.1,0.5,1.2,1c0.3,1.8-0.7,3.6-2.3,4.3
		c-1.7,0.7-3.6,0.5-5.1-0.6c-0.1,0.1-0.3,0.2-0.4,0.3c-3.1,1.2-7.6,0.8-11.6,0.4c0.6,0.4,1.2,0.9,1.9,1.3c1.9,1.3,3.9,2.6,5.8,4.1
		c0.1,0,0.3,0.1,0.4,0.2c0.1,0.1,0.2,0.2,0.3,0.3c0.5,0.4,0.9,0.7,1.4,1.1c1.9-0.4,5-0.7,8-1c2.7-0.3,5.9-0.6,7.3-0.9
		c-0.1-0.7,0-1.4,0.2-2.1c0.8-2.6,2.1-3.1,3-3.1c0.2,0,0.4,0,0.7,0.1c1.3,0.4,2.4,1.9,2.9,3.4c0.6-0.1,1.2,0.3,1.3,1
		c0.4,1.5-0.3,3.2-1.6,4c-1.6,0.9-3.6,0.8-5.1-0.3c-0.2-0.2-0.4-0.4-0.6-0.6c-2.6,0.5-5.2,0.9-7.9,1.1c-2.1,0.2-4.2,0.4-5.9,0.7
		c1.2,1.1,2.4,2.3,3.5,3.6c1.4,1.6,2.9,3.1,4.6,4.3c3.8-0.1,7.6-0.8,11.1-2.3c0.1-0.1,0.3-0.1,0.4-0.1c0.1,0,0.3,0.1,0.4,0.1
		c0-0.1,0-0.2-0.1-0.3c-0.4-2.5,0.5-4.5,2.2-5.3c0.5-0.2,1.1-0.4,1.6-0.4c0.8,0,1.5,0.3,2,0.8c1,1,1.6,2.4,1.5,3.8
		c0.5,0.3,0.7,0.9,0.5,1.5c-1.3,2.9-2.8,4.3-4.5,4.1c-1.3-0.3-2.3-1.2-2.7-2.4c-0.1,0.2-0.3,0.3-0.5,0.4c-2.8,1.1-5.8,1.9-8.8,2.3
		l0.3,0.2c1.2,0.8,2.3,1.8,3.3,2.7c1.9,1.7,3.9,3.5,5.9,3.9c0.6,0.1,1.1,0.7,1,1.4c-0.1,0.6-0.7,1.1-1.4,1l0,0
		c-2.7-0.5-4.9-2.5-7.1-4.4c-1-0.9-2-1.8-3.1-2.5l-0.3-0.2c-0.8-0.5-1.5-1-2.1-1.5c0.1,0.5,0.1,1.1,0.2,1.6c0.2,1.1,0.3,2.3,0.3,3.4
		c-0.2,1.7-0.8,5.8-2.8,7.4c-0.3,0.2-0.6,0.3-1,0.2c0.4,0.5,0.6,1,0.8,1.5c0.1,0,0.1,0,0.2,0c0.6,0.2,1,0.9,0.8,1.5c0,0,0,0,0,0
		c-0.3,1.3-1.4,2.3-2.7,2.6c-1.4,0.2-2.8-0.5-3.6-1.6c-0.8-1.1-0.9-2.7-0.3-3.9c0.4-0.9,1.4-1.6,2.4-1.6c0.2,0,0.3,0,0.5,0
		c0.4,0.1,0.8,0.3,1.2,0.5c-0.1-0.4,0-0.9,0.4-1.2c0.9-0.7,1.7-3.1,1.9-5.8c0-0.9-0.1-1.8-0.3-2.7c-0.2-1-0.3-2.1-0.3-3.2
		c-0.1-0.2-0.1-0.3-0.1-0.5c0-0.1,0-0.1,0-0.2c-1.4-1.1-2.6-2.4-3.8-3.7c-1.2-1.4-2.5-2.8-3.9-4c0.2,4-0.1,8-1,11.9
		c-0.1,0.4-0.5,0.7-0.9,0.8c0.4,1.3,0.4,2.7,0,4c-0.2,0.6-0.9,0.9-1.5,0.7s-0.9-0.9-0.7-1.5c0.3-0.9,0.2-1.9-0.2-2.8
		c-0.2,0.1-0.3,0.3-0.4,0.4c-0.5,0.6-0.3,3.1,0.7,4.2c0.3,0.4,0.6,0.5,1.2,0c0.5-0.4,1.3-0.3,1.7,0.2c0.4,0.5,0.3,1.3-0.2,1.7
		c0,0,0,0-0.1,0c-1.3,1.1-3.2,1-4.3-0.3c0,0,0,0,0,0c-1.6-1.8-2.3-5.7-0.8-7.4c0.5-0.7,1.4-1.2,2.3-1.3c0.4,0,0.7,0.1,1,0.3
		c0.9-3.3,1.4-11.5,0.2-13.3c-2-1.5-4-2.9-6.2-4.4c-1.4-1-2.8-1.9-4.3-3c0.8,5.1,1.3,11.5-1.3,15.7c0.3,0.9,0.1,1.9-0.6,2.7
		c0.1,0.2,0.2,0.4,0.1,0.7c0,1.2-0.7,2.2-1.8,2.5c-1.5,0.3-3.1-0.9-4-2.3c-1-1.4-0.9-3.3,0.3-4.6c0.6-0.7,1.6-1,2.5-1
		c0.6,0,1.2,0.1,1.8,0.4c2.4-4.5,0.9-12.6,0.5-15.3c0-0.1,0-0.3,0-0.4c0,0,0-0.1,0-0.1c0-0.1,0-0.1,0-0.1c-1.3-1-2.6-2.1-3.9-3.2
		c-1-0.9-2-1.9-3-2.9c-0.1,4.2-0.9,8.4-2.4,12.3c-0.1,0.1-0.1,0.2-0.2,0.3c0.7,1,0.8,2.2,0.5,3.4c-0.1,0.4-0.4,0.8-0.7,1.1
		c0.4,0.5,0.3,1.2-0.2,1.6c-1.5,1.3-2.7,1.2-3.5,0.9c-1.6-0.7-2.1-2.9-2-4.7c0-2,0.8-3.5,1.9-4c0.3-0.1,0.7-0.2,1-0.2
		c0.4,0,0.8,0.1,1.2,0.3c1.5-4.2,2.3-8.7,2.1-13.1c-2.5-2.3-4.9-4.7-7.4-7v0.2c0.1,4.8,0.1,9-1.6,13.9v0c0.4,0.5,0.6,1.1,0.6,1.7
		c0.4,0.4,0.5,1,0.2,1.4c-0.6,1.1-1.8,1.8-3.1,1.7c-1.7-0.2-3.3-1.3-4-2.9c-0.4-1-0.2-2.1,0.5-2.9c0.6-0.6,1.4-1,2.3-1
		c0.5,0,1.1,0.1,1.5,0.3c1.3-4.2,1.3-8,1.2-12.3c0-0.8,0-1.7,0-2.5c-2.1-2-4.1-3.9-6.1-5.9c-1.3-1.3-2.7-2.6-4-3.8c0,1,0.2,2,0.3,3
		c0.2,0.9,0.3,1.8,0.3,2.7c0.1,2.4-0.1,4.8-0.8,7.1c0.6,0.6,1,1.4,1.3,2.3c0.5,0.4,0.5,1.1,0.2,1.6l-0.1,0.1
		c-0.1,0.4-0.2,0.8-0.4,1.2c-0.3,0.6-1,0.8-1.6,0.6c-0.1,0-0.1-0.1-0.2-0.1c-1.5,0.5-3.1,0.3-4.4-0.5c-1.5-1-1.8-3-0.8-4.5
		c0.1-0.1,0.1-0.2,0.2-0.3c0.7-1,1.8-1.6,3-1.7c0.3,0,0.5,0,0.8,0.1c0.4-1.9,0.6-3.8,0.5-5.8c0-0.7-0.2-1.6-0.3-2.5
		c-0.4-1.8-0.4-3.6-0.2-5.4c-2.6-2.5-5.3-5.1-8-7.6c0.5,2.9,0.9,5.8,1,8.7c0,1.9-0.1,3.8-0.3,5.7c-0.2,1.5-0.3,3.1-0.3,4.6
		c0,0.1,0,0.1,0,0.2c0.5,0.1,0.9,0.6,0.9,1.1c0.1,1.7-0.6,3.4-2.1,4.3c-1.1,0.6-2.5,0.6-3.6,0c-1.4-0.9-2.1-2.4-2-4
		c-0.1-1.4,0.6-2.7,1.9-3.4c0.4-0.2,0.9-0.3,1.3-0.3c0.4,0,0.9,0.1,1.3,0.3c0.1-0.9,0.2-1.9,0.3-3c0.2-1.8,0.3-3.5,0.3-5.3
		c-0.2-3.9-0.7-7.8-1.6-11.7c-1.7-1.6-3.4-3.2-5.1-4.8c-0.5-0.5-1-1-1.5-1.5c0.1,1,0.1,2,0.2,3c0.4,5.3,0.7,10.9-1.5,15.9
		c0.6,0.9,0.9,1.9,1,2.9c0.1,1-0.5,2-1.4,2.4c-0.4,0.2-0.9,0.1-1.3-0.2c-0.1,0-0.1,0-0.2,0c-1.7,0.2-3.3-0.5-4.2-2
		c-0.8-1.3-0.6-2.9,0.4-4c0.6-0.8,1.5-1.3,2.5-1.3c0.3,0,0.7,0.1,1,0.2c0.1,0.1,0.3,0.1,0.4,0.2c1.6-4.3,1.3-9.1,1-14.1
		c-0.1-1.8-0.3-3.7-0.3-5.6c-1.7-1.7-3.4-3.5-5-5.2c-0.7-0.8-1.5-1.5-2.2-2.3c0.2,1.6,0.2,3.3,0.2,4.9c0,0.7,0,1.3,0,1.8
		c0.2,3.5-0.8,6.2-1.8,9l-0.4,1.1c0.1,0.3,0.2,0.7,0.2,1c0.2,0.2,0.3,0.6,0.3,0.9c-0.4,3.6-2.5,4.6-3.3,4.8
		c-1.5,0.4-3.2-0.2-4.1-1.4c-1.2-1.7-1.2-4,0-5.7c0.6-1.4,2-2.3,3.5-2.4c0.5,0,1,0.1,1.5,0.3c0.1,0.1,0.2,0.1,0.3,0.2
		c1-2.4,1.5-5.1,1.5-7.7c0-0.5,0-1.2,0-1.9c0-2.3-0.1-7-1.3-8c-0.3-0.2-0.4-0.5-0.4-0.9c-2.9-2.9-6.1-5.7-9.4-8.2
		c0.4,1.7,0.7,3.4,0.9,5c0.1,0.8,0.2,1.5,0.3,2.2c0.5,2.9,0.9,6.8-0.2,9.5c0,0,0.1,0,0.1,0c0.6,0.3,0.8,1,0.6,1.6
		c-0.4,0.9-1.9,3.8-4.1,3.5c-1.3-0.1-2.1-1.2-2.5-3.2c-0.6-2.7,0.3-3.8,1-4.3c0.4-0.3,0.8-0.4,1.2-0.4c0.5,0,0.9,0.1,1.3,0.4
		c0.2,0.1,0.4,0.3,0.5,0.5c0.4-2.4,0.3-4.9-0.2-7.4c-0.1-0.7-0.2-1.5-0.3-2.3c-0.3-2.6-0.8-5.1-1.7-7.6c-0.6-0.4-1.2-0.8-1.9-1.2
		c-2.4-1.4-5-2.9-7.8-4.3c2,4.5,2,11.4,1.9,16v0.2c0.1,0.1,0.2,0.1,0.3,0.2c2.1,1.3,2.8,3.4,1.9,5.2c-0.1,0.2-0.3,0.4-0.4,0.5
		c-0.4,0.8-1.1,1.4-2,1.7c-1.9,0.5-4.2-1-5.3-2.7c-1-1.2-1.1-3-0.2-4.3c0.7-0.9,1.8-1.4,2.9-1.3c0.1,0,0.3,0,0.4,0
		c0.1-5.5,0.1-15-3.9-17.2c-0.2-0.1-0.3-0.3-0.4-0.5c-6.4-2.7-13.2-4.2-20.1-4.3h0c0,0-0.1,0-0.1,0c-0.5,0.2-1,0.4-1.4,0.6
		c-4.2,2-8.4,4.4-12.5,6.8c-4.5,2.8-9.2,5.3-14.1,7.5c-0.6,0.3-1.3,0-1.6-0.6c-0.3-0.6,0-1.3,0.6-1.6c4.7-2.2,9.4-4.7,13.8-7.4
		c4.1-2.4,8.3-4.9,12.7-6.9c13-6.1,27.6-10.4,37.6-12.9c21.5-5.4,44-8.3,66.3-10.5c0.2-3.1,0.7-6.1,1.6-9.1
		c-0.4-1.8-0.6-3.6-0.7-5.4c0-1.5-0.2-3-0.5-4.5l-0.5-2.2c-0.5-2.2-1-4.5-1.6-6.7c-0.3,0-0.6-0.1-0.8-0.3c-2.4-0.7-4.1-2.8-4.2-5.3
		c0-1,0.5-3.5,4.6-4.1c0.3-0.1,0.6-0.1,1-0.1c1.2,0,2.3,0.5,3.1,1.4c1.1,1.6,1.2,3.6,0.4,5.3c-0.4,0.9-1,1.7-1.8,2.3
		c0.6,2.3,1.1,4.7,1.7,7l0.5,2.2c0.3,1.6,0.5,3.2,0.5,4.9c0,0.2,0,0.4,0,0.7c1.9-4.5,4.1-8.8,6.5-13c0.6-1.1,1.2-2.2,1.8-3.3
		c0.1-0.2,0.2-0.4,0.3-0.6c0-1.9-0.2-4.1-0.3-6.4c-0.3-4.5-0.6-9.4,0-13.6c-2.2-1.1-3.7-3.2-4-5.6c-0.3-1.9,0.8-3.8,2.6-4.5
		c0.6-0.2,1.2-0.4,1.8-0.4c1.2,0,2.3,0.5,3.1,1.5c1.2,1.4,1.8,3.3,1.5,5.2c0.5,0.3,0.7,1,0.5,1.6c-0.6,1.3-1.7,2.3-3.2,2.6
		c-0.6,3.9-0.3,8.7,0,13c0.1,0.9,0.1,1.8,0.2,2.7c2.6-4.2,5.6-8.3,8.8-12.1c0-2.4-0.1-4.8-0.2-7.4c-0.3-5.4-0.2-10.8,0.3-16.2
		c-2-1.1-3.8-3.2-4-5.1c-0.1-0.8-0.1-3.3,3.7-4c0.3-0.1,0.7-0.1,1-0.1c1.6,0,3,0.8,3.9,2.2c0.6,0.9,0.9,1.9,1,3
		c0.2,0.2,0.4,0.6,0.4,0.9c-0.1,3.5-2.4,3.8-3.1,3.9c-0.1,0-0.3,0-0.4,0c-0.4,5.1-0.5,10.2-0.2,15.4c0.1,1.6,0.1,3.2,0.1,4.7
		c3.1-3.5,6.4-6.9,9.8-10.1c0-3.5,0.4-7,0.7-10.4l0.2-1.8c0.3-2.8,0.5-4.9,0.8-6.9c0.2-1,0.4-1.9,0.7-2.9c0.3-1,0.6-2,0.8-3.1
		c-1-0.9-1.7-2-2.2-3.3c-0.6-1.6,0-3.4,1.4-4.4c0.6-0.4,1.3-0.6,2.1-0.6c0.8,0,1.5,0.2,2.2,0.6c2,1.1,3.2,3.2,3.3,5.4
		c0,0.1,0,0.3,0,0.4c0,0.2,0,0.3,0,0.5c-0.2,1.3-1.1,2.4-2.4,2.9h0c-0.2,0.1-0.5,0.2-0.8,0.1c-0.5,0-1-0.1-1.5-0.3
		c-0.2,0.8-0.4,1.6-0.7,2.4c-0.3,0.8-0.5,1.7-0.7,2.5c-0.3,1.9-0.6,4-0.8,6.7l-0.2,1.8c-0.3,2.6-0.5,5.3-0.6,7.9
		c0.4-0.4,0.8-0.8,1.2-1.1c0.1-0.3,0.4-0.5,0.7-0.6c3.7-3.3,7.6-6.4,11.4-9.4c0.4-4.3,2-8.5,3.7-12.6c1.9-4.8,3.9-9.7,3.7-14.5
		c0-0.1,0-0.1,0-0.2c-2.1-0.3-3.8-2.9-4.3-5.1c-0.5-2.1,0.1-3.9,1.6-4.8c0.5-0.3,1.2-0.5,1.8-0.5c0.8,0,1.5,0.2,2.1,0.6
		c2.8,1.9,4.5,5,4.6,8.4c0,1.4-0.8,2.7-2.1,3.2c-0.5,0.2-1.1,0.1-1.4-0.4c-0.1,4.9-2,9.6-3.8,14.1c-1.4,3.1-2.4,6.3-3.2,9.6
		c1.5-1.2,3.1-2.3,4.6-3.5c6-4.5,12.5-8.4,19.2-11.8l0,0l0,0c0.1-0.1,0.2-0.1,0.4-0.2c1.3-2,2.3-4.2,2.9-6.5
		c0.3-0.8,0.5-1.7,0.8-2.4c0.4-1.1,0.9-2.2,1.4-3.2c0.5-1.1,1-2.2,1.4-3.3c0.2-0.6,0.3-1.1,0.4-1.7c0.2-1.4,0.7-2.7,1.4-3.8
		c-0.9-0.7-1.6-1.8-1.8-2.9c-0.1-0.9,0.1-3.2,4.1-3.9C219.8,0,220,0,220.3,0c1.1,0,2.2,0.5,2.9,1.4c1.1,1.6,1.2,3.7,0.3,5.5
		c-0.5,1.3-1.8,2.1-3.2,2.1c-0.5,0-0.9-0.3-1.1-0.8c-0.6,0.9-1,1.9-1.1,3c-0.1,0.7-0.3,1.3-0.5,2c-0.4,1.2-0.9,2.4-1.5,3.5
		c-0.5,1-0.9,2-1.3,3c-0.3,0.7-0.5,1.5-0.8,2.3c-0.4,1.3-0.9,2.7-1.4,4c0.8-0.4,1.6-0.8,2.5-1.1c4.6-2.1,9.1-4.4,13.4-6.6
		c1.9-1.1,3.7-2.5,5.3-4.1c2-1.9,4.1-3.8,6.6-4.8c0.1-0.1,0.3-0.1,0.4-0.1c0.2,0,0.4,0.1,0.6,0.2v0c-1-3.9,1.2-5.1,1.9-5.4
		c0.7-0.3,1.4-0.3,2.1-0.1c0.2-0.4,0.6-0.6,1-0.6c0.1,0,0.2,0,0.3,0c1.8,0.3,3,2,2.7,3.8c-0.3,2.5-2.6,5-4.8,5.2
		c-1.1,0.1-2.2-0.5-2.7-1.5c-0.1,0.4-0.3,0.7-0.7,0.8c-2,0.8-3.9,2.5-5.8,4.3c-1.7,1.8-3.7,3.3-5.8,4.5c-4.3,2.2-8.8,4.6-13.5,6.7
		c-0.8,0.3-1.5,0.7-2.3,1.1c0.8,0.3,1.6,0.6,2.3,0.9c0.9,0.4,1.8,0.7,2.7,1c3.5,0.8,7.1,1.1,10.7,0.9c0.1-0.6,0.4-1.2,0.8-1.6
		c0.6-1,1.7-1.7,2.9-1.7c0.2,0,0.3,0,0.5,0c1,0.2,1.8,0.9,2.2,1.8c0,0,0.1,0,0.1,0c0.7,0,1.2,0.6,1.2,1.2c0,0,0,0,0,0
		c-0.1,3.5-2,4.5-2.8,4.7c-1.6,0.4-3.4-0.2-4.4-1.6c-0.1-0.2-0.2-0.3-0.2-0.5c-3.9,0.2-7.7-0.1-11.5-1c-1.1-0.3-2.1-0.7-3.1-1.1
		c-1.8-0.7-3.5-1.4-5-1.2c0,0-0.1,0.1-0.1,0.1c-0.3,0.3-0.7,0.4-1.1,0.3c-6.4,3.2-12.4,6.9-18.2,11.2c0.2,0,0.4,0,0.7,0
		c2.3,0.1,4.5,0.3,6.7,0.7c0.5,0.1,1,0.2,1.4,0.2c0.9,0.1,1.9,0.3,2.9,0.4c3.3,0.5,7,1.1,9.7,0.8c-0.2-1.3,0.5-2.6,1.7-3.2
		c0.6-0.4,1.3-0.6,1.9-0.6c0.7,0,1.4,0.2,2,0.6c0.8,0.6,1.5,1.4,1.9,2.3c0.3-0.1,0.7-0.1,1,0c0.6,0.3,0.9,1,0.6,1.6c0,0,0,0,0,0
		c-0.4,0.9-1.1,1.7-1.9,2.3c-0.4,0.5-0.9,0.8-1.4,1c-0.5,0.2-1,0-1.3-0.3c0,0-0.1,0-0.1,0c-1.1-0.1-2.2-0.6-3-1.4
		c-0.1,0-0.1,0-0.2,0.1c-3.2,0.5-7.4-0.2-11.1-0.8c-1-0.2-2-0.3-2.9-0.4c-0.4-0.1-0.9-0.1-1.4-0.2c-3-0.5-8.6-1.3-10.4,0.2
		c-0.3,0.3-0.8,0.4-1.2,0.2c-0.7,0.6-1.4,1.1-2.2,1.7c-0.1,0.2-0.3,0.4-0.6,0.4c-2.9,2.3-5.9,4.7-8.8,7.2c2,0.1,4,0.3,6,0.7
		c4.1,0.6,8.3,0.8,12.5,0.6c1.2,0,2.4,0,3.6,0c0-0.4,0.1-0.7,0.2-1.1c0.6-2.1,2.6-3.6,4.9-3.6c2.1,0,3.9,1.6,4,3.7
		c0.5,3-1.1,6.8-3.9,7.4c-0.6,0.1-1.3-0.3-1.4-0.9c-0.1-0.6,0.3-1.3,0.9-1.4l0,0c0.2-0.1,0.5-0.2,0.6-0.3c-1.3,0.6-2.9,0.3-3.9-0.7
		c-0.2-0.2-0.5-0.5-0.7-0.7c-0.1,0-0.1,0-0.2,0c-1.3,0-2.7,0-4.1,0.1c-4.3,0.2-8.7,0-13-0.6c-2.8-0.7-5.7-0.8-8.6-0.4
		c-5.8,5.1-11.1,10.6-16.1,16.4c1.3-0.1,2.5-0.3,3.7-0.4c1.7-0.1,3.5-0.3,5.2-0.5c1.8-0.2,3.6-0.3,5.3-0.2c2.6,0,5.3,0.1,7.2-0.6
		c0.1,0,0.2,0,0.3-0.1c0.4-1,1.1-2.6,2.2-3.1c0.6-0.3,1.2-0.4,1.9-0.4c0.9,0,1.8,0.4,2.4,1c1.4,1.6,1.8,3.8,0.9,5.8
		c-0.4,1-1.2,1.7-2.2,2.1c-0.5,0.5-1.1,0.8-1.8,1c-1.5,0.4-3-0.3-3.7-1.6c-0.4-0.7-0.5-1.4-0.4-2.1c-2.3,0.4-4.6,0.6-6.9,0.5
		c-1.7-0.1-3.3,0-4.9,0.2c-1.8,0.3-3.6,0.4-5.4,0.6c-1.9,0.2-3.8,0.3-5.6,0.6c-0.1,0-0.3,0-0.4,0c-2.4,3-4.6,6.2-6.6,9.5
		c1.2-0.3,2.3-0.5,3.5-0.5c1.9,0.1,3.9,0.3,5.8,0.6c2.7,0.4,5.3,0.8,7.6,0.3c0.1-0.3,0.2-0.6,0.4-0.8c0.5-1,1.4-1.8,2.5-2
		c0.1,0,0.2,0,0.3,0c1.2,0,2.2,0.7,2.8,1.8c0.9,1.6,1,3.6,0,5.2c-0.5,0.7-1.2,1.1-2,1.1c-0.2,0.1-0.4,0.2-0.6,0.2
		c-1.5,0.4-3-0.4-3.6-1.8c-0.2-0.4-0.3-0.7-0.3-1.1c-2.5,0.2-5,0-7.5-0.5c-3.6-0.6-6.9-1.1-9.9,0.4c-0.2,0.1-0.5,0.1-0.7,0.1
		c0,0.1-0.1,0.2-0.2,0.3c-0.1,0.2-0.2,0.4-0.3,0.5c-0.6,1.1-1.2,2.2-1.8,3.4c-2,3.6-4,7.4-5.7,11.2c1.5-0.6,3.1-1.1,4.6-1.5
		c1.3-0.3,2.7-0.5,4.1-0.6c2-0.2,4-0.3,5.4-1.2c0.2-0.1,0.4-0.2,0.6-0.2c0,0,0,0,0,0c0.4-1.1,1.2-2.1,2.2-2.8c0.8-0.6,1.7-0.9,2.7-1
		c1.2,0,2.3,0.6,3,1.5c1.3,1.8,0.9,4.4-0.9,5.7c0,0-0.1,0.1-0.1,0.1c-0.4,0.3-0.9,0.3-1.3,0.1c-0.3,0.2-0.7,0.4-1.1,0.5
		c-1.7,0.4-3.4-0.3-4.3-1.8c-1.9,0.8-4,1.3-6.1,1.3c-1.2,0.1-2.5,0.2-3.7,0.5c-2.3,0.5-4.5,1.4-6.6,2.5c-0.3,0.8-0.6,1.7-0.9,2.5
		c0,0.3-0.1,0.5-0.2,0.7c-0.8,2.6-1.3,5.3-1.5,8c3.2-0.3,6.5-0.6,9.7-0.9c2.2-1,4.5-1.8,6.8-2.4c3-0.8,5.9-1.9,8.7-3.5
		c4.1-2.5,6.6-5.4,9.4-8.8c1-1.2,2.1-2.4,3.2-3.7c0,0,0.1,0,0.1-0.1c-0.2-0.4-0.3-0.9-0.3-1.3c-0.5-2.5,1.2-4.9,3.7-5.4
		c0.3,0,0.5-0.1,0.8-0.1c0.8,0,1.6,0.3,2.1,0.8c1.1,1.3,1.5,3,1.1,4.7c0,0.2,0,0.5-0.1,0.7c0,0.1-0.1,0.1-0.1,0.2
		c0,0.1-0.1,0.2-0.1,0.4c-0.5,1.6-1.9,2.7-3.5,2.8c-0.1,0-0.2,0-0.3,0c-0.2,0-0.3,0-0.5-0.1c-0.5-0.1-0.9-0.3-1.3-0.6
		c-1,1.1-2,2.2-2.9,3.3c-2.9,3.4-5.6,6.6-10,9.3c-2.2,1.3-4.5,2.3-6.9,3c0.4,0,0.7-0.1,1.1-0.1c3.5-0.3,7.1-0.6,10.7-1
		c2.5-1.7,5.1-3.3,7.7-4.7c5.9-3.3,11.5-6.5,15-13c-0.2-0.3-0.3-0.7-0.4-1c-0.5-1.9,0.2-3.9,1.9-4.9c0.7-0.5,1.5-0.8,2.4-0.8
		c0.7,0,1.3,0.2,1.8,0.6c1.3,1.2,1.8,3.1,1.3,4.8c-0.1,0.3-0.2,0.5-0.4,0.7c-1.1,2.6-2.8,2.8-3.5,2.8c-0.5,0-0.9-0.2-1.4-0.4
		c-3.8,6.7-9.5,9.9-15.6,13.3c-1.3,0.7-2.5,1.4-3.8,2.2c4.3-0.4,8.7-0.8,13.1-1.3c8.2-2.2,16.3-8.9,20.4-16.9
		c-0.8-0.8-1.3-1.8-1.4-2.9c0-1.9,1.1-3.6,2.8-4.3c0.7-0.4,1.5-0.6,2.4-0.6c0.9,0,1.8,0.3,2.5,0.8c1.5,1.2,2.3,3.1,2,5
		c-0.2,1.4-1.2,2.5-2.5,2.9c-0.3,0.1-0.5,0.1-0.8,0c-0.9,0.4-1.9,0.5-2.9,0.3c-3.2,6.2-8.1,11.3-14.2,14.8c3.7-0.4,7.4-0.9,11.1-1.4
		c1.7-1.8,4.5-3.4,7.4-5.1c5.9-3.4,11.9-6.9,11-11.9c-1.1-0.1-2.1-0.7-2.7-1.6c-0.5-0.7-1.3-2.6,0.7-5.2c0.8-1.1,2-1.7,3.3-1.7
		c0.8,0,1.6,0.3,2.3,0.7c1.9,1.4,2.3,4,0.9,5.9c0,0,0,0.1-0.1,0.1c-0.1,0.1-0.1,0.2-0.2,0.2c-0.5,0.6-1.1,1.1-1.8,1.4
		c1,6.5-6,10.6-12.2,14.2c-1.4,0.8-2.8,1.6-4,2.4c1.3-0.2,2.6-0.3,3.9-0.5c2.5-0.4,4.9-0.8,7.4-1.3c0.1-0.3,0.4-0.5,0.7-0.6
		c4.1-1.2,9.9-6.8,12.2-11.2c-1-0.1-2.6-0.6-3.4-3.1c-0.8-2.6,1.2-5,3.6-5.8c0.5-0.2,1-0.3,1.6-0.3c1.5,0,2.8,0.8,3.4,2.1
		c0.6-0.1,1.3,0.3,1.4,0.9c0,0.2,0,0.3,0,0.5c-0.6,2-1.9,3.7-3.7,4.8c-1.2,3.8-5,8.3-8.9,11.3c2.8-0.6,5.5-1.3,8.2-2
		c0.1-0.1,0.2-0.2,0.4-0.3c4.1-1.7,10.6-9,9.7-14.2c-0.3,0-0.6,0.1-0.9,0c-2-0.1-3.6-1.7-3.6-3.8c-0.2-1.8,0.7-3.5,2.2-4.4
		c0.9-0.6,2-0.9,3.1-0.9c0.8,0,1.6,0.2,2.3,0.6c0.9,0.5,1.4,1.4,1.4,2.4c0.4,0.3,0.7,0.7,0.6,1.2c-0.3,1.6-1.4,3-2.8,3.9
		c1,4.6-2.1,9.9-5.8,13.5c3.1-0.9,6.1-1.9,9.1-2.9c0.1-0.2,0.2-0.3,0.3-0.4c3.6-3.4,7.5-10.7,6.1-16.3c-2.4,0.3-4.4-0.7-5-2.6
		c-0.8-2.4-0.1-3.7,0.6-4.4c1-0.8,2.2-1.2,3.5-1.1c1.6,0,3.1,0.3,4.6,0.9c0.6,0.5,1.1,1,1.6,1.5c0.4,2.3-1.1,4.1-3,5.1
		c1.4,5.3-1.1,11.6-4.2,15.8c2.4-0.9,4.7-1.8,7-2.8c2-2.3,2.8-5.4,3.6-8.4c0.5-2.3,1.3-4.6,2.4-6.8c-0.4-0.5-0.7-1-0.9-1.6
		c-0.8-2.1,0.3-6.3,2.5-7.4c0.4-0.2,0.8-0.3,1.2-0.3c1.1,0.1,2,0.7,2.5,1.6c0.4,0.5,0.2,1.3-0.3,1.6c-0.5,0.4-1.3,0.2-1.6-0.3
		c-0.1-0.2-0.5-0.7-0.7-0.6c-1,0.5-1.8,3.3-1.4,4.4c0.1,0.2,0.1,0.3,0.2,0.5c0.4-0.3,1-0.2,1.4,0.1c0.2,0.1,0.3,0.3,0.3,0.5
		c1.4-1,2.3-2.6,2.2-4.3c0-0.7,0.5-1.2,1.1-1.2s1.2,0.5,1.2,1.1c0.2,3.1-2,6.4-4.5,6.9c-0.4,0.1-0.8,0.1-1.2,0c-1,1.9-1.7,4-2.1,6.1
		c-0.5,2.1-1.1,4.1-2,6.1c2.4-1.1,4.8-2.2,7.1-3.4c-0.1-0.5,0.1-0.9,0.5-1.2c4.8-3.1,6.8-9.8,7.1-15.6c-0.2,0.1-0.5,0.1-0.7,0.1
		c-1,0-2.7-0.4-3.4-3.3c-0.5-1.9,0.5-3.9,2.3-4.7c0.8-0.4,1.7-0.6,2.6-0.6c1.1,0,2.1,0.3,3,0.9c0.3-0.6,1.1-0.8,1.6-0.4
		c0.4,0.2,0.7,0.7,0.6,1.2c-0.6,2.1-1.8,4.1-3.5,5.5c0,2.5-0.5,9.6-4.2,14.9c2.6-1.5,5.2-3,7.8-4.6c0.2-0.1,0.3-0.2,0.4-0.3
		c2.1-3.9,3.5-10.1,2.6-14.6c-0.2,0-0.4-0.1-0.6-0.1c-2.2-0.8-2.8-2.7-2-5.8c1-3.6,2.9-4.2,4-4.2h0.1c1.5,0.1,2.8,1.1,3.2,2.6
		c0.1,0.5,0.1,1-0.1,1.4l0.1-0.1c0.5-0.4,1.2-0.4,1.7,0.1c0.4,0.5,0.4,1.2,0,1.6c-0.4,0.4-0.8,0.9-1.1,1.3c-0.7,1.1-1.7,2.1-2.8,2.8
		c0.6,4.2,0.1,8.6-1.4,12.6c2.5-1.6,5-3.3,7.4-5.1c-0.1-0.4,0.1-0.7,0.3-1c3.1-3,4.6-8.9,3.8-13.8c-0.3,0.1-0.5,0.2-0.8,0.2
		c-0.7,0-2.9-0.1-3.3-3.8c-0.3-2.3,1.6-5.3,3.9-6.4c0.6-0.3,1.2-0.4,1.8-0.4c1,0,1.9,0.4,2.5,1.1c0.5,0.5,0.5,1.2,0,1.7l-0.1,0
		c0.2,0.2,0.4,0.5,0.4,0.9c0,2.1-0.9,4-2.3,5.5c0.9,4.3,0.4,8.7-1.4,12.7c2.8-2.1,5.6-4.3,8.4-6.5c3.1-4.4,3.1-10.9,3.1-16.3
		c-1.4,0-2.7-0.9-3.2-2.2c-1-2.1,0.2-4.6,2-5.9c0.7-0.5,1.5-0.8,2.3-0.8c1,0,1.9,0.4,2.5,1.1c0.5-0.4,1.3-0.3,1.7,0.2
		c0.1,0.2,0.2,0.4,0.2,0.6c0.2,2-1.3,4.7-3.2,6l0,0v0.8c0,4.1,0,8.9-1.3,13.1c2.7-2.2,5.4-4.4,8-6.6c4.6-5.6,5.6-9.9,5.7-17.3
		c-2.2,0.2-4.2-1.4-4.5-3.6c0-0.1,0-0.1,0-0.2c-0.3-2.8,1.7-4.4,3.9-4.8c0.3-0.1,0.7-0.1,1-0.1c1.5-0.1,2.9,0.6,3.7,1.9
		c0.3,0.2,0.6,0.5,0.6,0.9c0.2,2-0.7,3.9-2.3,5c0,5.3-0.5,9.3-2.2,13.2l0.2-0.2c4.4-3.7,8.9-7.5,13.4-11.2c0,0,0.1-0.1,0.1-0.1
		c-0.3-1.2,0-2.5,0.9-3.3c0.8-0.8,1.9-1.3,3.1-1.3c0.5,0,0.9,0.1,1.3,0.2c1,0.3,1.8,0.8,2.5,1.5c0.4,0.2,0.7,0.6,0.7,1.1v0.1
		c0.1,0.1,0.1,0.3,0.1,0.4c0.2,0.9,0,1.8-0.6,2.4c-0.3,1.2-1.3,2.1-2.4,2.5c-1.7,0.4-3.4-0.2-4.5-1.5c-4.4,3.6-8.9,7.4-13.2,11
		c-2,1.7-4,3.3-5.9,5l0,0c0,0-0.1,0-0.1,0.1c8.9-0.2,13.8-1.7,22.3-5.5c0.1-0.1,0.3-0.1,0.4-0.1c0.1-0.8,0.4-1.6,0.8-2.3
		c1.1-1.9,2.4-2.3,3.2-2.3c0.3,0,0.6,0,0.9,0.1c1.5,0.7,2.7,2,3.1,3.7c0,0,0.1,0,0.1,0C355,51.3,355.4,52,355.2,52.6
		C355.2,52.6,355.2,52.6,355.2,52.6z M340.6,67.7c0.2,0.1,0.4,0.2,0.7,0.2c0.4,0,0.7-0.1,1-0.2c0.7-0.3,1.2-0.9,1.6-1.5
		c-0.3-0.6-0.7-1-1.3-1.2c-0.8-0.1-1.4,0.9-1.7,1.5C340.5,67.1,340.5,67.6,340.6,67.7z M325.6,84.7c0.3,0.2,0.6,0.2,0.9,0.2
		c0.6,0,1.2-0.2,1.7-0.5c0.6-0.3,1.1-0.8,1.4-1.4c-0.1-0.2-0.2-0.3-0.4-0.5c-1-1.2-2.4-1.9-3.1-1.7c-0.6,0.2-0.9,1-1,1.7
		C325.1,83.1,325,84.2,325.6,84.7z M309.5,94.9c0.4,0.4,1,0.6,1.6,0.5c0.5,0,1.1-0.1,1.6-0.3c1.6-0.6,2.6-2.1,2.5-3.7
		c-0.3-0.2-0.7-0.4-1-0.5c-1.4-0.6-3-0.3-4.1,0.8c0,0.2,0,0.3,0,0.5c-0.1,0.4-0.3,0.7-0.7,0.8C309.1,93.6,309.1,94.4,309.5,94.9z
		 M292.6,103.7c0.3,0.2,0.7,0.3,1.1,0.3c0.5,0,1-0.1,1.5-0.4c0.1-0.1,0.2-0.1,0.3-0.2c-0.2-0.6,0-1.2,0.5-1.5
		c0.2-0.1,0.3-0.2,0.2-0.5c-0.3-0.9-1.1-1.5-2-1.6c-0.9,0-1.5,1.1-1.7,2C292.2,102.5,292,103.3,292.6,103.7L292.6,103.7z
		 M280.9,111.8c0.1,0,0.2,0,0.3,0c0.9,0,1.8-0.4,2.4-1c-0.5-2.3-2.8-4.8-3.8-4.8l0,0c-0.2,0-0.4,0.3-0.6,0.9c0.2,0.4,0.1,1-0.3,1.3
		c0,0.1,0,0.1,0,0.2C278.8,110.4,279.5,111.6,280.9,111.8L280.9,111.8z M267.7,117.8c0.2,0,0.4,0.1,0.6,0.1c0.3,0,0.6-0.1,1-0.1
		c0.2-1.1,0-2.2-0.5-3.2c-0.2-0.3-0.4-0.5-0.9-0.3c-0.8,0.3-1.3,1-1.3,1.9C266.5,116.9,267,117.6,267.7,117.8L267.7,117.8z
		 M253.4,120.4c0.2-0.1,0.4-0.2,0.6-0.2c0.1,0,0.1,0,0.2,0c-0.2-0.4-0.5-0.7-1-0.9c-0.3-0.1-0.7,0-0.8,0.3c-0.1,0.1-0.2,0.2-0.2,0.4
		C252.5,120.2,253,120.4,253.4,120.4L253.4,120.4z M238.7,122.1c0.5,0.5,1.1,0.7,1.8,0.6c0.1,0,0.3,0,0.4,0c0.5,0,0.9-0.2,1.4-0.4
		c0-0.5-0.1-0.9-0.3-1.3c-0.4-0.8-1-1.3-1.4-1.3c-0.4,0.1-0.8,0.3-1.1,0.7c0.1,0.2,0.1,0.4,0,0.6c-0.1,0.4-0.4,0.7-0.8,0.9
		C238.6,121.9,238.6,122,238.7,122.1L238.7,122.1z M246.7,128.4c0.5,0.5,1.2,0.8,1.9,0.8c0.2,0,0.4,0,0.6-0.1
		c0.4-0.1,0.5-0.3,0.5-0.8c0-0.3,0.1-0.6,0.3-0.9c-0.2-0.2-0.5-0.3-0.8-0.4c-0.8-0.3-1.7-0.1-2.2,0.6
		C246.5,128.1,246.6,128.3,246.7,128.4z M260.9,140.1c0.4-0.1,0.8-0.4,0.9-0.9c-0.6-0.7-1.4-1.2-2.2-1.6c-0.5-0.2-1.7-0.6-2.3,0.1
		c-0.2,0.2-0.3,0.3-0.1,0.7c0.7,1,1.9,1.6,3.1,1.7C260.6,140.2,260.8,140.1,260.9,140.1L260.9,140.1z M276.4,151.5
		c0.2,0,0.4,0,0.6-0.1c0.3-0.1,0.7-0.2,0.5-1.1c0-0.2,0-0.4,0-0.6c-0.1-0.1-0.2-0.3-0.4-0.4c-0.8-0.9-2.1-1.1-3.2-0.5
		c-0.2,0.1-1.1,0.6-1,1C273.4,150.7,275.1,151.5,276.4,151.5L276.4,151.5z M304.2,161c0.3-0.1,0.6-0.2,0.9-0.5v0
		c-0.1-0.5-0.6-1-1.1-1.1c-0.8-0.2-1.6,0-2.1,0.6c-0.4,0.4-0.4,0.7-0.4,0.7C302.4,161.2,303.4,161.3,304.2,161L304.2,161z
		 M334.3,162.4L334.3,162.4c0.2-0.3,0.6-0.6,1-0.6c0.1,0,0.2,0,0.2,0c0.3-0.4,0.3-1,0.2-1.5c-0.2-0.6,0.2-1.3,0.9-1.4c0,0,0,0,0,0
		l0,0c-0.1-0.8-0.4-1.5-0.9-2.1c-0.2-0.2-0.8-0.7-2.1-0.1c-0.8,0.6-1.3,1.5-1.3,2.5c0,0.3,0,0.6,0,0.8c0.6,0.1,1,0.7,0.9,1.4
		c0,0.1-0.1,0.3-0.2,0.4c0,0.1,0.1,0.1,0.2,0.2C333.5,162.2,333.9,162.3,334.3,162.4L334.3,162.4z M347.2,175.8L347.2,175.8
		c1.3,0,2.4-0.8,2.8-2c0-0.9-0.4-1.8-1.1-2.5c-0.7-0.4-1.9,0.7-2.4,1.1c-0.9,0.9-1.3,1.7-1.1,2.4
		C345.8,175.4,346.4,175.8,347.2,175.8L347.2,175.8z M329.5,193c0.1-0.4-0.1-0.9-0.5-1.1c-0.5-0.3-1.2-0.3-1.7-0.1
		c0.1,0.2,0.2,0.4,0.2,0.6c0,0.7-0.5,1.2-1.2,1.2c0,0,0,0,0,0h-0.5c0,0.2,0,0.3,0,0.5C327.2,194.3,328.6,193.9,329.5,193z
		 M285.8,190c0.3,0.3,0.6,0.4,1,0.4c0.1,0,0.2,0,0.3,0c-0.1-0.1-0.1-0.3-0.2-0.4c-0.3-0.4-0.8-0.7-1.3-0.7
		C285.5,189.6,285.6,189.9,285.8,190z M260.1,180.3c0.1,0,0.2,0,0.3,0c1-0.1,1.9-0.7,2.3-1.6c-0.5-0.5-1.2-0.9-1.9-1.1
		c-0.6-0.2-1.3-0.2-2,0c0.3,0.6,0.1,1.2-0.5,1.5c-0.2,0.1-0.3,0.1-0.5,0.1l0,0C258.3,179.9,259.2,180.4,260.1,180.3z M239.5,165.1
		c0.5,0.7,1.2,1.1,2,1.2c0,0,0.1,0,0.1,0c0-0.2,0-0.3,0-0.5c-0.1-0.6,0.3-1.3,1-1.4c0,0,0,0,0,0c0.1,0,0.1,0,0.2,0
		c-0.4-0.4-0.9-0.6-1.4-0.7c-0.3,0.2-0.7,0.2-1,0.1c-0.1,0-0.2,0.1-0.3,0.1C239.1,164.5,239.4,164.9,239.5,165.1L239.5,165.1z
		 M221.4,156.7c0.3,1,0.9,1.4,1,1.4c0,0,0.1-0.1,0.3-0.2c0-0.4,0.2-0.7,0.4-0.9c0.1,0,0.1-0.1,0.2-0.1c0.1-0.3,0.2-0.7,0.3-1
		c0-0.1,0.1-0.2,0.2-0.4c-0.1-0.3-0.2-0.6-0.4-0.8c0,0-0.1-0.1-0.1-0.1c-0.5,0.2-1.1,0.1-1.4-0.4c-0.1,0.1-0.2,0.1-0.3,0.2
		C221,154.8,221.1,155.9,221.4,156.7L221.4,156.7z M204.2,123.4c-0.2-0.2-0.4-0.4-0.6-0.6c-0.6-0.6-1.5-0.7-2.1-0.2
		c-0.4,0.2-0.7,0.5-0.9,0.9C201.7,123.8,203,123.8,204.2,123.4z M187.4,129.9c0.5,0.5,1.2,0.8,1.9,0.7c0.2,0,0.4,0,0.6,0l0.1,0
		c0,0,0.1-0.1,0.1-0.1c0.2-0.3,0.6-0.4,1-0.4c0-0.8-0.4-1.5-1.1-1.9c-0.4-0.2-0.8-0.3-1.2-0.2c-0.2,0.3-0.5,0.6-0.9,0.6
		c-0.1,0.1-0.1,0.2-0.2,0.3C187.1,129.5,187.3,129.8,187.4,129.9z M169.7,131.4c0.6,0.7,1.6,1.1,2.5,1c0.2,0,0.3-0.1,0.5-0.1
		c-0.1-0.1-0.2-0.3-0.3-0.4c-0.2-0.5,0-1,0.3-1.3c-0.5-0.4-1.1-0.6-1.8-0.7h0c-0.1,0.1-0.1,0.2-0.2,0.3c-0.3,0.3-0.6,0.4-1,0.3
		C169.5,130.8,169.5,131.2,169.7,131.4L169.7,131.4z M79.5,146.7c0.2,0,0.3,0,0.5,0c0.2,0,0.4-0.1,0.6-0.2c0.1-0.9-0.2-1.7-0.7-2.4
		c-0.7-0.7-1.8-0.9-2.7-0.4c-0.4,0.2-1.4,0.6-1.3,1.2c0.2,0.5,0.6,0.9,1,1.1l0,0C77.7,146.4,78.6,146.7,79.5,146.7z M89.1,157.3
		c0.1,0,0.2,0,0.3,0c0.4,0,0.6-0.5,0.7-0.7c0.3-0.8,0.2-1.7-0.4-2.4c-0.4-0.3-1.1,0-1.5,0.3c-0.9,0.5-1.7,1.2-1.5,1.7
		C87.3,156.9,88.2,157.3,89.1,157.3z M102.7,166.3c0.2,0,0.5,0,0.7,0c0.1-0.1,0.2-0.2,0.3-0.4c0.5-1,0.4-2.1-0.2-3
		c-0.4-0.5-1.1-0.6-1.6-0.3c-0.7,0.3-1.2,1-1.3,1.8c-0.1,0.6,0.1,1.1,0.5,1.5C101.5,166.2,102.1,166.4,102.7,166.3z M114.2,176.4
		c0.5-0.1,0.9-0.4,1.1-0.8c0-0.2,0-0.4,0-0.5c-0.3-1-1.1-1.8-2.2-2.1c-0.6-0.1-1.1,0.1-1.4,0.6c-0.8,1.1-0.5,1.7-0.4,1.8
		c0.6,0.7,1.4,1.1,2.3,1.1C113.9,176.4,114.1,176.4,114.2,176.4L114.2,176.4z M117.1,186.4c0.2,0,0.3,0.1,0.5,0.1
		c0.6,0,0.9-0.4,1.6-1.4c-0.4-1-1.1-1.8-2-2.2c-0.3-0.1-0.8-0.3-1.5,0.9c-0.2,0.5-0.2,1.1,0.1,1.6
		C116,185.8,116.5,186.2,117.1,186.4L117.1,186.4z M127.2,195c0.4,0,0.8-0.1,1.2-0.2c-0.1-0.3-0.1-0.6,0-0.9
		c0.5-0.7,0.3-1.7-0.4-2.3c-0.6-0.3-1.3,0.1-1.9,1c-0.3,0.4-0.7,1.2-0.4,1.7C126.1,194.8,126.7,195,127.2,195L127.2,195z
		 M140.5,205.6c0.3,0.3,0.7,0.4,1.1,0.4c0.2,0,0.5,0,0.7-0.1c0-0.2,0.1-0.5,0.3-0.7c0.3-0.5,0.4-1,0.1-1.5c-0.2-0.4-0.6-0.8-1-0.9
		c-0.5,0-0.9,0.6-1,0.9C140.4,204.2,140,205.1,140.5,205.6L140.5,205.6z M150.3,215.9c0.4,0.4,1,0.6,1.6,0.6c0.2,0,0.4,0,0.6-0.1
		c0.4-0.1,0.7-0.4,0.7-0.8c0-0.1,0-0.1,0-0.2c-0.2-0.8-0.8-1.4-1.6-1.6c-0.2,0-0.7-0.1-1.3,0.8C150,215.5,150.2,215.8,150.3,215.9
		L150.3,215.9z M159,224.7c0.5,0.4,1.1,0.7,1.7,0.6h0c-0.2-0.5,0-1.1,0.5-1.4c0.6-0.4,0.6-0.8,0.5-0.9c-0.1-0.5-0.5-0.9-1-1
		c-0.7-0.1-1.2,0.4-1.5,0.9C158.9,223.5,158.6,224.2,159,224.7L159,224.7z M173.5,233.3c0.4,0.3,0.9,0.4,1.4,0.4h0
		c-0.5-0.5-0.4-1.2,0-1.7c0.1-0.1,0.2-0.2,0.3-0.2c-0.1-0.6-0.4-1.2-0.8-1.7c-0.2-0.3-0.4-0.5-0.7-0.7c0,0-0.4,0.2-0.8,1.4
		C172.7,231.7,172.9,232.7,173.5,233.3L173.5,233.3z M179.9,241.3c0.1,0.7,0.3,1.4,0.8,2c0.2-0.3,0.5-0.5,0.8-0.6
		c0.6-0.1,0.8-0.7,1-1.1c0.3-1,0.1-2.2-0.6-3c-0.1-0.1-0.4-0.4-1.1,0C180,238.9,179.8,240.2,179.9,241.3L179.9,241.3z M160.7,261.9
		c0-0.6-0.4-1.1-1-1.3c-0.1,0-0.2,0-0.4,0.3c-0.3,0.5-0.2,1,0.1,1.4c0.3,0.4,0.7,0.6,1.2,0.7c0,0,0.1,0,0.1,0c0.2,0,0.3-0.1,0.4-0.2
		C160.9,262.5,160.7,262.2,160.7,261.9L160.7,261.9z M138.3,244c-0.5-0.4-1.3-0.5-1.9-0.1c-0.4,0.5-0.4,1.1-0.1,1.6
		c0.3,0.6,0.8,1.1,1.4,1.5c0.1-0.1,0.1-0.3,0.1-0.5c0.2-0.6,0.3-1.2,0.3-1.9C138.5,244.2,138.4,244.1,138.3,244z M126.7,232.6
		c-0.5,0.9-0.6,1.9-0.4,2.9c0,0.4,0.1,0.7,0.3,1.1c0-0.1,0-0.2-0.1-0.3c-0.1-0.7,0.4-1.2,1.1-1.3c0,0,0,0,0,0c0.4,0,0.4-0.1,0.4-0.2
		c0.1-0.7-0.2-1.4-0.7-1.9C127.2,232.8,126.9,232.5,126.7,232.6L126.7,232.6z M117.1,225.1c-0.1,0.1-0.1,0.1,0,0.4
		c0.4,0.7,1.1,1.3,2,1.4c0,0,0.1,0,0.1,0h0c0-0.2,0.1-0.4,0.2-0.5c0.3-0.4-0.4-1-0.5-1C118.3,224.9,117.4,224.7,117.1,225.1
		L117.1,225.1z M106.1,212.8c-0.6,0.8-0.2,1.2,0.1,1.4c0.4,0.3,0.8,0.4,1.3,0.4c0.6,0,1.1-0.2,1.5-0.5c-0.1-0.7-0.5-1.4-1.2-1.7
		c-0.5-0.4-1.3-0.3-1.7,0.3C106.2,212.7,106.1,212.7,106.1,212.8L106.1,212.8z M96.5,207.9c-0.3,0.2-0.5,0.6-0.5,1.3
		c-0.1,0.8,0.2,1.5,0.8,1.9c0.2,0.1,0.4,0.2,0.6,0.2c0.2,0,0.4-0.1,0.6-0.2c0.1-0.1,0.2-0.2,0.3-0.3c-0.3-0.3-0.4-0.7-0.3-1
		c0.2-0.6,0-1.3-0.5-1.8C97.3,207.9,96.9,207.8,96.5,207.9L96.5,207.9z M85.3,199.2c-0.3,0.3-0.4,0.8-0.2,1.2
		c0.3,0.5,0.9,0.8,1.5,0.9c0.1,0,0.1,0,0.2,0c0.1,0,0.4-0.1,0.5-0.7c-0.2,0-0.4,0-0.5-0.1c-0.6-0.3-0.8-1-0.5-1.6
		C86,198.7,85.8,198.6,85.3,199.2z M75.8,186.1c-0.8-0.4-1.5,0.5-1.8,1.1c-0.7,0.9-0.7,2.1-0.1,3c0.3,0.4,0.8,0.6,1.3,0.7
		c0.1,0,0.2,0,0.4,0c0.4-0.1,0.8-0.5,1-0.9c-0.1-0.3,0-0.5,0.1-0.8C77.1,188.1,76.8,186.8,75.8,186.1L75.8,186.1z M64.8,173.9
		c-0.1,0.1-0.3,0.6,0,1.8c0.1,0.5,0.2,0.9,0.5,1.3c0,0,0.1,0,0.1,0c-0.2-0.3-0.3-0.6-0.2-1C65.4,175.3,65.2,174.6,64.8,173.9z
		 M52.8,168.1c-0.4,0.5,0.1,1.3,0.3,1.6c0.5,0.9,1.5,1.5,2.5,1.7c0.1,0,0.1,0,0.2,0c0.6-0.1,0.7-1.2,0.8-1.7c0-0.1,0-0.3,0.1-0.4
		c-0.1-0.2-0.2-0.4-0.4-0.5c-0.2,0.3-0.5,0.4-0.9,0.4l0,0c-0.7,0-1.2-0.5-1.2-1.2v-0.3C53.7,167.6,53.2,167.7,52.8,168.1z
		 M131.2,83.5c-0.5-0.5-1.1-0.6-1.8-0.4c-1.2,0.2-2.5,0.7-2.6,1.9c0.1,1.3,1,2.4,2.2,2.9c0.1-0.4,0.4-0.7,0.8-0.8c0.1,0,0.2,0,0.3,0
		c0.2,0,0.4,0,0.5,0.1c0.1-0.1,0.1-0.2,0.2-0.3c0.1-0.3,0.3-0.5,0.6-0.6C131.8,85.3,131.7,84.3,131.2,83.5L131.2,83.5z M144.7,60.1
		c-0.5-0.7-1.5-0.9-2.2-0.5c-0.9,0.3-1.4,1.2-1.2,2.1c0.2,1.3,0.9,2.5,2,3.3c0.3-0.6,0.8-1,1.4-1.2c0.1,0,0.2,0,0.4,0.1
		c0.1,0,0.2,0.1,0.2,0.1c0.1-0.1,0.1-0.1,0.1-0.2C145.8,62.6,145.6,61.1,144.7,60.1L144.7,60.1z M157.1,45.3c0.4-1,0.3-2.1-0.3-3
		c-0.5-0.8-1.5-1.3-2.4-1c-1.9,0.4-1.8,1.1-1.8,1.4c0.3,1.1,1.1,2.1,2,2.8c0.2-0.4,0.6-0.6,1-0.6c0.1,0,0.1,0,0.2,0
		c0.4,0.1,0.7,0.3,0.8,0.6C156.8,45.5,157,45.4,157.1,45.3L157.1,45.3z M174,31.4c-0.1-1.4-0.9-2.6-2.1-3.3
		c-0.5-0.4-1.3-0.4-1.9-0.1c-0.2,0.1-0.8,0.5-0.4,1.7c0.2,0.7,0.6,1.3,1.1,1.8c0.6,0,1,0.4,1.1,1l0,0c0.4,0.3,0.8,0.4,1.2,0.5
		C173.7,32.6,174,32.1,174,31.4L174,31.4z M189.5,10.3c-0.9-0.5-1.3-0.2-1.5-0.2c-0.8,0.5-0.7,1.6-0.6,2.3c0.4,1.7,1.6,3.2,2.4,3.3
		c0,0,0,0,0.1,0c0.3,0,0.6-0.3,0.8-0.8c0.3-0.6,1-0.8,1.6-0.5c0,0,0,0,0,0c0.1,0,0.2,0.1,0.2,0.2C192.1,12.9,191,11.3,189.5,10.3z
		 M192.2,17.7c0.2-0.1,0.6-0.3,0.7-1.2c0-0.2,0-0.3,0-0.5l0,0.1c-0.3,0.6-0.7,1.1-1.3,1.5c0.1,0.1,0.2,0.3,0.2,0.5
		C191.9,17.9,192.1,17.8,192.2,17.7L192.2,17.7z M220.1,5.7c0.4,0,0.5-0.7,0.5-1.2c0-0.6,0.4-1.1,1-1.2c-0.1-0.2-0.1-0.4-0.3-0.5
		c-0.3-0.4-0.9-0.6-1.4-0.4c-0.5,0.1-2.2,0.5-2.1,1.3C218.1,4.8,219,5.5,220.1,5.7L220.1,5.7z M243.7,8.9c0.2,1,0.6,1,0.7,1h0
		c0.3-0.1,0.7-0.2,0.9-0.4c-0.4,0.1-0.9-0.1-1.1-0.5c-0.4-0.5-0.3-1.3,0.3-1.7c0.7-0.5,0.8-0.8,0.8-0.9c-0.3-0.3-0.7-0.4-1.1-0.2
		C243.2,6.6,243.6,8.4,243.7,8.9L243.7,8.9z M232,32.4c0.3,0.4,0.7,0.6,1.1,0.7c-0.2-0.4-0.1-1,0.3-1.3c0.4-0.3,0.5-0.9,0.4-1.3
		c-0.1-0.3-0.2-0.5-0.5-0.6c-0.2,0-0.6,0.1-1.1,0.8C231.7,31.2,231.7,31.9,232,32.4z M214.7,43.5c0.4,0.9,1.2,1.5,2.2,1.6
		c0.1,0,0.2,0,0.3,0c0.2,0,0.4,0,0.6-0.1c0-0.1,0-0.1,0-0.2c0-0.9-0.4-1.7-1.1-2.2c-0.4-0.3-1-0.3-1.4,0
		C214.6,43,214.6,43.3,214.7,43.5z M199.8,56.8c0.3,0.3,0.6,0.4,1,0.5c0.1,0,0.2,0,0.3-0.1c0.7-0.6,1.1-1.6,1-2.5
		c0-0.5,0.2-1,0.7-1.2c-0.4-0.2-0.8-0.3-1.2-0.2c-1.1,0.2-1.9,0.9-2.3,1.9C199.1,55.7,199.3,56.4,199.8,56.8L199.8,56.8z M179.2,75
		c0.1,0.2,0.3,0.4,0.5,0.6c0.2-0.5,0.7-0.8,1.2-0.8c0.2,0,0.4,0,0.5,0c0.6-0.7,1-1.5,1.1-2.4c0-0.2,0.1-0.4,0.2-0.6
		c-0.1-0.4-0.3-0.7-0.6-1c-0.3-0.2-0.7-0.5-1.6-0.1C179.9,71.1,178.9,74.3,179.2,75z M165.9,88.6c0.1,0.2,0.3,0.4,0.5,0.5
		c0.2-0.2,0.6-0.3,0.9-0.3c0.3-0.3,0.5-0.7,0.5-1.2c0-0.3,0.1-0.6,0.3-0.8c-0.1-0.3-0.2-0.5-0.3-0.7c-0.2-0.3-0.4-0.6-0.7-0.6
		c-0.4,0.3-0.7,0.6-0.8,1.1C165.9,87.2,165.8,87.9,165.9,88.6z M154.4,101.6c0.3,0.4,0.8,0.7,1.3,0.7c0.1,0,0.2,0,0.4,0
		c0.9-0.2,1.1-1.3,1.1-2.1c0-0.4,0.2-0.7,0.5-1c-0.6-0.2-1.3-0.1-1.8,0.4C154.7,100.3,154.1,101.1,154.4,101.6L154.4,101.6z
		 M173.4,97.2c0.1,1,0.7,1.8,1.1,1.9c0,0,0.1,0,0.1,0c0.4,0,1-0.5,1.7-1.7c0.3-1,0.2-2-0.3-2.9c-0.3-0.3-0.8-0.2-1.4,0.1
		C173.7,95.1,173.2,96.2,173.4,97.2L173.4,97.2z M190.7,97.4L190.7,97.4c0-0.1,0-0.2,0-0.3c0-0.7,0.5-1.2,1.2-1.2l0,0
		c0,0,0.2,0,0.4-0.4c0.2-0.8,0.1-1.6-0.5-2.2c-0.4-0.3-1,0-1.4,0.3c-0.8,0.5-1.2,1.4-1,2.3C189.5,96.7,190,97.2,190.7,97.4
		L190.7,97.4z M206.3,95.7c0.7,0,1.4-0.4,1.9-0.9c0.3-0.3,0.6-0.4,1-0.3l0-0.1c0.1-1-0.3-2-1.1-2.7c-0.7-0.5-1.7-0.5-2.4,0
		c-1,0.5-1.6,1.2-1.5,2c0.1,0.8,0.6,1.5,1.4,1.8C205.8,95.6,206.1,95.7,206.3,95.7L206.3,95.7z M223.6,89.4c-0.1-0.4-0.3-0.8-0.7-1
		c-0.7-0.5-1.7-0.3-2.2,0.4c0,0-0.1,0.1-0.1,0.1c-0.8,1-1,1.9-0.6,2.5c0.3,0.4,0.9,0.7,1.4,0.7c0.2,0,0.3,0,0.5-0.1
		c1-0.3,1.7-1.3,1.6-2.4C223.6,89.5,223.6,89.4,223.6,89.4L223.6,89.4z M234.3,91.2c-0.4-1.2-1.6-1-2.2-0.8
		c-1.1,0.3-2.5,1.5-2.1,2.8s1,1.5,1.3,1.5h0.1c0.2,0,0.4-0.1,0.6-0.1c0.2-0.4,0.6-0.7,1.1-0.7c0.1,0,0.1,0,0.2,0
		c0.7-0.5,1.3-1.2,1.7-1.9C234.7,91.8,234.4,91.6,234.3,91.2L234.3,91.2z M245.5,85.1c0-0.2-0.1-0.3-0.2-0.4c-0.9-0.4-2-0.3-2.9,0.3
		c-0.8,0.4-1.2,1.3-1.1,2.2c0.1,1.4,0.8,1.6,1.3,1.6c0,0,0.1,0,0.1,0c1.5-0.1,2.8-1.1,3.3-2.5C245.7,86,245.5,85.6,245.5,85.1
		L245.5,85.1z M258.1,78.9c-2-0.8-4.8-1-5.6-0.3c-0.4,0.4-0.2,1.3,0,2c0.3,0.7,1,1.2,1.8,1.1c0.4,0,0.7,0,1.1-0.1
		c1.4-0.4,2.8-1.4,2.8-2.6C258.2,78.9,258.2,78.9,258.1,78.9L258.1,78.9z M281.7,69.1c0,0-0.1-0.1-0.1-0.1c-0.6-0.8-2.3-1-3.5-0.4
		c-0.8,0.3-1.3,1.2-1,2c0.2,0.7,0.5,1.5,1,1.5h0C279.2,72.1,280.8,70.6,281.7,69.1L281.7,69.1z M291.9,63.3c-0.1,0-0.1,0.1-0.2,0.1
		c-0.6,0.3-1.3,0.1-1.6-0.5c-0.3-0.5-0.1-1.1,0.3-1.5c-0.2-0.3-0.5-0.6-0.8-0.6c-0.6-0.1-1.3,0.9-1.8,2.5c-0.6,2.1-0.2,2.6,0.2,2.8
		c0.2-0.3,0.5-0.4,0.9-0.4c0.2,0,0.5,0.1,0.7,0.2c0.7-0.6,1.2-1.2,1.7-1.9C291.6,63.7,291.8,63.5,291.9,63.3L291.9,63.3z
		 M303.1,53.1c-0.4-0.5-1.1-0.5-1.6-0.2c-1.5,0.8-2.5,2.3-2.6,4c0,0.3,0.2,1.7,0.8,1.7h0c0.2,0,0.3-0.1,0.4-0.1c0,0,0,0,0-0.1
		c-0.2-0.6,0.1-1.3,0.7-1.5c0.1,0,0.3-0.1,0.4-0.1c0.2,0,0.3,0,0.5,0.1c0.6-0.9,1-1.9,1-3C302.7,53.7,302.9,53.4,303.1,53.1
		C303.1,53.2,303.1,53.1,303.1,53.1z M314.9,43.3c-0.5-0.6-1.3-0.6-1.8-0.2c0,0,0,0-0.1,0.1c-0.9,0.6-1.6,2-1.2,2.9
		c0.3,0.7,0.7,0.9,0.9,0.9c0.1,0,0.2,0,0.3,0c1.4-0.6,2.4-1.8,2.9-3.3C315.6,43.7,315.2,43.6,314.9,43.3L314.9,43.3z M329.8,33
		c-0.1-0.6-1.2-0.9-2.3-0.7c-1.1,0-1.9,0.9-1.9,2c0,0,0,0.1,0,0.1c0.2,1.4,1,1.7,1.7,1.7c0.1,0,0.2,0,0.3,0c0.1,0,0.3,0,0.4-0.1
		c0.2-0.3,0.6-0.5,1-0.5c0,0,0,0,0,0c0.6-0.5,1-1.2,1.1-2C329.9,33.4,329.8,33.2,329.8,33L329.8,33z M344.2,39.3
		c0.5,0.8,1.3,1.3,2.1,1.4c0.1,0,0.2,0,0.3,0c0.2-0.1,0.4-0.2,0.6-0.4c0-0.4,0.1-0.7,0.4-1l0,0c0.1-0.4,0.1-0.8,0.2-1.1
		c-0.4-0.5-0.9-0.8-1.5-0.9c-0.7-0.2-1.5-0.1-2,0.4C343.8,38,343.8,38.8,344.2,39.3z M350.5,49.7c-0.5-0.2-1.1,0.7-1.3,1.1
		c-0.7,1.1-0.8,2.4-0.1,3.5c0.3,0.5,0.8,0.8,1.4,0.9c0.1,0,0.1,0,0.2,0c0,0,0.1,0,0.1,0l0,0c-0.1-0.6,0.3-1.2,1-1.3c0,0,0,0,0,0
		c0.1,0,0.3,0,0.3-0.6C352.3,51.9,351.3,50,350.5,49.7L350.5,49.7z"/>
</g>
</svg>
