<svg xmlns="http://www.w3.org/2000/svg" width="357.574" height="417.305" viewBox="0 0 357.574 417.305">
  <g id="Group_47" data-name="Group 47" transform="translate(103.869 417.305) rotate(-107)">
    <path id="Path_10364" data-name="Path 10364" d="M3.626,0a3.415,3.415,0,0,1,.465.03A2.682,2.682,0,0,1,6.523,2.707a1.17,1.17,0,0,1,.813.085A1.186,1.186,0,0,1,7.879,4.38C6.907,6.358,4.1,7.017,2.187,6.371A3.016,3.016,0,0,1,.074,2.738,3.557,3.557,0,0,1,3.626,0Zm-.68,4.123a2.452,2.452,0,0,0,.775.118,3.2,3.2,0,0,0,1.1-.2A1.186,1.186,0,0,1,4.148,2.88c.025-.347-.055-.454-.376-.5A1.24,1.24,0,0,0,2.4,3.2C2.316,3.637,2.377,3.932,2.946,4.123Z" transform="translate(177.883 255.484)" fill="#0a0a0a"/>
    <path id="Path_10365" data-name="Path 10365" d="M355.222,52.6c-1.021,3.827-3.03,4.72-4.137,4.911a4.027,4.027,0,0,1-3.979-1.828,5.026,5.026,0,0,1-.668-1.382c-9.236,4.1-14.535,5.572-25.21,5.572a1.149,1.149,0,0,1-.437-.089q-4.571,3.793-9.257,7.529c-.239.323-.5.636-.769.94,5.551,2.388,24.34.526,27.621-2.274a1.266,1.266,0,0,1,.155-.089c.065-.161.122-.319.211-.494,1.209-2.352,2.764-2.768,3.712-2.768a3.183,3.183,0,0,1,.516.042,3.72,3.72,0,0,1,1.46.606,1.187,1.187,0,0,1,2.216.5,7.044,7.044,0,0,1-.22,2.409,4.733,4.733,0,0,1,.095.49,3.57,3.57,0,0,1-2.027,3.892,1.18,1.18,0,0,1-1.578-.545,3.773,3.773,0,0,1-4.015-.653,2.662,2.662,0,0,1-.461-.708c-6.307,2.984-24.648,4.446-29.641,1.272a1.2,1.2,0,0,1-.258-.251q-4.861,3.8-9.891,7.421a69.4,69.4,0,0,0,24.272,4.456c.5-2.119,1.661-2.886,2.6-3.136a3.463,3.463,0,0,1,.892-.114,6.249,6.249,0,0,1,4.133,2.01A1.206,1.206,0,0,1,331,80.18a1.183,1.183,0,0,1,1.295,1.067,4.964,4.964,0,0,1-.093,1.538,3.35,3.35,0,0,1-.025,2.664,1.189,1.189,0,0,1-1.851.361,6.313,6.313,0,0,1-.87.613,4.894,4.894,0,0,1-5.171.2,3.674,3.674,0,0,1-1.526-2.7A73.46,73.46,0,0,1,296.3,78.773q-4.454,3.13-9.061,6.05c-.1.177-.2.378-.308.543,4.541,3.159,9.149,3.7,14.409,4.283,2.143.239,4.357.5,6.658.938a5.414,5.414,0,0,1,4.6-2.252,7.336,7.336,0,0,1,2.371.4c2.466.849,4.687,3.1,4.089,6.2a1.187,1.187,0,0,1-2.35-.16,6.349,6.349,0,0,1-3.155,2.614c-2.219.871-4.556.53-5.813-.854a3.877,3.877,0,0,1-.723-3.721c-2.03-.364-4.01-.59-5.937-.8-5.754-.636-11.193-1.266-16.585-5.486q-4.878,2.964-9.908,5.617c4.262,3.207,10.838,6.671,16.274,7.324A3.8,3.8,0,0,1,294.1,97.48l.1,0a4.777,4.777,0,0,1,4.245,3.436l.006.019a1.168,1.168,0,0,1,.15.452,4.292,4.292,0,0,1-2.322,4.368,4.793,4.793,0,0,1-5.209-.178,3.682,3.682,0,0,1-1.1-3.861c-6.118-.925-13.17-4.742-17.629-8.3-.028-.023-.042-.057-.068-.082q-5.143,2.614-10.457,4.907c-.068.07-.123.146-.194.215-.009.009-.021.011-.032.021,2.764,4.116,10.263,6.03,15.294,7.305l.228.059a2.932,2.932,0,0,1,2.774-2.229h.008c1.98,0,4.122,2.111,5.321,4.477.023-.112.046-.224.063-.34a1.187,1.187,0,0,1,2.344.372,7.529,7.529,0,0,1-1.642,3.694,1.188,1.188,0,0,1-.283.317,6.131,6.131,0,0,1-5.042,1.993c-2.064-.251-4.347-1.963-4.021-5.957l-.334-.085c-5.893-1.5-13.946-3.543-17-8.773q-4.753,1.971-9.652,3.689l.007.021c1.1,5.667,8.42,9.191,13.762,11.763l.809.393a4.149,4.149,0,0,1,2.792-3.188,3.64,3.64,0,0,1,1.154-.2,3.084,3.084,0,0,1,2.779,1.859,5.737,5.737,0,0,1,.446,1.251,1.183,1.183,0,0,1,.651-.309,1.2,1.2,0,0,1,1.335,1.018,3.609,3.609,0,0,1-1.3,3.244,5.152,5.152,0,0,1-.849.609,2.821,2.821,0,0,1-.926,1.352,1.861,1.861,0,0,1-2.512-.366,1.2,1.2,0,0,1-.167-.216,4.717,4.717,0,0,1-.547-.106,3.916,3.916,0,0,1-2.608-2.4,1.159,1.159,0,0,1-.625-.1l-1.462-.71c-5.707-2.747-13.479-6.5-14.983-13.147q-5.647,1.908-11.5,3.5c.987.925,1.933,1.878,2.829,2.831,3.2,3.406,6.223,6.622,11.85,6.812a1.189,1.189,0,0,1,.822.372,2.929,2.929,0,0,1,1.509-.437,3.284,3.284,0,0,1,1.335.294,4.328,4.328,0,0,1,1.735,1.439,1.186,1.186,0,0,1,2.18-.936,3.257,3.257,0,0,1-1.054,4.368c-1.914,1.259-5.367,1.018-6.717-.469a2.3,2.3,0,0,1-.492-2.324c-6.2-.429-9.618-4.006-12.9-7.5A43.073,43.073,0,0,0,233.151,108q-6.783,1.74-13.867,3.07a48.483,48.483,0,0,0,17.984,8.139,3.952,3.952,0,0,1,3.161-1.891,3.2,3.2,0,0,1,1.145.213,4.983,4.983,0,0,1,2.584,2.736,1.186,1.186,0,0,1,2.17.944,5.578,5.578,0,0,1-2.284,2.876,2.36,2.36,0,0,1-1.707.879,1.28,1.28,0,0,1-.321-.017,6.7,6.7,0,0,1-.913.156,4.5,4.5,0,0,1-4.46-1.748,2.974,2.974,0,0,1-.372-1.948c-7.774-1.925-14.76-5.263-19.8-9.527a1.226,1.226,0,0,1-.2-.252q-2.511.436-5.061.826-3.81.581-7.649,1.1c1.335,1.394,2.692,2.825,4.087,4.294,3.8,4.013,7.835,8.253,12.05,12.41a.467.467,0,0,1,.07.015c4.477,1.982,9.734.852,14.819-.239a45.8,45.8,0,0,1,9.354-1.352c.127,0,.252.008.378.011a3.188,3.188,0,0,1,.962-2.741,4.332,4.332,0,0,1,3.2-1.458,4.531,4.531,0,0,1,1.53.273,5.1,5.1,0,0,1,3.4,4.15,3.431,3.431,0,0,1-2.012,3.338,1.188,1.188,0,0,1-1.6-.505,1.234,1.234,0,0,1-.116-.342,5.125,5.125,0,0,1-3.928-.706,1.21,1.21,0,0,1-.913.378,38.164,38.164,0,0,0-9.753,1.274c-3.962.851-8.021,1.7-11.932,1.24,2.941,2.783,5.961,5.481,9.063,8a1.169,1.169,0,0,1,.391-.078,107.4,107.4,0,0,0,11.624-.52,27.612,27.612,0,0,0,4.059-1,29,29,0,0,1,6.542-1.4,2.779,2.779,0,0,1,.894-2.582,3.755,3.755,0,0,1,2.63-.991,5.913,5.913,0,0,1,2.214.469,8.539,8.539,0,0,1,2.084,1.247,1.19,1.19,0,0,1,.651-.2h0a1.187,1.187,0,0,1,1.187,1.187,7.665,7.665,0,0,1-.062,1.014,4.453,4.453,0,0,1,.659,2.066,3.462,3.462,0,0,1-2.132,3.317,1.187,1.187,0,0,1-1.54-1.7,6.019,6.019,0,0,1-4.767-1.23c-1.505-.742-4.93.262-7.691,1.073a28.988,28.988,0,0,1-4.467,1.084c-2.643.294-5.747.458-9.369.511.591.45,1.175.919,1.77,1.352,3.624,2.635,7.1,5.673,10.459,8.61,1.109.968,2.229,1.942,3.358,2.908a1.177,1.177,0,0,1,.841-.361C260,156.3,266.7,155,272.041,152.388c.011-.006.025,0,.036-.009a3.862,3.862,0,0,1-1.219-1.544c-.281-.72-.64-2.544,2.111-3.975a5.052,5.052,0,0,1,2.341-.589,5.24,5.24,0,0,1,3.5,1.412c1.819,1.625,2.667,4.209,1.974,6.011a3.622,3.622,0,0,1-3.548,2.122,1.187,1.187,0,0,1-.932-1.912,7.431,7.431,0,0,1-2.569-.556,1.18,1.18,0,0,1-.653,1.169c-5.338,2.616-11.922,3.977-20.042,4.18,1.916,1.581,3.858,3.091,5.819,4.431a50.98,50.98,0,0,0,10.517,5.27c12.623-.036,23.393-3.009,29.572-8.173a1.142,1.142,0,0,1,.332-.19,3.7,3.7,0,0,1,.917-1.631,4.367,4.367,0,0,1,4.518-1.272,4.3,4.3,0,0,1,1.131.52,1.186,1.186,0,0,1,2.223.306,4.525,4.525,0,0,1-.638,3.561,6.307,6.307,0,0,1-2.814,3.573,1.187,1.187,0,0,1-1.69-1.595,4.4,4.4,0,0,1-2.939-1.088c-7.07,5.619-17.331,7.516-24.653,8.11q1.307.436,2.61.862c2.774.913,5.642,1.857,8.376,2.9a54.8,54.8,0,0,0,8.78,2.468,87.8,87.8,0,0,0,18.026-5.42c2.785-1.111,5.64-3.271,8.4-5.359a41.019,41.019,0,0,1,8.406-5.373,7.018,7.018,0,0,1-.061-1.654,5.2,5.2,0,0,1,2.7-4.448,5.142,5.142,0,0,1,2.168-.526,3.8,3.8,0,0,1,2.551.976,6.3,6.3,0,0,1,1.428,6.379,4.12,4.12,0,0,1-1.729,2.3,3.77,3.77,0,0,1-.535.44,4.061,4.061,0,0,1-4.685-.182,4,4,0,0,1-1-1.071,39.346,39.346,0,0,0-7.814,5.046c-2.886,2.185-5.872,4.444-8.955,5.673a113.44,113.44,0,0,1-12.4,4.222,124.361,124.361,0,0,0,13.356.634c6.394,0,19.323.017,28.4-2.538-.042-.085-.11-.156-.144-.245-.283-.746-.689-2.717,1.644-4.93a5.561,5.561,0,0,1,3.71-1.866,3.038,3.038,0,0,1,1.513.4c2.423,1.373,2.707,5.606,2.134,8.173a1.182,1.182,0,0,1-.849.887,3.046,3.046,0,0,1-.961.07,1.192,1.192,0,0,1-1.226-.583,5,5,0,0,1-2.094.382,4.684,4.684,0,0,1-1.728-.423c-8.283,2.684-19.518,3.055-30.4,3.045a115.711,115.711,0,0,1-16.575-1.035c.233.245.478.484.71.731,2.981,3.169,5.8,6.162,9.872,8.184,4.837,2.4,9.957,2.538,15.366,2.55a4.594,4.594,0,0,1,1.073-1.052,4.538,4.538,0,0,1,4.97-.285,3.315,3.315,0,0,1,.621.524,1.67,1.67,0,0,0-.091-.982c-.051-.108-.216-.427-1.069-.364a1.186,1.186,0,0,1-.186-2.365c.131-.011.258-.017.384-.017a3.173,3.173,0,0,1,2.988,1.669c.793,1.562.289,3.9-1.228,5.711a1.188,1.188,0,0,1-.913.913,6.653,6.653,0,0,1-6.476,1.181,1.189,1.189,0,0,1-.788-.854,5.55,5.55,0,0,1-.137-1.7c-5.388-.025-10.512-.289-15.568-2.8-4.457-2.212-7.552-5.5-10.548-8.684-.913-.972-1.838-1.938-2.791-2.882a1.16,1.16,0,0,1-.775-.292,56.366,56.366,0,0,1-8.325-2.413c-2.682-1.023-5.524-1.957-8.271-2.861-2.827-.93-5.688-1.88-8.492-2.95l-.053-.021c-.537-.205-1.075-.408-1.606-.625.158.277.33.568.486.841,3.975,6.983,7.431,13.023,16.226,16.6a1.179,1.179,0,0,1,.752-.482,4.852,4.852,0,0,1,.737-.057,4.474,4.474,0,0,1,2.591.811,1.221,1.221,0,0,1,.467-.188,1.189,1.189,0,0,1,1.371.972,4.361,4.361,0,0,1-.275,2.73,2.477,2.477,0,0,1-.144.418,2.675,2.675,0,0,1-2.453,1.5,1.2,1.2,0,0,1-1.034-.48,3.821,3.821,0,0,1-1.68-1.021,3.267,3.267,0,0,1-.892-1.862c-9.805-3.867-13.481-10.311-17.726-17.766-.68-1.194-1.376-2.417-2.115-3.656a44.077,44.077,0,0,1-5.847-3.315c-1.779-1.217-3.527-2.57-5.253-3.972.065.355.131.725.2,1.107.788,4.391,1.927,10.694,4.433,13.61a4.4,4.4,0,0,1,2.681-.83,6.63,6.63,0,0,1,1.792.26c1.716.482,3.556,1.716,3.793,3.383a2.76,2.76,0,0,1-1.53,2.8,1.233,1.233,0,0,1-.364.15,5.278,5.278,0,0,1-7.592-1.262,3.163,3.163,0,0,1-.159-2.493c-3.248-3.3-4.467-10.066-5.388-15.2-.271-1.509-.507-2.814-.748-3.778a.872.872,0,0,1-.008-.158c-1.207-1.033-2.407-2.071-3.588-3.1-3.322-2.9-6.757-5.9-10.294-8.477-.589-.429-1.164-.892-1.746-1.335,1.352,4.463,3.717,11.417,7.373,15.48a5.331,5.331,0,0,1,3.586,1.676,3.587,3.587,0,0,1,.235,4.887,1.185,1.185,0,0,1-1.668.173l-.013-.009a2.365,2.365,0,0,1-.856.484,4.775,4.775,0,0,1-5.082-2.434c-.708-1.456-.215-2.962,1.306-4.053-4.1-5.151-6.483-13.217-7.683-17.3-.171-.581-.311-1.054-.433-1.437-3.383-2.758-6.669-5.711-9.849-8.754.135.71.319,1.407.524,2.147a22.4,22.4,0,0,1,.828,4,40.071,40.071,0,0,0,.968,4.875,33.946,33.946,0,0,1,1.143,6.683,4.065,4.065,0,0,1,1.135.968,3.925,3.925,0,0,1,.028,4.942c-.7,1.534-1.642,2.331-2.808,2.375-1.359.046-2.7-1.113-3.354-2.967-.729-2.064-.325-4.055,1.033-5.071a3.682,3.682,0,0,1,1.593-.71,40.033,40.033,0,0,0-1.078-5.671,41.145,41.145,0,0,1-1.021-5.2,20.46,20.46,0,0,0-.754-3.59,16.121,16.121,0,0,1-.771-5.245c-4.276-4.211-8.359-8.5-12.207-12.564-1.678-1.771-3.316-3.5-4.909-5.156a1.182,1.182,0,0,1-.254-.408q-7.515.98-15.084,1.783c.256.061.511.123.773.184a28.17,28.17,0,0,1,3.337.923c.554.2,1.213.423,1.927.659,2.692.894,5.944,1.98,7.886,3.567.157-.131.292-.262.475-.391a3.808,3.808,0,0,1,2.213-.719,4.477,4.477,0,0,1,2.667.953,6.3,6.3,0,0,1,1.371,1.428,1.148,1.148,0,0,1,.924.414,1.186,1.186,0,0,1-.046,1.6,2.867,2.867,0,0,1-.08,1.433,2.42,2.42,0,0,1-2.521,1.6h-.046a1.187,1.187,0,0,1-1.173-1.2,1.273,1.273,0,0,1,.013-.173,7.393,7.393,0,0,1-3.605-.273,2.389,2.389,0,0,1-1.716-1.919,2.13,2.13,0,0,1,.082-.858c-1.543-1.321-4.765-2.4-7.193-3.2-.74-.247-1.422-.473-2-.685a25.906,25.906,0,0,0-3.057-.837,16.77,16.77,0,0,1-5.407-1.955q-4.343.439-8.674.845a16.605,16.605,0,0,1,2.28.625c5.207,1.881,10.17,3.918,13.663,7.928.019.008.034.025.051.032a3.68,3.68,0,0,1,1.088-.182,4.215,4.215,0,0,1,2.073.564,4.778,4.778,0,0,1,2,2.217l.019,0a1.186,1.186,0,0,1,.854,1.445,4.3,4.3,0,0,1-.693,1.477,4.778,4.778,0,0,1-.33.813,1.183,1.183,0,0,1-.921.64,2.227,2.227,0,0,1-.617-.013,4.99,4.99,0,0,1-1.086.309,4.878,4.878,0,0,1-4.826-1.714,3.292,3.292,0,0,1,.131-3.7,4.782,4.782,0,0,1,.346-.435c-3.134-3.512-7.717-5.407-12.556-7.157a22.006,22.006,0,0,0-3.782-.871,23.245,23.245,0,0,1-4.218-.993,1.138,1.138,0,0,1-.435-.294,1.007,1.007,0,0,1-.182-.038q-5.237.473-10.432.926l-1.135.1c.3.154.59.309.879.463.765.408,1.49.8,2.149,1.078.588.251,1.187.494,1.79.739a32.574,32.574,0,0,1,6.138,3.005c.484.328,1.065.659,1.691,1.02a28.244,28.244,0,0,1,3.922,2.6,3.911,3.911,0,0,1,1.019-.144,5.708,5.708,0,0,1,1.845.33,4.733,4.733,0,0,1,2.556,1.861,1.1,1.1,0,0,1,.383.03,1.186,1.186,0,0,1,.864,1.439,4.5,4.5,0,0,1-3.844,3.6,4.969,4.969,0,0,1-4.89-2.189,3.272,3.272,0,0,1,.161-3.412,28.874,28.874,0,0,0-3.2-2.052c-.682-.393-1.312-.757-1.838-1.114a30.864,30.864,0,0,0-5.7-2.77c-.615-.249-1.228-.5-1.828-.754-.716-.306-1.505-.723-2.335-1.168-1.99-1.059-4.243-2.259-5.959-2.009q-6.994.624-14.024,1.3a.976.976,0,0,1-.71.218,1.179,1.179,0,0,1-.471-.106c-22.351,2.191-44.863,5.063-66.359,10.491a232.071,232.071,0,0,0-30.886,10.02,59.211,59.211,0,0,1,18.167,5.012A1.162,1.162,0,0,1,53.7,146.1c3.636,1.338,7.831,1.316,11.461,1.113.547-.028,1.225-.044,1.978-.063a37.476,37.476,0,0,0,7.129-.623,3.635,3.635,0,0,1-.6-1.1c-.188-.627-.547-2.772,2.685-4.055a5.712,5.712,0,0,1,2.092-.427,4.188,4.188,0,0,1,3.262,1.515c.1.118.2.241.285.366a1.255,1.255,0,0,1,.23-.049,1.192,1.192,0,0,1,1.316,1.04,5.242,5.242,0,0,1-.64,3.594,5.873,5.873,0,0,1-.7,1.895,1.187,1.187,0,0,1-2.151-.239,6.81,6.81,0,0,1-3.626-.786c-2.046.991-5.4,1.158-9.224,1.247-.727.017-1.38.03-1.9.061a49.074,49.074,0,0,1-5.895.023c1.492.814,2.922,1.636,4.27,2.441.5.3.968.619,1.454.928.011,0,.023-.008.036-.008a1.189,1.189,0,0,1,1.073.678l.019.049q.527.356,1.044.718a23.993,23.993,0,0,1,4.163.944,25.237,25.237,0,0,0,3.378.833,29.386,29.386,0,0,0,9.534-.439c.072-.959.657-2.195,2.667-3.374a4.611,4.611,0,0,1,2.324-.72,2.965,2.965,0,0,1,1.9.67,3.338,3.338,0,0,1,.761.9,1.264,1.264,0,0,1,.205-.057,1.178,1.178,0,0,1,1.388.942c.513,2.69-.486,4.7-2.675,5.386A5.863,5.863,0,0,1,85.194,158a32.193,32.193,0,0,1-10.719.533,20.912,20.912,0,0,1-2.552-.581,118.091,118.091,0,0,1,8.792,8.226,33.569,33.569,0,0,1,7.193.645c3.827.623,7.766,1.253,10.757-.1a4.051,4.051,0,0,1-.509-2.717,4.417,4.417,0,0,1,4.376-3.905,3.5,3.5,0,0,1,2.766,1.312,5.2,5.2,0,0,1,1.052,3.562,1.887,1.887,0,0,0,.653-1.8,1.187,1.187,0,1,1,2.322-.5,4.464,4.464,0,0,1-2.271,4.742,8.188,8.188,0,0,1-2.806,1.116,3.66,3.66,0,0,1-2.189.309,1.191,1.191,0,0,1-.589-.262,5.219,5.219,0,0,1-.839-.249c-3.789,2.3-8.517,1.57-13.1.824-1.572-.254-3.077-.482-4.488-.59q.817.849,1.627,1.7c2.105,2.2,4.289,4.435,6.521,6.628a29.66,29.66,0,0,1,5.412.885,26.124,26.124,0,0,0,5.642.871,26.279,26.279,0,0,0,7.827-1.23,3.95,3.95,0,0,1-.689-.8,3.848,3.848,0,0,1,.491-4.549,3.722,3.722,0,0,1,2.984-1.526,4.01,4.01,0,0,1,.826.087,5.569,5.569,0,0,1,3.933,3.634,1.189,1.189,0,0,1,.323,1,4.532,4.532,0,0,1-.346,1.185,3.132,3.132,0,0,1-.964,1.335,1.259,1.259,0,0,1-.171.118,4.168,4.168,0,0,1-1.737.792,5.374,5.374,0,0,1-2.451-.089,1.174,1.174,0,0,1-.794.881,29.345,29.345,0,0,1-9.232,1.536,32.825,32.825,0,0,1-6.181-.932c-.693-.161-1.373-.311-2.045-.446,1.54,1.435,3.058,2.891,4.592,4.338a1.155,1.155,0,0,1,.568.537l.226.213a10.105,10.105,0,0,1,1.913-.2,23.51,23.51,0,0,1,5.713.959,17.271,17.271,0,0,0,6.663.822c-.019-.038-.048-.068-.066-.108a4.112,4.112,0,0,1-.013-3.656,3.656,3.656,0,0,1,3.186-2.278,3.479,3.479,0,0,1,1.27.251,6.348,6.348,0,0,1,3.231,3.387,1.184,1.184,0,0,1,.452,1.331,5.419,5.419,0,0,1,.013,2.62,1.186,1.186,0,0,1-2.16.3,3.543,3.543,0,0,1-3.007.5,3.991,3.991,0,0,1-1.039-.4,1.156,1.156,0,0,1-.254.131c-3.072.862-6.013.118-8.858-.6a23.861,23.861,0,0,0-4.725-.869c2.726,2.59,5.415,5.151,8.1,7.729h.006a1.17,1.17,0,0,1,.55.532l.089.087c1.225.008,2.434.065,3.623.129,3.254.177,6.341.33,9.209-.79a5.046,5.046,0,0,1,4.334-5.464,3.239,3.239,0,0,1,1.57.4,3.686,3.686,0,0,1,1.756,2.453,1.294,1.294,0,0,1,.289.023,1.189,1.189,0,0,1,.917,1.407,4.991,4.991,0,0,1-7.488,3.165c-3.5,1.538-7.165,1.363-10.713,1.173-.306-.015-.621-.017-.928-.032.928.892,1.881,1.8,2.8,2.69,2.365,2.276,4.786,4.6,7.2,6.91,3.905,1.128,8.784.49,14.876-1.946a4.646,4.646,0,0,1,.619-2.791,3.483,3.483,0,0,1,3.081-2.164l.068,0a3.617,3.617,0,0,1,2.966,1.944h.005a1.187,1.187,0,0,1,1.185,1.133,4.434,4.434,0,0,1-2.625,4.56,4.075,4.075,0,0,1-4.141-.589c-5,2.031-9.306,2.931-13.033,2.732,2.244,2.145,4.509,4.272,6.77,6.407,1.143.038,2.489.182,3.907.332,3.761.4,8.908.947,10.713-.636a1.145,1.145,0,0,1,.471-.239,3.548,3.548,0,0,1,.406-2.476,3.6,3.6,0,0,1,3.163-2.09,3.552,3.552,0,0,1,.562.044,4.607,4.607,0,0,1,3.616,3.588,3.433,3.433,0,0,1-1.8,3.685,1.187,1.187,0,0,1-1.2,0,4.8,4.8,0,0,1-3.537-.885,1,1,0,0,1-.122.16c-2.587,2.271-7.867,1.709-12.528,1.213l-.911-.093c.516.484,1.029.978,1.546,1.46a56.7,56.7,0,0,0,4.858,4.006c1.188.061,2.438.16,3.774.285,3.755.351,8.013.752,10.654-.266.027-.009.051-.008.078-.015a4.147,4.147,0,0,1,.849-3.112,4.046,4.046,0,0,1,3.286-2,3.4,3.4,0,0,1,.727.08,3.7,3.7,0,0,1,2.61,2.291A1.186,1.186,0,0,1,165.108,223a3.871,3.871,0,0,1-2.343,4.256,5.191,5.191,0,0,1-5.13-.581,1.172,1.172,0,0,1-.4.252c-3.115,1.2-7.58.805-11.552.431.621.427,1.243.856,1.86,1.278,1.919,1.31,3.863,2.641,5.76,4.066a1.183,1.183,0,0,1,.406.214,2.747,2.747,0,0,1,.279.309q.689.532,1.369,1.086c1.917-.416,5-.735,8.006-1.042,2.656-.273,5.859-.6,7.25-.947a5.474,5.474,0,0,1,.239-2.126c.833-2.578,2.117-3.085,3-3.085a2.354,2.354,0,0,1,.655.093c1.272.366,2.388,1.88,2.9,3.374a1.175,1.175,0,0,1,1.331.951,3.666,3.666,0,0,1-1.614,4,4.588,4.588,0,0,1-5.069-.349,3.86,3.86,0,0,1-.583-.64,58.776,58.776,0,0,1-7.867,1.086c-2.1.216-4.236.437-5.931.683a39.242,39.242,0,0,1,3.461,3.588,25.3,25.3,0,0,0,4.634,4.311,30.594,30.594,0,0,0,11.064-2.29,1.166,1.166,0,0,1,.442-.085,1.143,1.143,0,0,1,.38.116c-.019-.1-.048-.211-.061-.315-.361-2.491.492-4.516,2.225-5.285a3.952,3.952,0,0,1,1.612-.366,3.066,3.066,0,0,1,2.044.771A5.03,5.03,0,0,1,185,240.52a1.189,1.189,0,0,1,.488,1.49c-1.259,2.948-2.781,4.327-4.528,4.1a3.759,3.759,0,0,1-2.745-2.39,1.136,1.136,0,0,1-.5.406,36.255,36.255,0,0,1-8.752,2.3l.262.177a31.461,31.461,0,0,1,3.349,2.74c1.91,1.714,3.884,3.486,5.94,3.863a1.187,1.187,0,0,1-.431,2.335c-2.711-.5-4.94-2.5-7.095-4.431a29.477,29.477,0,0,0-3.083-2.536l-.277-.186c-.759-.509-1.468-.985-2.143-1.456.053.53.146,1.1.239,1.642a12.867,12.867,0,0,1,.287,3.4c-.18,1.7-.818,5.813-2.83,7.412a1.175,1.175,0,0,1-.991.211,4.172,4.172,0,0,1,.761,1.547,1.143,1.143,0,0,1,.154.04,1.186,1.186,0,0,1,.763,1.494,3.514,3.514,0,0,1-2.741,2.588,3.9,3.9,0,0,1-3.628-1.621,3.684,3.684,0,0,1-.284-3.913,2.71,2.71,0,0,1,2.411-1.572,2.872,2.872,0,0,1,.471.042,3.16,3.16,0,0,1,1.2.53,1.188,1.188,0,0,1,.408-1.206c.856-.676,1.655-3.064,1.948-5.8a11.268,11.268,0,0,0-.266-2.745,13.63,13.63,0,0,1-.277-3.174,1.168,1.168,0,0,1-.07-.484,1.075,1.075,0,0,1,.047-.175,27.122,27.122,0,0,1-3.767-3.71,38.017,38.017,0,0,0-3.941-3.991,41.792,41.792,0,0,1-1,11.863,1.17,1.17,0,0,1-.915.811,6.7,6.7,0,0,1,0,4.015,1.187,1.187,0,1,1-2.218-.847,4.409,4.409,0,0,0-.182-2.833,2.489,2.489,0,0,0-.45.416c-.516.577-.306,3.11.723,4.224.34.37.619.475,1.19.044a1.187,1.187,0,1,1,1.431,1.893,3.069,3.069,0,0,1-4.367-.328c-1.635-1.773-2.292-5.688-.75-7.413a3.152,3.152,0,0,1,2.309-1.272,2.025,2.025,0,0,1,1.04.289c.883-3.315,1.424-11.484.188-13.316-1.976-1.511-4.048-2.933-6.178-4.385-1.409-.961-2.835-1.948-4.253-2.967.816,5.076,1.289,11.529-1.337,15.712a2.759,2.759,0,0,1-.571,2.665,1.183,1.183,0,0,1,.146.683,2.477,2.477,0,0,1-1.843,2.5c-1.521.334-3.148-.919-3.977-2.337a3.792,3.792,0,0,1,.266-4.63,3.28,3.28,0,0,1,2.485-1.012,4.4,4.4,0,0,1,1.75.382c2.4-4.541.947-12.556.454-15.26a1.1,1.1,0,0,1,.008-.378,1.116,1.116,0,0,1-.026-.131,1.317,1.317,0,0,1,.028-.15c-1.316-1.023-2.616-2.083-3.863-3.248-1.014-.945-2.016-1.912-3.028-2.865a35.119,35.119,0,0,1-2.413,12.325,1.128,1.128,0,0,1-.216.34,4.155,4.155,0,0,1,.514,3.387,2.564,2.564,0,0,1-.737,1.09,1.188,1.188,0,0,1-.184,1.583c-1.532,1.342-2.741,1.207-3.485.86-1.576-.737-2.092-2.929-2.05-4.733.049-2.035.767-3.533,1.923-4.01a2.677,2.677,0,0,1,1.019-.205,2.835,2.835,0,0,1,1.2.285,34.684,34.684,0,0,0,2.1-13.13c-2.479-2.346-4.942-4.674-7.395-7.024l0,.192c.055,4.837.1,9.016-1.568,13.906l0,.006a3.062,3.062,0,0,1,.607,1.737,1.186,1.186,0,0,1,.194,1.428,3.216,3.216,0,0,1-3.1,1.665,4.905,4.905,0,0,1-3.992-2.855,2.659,2.659,0,0,1,.476-2.886,2.978,2.978,0,0,1,2.261-.974,4.171,4.171,0,0,1,1.548.325c1.279-4.186,1.251-7.979,1.2-12.325-.01-.812-.017-1.653-.019-2.514-2.05-1.969-4.12-3.949-6.134-5.889-1.312-1.262-2.663-2.555-3.989-3.829.04.957.184,2.014.321,2.96a25.655,25.655,0,0,1,.306,2.736,22.571,22.571,0,0,1-.755,7.114,4.851,4.851,0,0,1,1.255,2.25,1.187,1.187,0,0,1,.158,1.589l-.1.133a4.443,4.443,0,0,1-.374,1.158,1.188,1.188,0,0,1-1.585.552,1.141,1.141,0,0,1-.217-.135,4.814,4.814,0,0,1-4.387-.532,3.22,3.22,0,0,1-.634-4.735,3.626,3.626,0,0,1,2.962-1.659,3.541,3.541,0,0,1,.811.116,21.123,21.123,0,0,0,.5-5.773c-.023-.682-.15-1.553-.283-2.474a16.206,16.206,0,0,1-.165-5.4c-2.641-2.535-5.283-5.052-7.964-7.6a69.923,69.923,0,0,1,1,8.742,38.518,38.518,0,0,1-.338,5.669,27.1,27.1,0,0,0-.268,4.592,1.186,1.186,0,0,1-.017.165,1.173,1.173,0,0,1,.913,1.118,4.7,4.7,0,0,1-2.084,4.325,3.606,3.606,0,0,1-3.624-.006A4.386,4.386,0,0,1,93.61,209.2a3.63,3.63,0,0,1,1.861-3.417,3.085,3.085,0,0,1,1.35-.3,3.532,3.532,0,0,1,1.264.264c.055-.926.158-1.929.269-2.973a36.685,36.685,0,0,0,.327-5.3,70.049,70.049,0,0,0-1.6-11.664c-1.712-1.616-3.411-3.244-5.132-4.847-.513-.477-.993-.978-1.5-1.462.051,1.018.118,2.039.186,3.043.363,5.346.708,10.852-1.484,15.932a5.829,5.829,0,0,1,.995,2.935,2.362,2.362,0,0,1-1.429,2.384,1.309,1.309,0,0,1-1.274-.19c-.057.013-.112.027-.171.038a4.183,4.183,0,0,1-4.173-1.988,3.335,3.335,0,0,1,.387-3.962,3.215,3.215,0,0,1,2.47-1.289,2.95,2.95,0,0,1,.974.171,3.379,3.379,0,0,1,.374.18c1.612-4.33,1.3-9.071.964-14.051-.125-1.84-.251-3.738-.269-5.6-1.72-1.731-3.406-3.47-5.046-5.187q-1.114-1.165-2.216-2.308a48.237,48.237,0,0,1,.218,4.89c.006.691.01,1.306.034,1.783.175,3.459-.763,6.159-1.756,9.02l-.37,1.075a4.888,4.888,0,0,1,.245,1.01,1.181,1.181,0,0,1,.273.9c-.418,3.622-2.453,4.57-3.309,4.809a3.922,3.922,0,0,1-4.141-1.435,4.978,4.978,0,0,1-.044-5.673,4.08,4.08,0,0,1,3.487-2.394,3.279,3.279,0,0,1,1.473.349,3.148,3.148,0,0,1,.274.188,19.52,19.52,0,0,0,1.5-7.732c-.026-.5-.032-1.154-.038-1.887-.017-2.278-.051-7.021-1.28-7.964a1.166,1.166,0,0,1-.448-.879,88.711,88.711,0,0,0-9.384-8.2c.389,1.678.657,3.419.892,5.048.112.769.22,1.521.34,2.235.471,2.852.917,6.764-.188,9.549.034.013.072.006.106.021a1.189,1.189,0,0,1,.571,1.579c-.419.89-1.95,3.793-4.144,3.535-1.255-.14-2.111-1.207-2.542-3.168-.6-2.724.344-3.848.962-4.275A2.143,2.143,0,0,1,64.7,171.6a2.446,2.446,0,0,1,1.336.412,2.981,2.981,0,0,1,.543.478,20.582,20.582,0,0,0-.222-7.358c-.12-.729-.232-1.5-.345-2.282a34.149,34.149,0,0,0-1.7-7.579c-.617-.4-1.224-.809-1.866-1.19-2.366-1.411-4.97-2.876-7.774-4.258,2.043,4.515,1.957,11.412,1.9,16.038l0,.188c.108.057.22.106.323.169,2.064,1.274,2.832,3.381,1.912,5.247a1.177,1.177,0,0,1-.44.486,3.073,3.073,0,0,1-2.009,1.661c-1.942.477-4.158-1.01-5.251-2.662a3.64,3.64,0,0,1-.2-4.306,3.509,3.509,0,0,1,2.91-1.333c.131,0,.264.021.395.03.07-5.5.085-15.038-3.862-17.213a1.138,1.138,0,0,1-.448-.48,52.872,52.872,0,0,0-20.124-4.285H29.75c-.046,0-.082-.021-.125-.025-.471.215-.951.414-1.416.632-4.224,1.988-8.418,4.437-12.473,6.806A139.478,139.478,0,0,1,1.662,158.3a1.187,1.187,0,0,1-.951-2.176,138.149,138.149,0,0,0,13.827-7.395c4.1-2.4,8.34-4.873,12.659-6.9,13-6.111,27.609-10.4,37.58-12.917,21.515-5.431,43.988-8.315,66.291-10.51a37.6,37.6,0,0,1,1.636-9.052,26.692,26.692,0,0,1-.666-5.382,27.2,27.2,0,0,0-.475-4.48l-.507-2.244c-.5-2.231-1.025-4.5-1.579-6.719a1.183,1.183,0,0,1-.822-.347,5.723,5.723,0,0,1-4.164-5.293c.027-1.014.524-3.451,4.551-4.142a5.873,5.873,0,0,1,.974-.087,3.766,3.766,0,0,1,3.053,1.378,5.391,5.391,0,0,1,.437,5.333,5.476,5.476,0,0,1-1.79,2.326c.585,2.328,1.135,4.7,1.658,7.032l.5,2.236a29.377,29.377,0,0,1,.531,4.883c.011.22.025.433.038.651a131.074,131.074,0,0,1,6.546-13.048q.92-1.669,1.822-3.334c.11-.2.232-.4.344-.6-.017-1.946-.158-4.095-.317-6.381-.311-4.458-.636-9.378.028-13.559a7.306,7.306,0,0,1-3.987-5.608,4.147,4.147,0,0,1,2.639-4.515,4.656,4.656,0,0,1,1.8-.38,4.116,4.116,0,0,1,3.113,1.467,6.6,6.6,0,0,1,1.49,5.187,1.188,1.188,0,0,1,.454,1.568,4.534,4.534,0,0,1-3.161,2.624c-.628,3.913-.309,8.71-.008,13.05.064.938.121,1.834.175,2.726a105.429,105.429,0,0,1,8.758-12.114c-.006-2.4-.084-4.828-.169-7.395a115.049,115.049,0,0,1,.252-16.192c-1.993-1.093-3.78-3.159-4-5.08-.089-.752-.085-3.26,3.657-3.983a5.209,5.209,0,0,1,.985-.1A4.542,4.542,0,0,1,158.728,41a5.986,5.986,0,0,1,.976,3.015,1.18,1.18,0,0,1,.372.9c-.112,3.472-2.407,3.839-3.108,3.867a3.935,3.935,0,0,1-.441-.044,117.8,117.8,0,0,0-.186,15.37c.053,1.57.1,3.163.131,4.75,3.121-3.543,6.424-6.914,9.841-10.123.036-3.51.368-7,.7-10.383l.175-1.807c.262-2.76.53-4.949.845-6.891a23.028,23.028,0,0,1,.746-2.853,22.582,22.582,0,0,0,.788-3.083,8.072,8.072,0,0,1-2.151-3.3,3.616,3.616,0,0,1,1.4-4.368,3.806,3.806,0,0,1,2.069-.607,4.567,4.567,0,0,1,2.214.607,6.513,6.513,0,0,1,3.3,5.4c0,.15-.009.3-.025.442a1.205,1.205,0,0,1-.01.494,3.445,3.445,0,0,1-2.379,2.855l-.006,0a1.176,1.176,0,0,1-.807.11,3.937,3.937,0,0,1-1.456-.279c-.178.782-.419,1.6-.666,2.411a21.968,21.968,0,0,0-.674,2.542c-.306,1.889-.568,4.03-.826,6.736l-.173,1.815c-.253,2.6-.511,5.257-.63,7.919.416-.376.828-.759,1.245-1.132a1.161,1.161,0,0,1,.737-.644c3.744-3.3,7.564-6.415,11.364-9.375.372-4.272,2.045-8.5,3.683-12.593,1.9-4.759,3.871-9.68,3.67-14.529a1.147,1.147,0,0,1,.033-.2c-2.083-.349-3.822-2.865-4.308-5.133-.452-2.113.133-3.86,1.606-4.792a3.29,3.29,0,0,1,1.785-.522,4.222,4.222,0,0,1,2.143.638,10.536,10.536,0,0,1,4.556,8.4,3.544,3.544,0,0,1-2.075,3.231,1.17,1.17,0,0,1-1.382-.351c-.141,4.866-2,9.57-3.825,14.13a55.678,55.678,0,0,0-3.207,9.646c1.543-1.177,3.081-2.339,4.6-3.467a129.988,129.988,0,0,1,19.186-11.755h0l0,0c.12-.059.241-.118.361-.178a21.788,21.788,0,0,0,2.851-6.485c.262-.835.522-1.655.8-2.43.4-1.109.888-2.178,1.365-3.21a33.694,33.694,0,0,0,1.388-3.3,14.89,14.89,0,0,0,.42-1.7A9.509,9.509,0,0,1,217.17,6.9a4.734,4.734,0,0,1-1.758-2.912c-.108-.938.072-3.2,4.08-3.909A4.684,4.684,0,0,1,220.323,0a3.464,3.464,0,0,1,2.884,1.422,5.458,5.458,0,0,1,.279,5.452,3.47,3.47,0,0,1-3.2,2.107,1.173,1.173,0,0,1-1.084-.773,6.857,6.857,0,0,0-1.135,3.038,17.5,17.5,0,0,1-.5,1.972,35.977,35.977,0,0,1-1.479,3.531c-.475,1.031-.924,2-1.284,3.013-.268.748-.516,1.54-.771,2.347-.42,1.335-.858,2.683-1.391,3.966.813-.383,1.619-.765,2.456-1.145,4.6-2.081,9.06-4.387,13.371-6.616a26.238,26.238,0,0,0,5.318-4.137c2.029-1.872,4.127-3.8,6.586-4.756a1.208,1.208,0,0,1,.429-.08,1.173,1.173,0,0,1,.585.167l0-.015c-.97-3.918,1.21-5.1,1.9-5.375a3.548,3.548,0,0,1,2.068-.148,1.19,1.19,0,0,1,1.044-.627,1.208,1.208,0,0,1,.327.046,3.427,3.427,0,0,1,2.743,3.786c-.256,2.453-2.65,5.008-4.834,5.16a2.9,2.9,0,0,1-2.7-1.509,1.161,1.161,0,0,1-.7.809c-2.039.788-3.882,2.487-5.834,4.287a27.913,27.913,0,0,1-5.834,4.5c-4.34,2.244-8.828,4.564-13.485,6.671-.769.347-1.509.7-2.257,1.052.792.258,1.568.571,2.31.879a19.686,19.686,0,0,0,2.732.985,40.617,40.617,0,0,0,10.688.932,4.251,4.251,0,0,1,.75-1.636,3.689,3.689,0,0,1,2.93-1.73,2.64,2.64,0,0,1,.475.042,3.015,3.015,0,0,1,2.189,1.84c.046-.006.087-.006.14-.008a1.187,1.187,0,0,1,1.168,1.206c-.057,3.527-1.967,4.488-2.785,4.737a4.025,4.025,0,0,1-4.353-1.595,3.778,3.778,0,0,1-.237-.492,42.646,42.646,0,0,1-11.524-.989,21.528,21.528,0,0,1-3.081-1.1c-1.771-.735-3.459-1.422-4.953-1.183-.03.034-.051.076-.082.108a1.173,1.173,0,0,1-1.137.327A127.016,127.016,0,0,0,190.9,41.635c.224-.008.441-.03.668-.03a44.964,44.964,0,0,1,6.726.689c.52.082.995.154,1.4.211.9.121,1.876.279,2.9.444,3.292.53,6.975,1.114,9.726.828a3.129,3.129,0,0,1,1.7-3.222,3.8,3.8,0,0,1,1.95-.56,3.608,3.608,0,0,1,1.955.589,4.933,4.933,0,0,1,1.858,2.326,1.173,1.173,0,0,1,1,0,1.187,1.187,0,0,1,.573,1.578,5.292,5.292,0,0,1-1.933,2.284,3.177,3.177,0,0,1-1.4.995,1.192,1.192,0,0,1-1.317-.342c-.049,0-.1-.008-.148-.013a5.294,5.294,0,0,1-3.032-1.431,1.135,1.135,0,0,1-.173.066c-3.178.526-7.408-.154-11.136-.754-1.006-.161-1.969-.317-2.85-.437-.421-.057-.909-.133-1.448-.216-2.992-.467-8.564-1.333-10.383.243a1.182,1.182,0,0,1-1.215.192c-.721.551-1.445,1.1-2.17,1.665a1.159,1.159,0,0,1-.558.437c-2.943,2.291-5.9,4.674-8.82,7.163a36.063,36.063,0,0,1,6.028.708,62.987,62.987,0,0,0,12.52.564c1.2-.025,2.4-.044,3.58-.049a4.167,4.167,0,0,1,.163-1.071,5.067,5.067,0,0,1,4.854-3.624,3.946,3.946,0,0,1,4,3.691c.461,2.96-1.124,6.829-3.859,7.381a1.187,1.187,0,1,1-.469-2.328,1.421,1.421,0,0,0,.632-.328,3.535,3.535,0,0,1-3.93-.678,3.958,3.958,0,0,1-.657-.718,1.217,1.217,0,0,1-.2.04c-1.342,0-2.7.029-4.068.057a64.569,64.569,0,0,1-13-.606,24.289,24.289,0,0,0-8.6-.429,148.593,148.593,0,0,0-16.063,16.446c1.253-.146,2.506-.264,3.732-.363,1.715-.139,3.484-.281,5.19-.541a33.379,33.379,0,0,1,5.337-.2c2.614.034,5.319.07,7.17-.644a1.052,1.052,0,0,1,.273-.051c.391-1.038,1.129-2.576,2.225-3.089a4.426,4.426,0,0,1,1.874-.448,3.385,3.385,0,0,1,2.424,1.008,5.424,5.424,0,0,1,.913,5.773,3.893,3.893,0,0,1-2.157,2.094,4.54,4.54,0,0,1-1.775,1.016,3.3,3.3,0,0,1-3.729-1.627,3.414,3.414,0,0,1-.385-2.136,28.693,28.693,0,0,1-6.867.476,32.236,32.236,0,0,0-4.947.167c-1.788.273-3.6.419-5.355.56-1.855.15-3.772.306-5.6.609a1.176,1.176,0,0,1-.408-.015,99.78,99.78,0,0,0-6.582,9.5,13.764,13.764,0,0,1,3.541-.452,37.056,37.056,0,0,1,5.773.613c2.715.429,5.28.8,7.588.3a7.22,7.22,0,0,1,.385-.843,3.483,3.483,0,0,1,2.535-2c.091-.008.178-.011.268-.011a3.189,3.189,0,0,1,2.753,1.781,5.143,5.143,0,0,1,.032,5.181,2.69,2.69,0,0,1-2,1.131,3.43,3.43,0,0,1-.617.211,3.1,3.1,0,0,1-3.58-1.79,2.924,2.924,0,0,1-.26-1.139,26.639,26.639,0,0,1-7.472-.473c-3.573-.568-6.946-1.1-9.925.364a1.158,1.158,0,0,1-.683.089,1.255,1.255,0,0,1-.175.258c-.1.18-.209.353-.305.534-.6,1.118-1.217,2.234-1.83,3.353-2.007,3.649-4.04,7.353-5.724,11.152a39.506,39.506,0,0,1,4.628-1.506,23.215,23.215,0,0,1,4.084-.558c1.988-.154,4.044-.315,5.374-1.152a1.188,1.188,0,0,1,.632-.182.225.225,0,0,1,.034.009,5.545,5.545,0,0,1,2.229-2.774,4.544,4.544,0,0,1,2.682-.963,3.735,3.735,0,0,1,3,1.549,4.083,4.083,0,0,1-1.014,5.8,1.183,1.183,0,0,1-1.285.082,3.661,3.661,0,0,1-1.109.461,3.92,3.92,0,0,1-4.3-1.788,15.3,15.3,0,0,1-6.06,1.321,21.275,21.275,0,0,0-3.656.486,28.064,28.064,0,0,0-6.578,2.477q-.47,1.244-.87,2.506a1.152,1.152,0,0,1-.214.7,35.5,35.5,0,0,0-1.473,7.958q4.852-.467,9.688-.9a46.745,46.745,0,0,1,6.823-2.445,33.961,33.961,0,0,0,8.651-3.486c4.08-2.534,6.565-5.441,9.445-8.805,1.012-1.183,2.06-2.407,3.227-3.674.028-.03.068-.042.1-.07a5.933,5.933,0,0,1-.311-1.312,4.629,4.629,0,0,1,4.454-5.483,3.016,3.016,0,0,1,2.123.833,5.174,5.174,0,0,1,1.1,4.7,1.194,1.194,0,0,1-.136.723c-.032.057-.065.112-.1.167-.042.123-.085.245-.131.363a3.882,3.882,0,0,1-3.482,2.755c-.084-.028-.224-.015-.329-.046a2.88,2.88,0,0,1-.511-.053,3.045,3.045,0,0,1-1.327-.647c-1.027,1.13-1.976,2.229-2.884,3.29-2.882,3.368-5.6,6.55-10,9.276a30.132,30.132,0,0,1-6.939,3.047c.372-.032.748-.065,1.12-.1,3.535-.309,7.11-.63,10.681-.953a88.727,88.727,0,0,1,7.732-4.712c5.933-3.326,11.535-6.474,15.013-13.014a4.975,4.975,0,0,1-.408-1,4.371,4.371,0,0,1,1.929-4.942,4.218,4.218,0,0,1,2.354-.814,2.97,2.97,0,0,1,1.807.606,4.52,4.52,0,0,1,1.264,4.805,3.368,3.368,0,0,1-.35.738c-1.074,2.62-2.827,2.819-3.527,2.777a3.234,3.234,0,0,1-1.365-.408c-3.812,6.688-9.513,9.931-15.556,13.322-1.253.7-2.525,1.418-3.791,2.172q6.521-.6,13.065-1.276c8.2-2.183,16.336-8.915,20.388-16.868A4.438,4.438,0,0,1,201.87,93.8a4.564,4.564,0,0,1,2.81-4.281,5.192,5.192,0,0,1,2.375-.621,4.172,4.172,0,0,1,2.493.828,5.307,5.307,0,0,1,1.984,5.018,3.494,3.494,0,0,1-2.468,2.878,1.176,1.176,0,0,1-.8-.042,4.341,4.341,0,0,1-2.914.313,37.017,37.017,0,0,1-14.166,14.772q5.576-.641,11.1-1.388c1.735-1.777,4.515-3.393,7.446-5.084,5.853-3.383,11.879-6.88,11.045-11.9a3.947,3.947,0,0,1-2.717-1.627c-.461-.693-1.32-2.59.672-5.209a4.094,4.094,0,0,1,3.286-1.743,3.966,3.966,0,0,1,2.286.735,4.2,4.2,0,0,1,.83,5.952,1.167,1.167,0,0,1-.207.233,4.165,4.165,0,0,1-1.786,1.407c1.016,6.54-5.992,10.609-12.223,14.208-1.41.814-2.777,1.61-3.985,2.394,1.3-.188,2.62-.34,3.917-.537,2.495-.38,4.949-.807,7.385-1.259a1.181,1.181,0,0,1,.712-.59c4.11-1.215,9.948-6.787,12.169-11.176-.967-.07-2.622-.581-3.383-3.138-.792-2.648,1.225-5.021,3.63-5.786a5.2,5.2,0,0,1,1.589-.26,3.621,3.621,0,0,1,3.4,2.094,1.185,1.185,0,0,1,1.417,1.41,8.47,8.47,0,0,1-3.727,4.805c-1.164,3.78-5.021,8.27-8.931,11.264q4.141-.906,8.171-1.959a1.19,1.19,0,0,1,.4-.279c4.063-1.729,10.569-8.961,9.745-14.168a4.481,4.481,0,0,1-.85.049,3.732,3.732,0,0,1-3.592-3.757,4.531,4.531,0,0,1,2.2-4.376,5.922,5.922,0,0,1,3.081-.873,4.369,4.369,0,0,1,2.269.577,2.732,2.732,0,0,1,1.361,2.4,1.191,1.191,0,0,1,.568,1.234,5.894,5.894,0,0,1-2.793,3.888c1.033,4.562-2.111,9.872-5.813,13.481q4.613-1.37,9.088-2.948a1.16,1.16,0,0,1,.279-.4c3.621-3.377,7.539-10.724,6.094-16.315-2.388.347-4.351-.653-5.008-2.641-.8-2.413-.1-3.75.617-4.446a4.94,4.94,0,0,1,3.484-1.114,14,14,0,0,1,4.568.871,22.136,22.136,0,0,1,1.646,1.492c.414,2.252-1.1,4.112-3.049,5.111,1.446,5.325-1.088,11.575-4.16,15.8q3.531-1.344,6.981-2.821c1.969-2.255,2.789-5.359,3.571-8.378a27.157,27.157,0,0,1,2.394-6.751,5.48,5.48,0,0,1-.909-1.557c-.82-2.081.342-6.259,2.508-7.4a2.641,2.641,0,0,1,1.2-.3,3.077,3.077,0,0,1,2.548,1.625,1.186,1.186,0,1,1-1.967,1.327c-.137-.2-.48-.668-.68-.554-.951.5-1.843,3.317-1.4,4.431a4.831,4.831,0,0,0,.217.477,1.124,1.124,0,0,1,1.378.108,1.154,1.154,0,0,1,.33.547,5,5,0,0,0,2.216-4.3,1.186,1.186,0,1,1,2.369-.129c.169,3.072-1.99,6.373-4.526,6.926a3.334,3.334,0,0,1-1.246.036,25.37,25.37,0,0,0-2.134,6.109,35.374,35.374,0,0,1-1.978,6.067q3.6-1.643,7.117-3.44a1.183,1.183,0,0,1,.52-1.156C276.73,86.832,278.7,80.117,279,74.4a3.608,3.608,0,0,1-.689.139c-.985.04-2.717-.353-3.429-3.341a3.98,3.98,0,0,1,2.284-4.689,6.048,6.048,0,0,1,2.569-.558,5.172,5.172,0,0,1,3.007.885,1.187,1.187,0,0,1,2.2.778,10.609,10.609,0,0,1-3.51,5.477c-.021,2.54-.461,9.616-4.209,14.928q3.939-2.193,7.788-4.581c.152-.093.3-.194.448-.289,2.109-3.871,3.476-10.145,2.65-14.593a3.835,3.835,0,0,1-.581-.129c-2.166-.775-2.823-2.732-1.952-5.821,1.027-3.645,2.891-4.222,3.97-4.222h.085a3.481,3.481,0,0,1,3.18,2.61,2.21,2.21,0,0,1-.143,1.428l.074-.07a1.186,1.186,0,0,1,1.635,1.718,11.529,11.529,0,0,0-1.1,1.346,9.452,9.452,0,0,1-2.817,2.791,26.143,26.143,0,0,1-1.382,12.6c2.506-1.646,4.989-3.328,7.427-5.069a1.164,1.164,0,0,1,.33-1c3.068-2.99,4.6-8.872,3.839-13.825a3.368,3.368,0,0,1-.822.182c-.666.03-2.912-.108-3.322-3.848-.253-2.312,1.579-5.321,3.92-6.44a4.192,4.192,0,0,1,1.813-.439,3.5,3.5,0,0,1,2.521,1.086,1.187,1.187,0,0,1-.006,1.678l-.051.047a1.188,1.188,0,0,1,.4.871,8.051,8.051,0,0,1-2.322,5.464,20.807,20.807,0,0,1-1.435,12.659q4.263-3.187,8.4-6.5c3.087-4.4,3.1-10.931,3.093-16.344a3.42,3.42,0,0,1-3.152-2.217c-1-2.119.224-4.638,1.99-5.851a4.091,4.091,0,0,1,2.32-.775,3.58,3.58,0,0,1,2.529,1.08,1.187,1.187,0,0,1,1.917.818c.194,2.033-1.339,4.684-3.233,6.045l0,0v.8c.006,4.129.006,8.873-1.268,13.073q4.047-3.289,8.013-6.612c4.562-5.551,5.587-9.918,5.713-17.27a4.046,4.046,0,0,1-4.479-3.778c-.338-2.789,1.707-4.4,3.884-4.767a6.017,6.017,0,0,1,1-.084,4.1,4.1,0,0,1,3.7,1.874,1.189,1.189,0,0,1,.609.921,5.18,5.18,0,0,1-2.329,4.98c-.044,5.342-.5,9.34-2.166,13.153l.2-.171c4.374-3.679,8.9-7.484,13.418-11.174a1.041,1.041,0,0,1,.142-.08,3.562,3.562,0,0,1,.888-3.341,4.136,4.136,0,0,1,3.06-1.283,5.009,5.009,0,0,1,1.341.184,5.289,5.289,0,0,1,2.5,1.5,1.187,1.187,0,0,1,.746,1.094v.087a2.792,2.792,0,0,1,.137.446,2.884,2.884,0,0,1-.568,2.445,3.675,3.675,0,0,1-2.441,2.472,4.617,4.617,0,0,1-4.492-1.526c-4.446,3.634-8.9,7.376-13.206,11q-2.956,2.486-5.948,4.989l-.023.03c-.027.032-.064.046-.093.074,8.854-.216,13.847-1.739,22.261-5.5a1.144,1.144,0,0,1,.431-.091,6.349,6.349,0,0,1,.82-2.269c1.109-1.868,2.358-2.28,3.24-2.28a2.844,2.844,0,0,1,.854.131,5.421,5.421,0,0,1,3.053,3.66,1.159,1.159,0,0,1,.137.027A1.19,1.19,0,0,1,355.222,52.6ZM340.641,67.741a.975.975,0,0,0,.672.192,2.588,2.588,0,0,0,1.023-.23,3.267,3.267,0,0,0,1.576-1.53,2.11,2.11,0,0,0-1.325-1.166c-.757-.139-1.41.866-1.722,1.471C340.519,67.149,340.5,67.595,340.641,67.741ZM325.631,84.668a1.551,1.551,0,0,0,.879.228,3.541,3.541,0,0,0,1.745-.518,3.772,3.772,0,0,0,1.4-1.426,5.141,5.141,0,0,0-.366-.507c-.951-1.164-2.356-1.94-3.146-1.731-.6.159-.86,1.025-.974,1.722C325.058,83.077,324.978,84.22,325.631,84.668ZM309.494,94.94a2.172,2.172,0,0,0,1.606.549,4.356,4.356,0,0,0,1.581-.309,3.825,3.825,0,0,0,2.538-3.713,4.935,4.935,0,0,0-1.027-.49,3.731,3.731,0,0,0-4.1.763,1.219,1.219,0,0,1,0,.5,1.162,1.162,0,0,1-.68.8A1.913,1.913,0,0,0,309.494,94.94Zm-16.931,8.8a1.739,1.739,0,0,0,1.092.321,3.136,3.136,0,0,0,1.473-.383,2.8,2.8,0,0,0,.307-.2,1.188,1.188,0,0,1,.507-1.5c.173-.1.272-.178.2-.492a2.451,2.451,0,0,0-2.014-1.636c-.934-.015-1.467,1.05-1.748,1.957C292.175,102.458,292.044,103.316,292.564,103.742Zm-11.63,8.032a2.8,2.8,0,0,0,.334.021,3.694,3.694,0,0,0,2.428-1.008c-.494-2.28-2.763-4.8-3.808-4.8h0c-.205,0-.435.313-.619.89a1.086,1.086,0,0,1-.253,1.3c-.008.061-.019.1-.025.163C278.821,110.354,279.527,111.6,280.934,111.774Zm-13.251,6.058a2.235,2.235,0,0,0,.568.068,3.517,3.517,0,0,0,.959-.144,5.356,5.356,0,0,0-.492-3.227c-.22-.328-.429-.461-.947-.287a1.85,1.85,0,0,0-1.27,1.883A1.755,1.755,0,0,0,267.682,117.832Zm-14.246,2.6a1.147,1.147,0,0,1,.556-.2,1.689,1.689,0,0,0,.173-.027,1.813,1.813,0,0,0-.98-.917.652.652,0,0,0-.833.266,1.428,1.428,0,0,0-.234.38A2.108,2.108,0,0,0,253.436,120.429Zm-14.755,1.707a2.143,2.143,0,0,0,1.76.627,4.159,4.159,0,0,0,.427-.023,4.428,4.428,0,0,0,1.369-.366,2.855,2.855,0,0,0-.332-1.342c-.37-.759-.957-1.312-1.427-1.346a1.632,1.632,0,0,0-1.1.682,1.143,1.143,0,0,1,.026.551,1.17,1.17,0,0,1-.782.852A.6.6,0,0,0,238.681,122.136ZM246.7,128.4a2.46,2.46,0,0,0,1.875.771,1.982,1.982,0,0,0,.591-.085c.393-.125.524-.332.5-.786a1.177,1.177,0,0,1,.321-.881,2.977,2.977,0,0,0-.769-.419,1.932,1.932,0,0,0-2.2.571C246.511,128.1,246.646,128.317,246.7,128.4Zm14.229,11.7a1.379,1.379,0,0,0,.943-.856,6.2,6.2,0,0,0-2.2-1.559c-.475-.194-1.652-.575-2.324.055-.182.173-.3.325-.076.727a4.059,4.059,0,0,0,3.131,1.7A2.052,2.052,0,0,0,260.926,140.1Zm15.493,11.45a2.378,2.378,0,0,0,.63-.078c.294-.082.659-.18.509-1.094a1.187,1.187,0,0,1,.04-.551,4.8,4.8,0,0,0-.365-.37,2.66,2.66,0,0,0-3.167-.488c-.2.1-1.149.621-1,1C273.359,150.71,275.1,151.545,276.419,151.545Zm27.822,9.426a2.719,2.719,0,0,0,.915-.459l0-.021a1.483,1.483,0,0,0-1.109-1.082,2.015,2.015,0,0,0-2.086.594c-.4.439-.4.653-.4.653A2.931,2.931,0,0,0,304.241,160.971Zm30.083,1.38h.03a1.184,1.184,0,0,1,.928-.6,1.251,1.251,0,0,0,.243-.046,1.874,1.874,0,0,0,.19-1.466,1.187,1.187,0,0,1,.883-1.428l.045-.011a3.33,3.33,0,0,0-.919-2.085c-.194-.171-.784-.7-2.138-.07a2.991,2.991,0,0,0-1.34,2.5,4.647,4.647,0,0,0,0,.845,1.161,1.161,0,0,1,.729,1.773,1.537,1.537,0,0,0,.159.171A2.1,2.1,0,0,0,334.324,162.351Zm12.847,13.418.08,0a3.034,3.034,0,0,0,2.762-2.022,3.515,3.515,0,0,0-1.1-2.472c-.689-.395-1.921.653-2.417,1.124-.915.868-1.3,1.728-1.059,2.364A1.881,1.881,0,0,0,347.171,175.769ZM329.55,192.96a1.228,1.228,0,0,0-.467-1.116,2.012,2.012,0,0,0-1.73-.059,1.146,1.146,0,0,1,.186.6,1.186,1.186,0,0,1-1.187,1.187l-.475,0a2.331,2.331,0,0,0-.042.473A4.229,4.229,0,0,0,329.55,192.96Zm-43.733-2.912a1.445,1.445,0,0,0,.987.435.735.735,0,0,0,.269-.047,1.324,1.324,0,0,0-.215-.376,1.97,1.97,0,0,0-1.314-.723A.887.887,0,0,0,285.817,190.048ZM260.058,180.3c.087,0,.175,0,.264-.011a2.635,2.635,0,0,0,2.31-1.648,3.932,3.932,0,0,0-1.9-1.1,3.435,3.435,0,0,0-1.98-.025,1.141,1.141,0,0,1-.976,1.682l.011.03A2.626,2.626,0,0,0,260.058,180.3Zm-20.549-15.2a2.879,2.879,0,0,0,2.026,1.173.341.341,0,0,0,.131-.019.905.905,0,0,0,0-.463,1.185,1.185,0,0,1,.982-1.361,1.126,1.126,0,0,1,.178-.015,3.04,3.04,0,0,0-1.445-.733,1.182,1.182,0,0,1-1.027.087,1.411,1.411,0,0,0-.281.1C239.147,164.506,239.374,164.88,239.509,165.1Zm-18.142-8.368c.342.966.875,1.384,1.025,1.384.017.019.133-.051.273-.216a1.181,1.181,0,0,1,.429-.923c.059-.049.114-.1.165-.15a9.891,9.891,0,0,0,.338-1.029,1.14,1.14,0,0,1,.161-.355,1.756,1.756,0,0,0-.361-.8,1.408,1.408,0,0,0-.1-.11,1.11,1.11,0,0,1-1.374-.382,1.606,1.606,0,0,0-.342.2C221.009,154.784,221.07,155.891,221.368,156.735ZM204.16,123.359a3.872,3.872,0,0,0-.6-.568,1.67,1.67,0,0,0-2.119-.218,3.717,3.717,0,0,0-.942.858A5.6,5.6,0,0,0,204.16,123.359ZM187.355,129.9a2.381,2.381,0,0,0,1.893.742,3.338,3.338,0,0,0,.56-.046l.086-.017a1.274,1.274,0,0,1,.1-.139,1.17,1.17,0,0,1,.964-.431,2.22,2.22,0,0,0-1.141-1.906,1.725,1.725,0,0,0-1.16-.207,1.18,1.18,0,0,1-.921.613,2.61,2.61,0,0,0-.211.275C187.079,129.492,187.286,129.8,187.355,129.9Zm-17.667,1.526a2.744,2.744,0,0,0,2.506,1,2.22,2.22,0,0,0,.473-.114,1.338,1.338,0,0,1-.27-.433,1.227,1.227,0,0,1,.336-1.3,3.886,3.886,0,0,0-1.785-.664h-.019a1.135,1.135,0,0,1-.226.338,1.16,1.16,0,0,1-1.01.315A.868.868,0,0,0,169.688,131.429ZM79.529,146.715a2.6,2.6,0,0,0,.509-.049,1.376,1.376,0,0,0,.59-.249A3.517,3.517,0,0,0,79.9,144a2.171,2.171,0,0,0-2.675-.423c-.438.175-1.445.638-1.285,1.169a2.4,2.4,0,0,0,1.02,1.116l.011.008A4.971,4.971,0,0,0,79.529,146.715Zm9.62,10.63a1.236,1.236,0,0,1,.294-.046c.372-.009.579-.459.67-.725a2.486,2.486,0,0,0-.359-2.405c-.4-.323-1.124.023-1.523.256-.858.5-1.693,1.226-1.464,1.748A2.976,2.976,0,0,0,89.149,157.345ZM102.7,166.34a5.241,5.241,0,0,0,.68-.046,1.367,1.367,0,0,0,.308-.382,2.938,2.938,0,0,0-.224-2.984,1.315,1.315,0,0,0-1.625-.325,2.227,2.227,0,0,0-1.338,1.775,1.555,1.555,0,0,0,.5,1.517A2.917,2.917,0,0,0,102.7,166.34Zm11.537,10.039a1.574,1.574,0,0,0,1.141-.786,1.025,1.025,0,0,0-.01-.541,3.2,3.2,0,0,0-2.181-2.094,1.329,1.329,0,0,0-1.439.568c-.833,1.08-.477,1.652-.357,1.841a2.8,2.8,0,0,0,2.292,1.067A2.833,2.833,0,0,0,114.241,176.379Zm2.868,9.98a2.533,2.533,0,0,0,.518.066c.592,0,.919-.372,1.559-1.439a4.26,4.26,0,0,0-1.975-2.246c-.279-.108-.85-.327-1.488.906a1.792,1.792,0,0,0,.055,1.559A2.048,2.048,0,0,0,117.109,186.359Zm10.111,8.617a2.962,2.962,0,0,0,1.171-.239,1.181,1.181,0,0,1,.049-.851,1.7,1.7,0,0,0-.383-2.255c-.577-.317-1.323.074-1.948,1.021-.285.435-.716,1.242-.38,1.743A1.816,1.816,0,0,0,127.221,194.976Zm13.257,10.65a1.482,1.482,0,0,0,1.088.4,1.978,1.978,0,0,0,.714-.131,1.165,1.165,0,0,1,.251-.683,1.465,1.465,0,0,0,.11-1.543,1.38,1.38,0,0,0-1.016-.858c-.469.025-.85.63-1,.907C140.368,204.208,140,205.1,140.478,205.627Zm9.857,10.276a2.192,2.192,0,0,0,1.61.609,2.124,2.124,0,0,0,.649-.093.806.806,0,0,0,.663-.767,1.014,1.014,0,0,1,.028-.188,2.261,2.261,0,0,0-1.629-1.553c-.186-.028-.746-.12-1.266.837C149.989,215.483,150.24,215.787,150.335,215.9Zm8.627,8.765a2.319,2.319,0,0,0,1.733.628h.03a1.187,1.187,0,0,1,.514-1.378c.619-.376.551-.786.53-.921a1.32,1.32,0,0,0-.955-1.006c-.655-.142-1.2.429-1.542.934C158.912,223.455,158.564,224.188,158.961,224.668Zm14.571,8.655a2.23,2.23,0,0,0,1.361.44h.049a1.187,1.187,0,0,1,.363-1.9,4.916,4.916,0,0,0-.756-1.712,2.464,2.464,0,0,0-.653-.67s-.374.194-.782,1.45A2.1,2.1,0,0,0,173.532,233.323Zm6.415,7.977a4.539,4.539,0,0,0,.761,2.014,1.179,1.179,0,0,1,.822-.568c.566-.1.841-.678.972-1.147a3.355,3.355,0,0,0-.571-3.045c-.124-.106-.414-.355-1.143-.032C179.981,238.882,179.786,240.177,179.947,241.3Zm-19.269,20.562a1.53,1.53,0,0,0-.989-1.329c-.08-.009-.2-.034-.359.281a1.305,1.305,0,0,0,.1,1.435,1.586,1.586,0,0,0,1.2.678.874.874,0,0,0,.14-.011.778.778,0,0,0,.427-.218A1.189,1.189,0,0,1,160.677,261.863ZM138.26,243.951a1.614,1.614,0,0,0-1.855-.144,1.391,1.391,0,0,0-.089,1.642,3.59,3.59,0,0,0,1.4,1.49.982.982,0,0,0,.112-.459,4.552,4.552,0,0,0,.289-1.86C138.511,244.173,138.389,244.065,138.26,243.951Zm-11.526-11.37a4.126,4.126,0,0,0-.423,2.9,3.813,3.813,0,0,0,.3,1.075,1.016,1.016,0,0,1-.051-.266,1.186,1.186,0,0,1,1.092-1.274c.385-.029.427-.148.446-.205a2.316,2.316,0,0,0-.738-1.94C127.24,232.76,126.938,232.5,126.735,232.581Zm-9.644-7.461c-.059.063-.131.14-.025.4a2.569,2.569,0,0,0,1.953,1.369c.032,0,.065,0,.1,0h.03a1.218,1.218,0,0,1,.171-.511c.26-.421-.422-.953-.5-1.014C118.254,224.949,117.43,224.748,117.091,225.12Zm-10.965-12.34c-.57.8-.249,1.188.093,1.437a2.254,2.254,0,0,0,1.3.38,2.541,2.541,0,0,0,1.528-.5,2.569,2.569,0,0,0-1.164-1.745A1.2,1.2,0,0,0,106.125,212.78Zm-9.62-4.86c-.323.156-.513.636-.522,1.314a2.106,2.106,0,0,0,.847,1.935,1.233,1.233,0,0,0,.626.173,1.187,1.187,0,0,0,.608-.167,1.306,1.306,0,0,0,.328-.27,1.185,1.185,0,0,1-.292-1.027,1.716,1.716,0,0,0-.545-1.758A1.052,1.052,0,0,0,96.505,207.92ZM85.314,199.2a.984.984,0,0,0-.173,1.238,1.938,1.938,0,0,0,1.5.883,1.142,1.142,0,0,0,.182-.015c.118-.023.406-.108.548-.716a1.151,1.151,0,0,1-.541-.133,1.178,1.178,0,0,1-.486-1.553C86.049,198.726,85.777,198.646,85.314,199.2Zm-9.525-13.141c-.814-.406-1.5.52-1.843,1.109a2.68,2.68,0,0,0-.139,3.032,1.643,1.643,0,0,0,1.272.655,1.312,1.312,0,0,0,.355-.047,1.776,1.776,0,0,0,1.027-.883,1.194,1.194,0,0,1,.059-.763A2.406,2.406,0,0,0,75.789,186.063ZM64.835,173.928c-.087.093-.275.627-.011,1.826a4.106,4.106,0,0,0,.48,1.318.488.488,0,0,0,.112-.042,1.185,1.185,0,0,1-.243-.97A2.613,2.613,0,0,0,64.835,173.928Zm-12.044-5.849c-.37.492.127,1.323.289,1.568a3.608,3.608,0,0,0,2.489,1.69.886.886,0,0,0,.207-.023c.573-.142.737-1.215.78-1.669a1.233,1.233,0,0,1,.1-.385,2.108,2.108,0,0,0-.4-.524,1.171,1.171,0,0,1-.89.429h0a1.186,1.186,0,0,1-1.187-1.183v-.256A1.478,1.478,0,0,0,52.791,168.079Zm78.422-84.561a1.744,1.744,0,0,0-1.77-.435c-1.16.2-2.549.685-2.582,1.868a3.387,3.387,0,0,0,2.153,2.851,1.167,1.167,0,0,1,.793-.765,1.232,1.232,0,0,1,.308-.04,1.162,1.162,0,0,1,.513.133,2.585,2.585,0,0,0,.184-.319,1.174,1.174,0,0,1,.59-.6A3.045,3.045,0,0,0,131.213,83.517Zm13.445-23.4a1.78,1.78,0,0,0-2.223-.478,1.82,1.82,0,0,0-1.194,2.079,5.212,5.212,0,0,0,1.963,3.326,2.094,2.094,0,0,1,1.447-1.187,1.152,1.152,0,0,1,.365.059,1.173,1.173,0,0,1,.249.139.828.828,0,0,0,.144-.182A3.857,3.857,0,0,0,144.658,60.119Zm12.426-14.859a3.062,3.062,0,0,0-.338-2.958,2.217,2.217,0,0,0-2.421-1.042c-1.868.361-1.783,1.1-1.75,1.378a5,5,0,0,0,2.045,2.806,1.184,1.184,0,0,1,1-.57,1.229,1.229,0,0,1,.186.015,1.16,1.16,0,0,1,.847.625A.584.584,0,0,0,157.084,45.259Zm16.938-13.836a4.132,4.132,0,0,0-2.075-3.3,1.712,1.712,0,0,0-1.853-.076c-.233.15-.78.5-.416,1.659a5.118,5.118,0,0,0,1.1,1.821,1.184,1.184,0,0,1,1.145.976v0a2.539,2.539,0,0,0,1.228.473A1.8,1.8,0,0,0,174.022,31.423ZM189.5,10.265c-.879-.518-1.312-.245-1.454-.152-.8.5-.691,1.65-.554,2.288.363,1.69,1.6,3.187,2.392,3.3.023,0,.043,0,.064,0,.275,0,.552-.256.828-.763a1.185,1.185,0,0,1,1.608-.478,1.063,1.063,0,0,1,.226.158A8.353,8.353,0,0,0,189.5,10.265Zm2.732,7.419c.167-.072.606-.266.661-1.2a3.535,3.535,0,0,0,0-.467l-.027.053a4.184,4.184,0,0,1-1.251,1.473,1.149,1.149,0,0,1,.184.49A1.167,1.167,0,0,1,192.228,17.684ZM220.12,5.718c.384-.021.467-.659.469-1.192a1.189,1.189,0,0,1,.978-1.162,1.873,1.873,0,0,0-.264-.528,1.249,1.249,0,0,0-1.4-.425c-.528.093-2.234.463-2.137,1.3a2.912,2.912,0,0,0,2.3,2.009Zm23.567,3.207c.237.964.571,1.046.731,1.046l.048,0a1.939,1.939,0,0,0,.932-.408,1.2,1.2,0,0,1-1.145-.469,1.188,1.188,0,0,1,.254-1.659c.666-.49.782-.824.776-.885a1.044,1.044,0,0,0-1.057-.245C243.2,6.6,243.553,8.387,243.688,8.925ZM232.01,32.441a1.753,1.753,0,0,0,1.122.708,1.186,1.186,0,0,1,.279-1.293,1.3,1.3,0,0,0,.351-1.323.794.794,0,0,0-.481-.581c-.2-.034-.607.148-1.1.79A1.349,1.349,0,0,0,232.01,32.441ZM214.662,43.475a2.618,2.618,0,0,0,2.174,1.578,2.742,2.742,0,0,0,.277.015,2.017,2.017,0,0,0,.611-.089,1.066,1.066,0,0,0,.028-.171,2.622,2.622,0,0,0-1.1-2.225,1.225,1.225,0,0,0-1.407.011C214.56,43,214.634,43.346,214.662,43.475Zm-14.844,13.3a1.7,1.7,0,0,0,1.015.471.728.728,0,0,0,.347-.085,2.678,2.678,0,0,0,.963-2.5,1.186,1.186,0,0,1,.683-1.19,1.792,1.792,0,0,0-1.217-.211,2.808,2.808,0,0,0-2.255,1.908A1.4,1.4,0,0,0,199.818,56.772ZM179.186,75.027a1.763,1.763,0,0,0,.543.573,1.175,1.175,0,0,1,1.2-.763,2.574,2.574,0,0,0,.547-.015,4.422,4.422,0,0,0,1.147-2.415,1.163,1.163,0,0,1,.209-.621,2.28,2.28,0,0,0-.55-1.027c-.253-.249-.7-.532-1.606-.108C179.922,71.12,178.861,74.285,179.186,75.027ZM165.855,88.563a.887.887,0,0,0,.537.526,1.217,1.217,0,0,1,.909-.308,1.56,1.56,0,0,0,.488-1.175,1.179,1.179,0,0,1,.33-.839,2.994,2.994,0,0,0-.287-.718c-.161-.283-.412-.625-.731-.585a2.229,2.229,0,0,0-.841,1.084A3.4,3.4,0,0,0,165.855,88.563Zm-11.489,13.01a1.511,1.511,0,0,0,1.321.674,1.466,1.466,0,0,0,.363-.042c.94-.226,1.1-1.272,1.061-2.109a1.191,1.191,0,0,1,.452-.982,1.834,1.834,0,0,0-1.836.384C154.655,100.279,154.133,101.074,154.365,101.574Zm19.064-4.38c.125,1.04.665,1.826,1.092,1.91a.34.34,0,0,0,.078.008c.391,0,1.04-.5,1.737-1.655a3.349,3.349,0,0,0-.319-2.908c-.275-.264-.761-.237-1.443.076A2.425,2.425,0,0,0,173.429,97.194Zm17.242.23h.008a1.2,1.2,0,0,1-.049-.344,1.187,1.187,0,0,1,1.187-1.185h0c.04.019.222,0,.355-.382a2.215,2.215,0,0,0-.461-2.159c-.37-.281-.963.006-1.4.3a2.035,2.035,0,0,0-.962,2.343A1.836,1.836,0,0,0,190.671,97.424Zm15.647-1.769a2.7,2.7,0,0,0,1.866-.9,1.191,1.191,0,0,1,.993-.334l.017-.084a2.983,2.983,0,0,0-1.056-2.7,2.147,2.147,0,0,0-2.381,0c-1.034.528-1.56,1.236-1.519,2.047a2.176,2.176,0,0,0,1.384,1.84A1.883,1.883,0,0,0,206.319,95.654Zm17.274-6.278a1.663,1.663,0,0,0-.664-.993,1.594,1.594,0,0,0-2.3.513c-.752.991-.966,1.885-.585,2.458a1.707,1.707,0,0,0,1.42.661,1.973,1.973,0,0,0,.5-.063,2.373,2.373,0,0,0,1.6-2.379A.944.944,0,0,1,223.593,89.376Zm10.7,1.857c-.4-1.192-1.557-1.021-2.212-.816-1.078.344-2.483,1.486-2.075,2.848s1.012,1.456,1.316,1.456l.084,0a2.232,2.232,0,0,0,.644-.146,1.176,1.176,0,0,1,1.065-.7,1.189,1.189,0,0,1,.161.015,6.979,6.979,0,0,0,1.729-1.917A1.186,1.186,0,0,1,234.3,91.233Zm11.214-6.111a.373.373,0,0,0-.22-.412,3.1,3.1,0,0,0-2.863.287,2.151,2.151,0,0,0-1.084,2.151c.122,1.382.82,1.572,1.333,1.595.032,0,.065,0,.1,0a3.739,3.739,0,0,0,3.271-2.533A1.188,1.188,0,0,1,245.51,85.122Zm12.636-6.208c-2.047-.759-4.777-1.048-5.58-.273-.419.406-.239,1.306-.013,1.993a1.741,1.741,0,0,0,1.836,1.088,4.588,4.588,0,0,0,1.082-.139c1.437-.366,2.8-1.416,2.836-2.622A.969.969,0,0,1,258.146,78.913Zm23.6-9.769a1.259,1.259,0,0,1-.093-.108c-.608-.778-2.254-.968-3.459-.391a1.6,1.6,0,0,0-1,2c.165.7.477,1.521,1.016,1.521h.019C279.237,72.128,280.778,70.631,281.742,69.144Zm10.2-5.893a2.187,2.187,0,0,1-.218.125,1.187,1.187,0,0,1-1.268-1.992,1.2,1.2,0,0,0-.839-.628c-.623-.057-1.308.909-1.752,2.489-.594,2.107-.177,2.633.233,2.842a1.109,1.109,0,0,1,.86-.395,1.189,1.189,0,0,1,.691.222A9.173,9.173,0,0,0,291.375,64C291.567,63.739,291.751,63.488,291.939,63.251ZM303.1,53.127a1.252,1.252,0,0,0-1.627-.178,4.912,4.912,0,0,0-2.586,4.042c.032.292.22,1.737.793,1.737l.021,0a1.242,1.242,0,0,0,.435-.123c-.006-.015-.006-.034-.011-.051a1.186,1.186,0,0,1,.742-1.5,1.215,1.215,0,0,1,.38-.063,1.171,1.171,0,0,1,.482.116,5.381,5.381,0,0,0,1.025-3.011,1.183,1.183,0,0,1,.4-.909C303.14,53.163,303.121,53.146,303.1,53.127Zm11.848-9.806a1.3,1.3,0,0,0-1.9-.1c-.909.625-1.61,1.99-1.188,2.882.344.727.683.875.944.875a1.042,1.042,0,0,0,.283-.047,5.5,5.5,0,0,0,2.861-3.25A1.2,1.2,0,0,1,314.95,43.321Zm14.827-10.362c-.121-.573-1.187-.917-2.282-.735a1.97,1.97,0,0,0-1.917,2.14c.175,1.437,1.05,1.718,1.7,1.718.1,0,.188-.008.271-.015a2.583,2.583,0,0,0,.41-.083,1.163,1.163,0,0,1,.951-.514c.011,0,.023.008.034.008a2.772,2.772,0,0,0,1.109-1.969A1.174,1.174,0,0,1,329.777,32.959ZM344.221,39.3a2.817,2.817,0,0,0,2.145,1.363,1.223,1.223,0,0,0,.327-.044,1.078,1.078,0,0,0,.562-.419,1.186,1.186,0,0,1,.416-.974l0,0a6.316,6.316,0,0,0,.159-1.135,2.858,2.858,0,0,0-1.487-.94,2.016,2.016,0,0,0-2.043.435A1.266,1.266,0,0,0,344.221,39.3Zm6.255,10.421c-.534-.171-1.109.712-1.338,1.1a3.215,3.215,0,0,0-.078,3.518,1.788,1.788,0,0,0,1.411.854,1.315,1.315,0,0,0,.211-.017c.048-.009.1-.021.144-.034h0a1.183,1.183,0,0,1,1-1.35c.1-.017.3-.046.344-.628C352.267,51.889,351.335,49.99,350.476,49.719Z" transform="translate(0 0)" fill="#0a0a0a"/>
  </g>
</svg>
