<?xml version="1.0" encoding="utf-8"?>
<!-- Generator: Adobe Illustrator 25.1.0, SVG Export Plug-In . SVG Version: 6.00 Build 0)  -->
<svg version="1.1" id="Layer_1" xmlns="http://www.w3.org/2000/svg" xmlns:xlink="http://www.w3.org/1999/xlink" x="0px" y="0px"
	 viewBox="0 0 301.2 366.5" style="enable-background:new 0 0 301.2 366.5;" xml:space="preserve">
<style type="text/css">
	.st0{fill:#1E1E1E;}
</style>
<g id="Group_46" transform="translate(-453.742 1393.645) rotate(-79)">
	<path id="Path_10364" class="st0" d="M1307,249.6c0.1,0,0.3,0,0.4,0c1.3-0.1,2.2-1.2,2.2-2.5c0.3,0.1,0.5,0,0.7-0.1
		c0.5-0.3,0.8-0.9,0.5-1.5c0,0,0,0,0,0c-0.9-1.8-3.5-2.4-5.2-1.8c-1.4,0.4-2.3,1.9-1.9,3.3C1304.1,248.5,1305.5,249.6,1307,249.6z
		 M1306.4,245.8c0.2-0.1,0.5-0.1,0.7-0.1c0.3,0,0.7,0.1,1,0.2c-0.4,0.2-0.7,0.6-0.6,1.1c0,0.3-0.1,0.4-0.3,0.5
		c-0.5,0.1-1.1-0.2-1.3-0.7C1305.8,246.2,1305.9,246,1306.4,245.8L1306.4,245.8z"/>
	<path id="Path_10365" class="st0" d="M1466.5,435.7c-0.9-3.5-2.8-4.3-3.8-4.5c-1.4-0.2-2.9,0.4-3.7,1.7c-0.3,0.4-0.5,0.8-0.6,1.3
		c-8.5-3.8-13.3-5.1-23.1-5.1c-0.1,0-0.3,0-0.4,0.1c-2.8-2.3-5.6-4.6-8.5-6.9c-0.2-0.3-0.5-0.6-0.7-0.9c5.1-2.2,22.3-0.5,25.3,2.1
		c0,0,0.1,0.1,0.1,0.1c0.1,0.1,0.1,0.3,0.2,0.5c1.1,2.2,2.5,2.5,3.4,2.5c0.2,0,0.3,0,0.5,0c0.5-0.1,0.9-0.3,1.3-0.6
		c0.3,0.5,1,0.7,1.5,0.4c0.3-0.2,0.5-0.5,0.5-0.9c0.1-0.7,0-1.5-0.2-2.2c0-0.1,0.1-0.3,0.1-0.4c0.3-1.5-0.5-2.9-1.9-3.6
		c-0.5-0.3-1.2,0-1.4,0.5c0,0,0,0,0,0c-1.2-0.5-2.7-0.3-3.7,0.6c-0.2,0.2-0.3,0.4-0.4,0.6c-5.8-2.7-22.6-4.1-27.2-1.2
		c-0.1,0.1-0.2,0.1-0.2,0.2c-3-2.3-6-4.6-9.1-6.8c7.1-2.7,14.7-4.1,22.3-4.1c0.2,1.3,1.1,2.5,2.4,2.9c0.3,0.1,0.5,0.1,0.8,0.1
		c1.5-0.1,2.8-0.8,3.8-1.8c0.1,0.1,0.3,0.1,0.4,0.1c0.6,0.1,1.1-0.4,1.2-1c0,0,0,0,0,0c0-0.5,0-0.9-0.1-1.4c0.3-0.8,0.3-1.7,0-2.4
		c-0.3-0.5-0.9-0.8-1.5-0.5c-0.1,0-0.2,0.1-0.2,0.2c-0.3-0.2-0.5-0.4-0.8-0.6c-1.4-1-3.3-1-4.7-0.2c-0.8,0.6-1.3,1.5-1.4,2.5
		c-8.3,0.1-16.6,1.7-24.3,4.7c-2.7-1.9-5.5-3.8-8.3-5.6c-0.1-0.2-0.2-0.3-0.3-0.5c4.2-2.9,8.4-3.4,13.2-3.9c2-0.2,4-0.5,6.1-0.9
		c1,1.4,2.6,2.1,4.2,2.1c0.7,0,1.5-0.1,2.2-0.4c2.3-0.8,4.3-2.8,3.8-5.7c-0.1-0.6-0.7-1-1.3-0.9c-0.5,0.1-0.9,0.5-0.9,1
		c-0.7-1.1-1.7-1.9-2.9-2.4c-1.8-0.8-3.9-0.5-5.3,0.8c-0.8,0.9-1.1,2.2-0.7,3.4c-1.9,0.3-3.7,0.5-5.4,0.7c-5.3,0.6-10.3,1.2-15.2,5
		c-3-1.8-6-3.5-9.1-5.2c3.9-2.9,9.9-6.1,14.9-6.7c0.6,1.1,1.7,1.8,3,1.8h0.1c1.8-0.1,3.4-1.4,3.9-3.2l0,0c0.1-0.1,0.1-0.3,0.1-0.4
		c0.2-1.7-0.6-3.3-2.1-4c-1.5-0.9-3.4-0.8-4.8,0.2c-1,0.9-1.4,2.3-1,3.5c-5.6,0.8-12.1,4.4-16.2,7.6c0,0,0,0.1-0.1,0.1
		c-3.1-1.6-6.3-3.1-9.6-4.5c-0.1-0.1-0.1-0.1-0.2-0.2c0,0,0,0,0,0c2.5-3.8,9.4-5.5,14-6.7l0.2-0.1c0.3,1.2,1.3,2,2.5,2h0
		c1.8,0,3.8-1.9,4.9-4.1c0,0.1,0,0.2,0.1,0.3c0.1,0.6,0.7,1,1.3,0.9c0.6-0.1,1-0.6,0.9-1.2c-0.2-1.2-0.7-2.4-1.5-3.4
		c-0.1-0.1-0.2-0.2-0.3-0.3c-1.2-1.3-2.9-2-4.6-1.8c-1.9,0.2-4,1.8-3.7,5.5l-0.3,0.1c-5.4,1.4-12.8,3.3-15.6,8.1
		c-2.9-1.2-5.9-2.3-8.9-3.4l0,0c1-5.2,7.7-8.4,12.6-10.8l0.7-0.4c0.3,1.4,1.2,2.5,2.6,2.9c0.3,0.1,0.7,0.2,1.1,0.2
		c1.1,0,2.1-0.7,2.6-1.7c0.2-0.4,0.3-0.8,0.4-1.1c0.4,0.4,1.1,0.4,1.5,0c0.2-0.2,0.3-0.4,0.3-0.6c0.1-1.1-0.3-2.3-1.2-3
		c-0.2-0.2-0.5-0.4-0.8-0.6c-0.2-0.5-0.5-0.9-0.8-1.2c-0.7-0.5-1.7-0.4-2.3,0.3c-0.1,0.1-0.1,0.1-0.2,0.2c-0.2,0-0.3,0.1-0.5,0.1
		c-1.1,0.3-2,1.1-2.4,2.2c-0.2,0-0.4,0-0.6,0.1l-1.3,0.7c-5.2,2.5-12.4,6-13.7,12.1c-3.5-1.2-7-2.2-10.6-3.2
		c0.9-0.8,1.8-1.7,2.6-2.6c2.9-3.1,5.7-6.1,10.9-6.3c0.3,0,0.6-0.1,0.8-0.3c0.4,0.3,0.9,0.4,1.4,0.4c0.4,0,0.8-0.1,1.2-0.3
		c0.6-0.3,1.2-0.7,1.6-1.3c-0.2,0.6,0.1,1.2,0.6,1.4c0.5,0.2,1.1,0,1.4-0.6c0.8-1.4,0.4-3.1-1-4c-1.8-1.2-4.9-0.9-6.2,0.4
		c-0.5,0.6-0.7,1.4-0.5,2.1c-5.7,0.4-8.8,3.7-11.8,6.9c-1.1,1.2-2.3,2.4-3.5,3.4c-4.2-1.1-8.4-2-12.7-2.8c4.9-3.6,10.5-6.1,16.5-7.5
		c0.6,1,1.7,1.7,2.9,1.7c0.4,0,0.7-0.1,1.1-0.2c1.1-0.5,1.9-1.4,2.4-2.5c0.3,0.5,0.9,0.7,1.5,0.5c0.5-0.3,0.7-0.8,0.5-1.3
		c-0.4-1.1-1.1-2-2.1-2.6c-0.4-0.5-1-0.8-1.6-0.8c-0.1,0-0.2,0-0.3,0c-0.3-0.1-0.6-0.1-0.8-0.1c-1.6-0.3-3.1,0.3-4.1,1.6
		c-0.3,0.5-0.4,1.2-0.3,1.8c-6.6,1.5-12.8,4.5-18.2,8.7c-0.1,0.1-0.1,0.1-0.2,0.2c-1.5-0.3-3.1-0.5-4.6-0.8c-2.3-0.4-4.7-0.7-7-1
		c1.2-1.3,2.5-2.6,3.8-3.9c3.5-3.7,7.2-7.6,11.1-11.4c0,0,0,0,0.1,0c4.1-1.8,8.9-0.8,13.6,0.2c2.8,0.7,5.7,1.1,8.6,1.2
		c0.1,0,0.2,0,0.3,0c-0.1,0.9,0.2,1.9,0.9,2.5c0.7,0.8,1.8,1.3,2.9,1.3c0.5,0,1-0.1,1.4-0.3c1.7-0.6,2.9-2.1,3.1-3.8
		c0.1-1.3-0.7-2.5-1.8-3.1c-0.5-0.3-1.2-0.1-1.5,0.5c-0.1,0.1-0.1,0.2-0.1,0.3c-1.2-0.3-2.5,0-3.6,0.6c-0.2-0.2-0.5-0.4-0.8-0.3
		c-3,0-6-0.4-8.9-1.2c-3.6-0.8-7.4-1.6-10.9-1.1c2.7-2.6,5.5-5,8.3-7.3c0.1,0,0.2,0.1,0.4,0.1c3.6,0,7.1,0.1,10.7,0.5
		c1.3,0.2,2.5,0.5,3.7,0.9c1.9,0.7,4,1.1,6,1.3c-0.2,0.9,0.2,1.8,0.8,2.4c0.7,0.6,1.5,0.9,2.4,0.9c0.7,0,1.4-0.2,2-0.4
		c0.7-0.3,1.3-0.7,1.9-1.1c0.2,0.1,0.4,0.2,0.6,0.2l0,0c0.6,0,1.1-0.5,1.1-1.1c0-0.3,0-0.6-0.1-0.9c0.4-0.6,0.6-1.2,0.6-1.9
		c0-1.3-0.7-2.5-2-3c-0.5-0.3-1.2-0.1-1.5,0.5c-0.2,0.3-0.2,0.8,0.1,1.1c-1.6-0.3-3.1,0.1-4.4,1.1c-1.4,0.7-4.5-0.2-7.1-1
		c-1.3-0.4-2.7-0.8-4.1-1c-2.4-0.3-5.3-0.4-8.6-0.5c0.5-0.4,1.1-0.8,1.6-1.2c3.3-2.4,6.5-5.2,9.6-7.9c1-0.9,2-1.8,3.1-2.7
		c0.2,0.2,0.5,0.3,0.8,0.3c7.8,0.1,13.9,1.3,18.8,3.6c0,0,0,0,0,0c-0.5,0.4-0.9,0.9-1.1,1.4c-0.3,0.7-0.6,2.3,1.9,3.6
		c0.7,0.4,1.4,0.5,2.1,0.5c1.2,0,2.3-0.5,3.2-1.3c1.7-1.5,2.4-3.9,1.8-5.5c-0.6-1.3-1.9-2-3.3-1.9c-0.6,0-1.1,0.5-1.1,1.1
		c0,0.2,0.1,0.5,0.2,0.7c-0.8,0-1.6,0.2-2.4,0.5c0-0.4-0.2-0.9-0.6-1.1c-4.9-2.4-10.9-3.6-18.4-3.8c1.8-1.5,3.5-2.8,5.3-4.1
		c3-2,6.3-3.6,9.7-4.8c11.6,0,21.5,2.8,27.1,7.5c0.1,0.1,0.2,0.1,0.3,0.2c0.1,0.6,0.4,1.1,0.8,1.5c1,1.2,2.7,1.6,4.1,1.2
		c0.4-0.1,0.7-0.3,1-0.5c0.3,0.5,0.9,0.8,1.5,0.5c0.3-0.2,0.5-0.4,0.6-0.8c0.3-1.1,0.1-2.3-0.6-3.3c-0.4-1.4-1.3-2.5-2.6-3.3
		c-0.5-0.3-1.2-0.2-1.5,0.3c-0.2,0.4-0.3,0.8,0,1.2c-1,0-2,0.3-2.7,1c-6.5-5.2-15.9-6.9-22.6-7.4c0.8-0.3,1.6-0.5,2.4-0.8
		c2.5-0.8,5.2-1.7,7.7-2.7c2.6-1,5.3-1.7,8.1-2.3c5.7,1.1,11.2,2.7,16.5,5c2.8,1.3,5.4,3,7.7,4.9c2.4,2,5,3.6,7.7,4.9
		c-0.1,0.5-0.1,1-0.1,1.5c0,1.7,1,3.3,2.5,4.1c0.6,0.3,1.3,0.5,2,0.5c0.9,0,1.7-0.3,2.3-0.9c1.5-1.6,2-3.8,1.3-5.9
		c-0.3-0.9-0.8-1.6-1.6-2.1c-0.2-0.1-0.3-0.3-0.5-0.4c-1.3-0.9-3-0.8-4.3,0.2c-0.4,0.3-0.7,0.6-0.9,1c-2.6-1.3-5-2.8-7.2-4.6
		c-2.5-2.1-5.3-3.8-8.2-5.2c-3.7-1.5-7.5-2.8-11.4-3.9c4.1-0.4,8.2-0.6,12.3-0.6c5.9,0,17.7,0,26.1,2.3c0,0.1-0.1,0.1-0.1,0.2
		c-0.3,0.7-0.6,2.5,1.5,4.5c0.9,1,2.1,1.6,3.4,1.7c0.5,0,1-0.1,1.4-0.4c2.2-1.3,2.5-5.1,2-7.5c-0.1-0.4-0.4-0.7-0.8-0.8
		c-0.3-0.1-0.6-0.1-0.9-0.1c-0.4-0.1-0.9,0.1-1.1,0.5c-0.6-0.3-1.3-0.4-1.9-0.4c-0.5,0-1.1,0.2-1.6,0.4c-7.6-2.5-17.9-2.8-27.9-2.8
		c-5.1,0-10.2,0.3-15.2,0.9c0.2-0.2,0.4-0.4,0.7-0.7c2.7-2.9,5.3-5.7,9.1-7.5c4.4-2.2,9.1-2.3,14.1-2.3c0.3,0.4,0.6,0.7,1,1
		c1.3,1,3.1,1.1,4.6,0.3c0.2-0.1,0.4-0.3,0.6-0.5c0.1,0.3,0,0.6-0.1,0.9c0,0.1-0.2,0.4-1,0.3c-0.6,0-1.1,0.4-1.2,1
		c0,0.6,0.4,1.1,1,1.2c0.1,0,0.2,0,0.4,0c1.1,0.1,2.2-0.5,2.7-1.5c0.7-1.4,0.3-3.6-1.1-5.2c-0.1-0.4-0.4-0.7-0.8-0.8
		c-1.7-1.4-3.9-1.8-5.9-1.1c-0.4,0.1-0.6,0.4-0.7,0.8c-0.1,0.5-0.2,1-0.1,1.6c-4.9,0-9.6,0.3-14.3,2.6c-4.1,2-6.9,5.1-9.7,8
		c-0.8,0.9-1.7,1.8-2.6,2.6c-0.3,0-0.5,0.1-0.7,0.3c-2.6,0.5-5.2,1.3-7.6,2.2c-2.5,0.9-5.1,1.8-7.6,2.6c-2.6,0.9-5.2,1.7-7.8,2.7
		l0,0c-0.5,0.2-1,0.4-1.5,0.6c0.1-0.3,0.3-0.5,0.4-0.8c3.6-6.4,6.8-12,14.9-15.2c0.2,0.2,0.4,0.4,0.7,0.4c0.2,0,0.4,0.1,0.7,0.1
		c0.9,0,1.7-0.3,2.4-0.7c0.1,0.1,0.3,0.1,0.4,0.2c0.6,0.1,1.2-0.3,1.3-0.9c0.2-0.8,0.1-1.7-0.3-2.5c0-0.1-0.1-0.3-0.1-0.4
		c-0.4-0.9-1.3-1.4-2.3-1.4c-0.4,0-0.7,0.1-0.9,0.4c-0.6,0.2-1.1,0.5-1.5,0.9c-0.5,0.5-0.7,1.1-0.8,1.7c-9,3.5-12.4,9.5-16.3,16.3
		c-0.6,1.1-1.3,2.2-1.9,3.4c-1.9,0.9-3.7,1.9-5.4,3c-1.6,1.1-3.2,2.4-4.8,3.6c0.1-0.3,0.1-0.7,0.2-1c0.7-4,1.8-9.8,4.1-12.5
		c0.7,0.5,1.6,0.8,2.5,0.8c0.6,0,1.1-0.1,1.6-0.2c1.6-0.4,3.3-1.6,3.5-3.1c0.1-1.1-0.4-2.1-1.4-2.6c-0.1-0.1-0.2-0.1-0.3-0.1
		c-2.1-1.6-5.2-1.2-6.8,0.9c-0.1,0.1-0.1,0.2-0.2,0.2c-0.4,0.7-0.4,1.5-0.1,2.3c-3,3-4.1,9.2-4.9,13.9c-0.2,1.4-0.5,2.6-0.7,3.5
		c0,0,0,0.1,0,0.1c-1.1,0.9-2.2,1.9-3.3,2.8c-3,2.7-6.2,5.4-9.4,7.8c-0.5,0.4-1.1,0.8-1.6,1.2c1.2-4.1,3.4-10.5,6.8-14.2
		c1.3-0.1,2.4-0.6,3.3-1.5c1.2-1.2,1.3-3.2,0.2-4.5c-0.4-0.5-1.1-0.5-1.5-0.2c0,0,0,0,0,0l0,0c-0.2-0.2-0.5-0.4-0.8-0.4
		c-1.9-0.3-3.8,0.6-4.7,2.2c-0.6,1.4-0.1,3,1.2,3.7c-3.8,4.7-5.9,12.1-7.1,15.9c-0.2,0.5-0.3,1-0.4,1.3c-3.1,2.5-6.1,5.2-9,8
		c0.1-0.7,0.3-1.3,0.5-2c0.4-1.2,0.6-2.4,0.8-3.7c0.2-1.5,0.5-3,0.9-4.5c0.6-2,0.9-4.1,1-6.1c0.4-0.2,0.8-0.5,1-0.9
		c1.1-1.3,1.1-3.2,0-4.5c-0.6-1.4-1.5-2.1-2.6-2.2c-1.2,0-2.5,1-3.1,2.7c-0.7,1.9-0.3,3.7,0.9,4.7c0.4,0.3,0.9,0.6,1.5,0.7
		c-0.2,1.8-0.5,3.5-1,5.2c-0.4,1.6-0.7,3.2-0.9,4.8c-0.1,1.1-0.4,2.2-0.7,3.3c-0.5,1.6-0.7,3.2-0.7,4.8c-3.9,3.9-7.7,7.8-11.2,11.5
		c-1.5,1.6-3,3.2-4.5,4.7c-0.1,0.1-0.2,0.2-0.2,0.4c-4.6-0.6-9.2-1.1-13.8-1.6c0.2-0.1,0.5-0.1,0.7-0.2c1-0.2,2.1-0.5,3.1-0.8
		c0.5-0.2,1.1-0.4,1.8-0.6c2.5-0.8,5.5-1.8,7.2-3.3c0.1,0.1,0.3,0.2,0.4,0.4c0.6,0.4,1.3,0.7,2,0.7c0.9,0,1.7-0.3,2.4-0.9
		c0.5-0.4,0.9-0.8,1.3-1.3c0.3,0,0.6-0.1,0.8-0.4c0.4-0.4,0.3-1.1,0-1.5c0.1-0.4,0.1-0.9-0.1-1.3c-0.3-1-1.3-1.6-2.3-1.5h0
		c-0.6,0-1.1,0.5-1.1,1.1c0,0.1,0,0.1,0,0.2c-1.1-0.2-2.2-0.1-3.3,0.3c-0.8,0.2-1.4,0.9-1.6,1.8c0,0.3,0,0.5,0.1,0.8
		c-1.4,1.2-4.4,2.2-6.6,2.9c-0.7,0.2-1.3,0.4-1.8,0.6c-0.9,0.3-1.9,0.6-2.8,0.8c-1.7,0.3-3.4,0.9-5,1.8c-2.7-0.3-5.3-0.5-8-0.8
		c0.7-0.1,1.4-0.3,2.1-0.6c4.8-1.7,9.3-3.6,12.5-7.3c0,0,0,0,0,0c0.3,0.1,0.7,0.2,1,0.2c0.7,0,1.3-0.2,1.9-0.5
		c0.8-0.5,1.5-1.2,1.8-2h0c0.6-0.1,0.9-0.7,0.8-1.3c0,0,0,0,0,0c-0.1-0.5-0.3-0.9-0.6-1.4c-0.1-0.3-0.2-0.5-0.3-0.7
		c-0.2-0.3-0.5-0.5-0.8-0.6c-0.2,0-0.4,0-0.6,0c-0.3-0.1-0.7-0.2-1-0.3c-1.7-0.4-3.4,0.3-4.4,1.6c-0.7,1-0.6,2.4,0.1,3.4
		c0.1,0.1,0.2,0.3,0.3,0.4c-2.9,3.2-7.1,5-11.5,6.6c-1.1,0.4-2.3,0.6-3.5,0.8c-1.3,0.2-2.6,0.5-3.9,0.9c-0.2,0.1-0.3,0.2-0.4,0.3
		c-0.1,0-0.1,0-0.2,0c-3.2-0.3-6.4-0.6-9.6-0.9l-1-0.1c0.3-0.1,0.5-0.3,0.8-0.4c0.7-0.4,1.4-0.7,2-1c0.5-0.2,1.1-0.5,1.6-0.7
		c2-0.7,3.9-1.6,5.6-2.8c0.4-0.3,1-0.6,1.6-0.9c1.3-0.7,2.5-1.5,3.6-2.4c0.3,0.1,0.6,0.1,0.9,0.1c0.6,0,1.1-0.1,1.7-0.3
		c1-0.3,1.8-0.9,2.3-1.7c0.1,0,0.2,0,0.4,0c0.6-0.1,0.9-0.7,0.8-1.3c0,0,0,0,0,0c-0.3-1.7-1.8-3.1-3.5-3.3c-1.8-0.3-3.5,0.5-4.5,2
		c-0.5,1-0.5,2.2,0.1,3.1c-0.9,0.7-1.9,1.3-2.9,1.9c-0.6,0.4-1.2,0.7-1.7,1c-1.7,1-3.4,1.9-5.2,2.5c-0.6,0.2-1.1,0.5-1.7,0.7
		c-0.7,0.3-1.4,0.7-2.1,1.1c-1.8,1-3.9,2.1-5.5,1.8c-4.3-0.4-8.6-0.8-12.9-1.2c-0.2-0.1-0.4-0.2-0.7-0.2c-0.1,0-0.3,0-0.4,0.1
		c-20.5-2-41.2-4.6-60.9-9.6c-9.7-2.4-19.1-5.5-28.3-9.2c5.8-0.6,11.4-2.2,16.7-4.6c0.3,0.2,0.6,0.2,1,0.1c3.3-1.2,7.2-1.2,10.5-1
		c0.5,0,1.1,0,1.8,0.1c2.2,0,4.4,0.2,6.5,0.6c-0.2,0.3-0.4,0.6-0.5,1c-0.2,0.6-0.5,2.5,2.5,3.7c0.6,0.3,1.3,0.4,1.9,0.4
		c1.2,0,2.3-0.5,3-1.4c0.1-0.1,0.2-0.2,0.3-0.3c0.1,0,0.1,0,0.2,0c0.6,0.1,1.1-0.4,1.2-1c0.2-1.1,0-2.3-0.6-3.3
		c-0.1-0.6-0.3-1.2-0.6-1.7c-0.3-0.5-1-0.7-1.5-0.4c-0.2,0.1-0.4,0.3-0.5,0.6c-1.2-0.1-2.3,0.2-3.3,0.7c-1.9-0.9-5-1.1-8.5-1.1
		c-0.7,0-1.3,0-1.7-0.1c-1.8-0.1-3.6-0.1-5.4,0c1.4-0.7,2.7-1.5,3.9-2.2c0.5-0.3,0.9-0.6,1.3-0.9c0,0,0,0,0,0c0.4,0,0.8-0.2,1-0.6
		l0,0c0.3-0.2,0.6-0.4,1-0.7c1.3-0.2,2.6-0.5,3.8-0.9c1-0.3,2.1-0.6,3.1-0.8c2.9-0.3,5.9-0.2,8.7,0.4c0.1,0.9,0.6,2,2.4,3.1
		c0.6,0.4,1.4,0.6,2.1,0.7c0.6,0,1.3-0.2,1.7-0.6c0.3-0.2,0.5-0.5,0.7-0.8c0.1,0,0.1,0,0.2,0.1c0.6,0.1,1.2-0.3,1.3-0.9c0,0,0,0,0,0
		c0.5-2.5-0.4-4.3-2.5-4.9c-1.9-0.5-3.9,0-5.3,1.4c-3.2-0.7-6.6-0.9-9.8-0.5c-0.8,0.1-1.6,0.3-2.3,0.5c2.8-2.4,5.5-4.9,8.1-7.5
		c2.2,0,4.4-0.2,6.6-0.6c3.5-0.6,7.1-1.1,9.9,0.1c-0.4,0.8-0.6,1.6-0.5,2.5c0.2,2,2,3.6,4,3.6c1,0,1.9-0.4,2.5-1.2
		c0.7-0.9,1.1-2.1,1-3.3c0.5,0.4,0.7,1,0.6,1.6c-0.1,0.6,0.2,1.2,0.8,1.3s1.2-0.2,1.3-0.8c0,0,0,0,0-0.1c0.3-1.7-0.5-3.5-2.1-4.4
		c-0.8-0.5-1.7-0.8-2.6-1c-0.6-0.3-1.3-0.4-2-0.3c-0.2,0-0.4,0.1-0.5,0.2c-0.3,0.1-0.5,0.1-0.8,0.2c-3.5-2.1-7.8-1.4-12-0.8
		c-1.4,0.2-2.8,0.4-4.1,0.5c0.5-0.5,1-1,1.5-1.6c1.9-2,3.9-4.1,6-6.1c1.7-0.1,3.3-0.4,5-0.8c4.1-1.2,8.4-1.1,12.4,0.3
		c-0.2,0.2-0.5,0.5-0.6,0.7c-0.8,1.3-0.6,3,0.5,4.2c0.6,0.9,1.7,1.4,2.7,1.4c0.3,0,0.5,0,0.8-0.1c1.7-0.4,3.1-1.7,3.6-3.3
		c0.2-0.2,0.3-0.6,0.3-0.9c-0.1-0.4-0.2-0.7-0.3-1.1c-0.2-0.5-0.5-0.9-0.9-1.2c0,0-0.1-0.1-0.2-0.1c-0.5-0.4-1-0.6-1.6-0.7
		c-0.7-0.1-1.5-0.1-2.2,0.1c-0.1-0.4-0.4-0.7-0.7-0.8c-2.7-0.9-5.6-1.4-8.5-1.4c-1.9,0.1-3.8,0.4-5.7,0.9c-0.6,0.1-1.3,0.3-1.9,0.4
		c1.4-1.3,2.8-2.7,4.2-4c0.2-0.1,0.4-0.3,0.5-0.5l0.2-0.2c0.6,0.1,1.2,0.2,1.8,0.2c1.8-0.1,3.5-0.4,5.2-0.9c2-0.6,4-0.9,6.1-0.8
		c0,0,0,0.1-0.1,0.1c-0.5,1.1-0.5,2.3,0,3.4c0.5,1.2,1.6,2,2.9,2.1c0.4,0,0.8-0.1,1.2-0.2c1.3-0.6,2.4-1.7,3-3.1
		c0.4-0.3,0.6-0.8,0.4-1.2c0.2-0.8,0.2-1.6,0-2.4c-0.2-0.6-0.8-0.9-1.3-0.8c-0.3,0.1-0.5,0.2-0.6,0.5c-0.8-0.6-1.8-0.7-2.8-0.5
		c-0.3,0.1-0.7,0.2-1,0.4c-0.1,0-0.2-0.1-0.2-0.1c-2.8-0.8-5.5-0.1-8.1,0.6c-1.4,0.4-2.9,0.7-4.3,0.8c2.5-2.4,5-4.7,7.4-7.1h0
		c0.2-0.1,0.4-0.3,0.5-0.5l0.1-0.1c1.1,0,2.2-0.1,3.3-0.1c3-0.2,5.8-0.3,8.5,0.7c-0.2,2.5,1.5,4.7,4,5c0.5,0,1-0.1,1.4-0.4
		c0.8-0.5,1.4-1.3,1.6-2.3c0.1,0,0.2,0,0.3,0c0.6-0.1,1-0.7,0.8-1.3c-0.6-2.5-3-4-5.5-3.5c-0.5,0.1-1,0.3-1.4,0.6
		c-3.2-1.4-6.6-1.3-9.8-1.1c-0.3,0-0.6,0-0.9,0c0.9-0.8,1.7-1.7,2.6-2.5c2.2-2.1,4.4-4.2,6.6-6.3c3.6-1,8.1-0.4,13.7,1.8
		c-0.1,0.9,0.1,1.8,0.6,2.6c0.5,1.2,1.6,1.9,2.8,2h0.1c1.2-0.1,2.2-0.8,2.7-1.8h0c0.6,0,1.1-0.5,1.1-1c0.2-1.8-0.8-3.5-2.4-4.2
		c-1.3-0.5-2.7-0.3-3.8,0.5c-4.6-1.9-8.5-2.7-12-2.5c2.1-2,4.1-3.9,6.2-5.9c1,0,2.3-0.2,3.6-0.3c3.5-0.4,8.2-0.9,9.8,0.6
		c0.1,0.1,0.3,0.2,0.4,0.2c-0.2,0.8,0,1.6,0.4,2.3c0.5,1.1,1.6,1.9,2.9,1.9c0.2,0,0.3,0,0.5,0c1.7-0.3,3-1.6,3.3-3.3
		c0.3-1.4-0.4-2.7-1.7-3.4c-0.3-0.2-0.8-0.2-1.1,0c-1.1-0.2-2.3,0.1-3.2,0.8c0-0.1-0.1-0.1-0.1-0.1c-2.4-2.1-7.2-1.6-11.5-1.1
		l-0.8,0.1c0.5-0.4,0.9-0.9,1.4-1.3c1.4-1.3,2.9-2.5,4.5-3.7c1.1-0.1,2.2-0.1,3.5-0.3c3.4-0.3,7.4-0.7,9.8,0.2c0,0,0,0,0.1,0
		c-0.1,1,0.1,2,0.8,2.9c0.6,1.1,1.8,1.8,3,1.8c0.2,0,0.4,0,0.7-0.1c1.1-0.3,2-1,2.4-2.1c0.5,0,1-0.4,1.1-1c0.3-1.6-0.6-3.3-2.2-3.9
		c-1.6-0.7-3.3-0.5-4.7,0.5c-0.1-0.1-0.2-0.2-0.4-0.2c-2.9-1.1-7-0.7-10.6-0.4c0.6-0.4,1.1-0.8,1.7-1.2c1.8-1.2,3.5-2.4,5.3-3.7
		c0.1,0,0.3-0.1,0.4-0.2c0.1-0.1,0.2-0.2,0.3-0.3c0.4-0.3,0.8-0.7,1.3-1c1.8,0.4,4.6,0.7,7.3,1c2.4,0.3,5.4,0.6,6.7,0.9
		c-0.1,0.7,0,1.3,0.2,2c0.8,2.4,1.9,2.8,2.8,2.8c0.2,0,0.4,0,0.6-0.1c1.3-0.6,2.3-1.7,2.7-3.1c0.6,0.1,1.1-0.3,1.2-0.9
		c0.4-1.4-0.2-2.9-1.5-3.7c-1.5-0.8-3.3-0.7-4.7,0.3c-0.2,0.2-0.4,0.4-0.5,0.6c-2.4-0.5-4.8-0.8-7.2-1c-1.9-0.2-3.9-0.4-5.4-0.6
		c1.1-1,2.2-2.1,3.2-3.3c1.2-1.5,2.7-2.8,4.3-4c3.5,0.1,6.9,0.8,10.2,2.1c0.1,0.1,0.3,0.1,0.4,0.1c0.1,0,0.2-0.1,0.3-0.1
		c0,0.1,0,0.2-0.1,0.3c-0.3,2.3,0.5,4.1,2,4.9c0.5,0.2,1,0.3,1.5,0.3c0.7,0,1.4-0.2,1.9-0.7c0.9-0.9,1.4-2.2,1.4-3.5
		c0.5-0.3,0.7-0.9,0.4-1.4c-1.2-2.7-2.6-4-4.2-3.8c-1.2,0.2-2.1,1.1-2.5,2.2c-0.1-0.2-0.3-0.3-0.5-0.4c-2.6-1-5.3-1.7-8-2.1l0.2-0.2
		c1.1-0.8,2.1-1.6,3.1-2.5c1.8-1.6,3.6-3.2,5.5-3.5c0.6-0.1,1-0.7,0.9-1.3s-0.7-1-1.3-0.9l0,0c-2.5,0.5-4.5,2.3-6.5,4.1
		c-0.9,0.8-1.8,1.6-2.8,2.3l-0.3,0.2c-0.7,0.5-1.3,0.9-2,1.3c0-0.5,0.1-1,0.2-1.5c0.2-1,0.3-2.1,0.3-3.1c-0.2-1.6-0.8-5.3-2.6-6.8
		c-0.3-0.2-0.6-0.3-0.9-0.2c0.3-0.4,0.6-0.9,0.7-1.4c0,0,0.1,0,0.1,0c0.6-0.2,0.9-0.8,0.7-1.4c0,0,0,0,0,0c-0.3-1.2-1.3-2.1-2.5-2.4
		c-1.3-0.2-2.6,0.4-3.3,1.5c-0.8,1-0.9,2.4-0.3,3.6c0.4,0.9,1.3,1.4,2.2,1.4c0.1,0,0.3,0,0.4,0c0.4-0.1,0.8-0.2,1.1-0.5
		c-0.1,0.4,0,0.8,0.4,1.1c0.8,0.6,1.5,2.8,1.8,5.3c0,0.8-0.1,1.7-0.2,2.5c-0.2,1-0.3,1.9-0.3,2.9c-0.1,0.1-0.1,0.3-0.1,0.4
		c0,0.1,0,0.1,0,0.2c-1.3,1-2.4,2.2-3.5,3.4c-1.1,1.3-2.3,2.5-3.6,3.7c0.2-3.7-0.1-7.3-0.9-10.9c-0.1-0.4-0.4-0.7-0.8-0.7
		c0.4-1.2,0.4-2.5,0-3.7c-0.2-0.6-0.8-0.8-1.4-0.6c-0.6,0.2-0.8,0.8-0.6,1.4l0,0c0.2,0.9,0.2,1.8-0.2,2.6c-0.2-0.1-0.3-0.2-0.4-0.4
		c-0.5-0.5-0.3-2.9,0.7-3.9c0.3-0.3,0.6-0.4,1.1,0c0.5,0.4,1.2,0.3,1.5-0.2c0.4-0.5,0.3-1.2-0.2-1.5c0,0,0,0,0,0
		c-1.2-1-2.9-0.9-4,0.3c0,0,0,0,0,0c-1.5,1.6-2.1,5.2-0.7,6.8c0.5,0.7,1.3,1.1,2.1,1.2c0.3,0,0.7-0.1,1-0.3c0.8,3,1.3,10.5,0.2,12.2
		c-1.8,1.4-3.7,2.7-5.7,4c-1.3,0.9-2.6,1.8-3.9,2.7c0.7-4.7,1.2-10.6-1.2-14.4c0.3-0.9,0.1-1.8-0.5-2.4c0.1-0.2,0.2-0.4,0.1-0.6
		c0-1.1-0.7-2-1.7-2.3c-1.4-0.3-2.9,0.8-3.7,2.1c-0.9,1.3-0.8,3.1,0.2,4.2c0.6,0.6,1.4,1,2.3,0.9c0.6,0,1.1-0.1,1.6-0.4
		c2.2,4.2,0.9,11.5,0.4,14c0,0.1,0,0.2,0,0.3c0,0,0,0.1,0,0.1c0,0,0,0.1,0,0.1c-1.2,0.9-2.4,1.9-3.5,3c-0.9,0.9-1.8,1.8-2.8,2.6
		c-0.1-3.9-0.8-7.7-2.2-11.3c0-0.1-0.1-0.2-0.2-0.3c0.6-0.9,0.8-2.1,0.5-3.1c-0.1-0.4-0.4-0.7-0.7-1c0.3-0.5,0.3-1.1-0.2-1.5
		c-1.4-1.2-2.5-1.1-3.2-0.8c-1.4,0.7-1.9,2.7-1.9,4.3c0,1.9,0.7,3.2,1.8,3.7c0.3,0.1,0.6,0.2,0.9,0.2c0.4,0,0.8-0.1,1.1-0.3
		c1.4,3.9,2.1,7.9,1.9,12c-2.3,2.2-4.5,4.3-6.8,6.4v-0.2c0.1-4.4,0.1-8.3-1.4-12.8v0c0.3-0.5,0.5-1,0.6-1.6c0.3-0.3,0.4-0.9,0.2-1.3
		c-0.6-1-1.7-1.6-2.8-1.5c-1.6,0.2-3,1.2-3.7,2.6c-0.4,0.9-0.2,1.9,0.4,2.6c0.5,0.6,1.3,0.9,2.1,0.9c0.5,0,1-0.1,1.4-0.3
		c1.2,3.8,1.1,7.3,1.1,11.3c0,0.7,0,1.5,0,2.3c-1.9,1.8-3.8,3.6-5.6,5.4c-1.2,1.2-2.4,2.3-3.7,3.5c0-0.9,0.2-1.8,0.3-2.7
		c0.1-0.8,0.2-1.7,0.3-2.5c0.1-2.2-0.1-4.4-0.7-6.5c0.6-0.6,1-1.3,1.2-2.1c0.4-0.4,0.5-1,0.1-1.5l-0.1-0.1c-0.1-0.4-0.2-0.7-0.3-1.1
		c-0.3-0.5-0.9-0.8-1.5-0.5c-0.1,0-0.1,0.1-0.2,0.1c-1.3-0.5-2.8-0.3-4,0.5c-1.3,0.9-1.7,2.8-0.8,4.1c0.1,0.1,0.1,0.2,0.2,0.2
		c0.6,0.9,1.6,1.5,2.7,1.5c0.3,0,0.5,0,0.7-0.1c0.4,1.7,0.5,3.5,0.5,5.3c0,0.6-0.1,1.4-0.3,2.3c-0.3,1.6-0.4,3.3-0.2,5
		c-2.4,2.3-4.8,4.6-7.3,7c0.5-2.7,0.8-5.3,0.9-8c0-1.7-0.1-3.5-0.3-5.2c-0.2-1.4-0.3-2.8-0.2-4.2c0-0.1,0-0.1,0-0.2
		c0.5-0.1,0.8-0.5,0.8-1c0.1-1.6-0.6-3.1-1.9-4c-1-0.6-2.3-0.6-3.3,0c-1.2,0.8-2,2.2-1.9,3.7c-0.1,1.3,0.6,2.5,1.7,3.1
		c0.4,0.2,0.8,0.3,1.2,0.3c0.4,0,0.8-0.1,1.2-0.2c0.1,0.9,0.1,1.8,0.2,2.7c0.2,1.6,0.3,3.2,0.3,4.9c-0.2,3.6-0.7,7.2-1.5,10.7
		c-1.6,1.5-3.1,3-4.7,4.4c-0.5,0.4-0.9,0.9-1.4,1.3c0-0.9,0.1-1.9,0.2-2.8c0.3-4.9,0.7-10-1.4-14.6c0.5-0.8,0.9-1.7,0.9-2.7
		c0.1-0.9-0.4-1.8-1.3-2.2c-0.4-0.2-0.8-0.1-1.2,0.2c-0.1,0-0.1,0-0.2,0c-1.5-0.2-3,0.5-3.8,1.8c-0.7,1.2-0.6,2.6,0.4,3.6
		c0.5,0.7,1.4,1.2,2.3,1.2c0.3,0,0.6-0.1,0.9-0.2c0.1,0,0.2-0.1,0.3-0.2c1.5,4,1.2,8.3,0.9,12.9c-0.1,1.7-0.2,3.4-0.2,5.1
		c-1.6,1.6-3.1,3.2-4.6,4.8c-0.7,0.7-1.4,1.4-2,2.1c0.1-1.5,0.2-3,0.2-4.5c0-0.6,0-1.2,0-1.6c0-2.8-0.5-5.7-1.6-8.3l-0.3-1
		c0.1-0.3,0.2-0.6,0.2-0.9c0.2-0.2,0.3-0.5,0.3-0.8c-0.4-3.3-2.3-4.2-3-4.4c-1.4-0.4-2.9,0.1-3.8,1.3c-1.1,1.6-1.1,3.6,0,5.2
		c0.6,1.3,1.8,2.1,3.2,2.2c0.5,0,0.9-0.1,1.4-0.3c0.1-0.1,0.2-0.1,0.3-0.2c0.9,2.2,1.4,4.7,1.4,7.1c0,0.5,0,1.1,0,1.7
		c0,2.1,0,6.4-1.2,7.3c-0.2,0.2-0.4,0.5-0.4,0.8c-2.7,2.7-5.6,5.2-8.6,7.5c0.4-1.5,0.6-3.1,0.8-4.6c0.1-0.7,0.2-1.4,0.3-2.1
		c0.4-2.6,0.8-6.2-0.2-8.8c0,0,0.1,0,0.1,0c0.5-0.3,0.8-0.9,0.5-1.4c-0.4-0.8-1.8-3.5-3.8-3.2c-1.2,0.1-1.9,1.1-2.3,2.9
		c-0.6,2.5,0.3,3.5,0.9,3.9c0.3,0.2,0.7,0.4,1.1,0.4c0.4,0,0.9-0.1,1.2-0.4c0.2-0.1,0.4-0.3,0.5-0.4c0.3,2.2,0.3,4.5-0.2,6.8
		c-0.1,0.7-0.2,1.4-0.3,2.1c-0.3,2.4-0.8,4.7-1.6,7c-0.6,0.4-1.1,0.7-1.7,1.1c-2.2,1.3-4.6,2.6-7.1,3.9c1.9-4.1,1.8-10.5,1.7-14.7
		v-0.2c0.1-0.1,0.2-0.1,0.3-0.2c1.9-1.2,2.6-3.1,1.8-4.8c-0.1-0.2-0.2-0.3-0.4-0.4c-0.4-0.8-1-1.3-1.8-1.5c-1.8-0.4-3.8,0.9-4.8,2.4
		c-0.9,1.1-1,2.7-0.2,4c0.6,0.8,1.6,1.3,2.7,1.2c0.1,0,0.2,0,0.4,0c0.1,5,0.1,13.8-3.5,15.8c-0.2,0.1-0.3,0.3-0.4,0.4
		c-5.8,2.5-12.1,3.8-18.5,3.9h0c0,0-0.1,0-0.1,0c-0.4-0.2-0.9-0.4-1.3-0.6c-3.9-1.8-7.7-4.1-11.4-6.2c-4.2-2.5-8.5-4.8-12.9-6.9
		c-0.6-0.2-1.2,0-1.4,0.6s0,1.2,0.6,1.4c4.4,2,8.6,4.3,12.7,6.8c3.8,2.2,7.7,4.5,11.6,6.3c11.9,5.6,25.3,9.5,34.5,11.9
		c19.7,5,40.4,7.6,60.8,9.6c0.2,2.8,0.7,5.6,1.5,8.3c-0.4,1.6-0.6,3.3-0.6,4.9c0,1.4-0.2,2.8-0.4,4.1l-0.5,2.1
		c-0.5,2-0.9,4.1-1.4,6.2c-0.3,0-0.6,0.1-0.8,0.3c-2.2,0.6-3.7,2.6-3.8,4.9c0,0.9,0.5,3.2,4.2,3.8c0.3,0.1,0.6,0.1,0.9,0.1
		c1.1,0,2.1-0.4,2.8-1.3c1-1.4,1.1-3.3,0.4-4.9c-0.3-0.8-0.9-1.6-1.6-2.1c0.5-2.1,1-4.3,1.5-6.5l0.5-2.1c0.3-1.5,0.5-3,0.5-4.5
		c0-0.2,0-0.4,0-0.6c1.8,4.1,3.8,8.1,6,12c0.6,1,1.1,2,1.7,3.1c0.1,0.2,0.2,0.4,0.3,0.6c0,1.8-0.1,3.8-0.3,5.9
		c-0.3,4.1-0.6,8.6,0,12.4c-2,1-3.4,2.9-3.7,5.1c-0.3,1.8,0.7,3.5,2.4,4.1c0.5,0.2,1.1,0.3,1.7,0.3c1.1,0,2.1-0.5,2.9-1.3
		c1.1-1.3,1.6-3.1,1.4-4.8c0.5-0.3,0.7-0.9,0.4-1.4c-0.5-1.2-1.6-2.1-2.9-2.4c-0.6-3.6-0.3-8,0-12c0.1-0.9,0.1-1.7,0.2-2.5
		c2.4,3.9,5.1,7.6,8,11.1c0,2.2-0.1,4.4-0.2,6.8c-0.3,5-0.2,9.9,0.2,14.9c-1.8,1-3.5,2.9-3.7,4.7c-0.1,0.7-0.1,3,3.4,3.7
		c0.3,0.1,0.6,0.1,0.9,0.1c1.4,0,2.8-0.8,3.5-2c0.5-0.8,0.9-1.8,0.9-2.8c0.2-0.2,0.4-0.5,0.3-0.8c-0.1-3.2-2.2-3.5-2.9-3.5
		c-0.1,0-0.3,0-0.4,0c-0.4-4.7-0.4-9.4-0.2-14.1c0-1.4,0.1-2.9,0.1-4.4c2.9,3.3,5.9,6.3,9,9.3c0,3.2,0.3,6.4,0.6,9.5l0.2,1.7
		c0.2,2.5,0.5,4.5,0.8,6.3c0.2,0.9,0.4,1.8,0.7,2.6c0.3,0.9,0.5,1.9,0.7,2.8c-0.9,0.8-1.6,1.9-2,3c-0.6,1.5,0,3.2,1.3,4
		c0.6,0.4,1.2,0.6,1.9,0.6c0.7,0,1.4-0.2,2-0.6c1.8-1,2.9-2.9,3-5c0-0.1,0-0.3,0-0.4c0-0.1,0-0.3,0-0.5c-0.2-1.2-1-2.2-2.2-2.6h0
		c-0.2-0.1-0.5-0.2-0.7-0.1c-0.5,0-0.9,0.1-1.3,0.3c-0.2-0.7-0.4-1.5-0.6-2.2c-0.3-0.8-0.5-1.5-0.6-2.3c-0.3-1.7-0.5-3.7-0.8-6.2
		l-0.2-1.7c-0.2-2.4-0.5-4.8-0.6-7.3c0.4,0.3,0.8,0.7,1.1,1c0.1,0.3,0.4,0.5,0.7,0.6c3.4,3,6.9,5.9,10.4,8.6
		c0.3,3.9,1.9,7.8,3.4,11.6c1.7,4.4,3.6,8.9,3.4,13.3c0,0.1,0,0.1,0,0.2c-1.9,0.3-3.5,2.6-4,4.7c-0.4,1.9,0.1,3.5,1.5,4.4
		c0.5,0.3,1.1,0.5,1.6,0.5c0.7,0,1.4-0.2,2-0.6c2.5-1.8,4.1-4.6,4.2-7.7c0-1.3-0.7-2.4-1.9-3c-0.4-0.2-1-0.1-1.3,0.3
		c-0.1-4.5-1.8-8.8-3.5-13c-1.2-2.9-2.2-5.8-2.9-8.9c1.4,1.1,2.8,2.1,4.2,3.2c5.5,4.1,11.4,7.7,17.6,10.8l0,0l0,0
		c0.1,0.1,0.2,0.1,0.3,0.2c1.2,1.8,2.1,3.8,2.6,6c0.2,0.8,0.5,1.5,0.7,2.2c0.4,1,0.8,2,1.3,2.9c0.5,1,0.9,2,1.3,3
		c0.2,0.5,0.3,1,0.4,1.6c0.2,1.3,0.6,2.5,1.3,3.5c-0.9,0.7-1.4,1.6-1.6,2.7c-0.1,0.9,0.1,2.9,3.7,3.6c0.3,0,0.5,0.1,0.8,0.1
		c1,0,2-0.5,2.6-1.3c1-1.5,1.1-3.4,0.3-5c-0.5-1.2-1.7-1.9-2.9-1.9c-0.4,0-0.8,0.3-1,0.7c-0.6-0.8-0.9-1.8-1-2.8
		c-0.1-0.6-0.3-1.2-0.5-1.8c-0.4-1.1-0.8-2.2-1.4-3.2c-0.4-0.9-0.8-1.8-1.2-2.8c-0.2-0.7-0.5-1.4-0.7-2.2c-0.4-1.2-0.8-2.5-1.3-3.6
		c0.7,0.4,1.5,0.7,2.3,1c4.2,1.9,8.3,4,12.3,6.1c1.8,1.1,3.4,2.3,4.9,3.8c1.9,1.7,3.8,3.5,6,4.4c0.1,0,0.3,0.1,0.4,0.1
		c0.2,0,0.4-0.1,0.5-0.2v0c-0.9,3.6,1.1,4.7,1.7,4.9c0.6,0.2,1.3,0.3,1.9,0.1c0.2,0.4,0.6,0.6,1,0.6c0.1,0,0.2,0,0.3,0
		c1.6-0.3,2.7-1.8,2.5-3.5c-0.2-2.3-2.4-4.6-4.4-4.7c-1-0.1-2,0.5-2.5,1.4c-0.1-0.3-0.3-0.6-0.6-0.7c-2-1-3.8-2.3-5.4-3.9
		c-1.6-1.6-3.4-3-5.4-4.1c-4-2.1-8.1-4.2-12.4-6.1c-0.7-0.3-1.4-0.6-2.1-1c0.7-0.2,1.4-0.5,2.1-0.8c0.8-0.4,1.7-0.7,2.5-0.9
		c3.2-0.7,6.5-1,9.8-0.9c0.1,0.5,0.4,1.1,0.7,1.5c0.6,0.9,1.6,1.5,2.7,1.6c0.1,0,0.3,0,0.4,0c0.9-0.2,1.7-0.8,2-1.7c0,0,0.1,0,0.1,0
		c0.6,0,1.1-0.5,1.1-1.1c0,0,0,0,0,0c-0.1-3.2-1.8-4.1-2.6-4.3c-1.5-0.4-3.1,0.2-4,1.5c-0.1,0.1-0.2,0.3-0.2,0.5
		c-3.5-0.2-7.1,0.1-10.6,0.9c-1,0.3-1.9,0.6-2.8,1c-1.6,0.7-3.2,1.3-4.5,1.1c0,0,0-0.1-0.1-0.1c-0.3-0.3-0.7-0.4-1-0.3
		c-5.8-2.9-11.4-6.4-16.7-10.2c0.2,0,0.4,0,0.6,0c2.1-0.1,4.1-0.3,6.2-0.6c0.5-0.1,0.9-0.1,1.3-0.2c0.8-0.1,1.7-0.3,2.7-0.4
		c2.9-0.6,5.9-0.9,8.9-0.8c-0.2,1.2,0.5,2.4,1.6,3c0.5,0.3,1.2,0.5,1.8,0.5c0.6,0,1.3-0.2,1.8-0.5c0.8-0.5,1.4-1.3,1.7-2.1
		c0.3,0.1,0.6,0.1,0.9,0c0.5-0.3,0.8-0.9,0.5-1.4c0,0,0,0,0,0c-0.4-0.9-1-1.6-1.8-2.1c-0.3-0.4-0.8-0.7-1.3-0.9
		c-0.4-0.2-0.9,0-1.2,0.3c0,0-0.1,0-0.1,0c-1,0.1-2,0.6-2.8,1.3c-0.1,0-0.1,0-0.2-0.1c-2.9-0.5-6.8,0.1-10.2,0.7
		c-0.9,0.1-1.8,0.3-2.6,0.4c-0.4,0.1-0.8,0.1-1.3,0.2c-2.7,0.4-7.9,1.2-9.5-0.2c-0.3-0.3-0.7-0.3-1.1-0.2c-0.7-0.5-1.3-1-2-1.5
		c-0.1-0.2-0.3-0.3-0.5-0.4c-2.7-2.1-5.4-4.3-8.1-6.6c1.9-0.1,3.7-0.3,5.5-0.6c3.8-0.6,7.7-0.7,11.5-0.5c1.1,0,2.2,0,3.3,0
		c0,0.3,0.1,0.7,0.2,1c0.6,2,2.4,3.3,4.5,3.3c1.9,0,3.5-1.5,3.7-3.4c0.4-2.7-1-6.3-3.5-6.8c-0.6-0.1-1.2,0.3-1.3,0.9
		c-0.1,0.6,0.3,1.2,0.9,1.3l0,0c0.2,0,0.4,0.2,0.6,0.3c-1.2-0.6-2.6-0.3-3.6,0.6c-0.2,0.2-0.4,0.4-0.6,0.7c-0.1,0-0.1,0-0.2,0
		c-1.2,0-2.5,0-3.7-0.1c-4-0.2-8,0-11.9,0.6c-2.6,0.6-5.3,0.7-7.9,0.4c-5.3-4.6-10.2-9.7-14.7-15.1c1.2,0.1,2.3,0.2,3.4,0.3
		c1.6,0.1,3.2,0.3,4.8,0.5c1.6,0.2,3.3,0.3,4.9,0.2c2.4,0,4.9-0.1,6.6,0.6c0.1,0,0.2,0,0.3,0c0.3,1.2,1.1,2.2,2,2.8
		c0.5,0.3,1.1,0.4,1.7,0.4c0.8,0,1.6-0.3,2.2-0.9c1.3-1.5,1.6-3.5,0.8-5.3c-0.4-0.9-1.1-1.6-2-1.9c-0.5-0.4-1-0.7-1.6-0.9
		c-1.3-0.3-2.8,0.3-3.4,1.5c-0.3,0.6-0.5,1.3-0.4,2c-2.1-0.4-4.2-0.5-6.3-0.4c-1.5,0.1-3,0-4.5-0.2c-1.6-0.3-3.3-0.4-4.9-0.5
		c-1.7-0.1-3.5-0.3-5.1-0.6c-0.1,0-0.3,0-0.4,0c-2.2-2.8-4.2-5.7-6-8.7c1.1,0.3,2.2,0.4,3.2,0.4c1.8,0,3.6-0.2,5.3-0.6
		c2.3-0.5,4.6-0.6,7-0.3c0.1,0.3,0.2,0.5,0.4,0.8c0.4,1,1.3,1.6,2.3,1.8c0.1,0,0.2,0,0.2,0c1.1,0,2-0.7,2.5-1.6
		c0.9-1.5,0.9-3.3,0-4.8c-0.4-0.6-1.1-1-1.8-1c-0.2-0.1-0.4-0.1-0.6-0.2c-1.3-0.3-2.7,0.4-3.3,1.6c-0.1,0.3-0.2,0.7-0.2,1
		c-2.3-0.2-4.6,0-6.9,0.4c-3.3,0.5-6.4,1-9.1-0.3c-0.2-0.1-0.4-0.1-0.6-0.1c0-0.1-0.1-0.2-0.2-0.2c-0.1-0.2-0.2-0.3-0.3-0.5
		c-0.6-1-1.1-2.1-1.7-3.1c-1.8-3.3-3.7-6.7-5.3-10.2c1.4,0.5,2.8,1,4.2,1.4c1.2,0.3,2.5,0.5,3.7,0.5c1.8,0.1,3.7,0.3,4.9,1.1
		c0.2,0.1,0.4,0.2,0.6,0.2c0,0,0,0,0,0c0.4,1,1.1,1.9,2,2.5c0.7,0.6,1.6,0.9,2.5,0.9c1.1,0,2.1-0.5,2.8-1.4c1.2-1.7,0.9-4-0.8-5.2
		c0,0-0.1-0.1-0.1-0.1c-0.3-0.3-0.8-0.3-1.2-0.1c-0.3-0.2-0.7-0.3-1-0.4c-1.5-0.4-3.1,0.3-3.9,1.6c-1.8-0.8-3.6-1.2-5.6-1.2
		c-1.1-0.1-2.3-0.2-3.4-0.4c-2.1-0.5-4.1-1.3-6-2.3c-0.3-0.8-0.6-1.5-0.8-2.3c0-0.2-0.1-0.5-0.2-0.6c-0.7-2.4-1.2-4.8-1.4-7.3
		c3,0.3,5.9,0.6,8.9,0.8c2,0.9,4.1,1.7,6.3,2.2c2.8,0.7,5.5,1.8,7.9,3.2c3.7,2.3,6,5,8.7,8.1c0.9,1.1,1.9,2.2,3,3.4
		c0,0,0.1,0,0.1,0.1c-0.1,0.4-0.2,0.8-0.3,1.2c-0.4,2.3,1.1,4.5,3.4,5c0.2,0,0.5,0.1,0.7,0.1c0.7,0,1.4-0.3,1.9-0.8
		c1-1.2,1.4-2.8,1-4.3c0-0.2,0-0.5-0.1-0.7c0-0.1-0.1-0.1-0.1-0.2c0-0.1-0.1-0.2-0.1-0.3c-0.4-1.4-1.7-2.4-3.2-2.5
		c-0.1,0-0.2,0-0.3,0c-0.2,0-0.3,0-0.5,0c-0.4,0.1-0.9,0.3-1.2,0.6c-0.9-1-1.8-2-2.6-3c-2.6-3.1-5.1-6-9.2-8.5
		c-2-1.2-4.1-2.1-6.4-2.8c0.3,0,0.7,0.1,1,0.1c3.2,0.3,6.5,0.6,9.8,0.9c2.3,1.6,4.7,3,7.1,4.3c5.4,3.1,10.6,5.9,13.8,11.9
		c-0.2,0.3-0.3,0.6-0.4,0.9c-0.5,1.7,0.2,3.6,1.8,4.5c0.6,0.5,1.4,0.7,2.2,0.7c0.6,0,1.2-0.2,1.7-0.6c1.2-1.1,1.7-2.8,1.2-4.4
		c-0.1-0.2-0.2-0.5-0.3-0.7c-1-2.4-2.6-2.6-3.2-2.5c-0.4,0-0.9,0.2-1.3,0.4c-3.5-6.1-8.7-9.1-14.3-12.2c-1.2-0.6-2.3-1.3-3.5-2
		c4,0.4,8,0.8,12,1.2c7.5,2,15,8.2,18.7,15.5c-0.8,0.7-1.2,1.7-1.3,2.7c0,1.7,1,3.3,2.6,3.9c0.7,0.4,1.4,0.6,2.2,0.6
		c0.8,0,1.6-0.3,2.3-0.8c1.4-1.1,2.1-2.8,1.8-4.6c-0.2-1.2-1.1-2.3-2.3-2.6c-0.2-0.1-0.5-0.1-0.7,0c-0.8-0.4-1.8-0.5-2.7-0.3
		c-3-5.7-7.5-10.3-13-13.6c3.4,0.4,6.8,0.8,10.2,1.3c2.1,1.8,4.4,3.4,6.8,4.7c5.4,3.1,10.9,6.3,10.1,10.9c-1,0.1-1.9,0.7-2.5,1.5
		c-0.4,0.6-1.2,2.4,0.6,4.8c0.7,1,1.8,1.6,3,1.6c0.8,0,1.5-0.2,2.1-0.7c1.7-1.3,2.1-3.7,0.8-5.4c0,0,0-0.1-0.1-0.1
		c-0.1-0.1-0.1-0.2-0.2-0.2c-0.4-0.6-1-1-1.6-1.3c0.9-6-5.5-9.7-11.2-13c-1.3-0.7-2.5-1.5-3.7-2.2c1.2,0.2,2.4,0.3,3.6,0.5
		c2.3,0.3,4.5,0.7,6.8,1.2c0.1,0.3,0.4,0.5,0.7,0.5c3.8,1.1,9.1,6.2,11.2,10.3c-0.9,0.1-2.4,0.5-3.1,2.9c-0.7,2.4,1.1,4.6,3.3,5.3
		c0.5,0.2,1,0.2,1.5,0.2c1.3,0,2.6-0.7,3.1-1.9c0.6,0.1,1.2-0.2,1.3-0.8c0-0.2,0-0.3,0-0.5c-0.6-1.8-1.8-3.4-3.4-4.4
		c-1.1-3.5-4.6-7.6-8.2-10.3c2.5,0.6,5,1.2,7.5,1.8c0.1,0.1,0.2,0.2,0.4,0.3c3.7,1.6,9.7,8.2,8.9,13c-0.3,0-0.5-0.1-0.8,0
		c-1.9,0.1-3.3,1.6-3.3,3.4c-0.2,1.6,0.6,3.2,2,4c0.9,0.5,1.8,0.8,2.8,0.8c0.7,0,1.4-0.2,2.1-0.5c0.8-0.5,1.3-1.3,1.3-2.2
		c0.4-0.2,0.6-0.7,0.5-1.1c-0.3-1.5-1.2-2.8-2.6-3.6c0.9-4.2-1.9-9.1-5.3-12.4c2.8,0.8,5.6,1.7,8.3,2.7c0.1,0.1,0.1,0.3,0.3,0.4
		c3.3,3.1,6.9,9.8,5.6,15c-2.2-0.3-4,0.6-4.6,2.4c-0.7,2.2-0.1,3.4,0.6,4.1c0.9,0.7,2,1.1,3.2,1c1.4,0,2.8-0.3,4.2-0.8
		c0.5-0.4,1-0.9,1.5-1.4c0.4-2.1-1-3.8-2.8-4.7c1.3-4.9-1-10.6-3.8-14.5c2.2,0.8,4.3,1.7,6.4,2.6c1.8,2.1,2.6,4.9,3.3,7.7
		c0.5,2.2,1.2,4.2,2.2,6.2c-0.4,0.4-0.6,0.9-0.8,1.4c-0.8,1.9,0.3,5.7,2.3,6.8c0.3,0.2,0.7,0.3,1.1,0.3c1-0.1,1.9-0.6,2.3-1.5
		c0.4-0.5,0.3-1.2-0.2-1.5c-0.5-0.4-1.2-0.3-1.5,0.2c0,0-0.1,0.1-0.1,0.1c-0.1,0.2-0.4,0.6-0.6,0.5c-0.9-0.5-1.7-3-1.3-4.1
		c0.1-0.1,0.1-0.3,0.2-0.4c0.4,0.3,0.9,0.2,1.3-0.1c0.1-0.1,0.2-0.3,0.3-0.5c1.3,0.9,2.1,2.4,2,4c0,0.6,0.4,1.1,1,1.2
		c0.6,0,1.1-0.4,1.2-1c0,0,0,0,0-0.1c0.2-2.8-1.8-5.8-4.2-6.4c-0.4-0.1-0.8-0.1-1.1,0c-0.9-1.8-1.5-3.7-2-5.6
		c-0.4-1.9-1-3.8-1.8-5.6c2.2,1,4.4,2.1,6.5,3.2c-0.1,0.4,0.1,0.8,0.5,1.1c4.4,2.9,6.2,9,6.5,14.3c-0.2-0.1-0.4-0.1-0.6-0.1
		c-0.9,0-2.5,0.3-3.1,3.1c-0.5,1.8,0.4,3.6,2.1,4.3c0.7,0.3,1.5,0.5,2.4,0.5c1,0,1.9-0.3,2.8-0.8c0.3,0.5,1,0.7,1.5,0.4
		c0.4-0.2,0.6-0.7,0.5-1.1c-0.5-2-1.6-3.7-3.2-5c0-2.3-0.4-8.8-3.9-13.7c2.4,1.3,4.8,2.7,7.1,4.2c0.1,0.1,0.3,0.2,0.4,0.3
		c1.9,3.6,3.2,9.3,2.4,13.4c-0.2,0-0.4,0.1-0.5,0.1c-2,0.7-2.6,2.5-1.8,5.3c0.9,3.3,2.7,3.9,3.6,3.9h0.1c1.4-0.1,2.6-1,2.9-2.4
		c0.1-0.4,0.1-0.9-0.1-1.3l0.1,0.1c0.4,0.4,1.1,0.4,1.5,0c0.4-0.4,0.4-1.1,0-1.5c-0.4-0.4-0.7-0.8-1-1.2c-0.7-1-1.6-1.9-2.6-2.6
		c0.5-3.9,0.1-7.9-1.3-11.6c2.3,1.5,4.6,3.1,6.8,4.7c-0.1,0.3,0.1,0.7,0.3,0.9c2.8,2.7,4.2,8.1,3.5,12.7c-0.2-0.1-0.5-0.1-0.8-0.2
		c-0.6,0-2.7,0.1-3,3.5c-0.2,2.1,1.4,4.9,3.6,5.9c0.5,0.3,1.1,0.4,1.7,0.4c0.9,0,1.7-0.4,2.3-1c0.4-0.4,0.4-1.1,0-1.5l0,0
		c0.2-0.2,0.4-0.5,0.4-0.8c0-1.9-0.8-3.7-2.1-5c0.8-3.9,0.3-8-1.3-11.6c2.6,1.9,5.2,3.9,7.7,6c2.8,4,2.8,10,2.8,15
		c-1.3,0-2.4,0.8-2.9,2c-0.9,1.9,0.2,4.3,1.8,5.4c0.6,0.4,1.4,0.7,2.1,0.7c0.9,0,1.7-0.4,2.3-1c0.5,0.4,1.2,0.3,1.5-0.2
		c0.1-0.2,0.2-0.4,0.2-0.6c0.2-1.9-1.2-4.3-3-5.5v-0.7c0-3.8,0-8.1-1.2-12c2.5,2,4.9,4,7.4,6.1c4.2,5.1,5.1,9.1,5.2,15.8
		c-2-0.2-3.9,1.2-4.1,3.3c0,0.1,0,0.1,0,0.2c-0.3,2.6,1.6,4,3.6,4.4c0.3,0.1,0.6,0.1,0.9,0.1c1.4,0.1,2.7-0.6,3.4-1.7
		c0.3-0.2,0.5-0.5,0.6-0.8c0.2-1.8-0.6-3.6-2.1-4.6c0-4.9-0.5-8.6-2-12.1l0.2,0.2c4,3.4,8.2,6.9,12.3,10.3c0,0,0.1,0.1,0.1,0.1
		c-0.3,1.1,0,2.3,0.8,3.1c0.7,0.8,1.7,1.2,2.8,1.2c0.4,0,0.8-0.1,1.2-0.2c0.9-0.2,1.7-0.7,2.3-1.4c0.4-0.2,0.7-0.6,0.7-1v-0.1
		c0.1-0.1,0.1-0.3,0.1-0.4c0.2-0.8,0-1.6-0.5-2.2c-0.3-1.1-1.2-1.9-2.2-2.3c-1.5-0.3-3.1,0.2-4.1,1.4c-4.1-3.3-8.2-6.8-12.1-10.1
		c-1.8-1.5-3.6-3-5.5-4.6l0,0c0,0-0.1,0-0.1-0.1c8.1,0.2,12.7,1.6,20.4,5c0.1,0.1,0.3,0.1,0.4,0.1c0.1,0.7,0.4,1.4,0.8,2.1
		c1,1.7,2.2,2.1,3,2.1c0.3,0,0.5,0,0.8-0.1c1.4-0.6,2.4-1.9,2.8-3.4c0,0,0.1,0,0.1,0C1466.3,436.9,1466.6,436.3,1466.5,435.7z
		 M1453.1,421.8c0.2-0.1,0.4-0.2,0.6-0.2c0.3,0,0.6,0.1,0.9,0.2c0.6,0.3,1.1,0.8,1.4,1.4c-0.2,0.5-0.7,0.9-1.2,1.1
		c-0.7,0.1-1.3-0.8-1.6-1.4C1453,422.4,1452.9,422,1453.1,421.8L1453.1,421.8z M1439.3,406.3c0.2-0.1,0.5-0.2,0.8-0.2
		c0.6,0,1.1,0.2,1.6,0.5c0.5,0.3,1,0.8,1.3,1.3c-0.1,0.2-0.2,0.3-0.3,0.5c-0.9,1.1-2.2,1.8-2.9,1.6c-0.5-0.1-0.8-0.9-0.9-1.6
		C1438.8,407.8,1438.7,406.7,1439.3,406.3z M1424.5,396.9c0.4-0.4,0.9-0.5,1.5-0.5c0.5,0,1,0.1,1.5,0.3c1.4,0.5,2.4,1.9,2.3,3.4
		c-0.3,0.2-0.6,0.3-0.9,0.4c-1.3,0.6-2.8,0.3-3.8-0.7c0-0.2,0-0.3,0-0.5c-0.1-0.3-0.3-0.6-0.6-0.7
		C1424.1,398.1,1424.2,397.4,1424.5,396.9L1424.5,396.9z M1409,388.8c0.3-0.2,0.6-0.3,1-0.3c0.5,0,0.9,0.1,1.4,0.4
		c0.1,0.1,0.2,0.1,0.3,0.2c-0.2,0.5,0,1.1,0.5,1.4c0.2,0.1,0.2,0.2,0.2,0.5c-0.3,0.8-1,1.4-1.8,1.5c-0.9,0-1.3-1-1.6-1.8
		C1408.6,390,1408.5,389.2,1409,388.8L1409,388.8z M1398.3,381.4c0.1,0,0.2,0,0.3,0c0.8,0,1.6,0.4,2.2,0.9c-0.5,2.1-2.5,4.4-3.5,4.4
		l0,0c-0.2,0-0.4-0.3-0.6-0.8c0.2-0.4,0.1-0.9-0.2-1.2c0-0.1,0-0.1,0-0.1C1396.3,382.7,1397,381.6,1398.3,381.4L1398.3,381.4z
		 M1386.1,375.9c0.2,0,0.3-0.1,0.5-0.1c0.3,0,0.6,0,0.9,0.1c0.2,1,0,2-0.5,3c-0.2,0.3-0.4,0.4-0.9,0.3c-0.7-0.2-1.2-1-1.2-1.7
		C1385,376.7,1385.5,376.1,1386.1,375.9L1386.1,375.9z M1373,373.5c0.2,0.1,0.3,0.2,0.5,0.2c0.1,0,0.1,0,0.2,0
		c-0.2,0.4-0.5,0.7-0.9,0.8c-0.3,0.1-0.6,0-0.8-0.2c-0.1-0.1-0.2-0.2-0.2-0.3C1372.2,373.7,1372.6,373.5,1373,373.5L1373,373.5z
		 M1359.5,371.9c0.4-0.4,1-0.6,1.6-0.6c0.1,0,0.3,0,0.4,0c0.4,0,0.9,0.2,1.3,0.3c0,0.4-0.1,0.9-0.3,1.2c-0.3,0.7-0.9,1.2-1.3,1.2
		c-0.4-0.1-0.8-0.3-1-0.6c0-0.2,0.1-0.3,0-0.5c-0.1-0.4-0.4-0.7-0.7-0.8C1359.4,372.2,1359.5,372,1359.5,371.9L1359.5,371.9z
		 M1366.9,366.2c0.4-0.5,1.1-0.7,1.7-0.7c0.2,0,0.4,0,0.5,0.1c0.4,0.1,0.5,0.3,0.5,0.7c0,0.3,0.1,0.6,0.3,0.8
		c-0.2,0.2-0.5,0.3-0.7,0.4c-0.7,0.3-1.5,0.1-2-0.5C1366.7,366.5,1366.8,366.3,1366.9,366.2L1366.9,366.2z M1379.9,355.4
		c0.4,0.1,0.7,0.4,0.9,0.8c-0.6,0.6-1.2,1.1-2,1.4c-0.4,0.2-1.5,0.5-2.1-0.1c-0.2-0.2-0.3-0.3-0.1-0.7c0.7-0.9,1.7-1.5,2.9-1.6
		C1379.6,355.4,1379.8,355.4,1379.9,355.4L1379.9,355.4z M1394.1,344.9c0.2,0,0.4,0,0.6,0.1c0.3,0.1,0.6,0.2,0.5,1
		c0,0.2,0,0.3,0,0.5c-0.1,0.1-0.2,0.2-0.3,0.3c-0.8,0.8-1.9,1-2.9,0.4c-0.2-0.1-1.1-0.6-0.9-0.9
		C1391.3,345.7,1392.9,344.9,1394.1,344.9L1394.1,344.9z M1419.7,336.3c0.3,0.1,0.6,0.2,0.8,0.4v0c-0.1,0.5-0.5,0.9-1,1
		c-0.7,0.2-1.4,0-1.9-0.5c-0.4-0.4-0.4-0.6-0.4-0.6C1417.9,336.1,1418.8,336,1419.7,336.3L1419.7,336.3z M1447.3,335L1447.3,335
		c0.2,0.3,0.5,0.5,0.9,0.5c0.1,0,0.2,0,0.2,0c0.2,0.4,0.3,0.9,0.2,1.3c-0.1,0.6,0.2,1.2,0.8,1.3c0,0,0,0,0,0l0,0
		c0,0.7-0.3,1.4-0.8,1.9c-0.2,0.2-0.7,0.6-2,0.1c-0.8-0.5-1.2-1.4-1.2-2.3c0-0.3,0-0.5,0-0.8c0.6-0.1,0.9-0.7,0.8-1.3
		c0-0.1-0.1-0.3-0.2-0.4c0-0.1,0.1-0.1,0.1-0.2C1446.5,335.2,1446.9,335,1447.3,335L1447.3,335z M1459.1,322.7L1459.1,322.7
		c1.2,0,2.2,0.8,2.6,1.9c0,0.9-0.4,1.7-1,2.3c-0.6,0.4-1.8-0.6-2.2-1c-0.8-0.8-1.2-1.6-1-2.2C1457.8,323,1458.4,322.7,1459.1,322.7
		L1459.1,322.7z M1442.9,306.9c0,0.4-0.1,0.8-0.4,1c-0.5,0.3-1.1,0.3-1.6,0.1c0.1-0.2,0.2-0.4,0.2-0.5c0-0.6-0.5-1.1-1.1-1.1
		c0,0,0,0,0,0h-0.4c0-0.1,0-0.3,0-0.4C1440.7,305.7,1442,306.1,1442.9,306.9L1442.9,306.9z M1402.8,309.6c0.2-0.2,0.6-0.4,0.9-0.4
		c0.1,0,0.2,0,0.2,0c0,0.1-0.1,0.2-0.2,0.3c-0.3,0.4-0.7,0.6-1.2,0.7C1402.5,310,1402.6,309.8,1402.8,309.6L1402.8,309.6z
		 M1379.1,318.5c0.1,0,0.2,0,0.2,0c0.9,0,1.8,0.6,2.1,1.5c-0.5,0.5-1.1,0.8-1.7,1c-0.6,0.2-1.2,0.2-1.8,0c0.3-0.5,0.1-1.1-0.4-1.4
		c-0.1-0.1-0.3-0.1-0.5-0.1l0,0C1377.5,318.9,1378.3,318.5,1379.1,318.5L1379.1,318.5z M1360.3,332.5c0.4-0.6,1.1-1,1.9-1.1
		c0,0,0.1,0,0.1,0c0,0.1,0,0.3,0,0.4c-0.1,0.6,0.3,1.2,0.9,1.2c0,0,0,0,0,0c0.1,0,0.1,0,0.2,0c-0.4,0.3-0.8,0.6-1.3,0.7
		c-0.3-0.2-0.6-0.2-0.9-0.1c-0.1,0-0.2-0.1-0.3-0.1C1359.9,333,1360.1,332.7,1360.3,332.5L1360.3,332.5z M1343.6,340.2
		c0.3-0.9,0.8-1.3,0.9-1.3c0,0,0.1,0,0.3,0.2c0,0.3,0.1,0.6,0.4,0.8c0.1,0,0.1,0.1,0.2,0.1c0.1,0.3,0.2,0.6,0.3,0.9
		c0,0.1,0.1,0.2,0.1,0.3c0,0.3-0.2,0.5-0.3,0.7c0,0-0.1,0.1-0.1,0.1c-0.4-0.2-1-0.1-1.3,0.4c-0.1,0-0.2-0.1-0.3-0.2
		C1343.3,342,1343.3,341,1343.6,340.2L1343.6,340.2z M1327.8,370.8c-0.2,0.2-0.3,0.4-0.5,0.5c-0.5,0.5-1.3,0.6-1.9,0.2
		c-0.3-0.2-0.6-0.5-0.9-0.8C1325.6,370.4,1326.7,370.4,1327.8,370.8z M1312.4,364.8c0.4-0.5,1.1-0.7,1.7-0.7c0.2,0,0.3,0,0.5,0
		l0.1,0c0,0,0.1,0.1,0.1,0.1c0.2,0.3,0.5,0.4,0.9,0.4c0,0.7-0.4,1.4-1,1.7c-0.3,0.2-0.7,0.3-1.1,0.2c-0.2-0.3-0.5-0.5-0.8-0.6
		c-0.1-0.1-0.1-0.2-0.2-0.3C1312.1,365.2,1312.3,364.9,1312.4,364.8z M1296.2,363.4c0.6-0.7,1.4-1,2.3-0.9c0.1,0,0.3,0.1,0.4,0.1
		c-0.1,0.1-0.2,0.3-0.2,0.4c-0.1,0.4,0,0.9,0.3,1.2c-0.5,0.3-1,0.5-1.6,0.6h0c-0.1-0.1-0.1-0.2-0.2-0.3c-0.2-0.2-0.6-0.3-0.9-0.3
		C1296.1,363.9,1296,363.6,1296.2,363.4L1296.2,363.4z M1213.5,349.4c0.2,0,0.3,0,0.5,0c0.2,0,0.4,0.1,0.5,0.2
		c0.1,0.8-0.2,1.6-0.7,2.2c-0.6,0.7-1.6,0.8-2.5,0.4c-0.4-0.2-1.3-0.6-1.2-1.1c0.2-0.4,0.5-0.8,0.9-1l0,0
		C1211.8,349.7,1212.6,349.4,1213.5,349.4L1213.5,349.4z M1222.3,339.6c0.1,0,0.2,0,0.3,0c0.3,0,0.5,0.4,0.6,0.7
		c0.3,0.7,0.2,1.6-0.3,2.2c-0.4,0.3-1,0-1.4-0.2c-0.8-0.5-1.6-1.1-1.3-1.6C1220.6,340,1221.4,339.6,1222.3,339.6L1222.3,339.6z
		 M1234.7,331.4c0.2,0,0.4,0,0.6,0c0.1,0.1,0.2,0.2,0.3,0.4c0.4,0.9,0.4,1.9-0.2,2.7c-0.4,0.4-1,0.6-1.5,0.3
		c-0.7-0.3-1.1-0.9-1.2-1.6c-0.1-0.5,0.1-1,0.5-1.4C1233.6,331.5,1234.2,331.3,1234.7,331.4L1234.7,331.4z M1245.3,322.1
		c0.4,0.1,0.8,0.3,1,0.7c0,0.2,0,0.3,0,0.5c-0.3,0.9-1.1,1.7-2,1.9c-0.5,0.1-1-0.1-1.3-0.5c-0.8-1-0.4-1.5-0.3-1.7
		c0.5-0.6,1.3-1,2.1-1C1245,322.1,1245.1,322.1,1245.3,322.1L1245.3,322.1z M1247.9,313c0.2,0,0.3-0.1,0.5-0.1
		c0.5,0,0.8,0.3,1.4,1.3c-0.3,0.9-1,1.6-1.8,2.1c-0.3,0.1-0.8,0.3-1.4-0.8c-0.2-0.5-0.2-1,0.1-1.4
		C1246.9,313.5,1247.4,313.1,1247.9,313L1247.9,313z M1257.2,305.1c0.4,0,0.7,0.1,1.1,0.2c-0.1,0.3-0.1,0.5,0,0.8
		c0.4,0.7,0.3,1.6-0.4,2.1c-0.5,0.3-1.2-0.1-1.8-0.9c-0.3-0.4-0.7-1.1-0.3-1.6C1256.2,305.2,1256.7,305,1257.2,305.1L1257.2,305.1z
		 M1269.4,295.3c0.3-0.3,0.6-0.4,1-0.4c0.2,0,0.4,0,0.7,0.1c0,0.2,0.1,0.4,0.2,0.6c0.3,0.4,0.3,1,0.1,1.4c-0.2,0.4-0.5,0.7-0.9,0.8
		c-0.4,0-0.8-0.6-0.9-0.8C1269.3,296.6,1269,295.8,1269.4,295.3L1269.4,295.3z M1278.4,285.9c0.4-0.4,0.9-0.6,1.5-0.6
		c0.2,0,0.4,0,0.6,0.1c0.3,0.1,0.6,0.4,0.6,0.7c0,0.1,0,0.1,0,0.2c-0.2,0.7-0.8,1.2-1.5,1.4c-0.2,0-0.7,0.1-1.2-0.8
		C1278.1,286.3,1278.3,286,1278.4,285.9L1278.4,285.9z M1286.3,277.8c0.4-0.4,1-0.6,1.6-0.6h0c-0.2,0.5,0,1,0.5,1.3
		c0.6,0.3,0.5,0.7,0.5,0.8c-0.1,0.4-0.4,0.8-0.9,0.9c-0.6,0.1-1.1-0.4-1.4-0.9C1286.3,278.9,1286,278.3,1286.3,277.8L1286.3,277.8z
		 M1299.7,269.9c0.4-0.3,0.8-0.4,1.2-0.4h0c-0.4,0.4-0.4,1.1,0,1.5c0.1,0.1,0.2,0.2,0.3,0.2c-0.1,0.6-0.4,1.1-0.7,1.6
		c-0.2,0.2-0.4,0.5-0.6,0.6c0,0-0.3-0.2-0.7-1.3C1299,271.4,1299.1,270.5,1299.7,269.9L1299.7,269.9z M1305.6,262.6
		c0.1-0.7,0.3-1.3,0.7-1.8c0.2,0.3,0.4,0.5,0.8,0.5c0.5,0.1,0.8,0.6,0.9,1.1c0.3,1,0.1,2-0.5,2.8c-0.1,0.1-0.4,0.3-1,0
		C1305.6,264.8,1305.5,263.6,1305.6,262.6L1305.6,262.6z M1287.9,243.7c0,0.5-0.4,1-0.9,1.2c-0.1,0-0.2,0-0.3-0.3
		c-0.2-0.4-0.2-0.9,0.1-1.3c0.3-0.4,0.7-0.6,1.1-0.6c0,0,0.1,0,0.1,0c0.1,0,0.3,0.1,0.4,0.2C1288.1,243.1,1288,243.4,1287.9,243.7
		L1287.9,243.7z M1267.3,260.1c-0.5,0.4-1.2,0.5-1.7,0.1c-0.4-0.4-0.4-1-0.1-1.5c0.3-0.6,0.7-1,1.3-1.4c0.1,0.1,0.1,0.3,0.1,0.4
		c0.2,0.5,0.3,1.1,0.3,1.7C1267.6,259.9,1267.5,260,1267.3,260.1L1267.3,260.1z M1256.8,270.6c-0.5-0.8-0.6-1.8-0.4-2.7
		c0-0.3,0.1-0.7,0.3-1c0,0.1,0,0.2,0,0.2c0,0.6,0.4,1.1,1,1.2c0.4,0,0.4,0.1,0.4,0.2c0.1,0.7-0.2,1.3-0.7,1.8
		C1257.2,270.4,1257,270.6,1256.8,270.6L1256.8,270.6z M1247.9,277.4c-0.1-0.1-0.1-0.1,0-0.4c0.4-0.7,1-1.2,1.8-1.3c0,0,0.1,0,0.1,0
		h0c0,0.2,0.1,0.3,0.2,0.5c0.2,0.4-0.4,0.9-0.5,0.9C1249,277.6,1248.2,277.8,1247.9,277.4L1247.9,277.4z M1237.9,288.7
		c-0.5-0.7-0.2-1.1,0.1-1.3c0.4-0.2,0.8-0.4,1.2-0.3c0.5,0,1,0.2,1.4,0.5c-0.1,0.7-0.5,1.2-1.1,1.6c-0.5,0.3-1.2,0.2-1.5-0.3
		C1237.9,288.8,1237.9,288.8,1237.9,288.7L1237.9,288.7z M1229,293.2c-0.3-0.1-0.5-0.6-0.5-1.2c-0.1-0.7,0.2-1.4,0.8-1.8
		c0.2-0.1,0.4-0.2,0.6-0.2c0.2,0,0.4,0.1,0.6,0.2c0.1,0.1,0.2,0.1,0.3,0.2c-0.2,0.3-0.3,0.6-0.3,0.9c0.2,0.6,0,1.2-0.5,1.6
		C1229.7,293.2,1229.4,293.3,1229,293.2L1229,293.2z M1218.8,301.2c-0.3-0.3-0.4-0.8-0.2-1.1c0.3-0.5,0.8-0.8,1.4-0.8
		c0.1,0,0.1,0,0.2,0c0.1,0,0.4,0.1,0.5,0.7c-0.2,0-0.3,0-0.5,0.1c-0.5,0.3-0.7,0.9-0.4,1.4C1219.4,301.6,1219.2,301.7,1218.8,301.2
		L1218.8,301.2z M1210,313.3c-0.7,0.4-1.4-0.5-1.7-1c-0.6-0.8-0.7-1.9-0.1-2.8c0.3-0.4,0.7-0.6,1.2-0.6c0.1,0,0.2,0,0.3,0
		c0.4,0.1,0.7,0.4,0.9,0.8c-0.1,0.2,0,0.5,0.1,0.7C1211.2,311.4,1210.9,312.6,1210,313.3L1210,313.3z M1200,324.4
		c-0.1-0.1-0.3-0.6,0-1.7c0.1-0.4,0.2-0.8,0.4-1.2c0,0,0.1,0,0.1,0c-0.2,0.2-0.3,0.6-0.2,0.9C1200.5,323.1,1200.3,323.8,1200,324.4z
		 M1188.9,329.8c-0.3-0.5,0.1-1.2,0.3-1.4c0.5-0.8,1.3-1.4,2.3-1.6c0.1,0,0.1,0,0.2,0c0.5,0.1,0.7,1.1,0.7,1.5c0,0.1,0,0.2,0.1,0.4
		c-0.1,0.2-0.2,0.3-0.4,0.5c-0.2-0.2-0.5-0.4-0.8-0.4l0,0c-0.6,0-1.1,0.5-1.1,1.1v0.2C1189.7,330.2,1189.3,330.1,1188.9,329.8
		L1188.9,329.8z M1260.9,407.4c-0.4,0.4-1.1,0.6-1.6,0.4c-1.1-0.2-2.3-0.6-2.4-1.7c0.1-1.2,0.9-2.2,2-2.6c0.1,0.3,0.4,0.6,0.7,0.7
		c0.1,0,0.2,0,0.3,0c0.2,0,0.3,0,0.5-0.1c0.1,0.1,0.1,0.2,0.2,0.3c0.1,0.2,0.3,0.4,0.5,0.5C1261.4,405.7,1261.3,406.6,1260.9,407.4
		L1260.9,407.4z M1273.2,428.8c-0.5,0.6-1.3,0.8-2,0.4c-0.8-0.3-1.3-1.1-1.1-1.9c0.2-1.2,0.8-2.3,1.8-3.1c0.2,0.6,0.7,1,1.3,1.1
		c0.1,0,0.2,0,0.3-0.1c0.1,0,0.2-0.1,0.2-0.1c0.1,0,0.1,0.1,0.1,0.2C1274.3,426.6,1274,427.9,1273.2,428.8L1273.2,428.8z
		 M1284.6,442.5c0.4,0.9,0.3,1.9-0.3,2.7c-0.5,0.8-1.4,1.2-2.2,1c-1.7-0.3-1.6-1-1.6-1.3c0.3-1.1,1-2,1.9-2.6
		c0.2,0.3,0.5,0.5,0.9,0.5c0.1,0,0.1,0,0.2,0c0.3-0.1,0.6-0.3,0.8-0.6C1284.4,442.3,1284.5,442.3,1284.6,442.5L1284.6,442.5z
		 M1300.2,455.2c-0.1,1.3-0.8,2.4-1.9,3c-0.5,0.4-1.2,0.4-1.7,0.1c-0.2-0.1-0.7-0.5-0.4-1.5c0.2-0.6,0.6-1.2,1-1.7
		c0.5,0,1-0.4,1.1-0.9l0,0c0.3-0.2,0.7-0.4,1.1-0.4C1299.9,454,1300.2,454.6,1300.2,455.2L1300.2,455.2z M1314.4,474.6
		c-0.8,0.5-1.2,0.2-1.3,0.1c-0.7-0.5-0.6-1.5-0.5-2.1c0.3-1.6,1.5-2.9,2.2-3c0,0,0,0,0.1,0c0.3,0,0.5,0.2,0.8,0.7
		c0.3,0.5,0.9,0.7,1.5,0.4c0,0,0,0,0,0c0.1,0,0.1-0.1,0.2-0.1C1316.7,472.2,1315.7,473.6,1314.4,474.6L1314.4,474.6z M1316.9,467.8
		c0.2,0.1,0.6,0.2,0.6,1.1c0,0.1,0,0.3,0,0.4l0,0c-0.3-0.5-0.7-1-1.1-1.4c0.1-0.1,0.1-0.3,0.2-0.4
		C1316.6,467.6,1316.7,467.7,1316.9,467.8L1316.9,467.8z M1342.5,478.8c0.4,0,0.4,0.6,0.4,1.1c0,0.5,0.4,1,0.9,1.1
		c-0.1,0.2-0.1,0.3-0.2,0.5c-0.3,0.4-0.8,0.5-1.3,0.4c-0.5-0.1-2.1-0.4-2-1.2C1340.6,479.6,1341.4,478.9,1342.5,478.8L1342.5,478.8z
		 M1364.1,475.8c0.2-0.9,0.5-1,0.7-1h0c0.3,0,0.6,0.2,0.9,0.4c-0.6-0.1-1.2,0.3-1.2,0.9c-0.1,0.4,0.1,0.8,0.4,1.1
		c0.6,0.4,0.7,0.8,0.7,0.8c-0.3,0.3-0.6,0.3-1,0.2C1363.6,477.9,1364,476.3,1364.1,475.8L1364.1,475.8z M1353.4,454.2
		c0.2-0.3,0.6-0.6,1-0.6c-0.2,0.4-0.1,0.9,0.3,1.2c0.3,0.3,0.5,0.8,0.3,1.2c0,0.2-0.2,0.4-0.4,0.5c-0.2,0-0.6-0.1-1-0.7
		C1353.1,455.4,1353.1,454.7,1353.4,454.2L1353.4,454.2z M1337.5,444.1c0.3-0.8,1.1-1.4,2-1.4c0.1,0,0.2,0,0.3,0
		c0.2,0,0.4,0,0.6,0.1c0,0.1,0,0.1,0,0.2c0,0.8-0.4,1.6-1,2c-0.4,0.3-0.9,0.3-1.3,0C1337.4,444.5,1337.4,444.2,1337.5,444.1
		L1337.5,444.1z M1323.8,431.9c0.3-0.2,0.6-0.4,0.9-0.4c0.1,0,0.2,0,0.3,0.1c0.7,0.6,1,1.4,0.9,2.3c0,0.5,0.2,0.9,0.6,1.1
		c-0.3,0.2-0.7,0.3-1.1,0.2c-1-0.1-1.8-0.8-2.1-1.8C1323.2,432.9,1323.4,432.3,1323.8,431.9L1323.8,431.9z M1304.9,415.2
		c0.1-0.2,0.3-0.4,0.5-0.5c0.2,0.5,0.6,0.7,1.1,0.7c0.2,0,0.3,0,0.5,0c0.6,0.6,0.9,1.4,1.1,2.2c0,0.2,0.1,0.4,0.2,0.6
		c-0.1,0.4-0.3,0.7-0.5,0.9c-0.2,0.2-0.6,0.5-1.5,0.1C1305.6,418.7,1304.6,415.8,1304.9,415.2L1304.9,415.2z M1292.7,402.7
		c0.1-0.2,0.3-0.4,0.5-0.5c0.2,0.2,0.5,0.3,0.8,0.3c0.3,0.3,0.5,0.7,0.4,1.1c0,0.3,0.1,0.6,0.3,0.8c-0.1,0.2-0.1,0.5-0.3,0.7
		c-0.1,0.3-0.4,0.6-0.7,0.5c-0.4-0.2-0.6-0.6-0.8-1C1292.7,404,1292.6,403.4,1292.7,402.7L1292.7,402.7z M1282.1,390.8
		c0.3-0.4,0.7-0.6,1.2-0.6c0.1,0,0.2,0,0.3,0c0.9,0.2,1,1.2,1,1.9c0,0.3,0.1,0.7,0.4,0.9c-0.6,0.2-1.2,0.1-1.7-0.4
		C1282.4,392,1281.9,391.3,1282.1,390.8z M1299.6,394.8c0.1-1,0.6-1.7,1-1.8c0,0,0,0,0.1,0c0.4,0,1,0.5,1.6,1.5
		c0.3,0.9,0.2,1.9-0.3,2.7c-0.3,0.2-0.7,0.2-1.3-0.1C1299.9,396.7,1299.4,395.7,1299.6,394.8L1299.6,394.8z M1315.5,394.6
		L1315.5,394.6c0,0.1,0,0.2,0,0.3c0,0.6,0.5,1.1,1.1,1.1l0,0c0,0,0.2,0,0.3,0.4c0.2,0.7,0.1,1.4-0.4,2c-0.3,0.3-0.9,0-1.3-0.3
		c-0.8-0.4-1.1-1.3-0.9-2.1C1314.4,395.3,1314.8,394.8,1315.5,394.6L1315.5,394.6z M1329.8,396.2c0.7,0,1.3,0.3,1.7,0.8
		c0.2,0.2,0.6,0.4,0.9,0.3l0,0.1c0.1,0.9-0.2,1.9-1,2.5c-0.7,0.4-1.5,0.4-2.2,0c-0.9-0.5-1.4-1.1-1.4-1.9c0.1-0.8,0.6-1.4,1.3-1.7
		C1329.4,396.3,1329.6,396.2,1329.8,396.2L1329.8,396.2z M1345.7,402c-0.1,0.4-0.3,0.7-0.6,0.9c-0.7,0.5-1.6,0.3-2-0.4
		c0,0-0.1-0.1-0.1-0.1c-0.7-0.9-0.9-1.7-0.5-2.3c0.3-0.4,0.8-0.6,1.3-0.6c0.2,0,0.3,0,0.5,0.1c0.9,0.3,1.5,1.2,1.5,2.2
		C1345.6,401.9,1345.6,401.9,1345.7,402L1345.7,402z M1355.5,400.3c-0.4,1.1-1.4,0.9-2,0.7c-1-0.3-2.3-1.4-1.9-2.6s0.9-1.3,1.2-1.3
		h0.1c0.2,0,0.4,0.1,0.6,0.1c0.2,0.4,0.6,0.6,1,0.6c0,0,0.1,0,0.1,0c0.6,0.5,1.2,1.1,1.6,1.8C1355.8,399.7,1355.6,400,1355.5,400.3
		L1355.5,400.3z M1365.8,405.9c0,0.2-0.1,0.3-0.2,0.4c-0.9,0.3-1.8,0.3-2.6-0.3c-0.7-0.4-1.1-1.2-1-2c0.1-1.3,0.8-1.4,1.2-1.5
		c0,0,0.1,0,0.1,0c1.4,0.1,2.6,1,3,2.3C1365.9,405.1,1365.7,405.5,1365.8,405.9L1365.8,405.9z M1377.4,411.6c-1.9,0.7-4.4,1-5.1,0.3
		c-0.4-0.4-0.2-1.2,0-1.8c0.3-0.7,1-1.1,1.7-1c0.3,0,0.7,0,1,0.1c1.3,0.3,2.6,1.3,2.6,2.4C1377.5,411.6,1377.4,411.6,1377.4,411.6
		L1377.4,411.6z M1399,420.6c0,0-0.1,0.1-0.1,0.1c-0.9,0.8-2.1,0.9-3.2,0.4c-0.8-0.3-1.2-1.1-0.9-1.8c0.2-0.6,0.4-1.4,0.9-1.4h0
		C1396.7,417.8,1398.1,419.2,1399,420.6L1399,420.6z M1408.4,426c-0.1,0-0.1-0.1-0.2-0.1c-0.5-0.3-1.2-0.1-1.5,0.5
		c-0.2,0.5-0.1,1,0.3,1.3c-0.2,0.3-0.4,0.5-0.8,0.6c-0.6,0.1-1.2-0.8-1.6-2.3c-0.5-1.9-0.2-2.4,0.2-2.6c0.2,0.2,0.5,0.4,0.8,0.4
		c0.2,0,0.4-0.1,0.6-0.2c0.6,0.5,1.1,1.1,1.6,1.8C1408,425.5,1408.2,425.7,1408.4,426L1408.4,426z M1418.6,435.3
		c-0.4,0.4-1,0.5-1.5,0.2c-1.4-0.7-2.3-2.1-2.4-3.7c0-0.3,0.2-1.6,0.7-1.6h0c0.1,0,0.3,0.1,0.4,0.1c0,0,0,0,0,0
		c-0.2,0.6,0.1,1.2,0.7,1.4c0,0,0,0,0,0c0.1,0,0.2,0.1,0.3,0.1c0.2,0,0.3,0,0.4-0.1c0.6,0.8,0.9,1.8,0.9,2.8
		C1418.3,434.7,1418.4,435,1418.6,435.3C1418.7,435.2,1418.6,435.2,1418.6,435.3L1418.6,435.3z M1429.5,444.3
		c-0.4,0.5-1.2,0.6-1.7,0.1c0,0,0,0-0.1-0.1c-0.9-0.6-1.3-1.6-1.1-2.6c0.3-0.7,0.6-0.8,0.9-0.8c0.1,0,0.2,0,0.3,0
		c1.2,0.6,2.2,1.7,2.6,3C1430.1,443.9,1429.7,444,1429.5,444.3L1429.5,444.3z M1443.1,453.8c-0.1,0.5-1.1,0.8-2.1,0.7
		c-1,0-1.8-0.9-1.8-1.8c0,0,0-0.1,0-0.1c0.2-1.3,1-1.6,1.6-1.6c0.1,0,0.2,0,0.2,0c0.1,0,0.3,0,0.4,0.1c0.2,0.3,0.5,0.5,0.9,0.5
		c0,0,0,0,0,0c0.6,0.4,0.9,1.1,1,1.8C1443.2,453.4,1443.1,453.6,1443.1,453.8L1443.1,453.8z M1456.4,448c0.4-0.7,1.2-1.2,2-1.3
		c0.1,0,0.2,0,0.3,0c0.2,0.1,0.4,0.2,0.5,0.4c0,0.3,0.1,0.7,0.4,0.9l0,0c0.1,0.3,0.1,0.7,0.1,1c-0.4,0.4-0.8,0.7-1.4,0.9
		c-0.7,0.2-1.4,0.1-1.9-0.4C1456,449.1,1456,448.4,1456.4,448L1456.4,448z M1462.1,438.4c-0.5,0.2-1-0.7-1.2-1
		c-0.7-1-0.7-2.2-0.1-3.2c0.3-0.5,0.8-0.7,1.3-0.8c0.1,0,0.1,0,0.2,0c0,0,0.1,0,0.1,0l0,0c-0.1,0.6,0.3,1.1,0.9,1.2c0,0,0,0,0,0
		c0.1,0,0.3,0,0.3,0.6C1463.7,436.4,1462.9,438.1,1462.1,438.4L1462.1,438.4z"/>
</g>
</svg>
