<svg xmlns="http://www.w3.org/2000/svg" width="57" height="57" viewBox="0 0 57 57">
  <path id="Exclusion_3" data-name="Exclusion 3" d="M28.5,57A28.508,28.508,0,0,1,17.406,2.24,28.508,28.508,0,0,1,39.594,54.761,28.323,28.323,0,0,1,28.5,57Zm3.1-21.554h0a2.707,2.707,0,0,0,.347.347l2.672,2.672a2.725,2.725,0,1,0,3.847-3.847l-2.672-2.672a2.681,2.681,0,0,0-.428-.347,9.237,9.237,0,0,0,1.176-4.435,9.362,9.362,0,0,0-9.352-9.352l-.027.027A9.352,9.352,0,1,0,31.6,35.447ZM27.137,33.9a6.68,6.68,0,1,1,0-13.359l.027-.027A6.733,6.733,0,0,1,32.08,31.786l-.08.08a2.707,2.707,0,0,0-.347.347A6.674,6.674,0,0,1,27.137,33.9Z" fill="#ffb11b"/>
</svg>
