<?xml version="1.0" encoding="utf-8"?>
<!-- Generator: Adobe Illustrator 25.1.0, SVG Export Plug-In . SVG Version: 6.00 Build 0)  -->
<svg version="1.1" id="Group_76" xmlns="http://www.w3.org/2000/svg" xmlns:xlink="http://www.w3.org/1999/xlink" x="0px" y="0px"
	 viewBox="0 0 584 545" style="enable-background:new 0 0 584 545;" xml:space="preserve">
<style type="text/css">
	.st0{fill:#353535;}
</style>
<path id="Path_10875" class="st0" d="M534.6,314.6c7.7,0,13.9,6.2,13.9,13.9s-6.2,13.9-13.9,13.9c-7.7,0-13.9-6.2-13.9-13.9
	c0,0,0,0,0,0C520.8,320.8,527,314.6,534.6,314.6z M527.5,333.4c3.6,3.3,9.8,5.8,13.9,1.6c3.4-3.5,3.8-8.9,1-12.9
	c-2.2-3-8.1-4.9-10.9-1.6c-2.4,2.8-0.7,9.2,3.8,8c0.4-0.1,0.7-0.6,0.6-1l0,0c-0.2-0.8-1.6-0.9-2.1-1.5c-1-1.2-1.5-3.1,0.2-3.9
	c2.8-1.1,5.9,0.3,7,3.1c0,0,0,0,0,0c1,2.8,0.5,6.9-2.5,8.5c-3.3,1.7-6.5-0.7-9.3-2.3C527.8,330.7,526.4,332.4,527.5,333.4
	L527.5,333.4z"/>
<g id="Group_51" transform="translate(472.218 301.727)">
	<path id="Path_10876" class="st0" d="M2.8,0.8l0,0.1C3,1.4,2.7,2,2.1,2.2C1.5,2.4,0.7,2.3,0.3,1.8c-0.3-0.4-0.3-0.9,0-1.3
		C0.7,0,1.5-0.1,2.1,0.1L0.8,0.9l0-0.1C1,0.2,1.5-0.1,2.1,0.1C2.4,0.2,2.7,0.4,2.8,0.8L2.8,0.8z"/>
</g>
<path id="Path_10877" class="st0" d="M3.8,253c1.5-1,3.3-2.8,3.4-4.4c2.1-20.2,4-40.4,6-60.5c0.3-3.4,0.8-6.8,1.5-10.2
	c0.5,0,1,0.1,1.5,0.2v69.1c0,0.2,1.5,0.4,2.1,0.6c1.3-1.2,2.6-2.3,4.1-3.2c3.1-1.7,6.4-4.3,9.7-4.6c10.6-1.2,21.4-1.6,32-2.2
	c10.5-0.6,21-1.2,31.5-1.9c1.3-0.1,2.5-0.5,3.6-1.1c7.9-4.1,15.8-8.2,23.6-12.5c8-4.5,15-11.1,25-11.1c0.2,0,0.3-0.1,0.5-0.1
	c7.1-1.1,14.1-3.2,21.2-3.2c11.1-0.1,22.2,1,33.3,1.8c5,0.3,9.9,0.9,14.8,1.7c15.5,3,30.9,6.3,46.4,9.4c11.6,2.3,11.7,2.1,13,13.5
	c0.4,3.2,2.1,5,4.9,5.4c8.6,1.4,17.3,2.7,26,3.9c10.4,1.4,20.8,2.5,31.2,3.8c4.5,0.6,9,1.4,13.5,2c7,0.8,14,1.5,21,2.3
	c4.7,0.5,9.3,1,14,1.7c11.7,1.8,23.3,3.8,35.1,5.4c7.4,1,15,1.2,22.4,2.4c4.5,0.7,6.5-1.1,7.6-4.9c1.1-3.8,2-7.6,3.1-11.4
	c3-10.2,6.2-20.4,9.1-30.6c4.1-14.3,7.8-28.8,12-43.1c0.6-2.1,2.4-4,4.1-5.5c6.2-5.6,13.8-3.4,20.8-2.7c11.9,1.2,23.8,3.2,35.6,5.4
	c3.9,0.7,9.2,0.4,10.8,5.2c1.9,5.9,3.3,12,4.1,18.1c0.8,5.6,0.5,11.3,0.7,16.9c0.5,11,0.9,22,1.5,32.9c0.1,1.7,0.1,3.8,1.1,4.9
	c2.6,2.9,2.9,6,2.8,9.6c-0.2,3.4,0.6,6.2,5.5,6.2c4.8,0,9.6,1.2,14.3,2.4c1.6,0.4,2.9,2.5,3.8,4.1c0.9,1.6,1,3.5,1.6,5.3
	c1.8,5.5,0.6,9.9-4.1,13.5c-4.1,3.1-8.1,6.2-12.4,9.1c-1.5,1.1-3.3,1.7-5.1,2c-8.6,0.8-17.1,1.3-25.7,2c-7,0.6-14,1.3-21,2.2
	c-2.2,0.3-4.2,1.4-6.3,2.1c2.3,1.8,5,3.2,7.9,4c3.3,1,6.7,1.4,9.9,2.7c1.2,0.5,1.8,2.5,2.7,3.8c0.9,1.3,1.8,3.4,2.9,3.6
	c3.7,0.7,6.2,2.8,5.5,6.2c-0.4,2-3.2,4.3-5.3,4.8c-3.5,0.9-5.7-1.6-6.6-5.1c-0.2-1.4-0.9-2.6-1.8-3.6c-3-2.7-6-5.6-9.5-7.6
	c-5-2.8-10.4-6.4-15.8-6.8c-9.2-0.7-18.6,0.5-27.9,1.6c-11.4,1.4-22.8,3.7-34.2,5.1c-12.2,1.6-24.5,2.7-36.8,4.1
	c-5.3,0.6-10.5,1.2-15.8,2c-11.7,1.7-23.4,3.7-35.1,5.3c-10,1.4-20.1,2.6-30.2,3.7c-12.4,1.3-24.9,2.6-37.3,3.4
	c-8.5,0.6-17,0.7-25.4,0.3c-8.4-0.5-16.9,2.2-25.3-0.2c-1.7-0.5-3.9,1.1-5.9,1.3c-2.4,0.3-5.1,1-7.3,0.4c-8-2.2-16.1-3.6-24.5-3.1
	c-2.5,0.2-5.3,0.3-7.4-0.7c-3.5-1.6-6.4-0.9-9.3,1c-1.7,1.1-3.4,2.6-5.3,3c-3.8,0.8-4.9,2.4-3.6,6.2c0.6,2,0.2,4.4-0.1,6.5
	c-1.8,13.4-17.4,21-27.5,16.9c-0.7-0.3-1.7,0-3,0c0.6,1.4,0.9,2.4,1.4,3.3c5.2,9.8,2.9,19.9-6.1,26.6c-7.9,5.9-18.2,5.4-26.4-1.4
	c-6.8-5.6-8.9-16.4-5.3-24.5c3-7,9.5-9.2,15.3-12.5c1.8-1,3.9-2.9,4.3-4.8c1.6-7.7,2.7-15.5,3.6-23.3c0.1-1.2-1.5-3.5-2.6-3.7
	c-5-1-10.3-1-15.3-2.3c-6.7-1.8-13.2-4.4-19.8-6.6c-3.5-1.2-6.9-4.1-10.9-0.6c-0.6,0.6-4-0.4-4.3-1.2c-1.9-6.2-7.7-4.3-11.7-7
	c-0.1,0.8-0.2,1.6-0.1,2.4c0.8,2.5,1.9,5-1.8,6.1c-3.6,1.1-4.2-1.8-5.3-3.9c-1.2-2.5-2.4-5-3.9-8.2c-1.9,2.7-3.4,4.8-4.8,6.9
	c-2.1-2.4-3.5-5.7-5.4-6c-7.5-1.2-10.6-6.7-13.8-12.4c-2-3.6-3.9-7.3-5.9-10.9c-0.5,0-1,0.1-1.5,0.1c-1.4,19.8-4.1,39.5-8,59
	c-0.7-4.6-1-9.3-0.9-14c0-17.9,0-35.8,0.1-53.8c0.2-3-1.2-5.9-3.8-7.5C-1.4,259.7-1.1,256.4,3.8,253z M560.7,291.9
	c3,0,5.1-2.4,7.5-3.9c2-1.1,3.7-2.6,4.9-4.5c1.8-3,2.1-11.2-1.3-13.3c-0.4-0.2-0.9-0.1-1.1,0.3c-0.1,0.1-0.1,0.3-0.1,0.4l0,0.3
	c-0.1,0.2,0.1,0.4,0.3,0.5c0.1,0,0.1,0,0.2,0c0.1,0,0.5,6.2,0.5,6.3c0.1,2.8-1.5,5.5-4,6.7c-2.6,1.5-5.6,3.1-7.7,5.1
	c-0.4,0.5-0.4,1.2,0,1.7C560.2,291.8,560.4,291.9,560.7,291.9z M549.2,292.2c0.1,0.4,0.4,0.8,0.7,1c0,0,1,0.5,0.5,0.1
	c0.2,0.1,0.3,0.1,0.5,0.2c0.7,0.2,1.5-0.1,2-0.7c1.2-1.4-0.3-2.7-1.7-2.3c-0.1,0-0.2,0.1-0.3,0.2c-0.4-0.2-0.8-0.1-1.1,0.1
	C549.3,291.1,549,291.7,549.2,292.2L549.2,292.2z M552.6,267.8c2.6,2.9,6.4,2.5,9.9,2.1c0.1,0,0.2-0.1,0.2-0.2
	c0-0.1-0.1-0.2-0.2-0.2c-1.6-0.5-2.9-1.4-4.7-1.5c-2-0.1-3.7-1.3-4.4-3.1c-1.2-2.5-1.2-5.7-2.9-7.9c-0.5-0.7-1.5-0.1-1.6,0.6
	C549.1,261.2,550.3,264.8,552.6,267.8L552.6,267.8z M513.3,173.4c3.9,2.6,9.1,3,13.7,3.2c4.2,0.2,9.1-0.5,12.8,2
	c0.3,0.2,0.8,0.1,0.9-0.3c0.1-0.2,0.1-0.3,0.1-0.5c-1.2-3.7-3.3-3.8-6.9-4.1c-6.8-0.5-12.9-0.9-19.4-3
	C512.8,170.2,512,172.5,513.3,173.4z M490,167.9l-0.5-0.4c-0.3-0.3-0.8-0.3-1.1-0.1c-0.2-0.1-0.5-0.1-0.8-0.1
	c-0.1,0-0.1,0.1-0.2,0.1c0,0-0.1,0-0.1,0c-0.1,0.1-0.2,0.1-0.3,0.2l0,0c-0.4,0.4-0.6,1-0.3,1.5c0.2,0.7,1,1.4,1.7,0.8c0,0,0,0,0.1,0
	c0.1,0.1,0.2,0.2,0.2,0.2c0.4,0.4,1,0.4,1.4,0c0.2-0.2,0.3-0.4,0.3-0.7c0-0.2,0-0.4-0.1-0.6C490.3,168.5,490.2,168.1,490,167.9z
	 M505.7,171.8c0.6-0.2,0.9-0.8,0.7-1.3c-0.1-0.3-0.4-0.6-0.7-0.7c-0.9-0.1-1.8-0.4-2.6-0.9c-0.6-0.5-1.4-0.8-2.1-0.9
	c-1-0.1-3.2-0.7-3.2,1c0,0.6,0.4,1.2,1,1.5c0.7,0.3,1.5,0.2,2.2,0.5C502.7,171.7,503.8,172.1,505.7,171.8L505.7,171.8z M483.3,302.6
	c4.2-0.6,8.1-1.5,12.3-0.6c1.6,0.4,2.9,0.4,4.2-0.8c0.1-0.1,0.1-0.3,0-0.3c0,0,0,0,0,0c-5.6-2.4-11.3-2.1-17-0.4
	c-0.6,0.2-0.9,0.8-0.8,1.4S482.7,302.8,483.3,302.6L483.3,302.6z M465.8,234.7c-0.2-0.1-0.3-0.5-0.6-0.7c-0.3-0.1-0.6-0.2-0.8-0.3
	c-0.5-0.1-0.9,0.2-1.1,0.6c0,0.1,0,0.1,0,0.2c0,0.4,0.2,0.9,0.3,1.2c-0.1,0.5,0.2,0.9,0.7,1.1c0.3,0.1,0.5,0.2,0.8,0.2
	c0,0,0,0,0.1,0v0c0.1,0,0.2,0,0.3,0.1C467,237.4,467,235.2,465.8,234.7L465.8,234.7z M461.2,258.6c1.7-2.1,2.8-4.6,3.2-7.3
	c0.3-2-0.3-4.5,0.8-6.3c0.1-0.1,0-0.3-0.1-0.3c-0.1,0-0.1,0-0.2,0c-2,0.4-2.3,2.9-2.5,4.6c-0.2,1.7-0.7,3.4-1.5,4.9
	c-0.7,1.1-1.2,2.4-1.4,3.8c0,0.5,0.4,1,1,0.9C460.8,258.9,461,258.8,461.2,258.6L461.2,258.6z M258.7,228.8c2.8,1.2,6,1.3,8.6,3.1
	c2,1.3,3.2,3.5,3.2,5.8c0.1,1.4,0,2.6,0.9,3.8c0.1,0.2,0.4,0.3,0.6,0.2c0.1,0,0.1-0.1,0.2-0.2c2.1-2.9,0.3-8.7-2.3-10.9
	c-3-2.5-6.8-4-10.7-4C258.2,226.8,257.6,228.3,258.7,228.8z M211.6,217.9c0.4,0.2,0.9,0.4,1.2,0.6c1.1,0.8,2.5-1,1.4-1.9
	c-0.2-0.1-0.3-0.3-0.5-0.4c0-0.2-0.2-0.3-0.3-0.4c-0.1-0.1-0.3-0.2-0.4-0.3c-0.3-0.2-1.1,0.2-1.2,0c-0.1-0.1-0.2-0.1-0.3-0.1
	c-0.1,0-0.1,0.1-0.1,0.2c0,0.2,0,0.4,0.2,0.5C211.1,216.7,210.8,217.6,211.6,217.9L211.6,217.9z M184.1,216.5
	c5.7,0.5,13.5,3.4,18.6,0.3c0.1-0.1,0.1-0.2,0.1-0.3c0,0-0.1-0.1-0.1-0.1c-14.3-3-29.5-4.5-44-2.5c-1.5,0.2-1.1,2.7,0.4,2.6
	C167.4,216.5,175.7,215.8,184.1,216.5z M146.5,357.1c4.1,0.6,8-2,9.2-5.9c1.8-6.6-2.3-15,5.1-18.8c0.2-0.1,0.4-0.4,0.4-0.7
	c0-0.2,0-0.3-0.1-0.5c-1.2-3-6.3,3.1-6.8,3.9c-1.7,3.2-0.9,6.4-0.7,9.8c0.3,5.7-2.1,8.7-7.4,9.9
	C144.8,355.1,145.2,356.9,146.5,357.1z M144,218.1c0.6,0.1,1.3,0.1,1.9-0.1c0.1,0,0.1,0,0.2,0c0.9,0.1,1.8-0.2,2.5-0.6
	c0,0,0.1-0.1,0.1-0.1c0.1,0,0.2,0,0.3,0c0.6-0.2,1.1-0.6,1.4-1.1c0.3-0.5,0.1-1.1-0.4-1.4c-0.2-0.1-0.5-0.2-0.8-0.1
	c-0.4,0.1-0.8,0.2-1.1,0.2c-1.6-0.4-2.7,0.8-4,1.3C143.1,216.4,142.8,217.9,144,218.1z M135.2,356.2l0,0.1c0,0.8,0.7,1.3,1.4,1.3
	c0.7,0,1.3-0.6,1.3-1.3c0-0.3,0-0.6,0.1-0.9c0-0.6-0.3-1.1-0.9-1.3c-0.1-0.1-0.2-0.1-0.2-0.1c0.1,0-0.3-0.1-0.4-0.2
	c-0.4-0.1-0.8,0-1.1,0.3l-0.1,0.1C134.7,354.8,134.7,355.7,135.2,356.2L135.2,356.2z M108.2,374.8c1.1-2.3,3.5-3.8,6.1-3.6
	c4.2,0.3,0.6,4.8,0,6c-0.4,0.7-0.1,1.5,0.6,1.9c0.5,0.3,1.2,0.2,1.6-0.2c2.2-1.9,5.7-6,3-9c-2.7-2.9-6.4-2.6-9.9-1.4
	c-7.9,2.9-5.5,13.2-0.9,17.8c2.8,2.9,6.6,5.6,10.8,4.9c4.5-0.7,8.9-5,10.9-9c1.9-3.8,2.8-8.3,0.7-12.2c-1.5-2.7-3.7-6.2-7.2-5.1
	c-0.2,0.1-0.3,0.3-0.3,0.5c0,0.1,0.1,0.2,0.2,0.2c4.8,3.5,7.5,9.5,4,15c-3.6,5.5-9.2,9.7-15.1,4.5
	C110.2,383,106.8,378.4,108.2,374.8L108.2,374.8z M130.1,341.4c0.9-2.6,1.4-5.3,1.8-8c0-0.2-0.3-0.3-0.4-0.1
	c-4.2,6.7-4.9,12.2-2.4,19.8c0.2,0.7,1,1.1,1.7,0.9c0.4-0.1,0.8-0.5,0.9-0.9c0.3-0.5,0.3-1,0.2-1.5c-0.1-0.3-0.3-0.6-0.7-0.7
	C130.1,347.9,129.2,344.4,130.1,341.4L130.1,341.4z M112.5,234c5.9-1.5,11.6-4.8,17-7.4c1.7-0.8,4.1-1.9,5.4-3.3
	c0.3-0.4,1.2-1.2,0.1-1c0.4-0.1,0.7-0.6,0.5-1c-0.1-0.3-0.3-0.5-0.5-0.5l-0.1,0c-0.3-0.1-0.7,0.1-0.9,0.4c-0.5,1.1-3.6,2.3-4.6,2.8
	c-1.9,0.8-3.7,1.6-5.6,2.4c-4.1,1.9-8.3,3.6-12,6.2c-0.4,0.2-0.5,0.7-0.2,1C111.9,233.9,112.2,234,112.5,234z M11.1,263.9
	c1.9,2.7,4.6,4.7,6.6,7.4c1.3,1.8,2.3,4,4.1,5.5c0,0.1,0.1,0.1,0.2,0.2c0,0,0.1,0.1,0.1,0.1l0,0c0.6,0.3,1.6-0.2,1.1-1
	c-2.8-5-5.6-10.3-10.4-13.6c-0.6-0.3-1.3-0.1-1.6,0.5C11,263.2,11,263.6,11.1,263.9z M9.6,258.2c8.2,3.4,15.3-1,20.3-7.5
	c0.4-0.5-0.3-1.2-0.8-1l0,0c-0.1,0-0.1,0-0.2,0.1c-0.1,0-0.2,0-0.2,0.1c-3,0.8-5,3.7-7.9,5.1c-2.4,1.3-5.2,1.7-7.9,1
	c-1.1-0.3-2.2-0.3-3.3,0.1c-0.6,0.2-1,0.9-0.8,1.5C8.9,257.8,9.2,258.1,9.6,258.2z"/>
<g id="Group_52" transform="translate(92.242)">
	<path id="Path_10878" class="st0" d="M204.9,218.5l-0.3-1.4l-1.3-7.7l-0.4-3.9l-0.7-3.7l-1.6-7.7l-0.6-3.8l-0.8-3.7l-0.6-3.9
		l-0.9-3.8l-0.7-3.9l-0.5-3.8l-0.8-3.8l-0.6-3.8l-0.7-3.8L194,156l-1.5-7.7l-0.5-3.8l-0.7-3.8l-0.5-3.9l-0.8-3.7l-0.7-3.9l-0.5-3.9
		l-0.8-3.7l-0.5-3.9l-0.8-3.7c-0.1-0.2,0-0.5,0.1-0.7c0.2-0.3,0.5-0.4,0.8-0.4c0.4,0,0.8,0.3,0.9,0.7l0.8,3.8l0.5,3.9l0.8,3.7
		l0.5,3.9l0.7,3.8l0.9,3.8l0.5,3.9l0.7,3.8l0.5,3.8l1.5,7.6l0.6,3.8l0.7,3.8l0.7,3.8l0.8,3.9l0.5,3.8l0.7,3.8l0.9,3.8l0.6,3.9
		l0.8,3.7l0.6,3.9l1.5,7.6l0.7,3.8l0.4,3.9l1.3,7.7l0.4,2.3C206.3,218.9,205.6,218.7,204.9,218.5z"/>
	<path id="Path_10879" class="st0" d="M183,88.3L183,88.3c0.3,0,0.5-0.2,0.6-0.4c0.1-0.2,0.2-0.4,0.1-0.7l-0.8-3.9l-0.6-3.9l-0.8-4
		l-0.6-3.9l-0.9-4l-0.7-3.9l-0.6-3.9l-0.8-4l-0.7-3.9l-0.7-3.9l-0.6-3.9l-1.5-7.9l-0.5-3.9l-0.8-4l-0.5-4l-0.9-3.9l-0.7-3.9
		l-0.5-3.9l-0.8-4l-0.6-3.9l-0.8-4c-0.1-0.4-0.5-0.7-0.9-0.7c-0.5,0-0.9,0.5-0.9,1c0,0,0,0.1,0,0.1l0.8,3.9l0.6,3.9l0.8,4l0.6,3.9
		l0.7,4l0.8,3.8l0.5,4l0.8,4l0.5,3.9l1.6,7.9l0.6,3.9l0.7,3.9l0.7,3.9L177,60l0.6,3.9l0.7,4l0.9,3.9l0.6,3.9l0.8,4l0.6,3.9l0.8,4
		c0.1,0.4,0.5,0.7,0.9,0.7C182.9,88.3,183,88.3,183,88.3z"/>
	<path id="Path_10880" class="st0" d="M297.3,136.3l-2.1,3.3l-1.9,3.4l-2.1,3.3l-2,3.3l-1.8,3.4l-2.2,3.4l-2,3.4l-2.1,3.3l-3.9,6.8
		l-6,10l-1.9,3.4l-2.1,3.3l-2,3.3l-1.9,3.5l-2,3.3l-1.9,3.5l-2.1,3.3l-3.9,6.8l-2,3.4l-2.1,3.2l-4,6.7l-1.6,2.7
		c-0.7-0.1-1.3-0.2-2-0.3l6-10.1l2.1-3.2l5.9-10.1l2-3.3l1.9-3.5l2-3.3l1.9-3.5l2-3.4l2.1-3.3l5.9-10.1l2-3.3l3.9-6.8l2.1-3.2l2-3.4
		l2.1-3.3l1.8-3.4l2-3.4l2.1-3.2l1.9-3.4l2.1-3.3l1.9-3.4c0.3-0.4,0.8-0.6,1.3-0.4c0.4,0.2,0.6,0.8,0.4,1.2c0,0,0,0,0,0L297.3,136.3
		z"/>
	<path id="Path_10881" class="st0" d="M312.3,110.2c0.3,0,0.5-0.2,0.7-0.4l2-3.5l2.1-3.4l2-3.5l2.1-3.4l2-3.6l2-3.4l2.1-3.4l2-3.5
		l6.2-10.3l4-7l2.1-3.4l2-3.5l2.1-3.4l2-3.5l2-3.4l2.1-3.4l2-3.5l2.1-3.4l2-3.5c0.1-0.2,0.1-0.5,0.1-0.7c-0.1-0.2-0.2-0.4-0.4-0.5
		c-0.1-0.1-0.3-0.1-0.5-0.1c-0.3,0-0.6,0.2-0.8,0.5l-2,3.5l-2.1,3.4l-2,3.5l-2.1,3.4l-2.1,3.5l-1.9,3.5L342,57l-2,3.5l-2.1,3.4l-4,7
		l-2.1,3.4l-6.1,10.4l-2.1,3.4l-2.1,3.5l-2,3.5l-2.1,3.4l-2,3.5l-2.1,3.4l-2,3.5c-0.2,0.4-0.1,1,0.4,1.2c0.1,0.1,0.3,0.1,0.4,0.1
		C312.2,110.2,312.3,110.2,312.3,110.2z"/>
	<path id="Path_10882" class="st0" d="M345.4,226.5l-3.7,1.4l-3.7,1.1l-7.4,2.8l-3.7,1.2l-7.4,2.6l-3.7,1.4l-3.7,1.2l-3.7,1.3
		l-1,0.4c-1.7-0.1-3.3-0.1-5-0.1l1.7-0.5l3.6-1.5l3.7-1.3l3.7-1.2l11.2-4.1l3.7-1.2l7.4-2.8l3.7-1.1l3.8-1.4l1.4-0.4
		C345.9,225.1,345.7,225.8,345.4,226.5L345.4,226.5z"/>
	<path id="Path_10883" class="st0" d="M364.1,323.1l0.5,0.1l3.6,1.4l3.8,1.2c0.2,0.1,0.4,0.2,0.5,0.5c0.1,0.2,0.1,0.5,0,0.7
		c-0.1,0.3-0.4,0.6-0.7,0.6c-0.1,0-0.1,0-0.2,0c-0.1,0-0.2,0-0.3,0l-3.8-1.3l-3.6-1.4l-3.8-1.3l-1.7-0.7
		C360.3,323.1,362.2,323.1,364.1,323.1z"/>
	<path id="Path_10884" class="st0" d="M450.6,354.3l0.5,0.2l3.9,1.3l3.8,1.5l3.8,1.2l3.8,1.4l3.7,1.5l2.5,0.9v1.9l-3.2-1.1l-3.8-1.5
		l-3.8-1.4l-3.8-1.2l-3.8-1.5l-3.9-1.3l-2.8-1.1C448.7,354.9,449.7,354.6,450.6,354.3z"/>
	<path id="Path_10885" class="st0" d="M260.2,345.3c0.5-0.1,1-0.2,1.5-0.3l1.4,2.2l1.9,3.5l2.1,3.3l2,3.4l1.8,3.4l6,10.1l1.9,3.4
		l4.1,6.7l1.8,3.4l2,3.4l1.8,3.5l2.1,3.2l2,3.4l1.8,3.4l2.1,3.3l1.8,3.4l2.1,3.3c0.1,0.2,0.2,0.5,0.1,0.7c-0.1,0.2-0.2,0.4-0.4,0.6
		c-0.1,0.1-0.2,0.1-0.3,0.1c-0.1,0-0.1,0-0.2,0c-0.3,0-0.6-0.2-0.8-0.4l-2.1-3.4l-1.8-3.4l-2-3.2l-1.9-3.5l-2-3.3l-2.1-3.2l-1.9-3.6
		l-2.1-3.4l-1.8-3.4l-4.1-6.7l-1.9-3.4l-3.9-6.7l-2.1-3.4l-1.8-3.4l-1.9-3.3l-2.1-3.2l-1.9-3.6l-1.8-2.8
		C260,345.3,260.1,345.3,260.2,345.3z"/>
	<path id="Path_10886" class="st0" d="M358,511.9c0.1,0,0.2-0.1,0.3-0.1c0.4-0.3,0.6-0.8,0.3-1.2c0,0,0,0,0,0l-2.1-3.4l-1.9-3.5
		l-2.1-3.4l-1.9-3.5l-2-3.5l-2.1-3.4l-1.9-3.5l-2.1-3.5l-1.9-3.5l-4.2-6.9l-1.9-3.5l-6.2-10.4l-1.9-3.5l-2-3.5l-2.2-3.4l-1.9-3.5
		l-2.2-3.4l-1.9-3.5l-2.1-3.5c-0.3-0.4-0.8-0.6-1.3-0.3c-0.4,0.2-0.6,0.8-0.3,1.2c0,0,0,0,0,0l2.1,3.4l1.9,3.5l2.2,3.4l1.9,3.5
		l2.2,3.4l2,3.4l1.9,3.5l2.1,3.5l6,10.4l4.2,6.9l1.9,3.5l2.1,3.5l1.9,3.6l2.1,3.3l2,3.4l1.9,3.5l2.1,3.5l1.9,3.5l2.1,3.5
		c0.2,0.3,0.5,0.4,0.8,0.4C358,511.9,358,511.9,358,511.9z"/>
	<path id="Path_10887" class="st0" d="M189.5,423.5l0.6-3.8l0.9-3.9l0.7-3.8l0.5-3.8l0.9-3.9l0.6-3.9l0.9-3.7l1.2-7.7l0.8-3.8
		l1.4-7.6l0.6-3.9l0.8-3.8l0.7-3.8l0.5-3.8l0.8-3.9l0.1-0.6c0.6-0.1,1.3-0.1,1.9-0.2l-0.2,1.1l-0.8,3.9l-0.5,3.8l-0.7,3.8l-0.8,3.7
		l-2,11.5l-0.8,3.7l-1.2,7.7l-0.9,3.7l-0.6,3.9l-0.9,3.8l-0.5,3.8l-0.7,3.8l-0.9,3.8l-0.6,3.8l-0.8,3.7l-0.6,3.8
		c-0.1,0.4-0.4,0.7-0.8,0.8c-0.1,0-0.1,0-0.2,0l-0.1,0c-0.5-0.1-0.9-0.5-0.8-1l0.6-3.9L189.5,423.5z"/>
	<path id="Path_10888" class="st0" d="M168.5,544.9c0.4-0.1,0.7-0.4,0.8-0.8l0.6-3.9l0.8-3.9l0.6-4l0.8-3.8l0.7-4l0.6-3.9l0.9-3.9
		l0.7-4l0.8-3.9l1.3-7.9l0.8-3.9l2.1-11.8l0.8-3.8l0.7-4l0.6-4l0.8-3.9l0.6-4l0.8-3.9l0.7-4c0.1-0.5-0.3-1-0.8-1h0
		c-0.5-0.1-0.9,0.3-1,0.7l-0.7,4l-0.8,3.9l-0.6,4l-0.8,3.9l-0.6,4l-0.7,3.9l-0.8,3.9l-0.6,4l-2.2,11.7l-1.3,7.9l-0.8,3.9l-0.7,4
		l-0.9,4l-0.6,3.9l-0.7,3.9l-0.8,3.9l-0.6,4l-0.8,3.9l-0.6,4c-0.1,0.5,0.3,1,0.8,1l0.1,0C168.4,545,168.5,545,168.5,544.9z"/>
	<path id="Path_10889" class="st0" d="M93.7,373.3l3.1-2.4l3-2.6l3.1-2.3l3-2.5l2.9-2.6l3.2-2.4l3-2.6l3.1-2.3l5-4.3
		c0.7,0.2,1.5,0.4,2.2,0.5l0,0l-6,5.1l-3.1,2.3l-3,2.6l-3.1,2.4l-2.9,2.6l-3.1,2.5l-3.1,2.3l-3,2.6l-3.1,2.4l-3,2.6
		c-0.1,0.1-0.3,0.2-0.4,0.2c-0.1,0-0.1,0-0.2,0c-0.3,0-0.5-0.1-0.7-0.3c-0.3-0.4-0.3-0.9,0.1-1.3c0,0,0,0,0,0L93.7,373.3z"/>
	<path id="Path_10890" class="st0" d="M1.7,450.9c0.2,0,0.3-0.1,0.4-0.2l3.1-2.6l3.2-2.4l3.1-2.6l3.2-2.4l3.1-2.6l3-2.6l3.2-2.4
		l3.1-2.6l3.2-2.4l6.2-5.2l3.1-2.5l9.4-7.8l3.2-2.4l3.1-2.6l3.1-2.7l3.1-2.5l3.1-2.7l3.2-2.5l3.1-2.6c0.4-0.3,0.4-0.9,0.1-1.3
		c0,0,0,0,0,0c-0.2-0.2-0.4-0.3-0.7-0.3c-0.2,0-0.4,0.1-0.6,0.2l-3.1,2.6l-3.2,2.5l-3.1,2.7l-3.2,2.5L54,406l-3.1,2.5l-3.2,2.5
		l-3.1,2.6l-9.4,7.6l-6.2,5.2l-3.2,2.4l-3.1,2.6l-3.3,2.5l-3,2.6l-3.1,2.5l-3.2,2.5l-3.1,2.7L4,446.7l-3.1,2.6
		c-0.4,0.3-0.4,0.9-0.1,1.3c0,0,0,0,0,0c0.2,0.2,0.4,0.3,0.7,0.3C1.6,450.9,1.6,450.9,1.7,450.9z"/>
	<path id="Path_10891" class="st0" d="M120.9,196l-4.2-3.4l-2.9-2.6l-3.1-2.5l-2.9-2.6l-3.1-2.4l-3-2.5l-2.9-2.6l-3.1-2.5l-2.9-2.6
		l-3.1-2.4c-0.4-0.3-0.5-0.9-0.1-1.3c0,0,0,0,0,0c0.2-0.2,0.4-0.3,0.7-0.3c0.2,0,0.4,0.1,0.6,0.2l3.1,2.5l2.9,2.6l3.1,2.5l2.9,2.6
		l3,2.5l3.1,2.3l3,2.7l3.1,2.5l2.9,2.6l6.1,4.9C123,196.1,122,196,120.9,196z"/>
	<path id="Path_10892" class="st0" d="M69.5,152.9c0.2,0,0.4-0.2,0.6-0.3c0.3-0.4,0.3-1-0.1-1.3c0,0,0,0,0,0l-3.1-2.5l-3.1-2.6
		l-3.2-2.5l-3-2.6l-3.2-2.5l-3.1-2.6l-3-2.6l-3.2-2.6l-9.3-7.7l-6.3-5.1l-3-2.6l-3.2-2.6l-3-2.6l-3.2-2.5l-3.1-2.6l-3-2.6l-3.2-2.5
		l-3-2.6l-3.2-2.5c-0.4-0.3-1-0.3-1.3,0.1c-0.3,0.4-0.3,0.9,0.1,1.3c0,0,0,0,0,0l3.2,2.5l3,2.6l3.2,2.5l3,2.6l3.1,2.6l3.2,2.5l3,2.6
		l3.2,2.6l3,2.6l6.3,5.1l3,2.6l9.4,7.7l3,2.6l3.1,2.6l3.2,2.5l3,2.6l3.2,2.5l3,2.6l3.2,2.6c0.2,0.1,0.4,0.2,0.6,0.2
		C69.4,152.9,69.5,152.9,69.5,152.9z"/>
	<path id="Path_10893" class="st0" d="M217.8,165.9c0.5,0,0.9-0.4,0.9-0.9l0-11.6l0.1-3.8l-0.1-7.7l0.1-3.8l0-3.9l0.1-3.8l-0.1-3.9
		l0-3.8l0.1-3.8l0-3.9l0.1-3.8l0-3.9c0-0.5-0.5-0.9-1-0.9c-0.5,0-0.9,0.4-0.9,0.9l0.1,3.9l-0.1,3.8l0,3.9l-0.1,3.8l0,3.9l0.1,3.9
		l-0.1,3.8l0,3.9l-0.1,3.8l0.1,7.7l-0.1,3.8l0,11.6C216.9,165.5,217.3,165.9,217.8,165.9L217.8,165.9z"/>
	<path id="Path_10894" class="st0" d="M218.1,82.5c0.4-0.1,0.8-0.4,0.8-0.9l0.1-3.9l0-11.6l0.1-3.8l-0.1-7.7l0.1-3.8l0-3.9l0.1-3.8
		l-0.1-3.9l0-3.8l0.1-3.8l-0.1-3.9l0.1-3.8l-0.1-3.9c0-0.5-0.5-0.9-1-0.9c-0.2,0-0.5,0.1-0.6,0.3c-0.2,0.2-0.3,0.4-0.3,0.7l0.1,3.8
		l-0.1,3.8l0.1,3.9l-0.1,3.8l0,3.9l0.1,3.9l-0.1,3.8l0,3.9l-0.1,3.8l0.1,7.8l-0.1,3.8l0,11.6l-0.1,3.8c0,0.2,0.1,0.5,0.3,0.7
		c0.2,0.2,0.4,0.3,0.6,0.3h0L218.1,82.5z"/>
	<path id="Path_10895" class="st0" d="M289,191.4c0.2,0,0.4-0.2,0.6-0.3l7.6-8.9l2.6-2.9l5-5.9l2.6-2.9l2.5-3l2.6-2.9l2.5-3l2.5-2.9
		l2.6-2.9l2.5-3l2.6-2.9l2.5-3c0.3-0.4,0.3-0.9-0.1-1.3c0,0,0,0,0,0c-0.2-0.1-0.4-0.2-0.6-0.2c-0.3,0-0.5,0.1-0.7,0.3l-2.5,3
		l-2.6,2.9l-2.5,3l-2.6,2.9l-2.6,3l-2.5,3l-2.6,2.9l-2.5,3l-2.6,2.9l-5,6l-7.6,8.8l-2.5,3c-0.3,0.4-0.3,0.9,0.1,1.3c0,0,0,0,0,0
		c0.2,0.1,0.4,0.2,0.6,0.2C288.8,191.4,288.9,191.4,289,191.4z"/>
	<path id="Path_10896" class="st0" d="M343.8,127.7c0.2,0,0.4-0.1,0.5-0.3l2.6-2.9l7.6-8.9l2.6-2.9l5-5.9l2.6-2.9l2.5-3l2.6-2.9
		l2.5-3l2.5-2.9l2.6-2.9l2.5-3l2.6-2.9l2.5-3c0.3-0.4,0.3-0.9-0.1-1.3c0,0,0,0,0,0c-0.4-0.3-1-0.3-1.3,0.1l-2.5,3l-2.6,2.9l-2.5,3
		l-2.6,2.9l-2.5,3l-2.5,3l-2.6,2.9l-2.5,3l-2.6,2.9l-5,6l-7.6,8.8l-2.5,3l-2.6,2.9c-0.3,0.4-0.3,0.9,0.1,1.3c0,0,0,0,0,0
		c0.2,0.1,0.4,0.2,0.6,0.2C343.7,127.7,343.7,127.7,343.8,127.7z"/>
	<path id="Path_10897" class="st0" d="M316,328.3l1.1,0.6l10.2,5.8l6.9,3.8l3.3,2l3.4,1.9l3.3,2l3.5,1.9l3.4,1.9l3.3,2l3.4,1.9
		l3.3,2l3.4,1.9c0.4,0.2,0.6,0.8,0.4,1.2c0,0,0,0,0,0c-0.1,0.2-0.4,0.4-0.6,0.4c-0.1,0-0.1,0-0.2,0c-0.2,0-0.3,0-0.5-0.1l-3.5-1.9
		l-3.3-2l-3.4-1.9l-3.3-2l-3.4-1.9l-3.5-1.9l-3.3-2l-3.4-1.9l-3.3-2l-6.8-3.8l-3.4-2l-9.4-5.3C314.4,328.8,315.2,328.6,316,328.3z"
		/>
	<path id="Path_10898" class="st0" d="M441.2,401.6c0.3,0,0.5-0.2,0.7-0.5c0.2-0.4,0.1-1-0.4-1.2c0,0,0,0,0,0l-3.4-1.9l-3.3-2
		l-3.5-1.9l-3.3-2l-3.4-1.9l-3.5-1.9l-3.3-2l-3.4-1.9l-3.3-2l-6.9-3.8l-10.2-5.9l-3.4-1.9l-3.4-2c-0.1-0.1-0.3-0.1-0.5-0.1
		c-0.5,0-0.9,0.4-0.9,0.9c0,0.3,0.2,0.6,0.4,0.8l3.4,2l10.3,5.8l3.4,2l6.9,3.8l3.3,2l3.4,1.9l3.3,2l3.5,1.9l3.4,1.9l3.3,2l3.5,1.9
		l3.3,2l3.4,1.9c0.1,0.1,0.3,0.1,0.4,0.1C441.1,401.6,441.2,401.6,441.2,401.6z"/>
	<path id="Path_10899" class="st0" d="M275.2,430.6c0.5-0.1,0.8-0.6,0.7-1.1c0,0,0-0.1,0-0.1l-1.4-3.6l-1.2-3.6l-1.4-3.6l-1.2-3.6
		l-1.3-3.6l-1.4-3.6l-1.2-3.6l-1.4-3.6l-1.2-3.6l-2.8-7.3l-1.3-3.6l-4.1-10.9c-0.1-0.4-0.5-0.6-0.9-0.6c-0.1,0-0.2,0-0.3,0.1
		c-0.2,0.1-0.4,0.3-0.5,0.5c-0.1,0.2-0.1,0.5,0,0.7l4.1,10.9l1.3,3.6l2.8,7.2l1.2,3.6l1.4,3.6l1.2,3.6l1.4,3.6l1.3,3.6l1.2,3.6
		l1.4,3.6l1.2,3.6l1.4,3.6c0.1,0.4,0.5,0.6,0.9,0.6C275.1,430.6,275.1,430.6,275.2,430.6z"/>
	<path id="Path_10900" class="st0" d="M305.4,512.6c0.5-0.1,0.8-0.6,0.8-1.1c0,0,0-0.1,0-0.1l-1.4-3.6l-1.3-3.6l-1.4-3.6l-1.2-3.6
		l-1.3-3.6l-1.4-3.6l-1.2-3.6l-1.4-3.6l-1.2-3.6l-2.8-7.3l-1.3-3.6l-4.1-10.9l-1.2-3.6c-0.1-0.4-0.5-0.6-0.9-0.6c-0.1,0-0.2,0-0.3,0
		c-0.5,0.2-0.7,0.7-0.6,1.2l1.3,3.7l4.1,10.9l1.3,3.6l2.8,7.2l1.2,3.6l1.4,3.6l1.2,3.6l1.5,3.6l1.3,3.6l1.2,3.6l1.4,3.6l1.2,3.6
		l1.4,3.6c0.1,0.4,0.5,0.6,0.9,0.6C305.3,512.6,305.4,512.6,305.4,512.6z"/>
	<path id="Path_10901" class="st0" d="M159.2,430.2c0.3-0.1,0.6-0.3,0.7-0.6l1.3-3.6l1.4-3.6l1.3-3.7l1.4-3.5l1.4-3.6l1.3-3.7
		l1.4-3.5l1.3-3.6l1.4-3.6l2.7-7.3l4.1-10.8l1.3-3.7c0.1-0.2,0.1-0.5,0-0.7c-0.2-0.5-0.8-0.7-1.2-0.4c-0.2,0.1-0.4,0.3-0.5,0.5
		l-4,10.9l-1.4,3.6l-2.6,7.3l-1.4,3.6l-1.3,3.7l-1.4,3.6L165,411l-1.3,3.6l-1.4,3.6l-1.3,3.7l-1.4,3.6l-1.3,3.7
		c-0.1,0.2-0.1,0.5,0,0.7c0.1,0.2,0.3,0.4,0.5,0.5c0.1,0,0.2,0.1,0.3,0.1C159.1,430.2,159.1,430.2,159.2,430.2z"/>
	<path id="Path_10902" class="st0" d="M128.5,512.1c0.3-0.1,0.6-0.3,0.7-0.6l1.3-3.6l1.4-3.6l1.3-3.7l1.4-3.6l1.4-3.6l1.3-3.7
		l1.4-3.5l1.3-3.7l1.4-3.6l2.6-7.3l1.4-3.6l4-10.9l1.4-3.6c0.2-0.5-0.1-1-0.5-1.2c-0.1,0-0.2-0.1-0.3-0.1c-0.4,0-0.7,0.2-0.9,0.6
		l-1.4,3.6l-4,10.9l-1.4,3.6l-2.6,7.3l-1.4,3.6l-1.3,3.7l-1.4,3.6l-1.3,3.7l-1.4,3.6l-1.4,3.6l-1.3,3.7l-1.4,3.6l-1.3,3.7
		c-0.2,0.5,0.1,1,0.6,1.2c0,0,0,0,0,0c0.1,0,0.2,0,0.3,0C128.4,512.1,128.5,512.1,128.5,512.1z"/>
	<path id="Path_10903" class="st0" d="M146.8,191c0.4-0.1,0.7-0.4,0.8-0.8c0-0.2-0.1-0.5-0.2-0.7l-7.6-8.9l-2.5-3l-5.1-5.9l-2.4-3
		l-2.6-3l-2.4-3l-2.6-2.9l-2.5-2.9l-2.4-3l-2.6-2.9l-2.4-3l-2.6-2.9c-0.2-0.2-0.4-0.3-0.7-0.3c-0.2,0-0.4,0.1-0.6,0.2
		c-0.4,0.3-0.4,0.9-0.1,1.3c0,0,0,0,0,0l2.6,2.9l2.4,3l2.6,2.9l2.4,3l2.5,3l2.6,2.9l2.4,3l2.6,3l2.4,3l5.1,5.9l7.5,8.9l2.6,3
		c0.2,0.2,0.4,0.3,0.7,0.3C146.7,191,146.7,191,146.8,191z"/>
	<path id="Path_10904" class="st0" d="M92.3,127.1c0.2,0,0.3-0.1,0.4-0.2c0.4-0.3,0.4-0.9,0.1-1.3c0,0,0,0,0,0l-2.5-3l-7.6-8.9
		l-2.5-3l-5.1-5.9l-2.4-3l-2.6-3l-2.4-3L65.1,93L62.6,90l-2.4-3l-2.6-2.9l-2.4-3l-2.6-2.9c-0.2-0.2-0.4-0.3-0.7-0.3
		c-0.5,0-0.9,0.4-0.9,0.8c0,0.2,0.1,0.5,0.2,0.7l2.6,2.9l2.4,3l2.6,2.9l2.4,3l2.5,3l2.6,2.9l2.4,3l2.6,3l2.4,3l5.1,5.9l2.5,3
		l7.6,8.9l2.4,3c0.2,0.2,0.4,0.3,0.7,0.3C92.2,127.1,92.2,127.1,92.3,127.1z"/>
	<path id="Path_10905" class="st0" d="M240.1,125.4c0.4-0.1,0.7-0.4,0.8-0.8l0.6-4l0.7-3.9l0.8-3.9l0.7-4l2.2-11.8l1.3-8l0.8-3.9
		l0.7-4l0.8-3.9l0.6-4l0.7-3.9l0.8-3.9l0.7-4l0.8-3.9l0.7-4c0-0.2,0-0.5-0.2-0.7c-0.1-0.2-0.4-0.3-0.6-0.4h0c-0.5-0.1-0.9,0.3-1,0.7
		l-0.6,4l-0.8,3.9l-0.7,4l-0.8,3.9l-0.7,4l-0.6,4l-0.8,3.9l-0.7,4l-0.8,3.9l-1.3,8l-0.8,3.9l-2.1,11.9l-0.8,3.9l-0.7,4l-0.6,4
		c0,0.2,0,0.5,0.2,0.7c0.1,0.2,0.4,0.3,0.6,0.4l0.2,0C240,125.5,240.1,125.5,240.1,125.4z"/>
	<path id="Path_10906" class="st0" d="M332.1,174.3c0.2,0,0.3-0.1,0.5-0.2l3.1-2.7l3.1-2.6l3.2-2.5l3.1-2.6l9.5-7.7l6.3-5.2l3.2-2.5
		l3.2-2.6l3.2-2.5l3.1-2.7l3.1-2.6l3.2-2.5l3.1-2.7l3.2-2.5l3.1-2.6c0.4-0.3,0.4-0.9,0.1-1.3c0,0,0,0,0,0c-0.2-0.2-0.4-0.3-0.7-0.3
		c-0.2,0-0.4,0.1-0.6,0.2l-3.1,2.6l-3.2,2.5l-3.1,2.7l-3.2,2.5l-3.2,2.6l-3.1,2.7l-3.2,2.5l-3.1,2.6l-3.2,2.5l-6.3,5.3l-3.2,2.5
		l-9.4,7.8l-3.2,2.5l-3.2,2.6l-3.1,2.7c-0.4,0.3-0.4,0.9-0.1,1.3c0,0,0,0,0,0c0.2,0.2,0.4,0.3,0.7,0.3
		C332,174.4,332.1,174.4,332.1,174.3z"/>
	<path id="Path_10907" class="st0" d="M393.8,413.7c0.5-0.1,0.8-0.6,0.7-1.1c0-0.2-0.2-0.4-0.3-0.6l-3.2-2.5l-3.1-2.6l-3.2-2.6
		l-3.1-2.6l-3.1-2.6l-3.2-2.5l-3-2.6l-3.2-2.6l-3.1-2.6l-6.4-5.1l-3.1-2.6l-9.5-7.8l-3.1-2.6l-3.2-2.6l-3.2-2.5
		c-0.4-0.3-1-0.2-1.3,0.1c-0.3,0.4-0.3,1,0.1,1.3c0,0,0,0,0,0l3.2,2.5l3.1,2.6l3.1,2.6l9.5,7.8l3.1,2.6l6.3,5.1l3.1,2.6l3.2,2.6
		l3,2.7l3.2,2.5l3.1,2.6l3.1,2.6l3.2,2.6l3.1,2.6l3.2,2.6c0.2,0.1,0.4,0.2,0.6,0.2C393.7,413.7,393.8,413.7,393.8,413.7z"/>
	<path id="Path_10908" class="st0" d="M260.8,491.9c0.2,0,0.5-0.2,0.6-0.4c0.1-0.2,0.2-0.4,0.1-0.7l-0.8-3.9l-0.6-3.9l-0.8-4
		l-0.6-3.9l-0.7-4l-0.8-4l-0.6-3.9l-0.8-4l-0.6-3.9l-1.5-8l-0.6-3.9l-0.7-4l-0.7-4l-0.8-4l-0.6-3.9l-0.7-4l-0.8-4
		c-0.1-0.4-0.5-0.7-0.9-0.7c-0.7,0.1-1,0.6-0.9,1.1l0.8,3.9l0.7,3.9l0.6,4l0.8,4l0.7,3.9l0.7,4l0.6,4l1.5,7.9l0.6,4l0.8,4l0.6,3.9
		l0.8,4l0.7,3.9l0.6,3.9l0.8,4l0.6,3.9l0.8,4c0.1,0.4,0.5,0.7,0.9,0.7C260.7,491.9,260.7,491.9,260.8,491.9z"/>
	<path id="Path_10909" class="st0" d="M107.6,468.1c0.3,0,0.5-0.2,0.6-0.5l2-3.5l2.1-3.4l2-3.5l2.1-3.4l2.1-3.5l2-3.5l2.1-3.4l2-3.5
		l2.1-3.4l4.1-7l2.1-3.4l6.2-10.5l2.1-3.4l2.1-3.5l2-3.6c0.2-0.4,0.1-1-0.3-1.2c0,0,0,0,0,0c-0.5-0.2-1-0.1-1.3,0.4l-2,3.5l-2.1,3.5
		l-2.1,3.4l-6.2,10.5l-2.1,3.4l-4,7l-2.1,3.4l-2,3.5l-2.1,3.4l-2,3.6l-2.1,3.5l-2.1,3.4l-2,3.5l-2.1,3.4l-2,3.5
		c-0.2,0.4-0.1,1,0.3,1.2c0,0,0,0,0,0C107.1,468.1,107.3,468.1,107.6,468.1L107.6,468.1z"/>
	<path id="Path_10910" class="st0" d="M25.6,209.5l-3.8-1.2l-3.9-1.4l-3.8-1.5l-3.9-1.3l-3.8-1.4l-3.9-1.3c-0.2-0.1-0.4-0.2-0.5-0.5
		c-0.1-0.2-0.1-0.5,0-0.7c0.1-0.4,0.5-0.6,0.9-0.6c0.1,0,0.2,0,0.3,0.1l3.9,1.3l3.8,1.4l3.9,1.3l3.8,1.5l3.8,1.4l3.9,1.3l1.4,0.6
		C27.1,208.7,26.4,209.1,25.6,209.5z"/>
	<path id="Path_10911" class="st0" d="M137.6,145.9c0.1,0,0.2-0.1,0.3-0.1c0.2-0.1,0.3-0.3,0.4-0.6c0.1-0.2,0-0.5-0.1-0.7l-2.2-3.4
		l-2-3.5l-2-3.5l-2.1-3.5l-6.1-10.5l-4.2-6.9l-1.9-3.5l-2.1-3.5l-1.9-3.5l-2.2-3.5l-2-3.5l-1.9-3.5l-2.1-3.5l-1.9-3.5l-2.1-3.5
		c-0.2-0.3-0.5-0.5-0.8-0.4c-0.2,0-0.3,0-0.5,0.1c-0.2,0.1-0.4,0.3-0.4,0.6c-0.1,0.2,0,0.5,0.1,0.7l2.1,3.5l1.9,3.5l2.1,3.5l1.9,3.5
		l2,3.5l2.2,3.4l1.9,3.5l2.1,3.5l1.9,3.5l4.2,7l2,3.5l6.2,10.5l1.9,3.5l2.1,3.5l2.2,3.5c0.2,0.3,0.5,0.4,0.8,0.4
		C137.5,145.9,137.5,145.9,137.6,145.9z"/>
	<path id="Path_10912" class="st0" d="M270.9,108.6c0.3-0.1,0.6-0.3,0.7-0.6l1.4-3.6l1.4-3.6l4-10.9l1.4-3.6l2.6-7.3l1.4-3.6
		l1.3-3.7l1.4-3.5l1.3-3.7l1.4-3.6l1.4-3.6l1.3-3.7l1.4-3.6l1.3-3.7c0.2-0.5-0.1-1-0.6-1.2c-0.1,0-0.2,0-0.3,0
		c-0.4,0-0.7,0.2-0.9,0.6l-1.3,3.6l-1.4,3.6l-1.3,3.7l-1.4,3.5l-1.4,3.6l-1.3,3.7l-1.4,3.5l-1.3,3.7l-1.4,3.6l-2.6,7.3l-1.4,3.6
		l-4,10.9l-1.4,3.6l-1.4,3.6c-0.2,0.5,0.1,1,0.5,1.2c0,0,0,0,0,0c0.1,0,0.2,0.1,0.3,0.1C270.8,108.6,270.9,108.6,270.9,108.6z"/>
	<path id="Path_10913" class="st0" d="M238.6,195c0.3-0.1,0.6-0.3,0.7-0.6l1.3-3.8l1.5-3.7l1.3-3.9l1.4-3.7l1.5-3.7l1.4-3.8
		l4.3-11.3l2.7-7.6l1.5-3.7l1.4-3.8l1.5-3.7l1.3-3.9l1.4-3.7l1.5-3.7l1.4-3.8l1.5-3.7l1.3-3.8c0.1-0.2,0.1-0.5,0-0.7
		c-0.1-0.2-0.3-0.4-0.5-0.5c-0.1,0-0.2,0-0.3,0c-0.4,0-0.7,0.2-0.9,0.6l-1.3,3.8L263,126l-1.3,3.8l-1.5,3.7l-1.4,3.8l-1.3,3.8
		l-1.5,3.7l-1.4,3.8l-1.5,3.7l-2.7,7.6l-1.5,3.7l-4.2,11.4l-1.5,3.7l-1.4,3.8l-1.3,3.8l-1.5,3.7l-1.3,3.8c-0.1,0.2-0.1,0.5,0,0.7
		c0.1,0.2,0.3,0.4,0.5,0.5c0.1,0,0.2,0.1,0.3,0.1C238.5,195.1,238.6,195.1,238.6,195z"/>
	<path id="Path_10914" class="st0" d="M348.9,189.6c0.2,0.6,0.4,1.2,0.6,1.7l-3.4,2l-3.6,1.9l-3.5,2l-3.4,2.1l-3.7,1.9l-3.6,2.1
		l-3.6,1.9l-7.1,4.1l-10.7,5.9l-3.6,2.1l-3.6,1.9l-3.5,2l-3.5,2.1l-3.6,1.9l-3.5,2.1c-0.1,0.1-0.2,0.1-0.3,0.1c-0.1,0-0.1,0-0.2,0
		c-0.3,0-0.6-0.2-0.8-0.4c-0.3-0.4-0.1-1,0.3-1.2c0,0,0,0,0,0l3.6-2.1l3.6-1.9l3.5-2.1l3.6-2l3.6-1.9l10.7-6.1l3.6-1.9l7.1-4.1
		l3.6-1.9l3.6-2.1l3.6-1.9l3.5-2.1l3.6-2l3.6-1.9l3.5-2.1L348.9,189.6z"/>
	<path id="Path_10915" class="st0" d="M378.6,453.4c0.2,0,0.3-0.1,0.4-0.2c0.4-0.3,0.4-0.9,0.1-1.3c0,0,0,0,0,0l-2.6-2.9l-2.4-3
		l-2.6-2.9l-2.4-3l-2.5-3l-2.6-2.9l-2.4-3l-2.6-3l-2.4-3l-5.1-5.9l-2.4-3l-7.6-8.9l-2.4-3l-2.5-3c-0.3-0.4-0.9-0.4-1.3-0.1
		c-0.4,0.3-0.4,0.9-0.1,1.3c0,0,0,0,0,0l2.5,3l2.5,3l7.6,8.9l2.5,3l5.1,5.9l2.4,3l2.6,2.9l2.4,3l2.6,2.9l2.5,2.9l2.4,3l2.6,2.9
		l2.4,3l2.6,2.9c0.2,0.2,0.4,0.3,0.7,0.3C378.5,453.5,378.6,453.5,378.6,453.4z"/>
	<path id="Path_10916" class="st0" d="M282.1,340c0.5-0.1,0.9-0.3,1.4-0.5l0.6,0.7l2.6,3.1l2.5,3.1l8,9.2l2.5,3.1l5.4,6.1l2.5,3.1
		l2.7,3.1l2.5,3.1l2.7,3l2.6,3.1l2.5,3.1l2.7,3.1l2.5,3.1l2.7,3c0.2,0.2,0.2,0.4,0.2,0.7c0,0.2-0.1,0.5-0.3,0.6
		c-0.1,0.1-0.3,0.2-0.4,0.2c-0.1,0-0.1,0-0.2,0c-0.3,0-0.5-0.1-0.7-0.3l-2.7-3.1l-2.5-3.1l-2.7-3.1l-2.5-3.1l-2.6-3.1l-2.8-3
		l-2.5-3.1l-2.7-3.1l-2.5-3.1l-5.4-6.1l-7.8-9.3l-2.7-3.1l-2.5-3.1l-2.6-3.1l-1.2-1.3C281.8,340.1,282,340,282.1,340z"/>
	<path id="Path_10917" class="st0" d="M223,513.6c0.5,0,0.9-0.4,0.9-0.9l-0.1-3.8l0.1-3.8l-0.1-3.9l0.1-3.8l0-3.9l-0.1-3.9l0.1-3.8
		l0-3.9l0.1-3.8l-0.1-7.7l0.1-3.8l0-11.6l0.1-3.8l0-3.9c0-0.5-0.4-0.9-1-0.9c-0.5,0-0.9,0.4-0.9,0.9l0,3.9l-0.1,3.8l0,3.9l-0.1,11.5
		l0.1,7.7l-0.1,3.8l0,3.9l-0.1,3.8l0.1,3.9l0,3.8l-0.1,3.8l0.1,3.9l-0.1,3.8l0.1,3.9C222.1,513.2,222.5,513.6,223,513.6L223,513.6z"
		/>
	<path id="Path_10918" class="st0" d="M222.3,423.4l0.1-4l0-4l-0.1-3.9l0.1-4.1l0-4.1l0.1-4l-0.1-8.1l0.1-12l-0.1-4.1l0.1-4l0-4
		l-0.1-4.1l0.1-4l-0.1-4c0-0.2,0.1-0.4,0.2-0.5c0.4-0.1,0.8-0.2,1.2-0.2c0.3,0.1,0.5,0.4,0.5,0.7l0.1,4.1l-0.1,4l0.1,4l0,4l-0.1,4
		l0,12.1l-0.1,4l0.1,8.1l-0.1,4l0,4.1l-0.2,4l0.1,4l0,4l-0.1,4l0.1,4.1l-0.1,4l0.1,4c0,0.5-0.4,0.9-0.9,0.9h0
		c-0.5,0-0.9-0.4-0.9-0.9l-0.1-4.1l0.1-4L222.3,423.4z"/>
	<path id="Path_10919" class="st0" d="M64.7,461.7c0.2,0,0.4-0.2,0.6-0.3l2.5-3l2.6-2.9l2.5-3l2.6-2.9l2.6-3l2.5-3l2.6-2.9l2.5-3
		L88,435l5-6l7.6-8.8l2.5-3l2.6-2.9l2.6-3c0.2-0.2,0.2-0.4,0.2-0.7c0-0.2-0.1-0.5-0.3-0.6c-0.2-0.1-0.4-0.2-0.6-0.2
		c-0.3,0-0.5,0.1-0.7,0.3l-2.5,3l-2.6,2.9l-7.6,8.9l-2.6,2.9l-5,5.9l-2.6,2.9l-2.5,3l-2.6,2.9l-2.5,3l-2.5,2.9l-2.6,2.9l-2.5,3
		l-2.6,2.9l-2.5,3c-0.3,0.4-0.3,0.9,0.1,1.3c0,0,0,0,0,0c0.2,0.1,0.4,0.2,0.6,0.2C64.5,461.7,64.6,461.7,64.7,461.7z"/>
	<path id="Path_10920" class="st0" d="M117.2,398.1l2.7-3l2.6-3.1l2.7-3l2.6-3l2.6-3.2l2.7-3l2.6-3.1l2.7-3l5.2-6.2l7.9-9.1l1.7-2
		c0.7,0.1,1.4,0.2,2.1,0.4l-7.7,9l-2.7,3l-5.2,6.2l-2.7,3l-2.6,3.1l-2.7,3l-2.6,3.2l-2.7,3.1l-2.7,3l-2.6,3.1l-2.7,3l-2.6,3.1
		c-0.1,0.2-0.3,0.3-0.6,0.3c-0.1,0-0.1,0-0.2,0c-0.2,0-0.4-0.1-0.6-0.2c-0.4-0.3-0.5-0.9-0.2-1.3c0,0,0,0,0,0L117.2,398.1z"/>
	<path id="Path_10921" class="st0" d="M59.5,193.1c0.3,0,0.5-0.2,0.6-0.4c0.3-0.4,0.1-1-0.3-1.2c0,0,0,0,0,0l-3.4-1.9l-3.4-2
		l-10.2-5.8l-3.4-2l-6.8-3.8l-3.3-2l-3.4-1.9l-3.3-2l-3.5-1.9l-3.4-1.9l-3.3-2l-3.5-1.9l-3.3-2l-3.4-1.9c-0.1-0.1-0.3-0.1-0.5-0.1
		c-0.3,0-0.6,0.2-0.8,0.5c-0.1,0.2-0.2,0.5-0.1,0.7c0.1,0.2,0.2,0.4,0.4,0.5l3.4,1.9l3.3,2l3.4,1.9l3.3,2l3.4,1.9l3.5,1.9l3.3,2
		l3.4,1.9l3.3,2l6.9,3.8l10.2,5.8l3.4,1.9l3.3,2l3.4,1.9c0.1,0.1,0.3,0.1,0.5,0.1C59.4,193.1,59.5,193.1,59.5,193.1z"/>
	<path id="Path_10922" class="st0" d="M149.5,113.1c0.5-0.1,0.8-0.6,0.7-1.1c0,0,0-0.1,0-0.1l-1.3-3.6l-1.2-3.6l-1.4-3.6l-3.9-10.8
		l-2.8-7.2l-1.2-3.6l-1.4-3.6l-1.2-3.6l-1.5-3.6l-1.3-3.6l-1.2-3.6l-1.4-3.6l-1.2-3.6l-1.4-3.6c-0.1-0.4-0.5-0.6-0.9-0.6
		c-0.1,0-0.2,0-0.3,0.1c-0.5,0.2-0.7,0.7-0.5,1.2c0,0,0,0,0,0l1.4,3.6l1.2,3.6l1.4,3.6l1.2,3.6l1.3,3.6l1.5,3.6l1.2,3.6l1.4,3.6
		l1.2,3.6l2.8,7.2l1.3,3.6l4.1,10.9l1.2,3.6l1.3,3.7c0.1,0.4,0.5,0.6,0.9,0.6C149.4,113.2,149.5,113.2,149.5,113.1z"/>
	<path id="Path_10923" class="st0" d="M181.5,199.7c0.5-0.1,0.8-0.6,0.7-1.1c0,0,0-0.1,0-0.1l-1.5-3.7l-1.3-3.8l-1.5-3.8l-1.4-3.7
		l-1.3-3.8l-1.5-3.8l-4.1-11.3l-2.9-7.5l-1.3-3.8l-1.5-3.8l-1.3-3.9l-1.5-3.7l-1.4-3.7l-1.3-3.8l-1.5-3.8l-1.3-3.8l-1.5-3.8
		c-0.1-0.4-0.5-0.6-0.9-0.6c-0.5,0-0.9,0.4-0.9,0.9c0,0.1,0,0.2,0.1,0.3l1.5,3.7l1.3,3.8l1.5,3.8l1.3,3.8l1.4,3.8l1.5,3.7l1.3,3.8
		l1.5,3.8l1.3,3.8l2.9,7.6l1.3,3.8l4.3,11.3l1.3,3.8l1.4,3.8l1.5,3.8l1.3,3.8l1.5,3.8c0.1,0.4,0.5,0.6,0.9,0.6
		C181.4,199.7,181.5,199.7,181.5,199.7z"/>
</g>
</svg>
