<?xml version="1.0" encoding="utf-8"?>
<!-- Generator: Adobe Illustrator 25.1.0, SVG Export Plug-In . SVG Version: 6.00 Build 0)  -->
<svg version="1.1" id="Layer_1" xmlns="http://www.w3.org/2000/svg" xmlns:xlink="http://www.w3.org/1999/xlink" x="0px" y="0px"
	 viewBox="0 0 159.5 112.1" style="enable-background:new 0 0 159.5 112.1;" xml:space="preserve">
<style type="text/css">
	.st0{fill:#353535;}
</style>
<g id="Group_68" transform="translate(-5780.237 -1936.94)">
	<g id="Group_67" transform="translate(5780.237 1936.94)">
		<path id="Path_23009" class="st0" d="M6.3,63.3v14.8H2.7V64.2c0-15.8,11.9-28.5,27.6-28.5h11.5l0,0c0,0,14.5,14.1,47.2,9.8
			c-5.2,0.1-10.5-0.2-15.7-1c-1.1-0.2-2.3-0.4-3.4-0.6c-7.7-1.4-15.1-4.1-21.8-8.1c-4.8-3.1-9-7-12.6-11.5L53.4,29
			c-20.4-6.1-26.8-18.9-26.8-18.9l23.9,8.1C39.9,14.4,30.3,8.2,22.5,0l33.2,10.7C68.2,14.6,79,22.5,86.6,33.2c0.6,0.9,1.3,1.7,2,2.5
			l0,0c0,0,0,0,0,0l0,0c0.3,0.3,0.5,0.6,0.8,0.9c0.4,0.4,0.8,0.8,1.2,1.2c0.7,0.7,1.4,1.3,2.1,1.8c0,0,0.1,0,0.1,0.1l0,0l0.1,0.1
			c0.1,0,0.1,0.1,0.1,0.1l0.2,0.1l0.1,0.1c0.2,0.1,0.4,0.3,0.6,0.4c2.8,1.9,6,3.2,9.4,3.6c-0.5-0.1-7.7-2-11.3-8.4h6.7l5.7-0.8
			l-5.9-2.9c6.2-5.3,12-4.8,12-4.8l-6.2-1.8c3.3-3.5,8.4-3.4,8.4-3.4l-4-1.7c5.6-3.3,9.9-3,9.9-3l-3.3-2.1c7.7-2.2,15.9-1.5,23,2.1
			l9.4,4.2v2.9l10.1,4.2v0v0l1.5,0.7l-0.6,1.2l-1.5,0.9l0,0l-0.1,0.4c0.2,0.9,0.1,1.9-0.3,2.7l-0.6,1.3l-0.8-0.3l0.8,0.3l-1.4,2.5
			l-0.4-3.3l-5.2-2.4c-1.7-0.7-3.7,0.1-4.4,1.8h0c-0.7,1.7,0.1,3.7,1.8,4.5l4.7,2l0,0l2.8-1.4l-1.1,2.1l0,0l-3.1,3.9L148,45
			c-0.1,0-0.1,0-0.2,0c-4.4-0.9-8.6,2-9.5,6.3c-0.3,1.5-0.2,3,0.4,4.4l1.1,3c2.1,5.5,0.2,11.6-4.5,15l0,0l-5.6,13.5l7.9,15.7h3.5
			c5.1,0,9.2,4.1,9.2,9.2h-15.8l-15.8-17.6v-3.2l10.4-13.9l-10.4,10.4l0,0l-6.2,6.2l1.8,8.9h1.7c5.1,0,9.2,4.1,9.2,9.2v0H107
			L96.8,92.5l5.5-11l0,0l-2.6,0.5l-29.4-3.4L69,78.5c-1.9,4.4-5.8,8.2-13.4,9.4l5.3,15h2.3c5.1,0,9.2,4.1,9.2,9.2c0,0,0,0,0,0v0
			H53.1L39.2,87.7c0,0-0.2-0.3-0.5-1l0,0c-1.7,0.5-3.3,0.9-5.1,1.2l1.7,15h1.6c5.1,0,9.2,4.1,9.2,9.2H25.6l-8.2-24.4
			c-0.7-2-1.2-4.2-1.4-6.3c0-5.5,4.2-9.3,7.2-13.7c0.1-0.1,0.1-0.2,0.2-0.3l0,0c0,0,2.2-4.6,2.2-13.6c0-7.9,3.2-11.5,7-13h-3.2
			C17,40.9,6.3,50.9,6.3,63.3z M143.6,24.2l1.3-1.2l-5.8-1.1L143.6,24.2z M56,76.8c2-2.2,3.8-4.6,5.2-7.2h-4.4l0,0l0,0v0
			c0,0,0,0.1-0.1,0.1c-0.4,1-1,2-1.5,3l0,0.1c0,0,0,0.1-0.1,0.1l0,0c-0.2,0.4-0.4,0.7-0.7,1.1c-0.5,0.8-1,1.5-1.6,2.3
			c-1.1,1.5-2.4,3-3.8,4.3c-2.9,2.7-6.4,4.8-10.3,6C45.3,85.2,51.3,81.7,56,76.8L56,76.8z"/>
		<path id="Path_23010" class="st0" d="M4.3,78.7c2.3,0,4.2,1.8,4.3,4.1c-0.1,4.4-1.1,8.7-3.1,12.6c-1.9-3.8-2.9-7.9-3-12.1l-1,5.6
			C0.4,87.1,0,85.1,0,83C0,80.7,1.9,78.8,4.3,78.7C4.2,78.7,4.3,78.7,4.3,78.7z"/>
	</g>
</g>
</svg>
