<?xml version="1.0" encoding="utf-8"?>
<!-- Generator: Adobe Illustrator 25.1.0, SVG Export Plug-In . SVG Version: 6.00 Build 0)  -->
<svg version="1.1" id="Layer_1" xmlns="http://www.w3.org/2000/svg" xmlns:xlink="http://www.w3.org/1999/xlink" x="0px" y="0px"
	 viewBox="0 0 425.1 552.8" style="enable-background:new 0 0 425.1 552.8;" xml:space="preserve">
<style type="text/css">
	.st0{fill:#1E1E1E;}
</style>
<g id="Group_45" transform="translate(-377.542 -71.198)">
	<path id="Path_10360" class="st0" d="M603.8,468.7c-3.7-3-9.4-3.4-14-3.1c-4.6-0.3-10.3,0.1-14,3.1c-1.5,1.1-2.6,2.6-3,4.4
		c-0.2,0.5-0.2,0.9-0.1,1.4c0,0.1,0,0.1,0,0.2c-0.9,3.4,2.6,6.4,5.2,8.6c3.7,3,6.7,9.1,12,8.8c5.2,0.2,8.4-5.6,11.9-8.8
		c2.6-2.3,6.2-5.2,5.2-8.6C607.1,472.4,605.9,470.3,603.8,468.7z M581.1,481.6c-1.2-1.2-3.4-2.2-5-3.5c0.3,0.1,0.5,0.1,0.8,0.1
		c2.6,0.3,4.5,1.1,5.8,3.4c0.5,0.9,0.8,1.9,1,3C582.8,483.5,582,482.4,581.1,481.6z M598.5,481.6c-0.8,0.7-1.6,1.5-2.3,2.3
		c0.7-2.6,1.8-4.9,5.2-5.6c0.7-0.1,1.4-0.3,2.2-0.4C602,479.2,600.3,480.4,598.5,481.6L598.5,481.6z"/>
	<path id="Path_10361" class="st0" d="M553.2,423.4c-0.3-2.2-1.3-4.1-3-5.6c-3.6-3.6-10-3.3-14.5-4.8c-0.1,0-0.1,0-0.2,0.1v0.1
		c0.2,0.2,0.5,0.4,0.8,0.6c1.1,1.7,2,3.6,2.7,5.5c0.1,2,0.7,4,1.6,5.9c0.1,0.3,0.3,0.7,0.4,1c2,3.8,7,5,10.8,5.4
		c0.2,0,0.3,0,0.4-0.1c0.3,0,0.5-0.1,0.5-0.4c0,0,0-0.1,0-0.2C552.4,428.5,553.3,426,553.2,423.4z"/>
	<path id="Path_10362" class="st0" d="M625.7,431c0,0.3,0.1,0.5,0.4,0.5c0,0,0.1,0,0.2,0c0.1,0.1,0.3,0.1,0.4,0.1
		c3.8-0.5,8.8-1.6,10.8-5.4c0.2-0.3,0.3-0.6,0.4-1c0.9-1.8,1.4-3.8,1.6-5.9c0.7-1.9,1.6-3.8,2.7-5.5c0.3-0.2,0.5-0.4,0.8-0.6
		c0-0.1,0-0.1,0-0.2h-0.1c-4.5,1.4-10.9,1.2-14.5,4.8c-1.6,1.4-2.7,3.4-3,5.6C625.2,426,626,428.5,625.7,431z"/>
	<path id="Path_10363" class="st0" d="M799.3,173.7c-0.1,0.1-0.3,0.2-0.4,0.3c-0.1,0-0.2,0.1-0.3,0.1c-8.7,4.3-33.5,11.6-39.2-0.1
		c-5.6-11.5,6.4-18.5,9-28.3c2.7-3.9,6.3-7.1,10.5-9.2c3.6-1.6,6.8-4,9.3-7.1c6.2-5,10.1-12.6,8.4-20.7c-0.3-1.5-2.4-1.3-2.8,0
		c-2,5.6-5.8,8.4-11.1,10.8c-1.4,0.7-3,1.2-4.5,1.5c3.6-15.7,2.2-32.1-6.8-46.1c-0.3-0.4-0.9-0.6-1.3-0.3c-0.3,0.2-0.4,0.5-0.4,0.8
		c0.3,15.5-1.1,31.1-6,45.4c-2.3,5.6-4.8,11-10.2,12.1c-6.2,1.3-10.6-6.3-13.8-10.4c-1.4-1.7-2.7-3.5-4-5.2c-2-3.4-4.1-6.7-6.3-10.1
		c-7.9-12-15.3-24.4-24.5-35.6c-1.1-1.3-3.1-0.1-3.1,1.3c-0.8,14.8,7.1,26.9,14.7,38.9c8.5,13.5,16.8,27.3,21.3,42.7
		c8.1,27.7,5.2,62.9-20.6,80.7c-5.7,4-12.5,7.6-17.1,12.9c-0.8,0.9-1.5,1.8-2.1,2.7c-9.4,5.4-12.7,18.1-21.1,25.2
		c-3.3,2.8-7.2,6.6-11.6,7.7c-7.5,1.9-14.6-3-11.4-11.6c1.7-4.7,5.4-8.8,6.9-13.5c6.2-10,12.2-20.2,9.4-32.4
		c-0.2-0.6-0.8-0.9-1.4-0.7c-0.4,0.1-0.6,0.4-0.7,0.7c-1.9,10.6-9.6,17.7-16.8,25.3c-3.1,2.2-5.9,4.7-8.3,7.6
		c-2.3,2.9-3.2,6.6-5.2,9.7c-3.6,5.4-8.7,5.8-13.5,3.9c-3.3-2.1-6-4.9-8.1-8.2c-4.6-7.7-5.2-15.3-6.3-24.1c-0.3-2.8-4.2-3.7-5.1-0.7
		c-3.8,12.7-5.1,28.1,5.1,38.3c0.3,0.3,0.6,0.6,0.9,0.9c3.2,7.3,6.3,14.8,7.4,22.4c1.7,12.2-3.2,23-12.3,31
		c-3.7,3.3-9.1,6.6-9.2,12.3c0,0.4,0,0.8,0,1.3c-4.2-0.3-8.4-0.3-12.7,0c0-0.4,0-0.8,0-1.3c-0.1-5.6-5.4-9-9.2-12.3
		c-9.1-8-14.1-18.9-12.3-31c1.1-7.6,4.2-15.1,7.4-22.4c0.3-0.3,0.6-0.6,0.9-0.9c10.2-10.2,8.8-25.6,5.1-38.3c-0.9-3-4.8-2.1-5.1,0.7
		c-1.1,8.7-1.8,16.3-6.3,24.1c-2.1,3.3-4.8,6.1-8.1,8.2c-4.8,1.9-9.9,1.5-13.5-3.9c-2-3.1-2.9-6.8-5.2-9.7c-2.5-2.8-5.3-5.4-8.3-7.6
		c-7.1-7.6-14.9-14.7-16.8-25.3c-0.2-0.6-0.8-0.9-1.4-0.7c-0.4,0.1-0.6,0.4-0.7,0.7c-2.8,12.2,3.1,22.4,9.4,32.4
		c1.5,4.7,5.2,8.8,6.9,13.5c3.1,8.6-3.9,13.5-11.4,11.6c-4.4-1.1-8.2-4.9-11.6-7.7c-8.4-7.1-11.8-19.8-21.1-25.2
		c-0.7-0.9-1.4-1.8-2.1-2.7c-4.6-5.4-11.3-9-17.1-12.9c-25.8-17.8-28.7-53-20.6-80.7c4.5-15.4,12.7-29.2,21.3-42.7
		c7.6-12,15.5-24.1,14.7-38.9c-0.1-1.4-2-2.6-3.1-1.3c-9.2,11.2-16.5,23.5-24.5,35.6c-2.2,3.3-4.3,6.7-6.3,10.1
		c-1.4,1.8-2.7,3.5-4,5.2c-3.2,4.1-7.6,11.6-13.8,10.4c-5.4-1.1-7.9-6.6-10.2-12.1c-4.9-14.3-6.3-29.9-6-45.4c0-0.5-0.4-0.9-1-0.9
		c-0.3,0-0.6,0.2-0.8,0.4c-9,14-10.4,30.5-6.8,46.1c-1.6-0.4-3.1-0.9-4.5-1.5c-5.2-2.4-9-5.2-11.1-10.8c-0.5-1.3-2.5-1.5-2.8,0
		c-1.8,8.2,2.1,15.7,8.4,20.7c2.5,3,5.7,5.5,9.3,7.1c4.2,2.1,7.8,5.3,10.5,9.2c2.6,9.8,14.6,16.8,9,28.3
		c-5.7,11.7-30.5,4.4-39.2,0.1c-0.1,0-0.2-0.1-0.3-0.1c-0.1-0.1-0.3-0.2-0.4-0.3c-1.7-1.3-4.2,1.3-3,3c4.8,6.6,11.1,12,18.5,15.5
		c4,1.9,8.9,3.1,13.7,4.5c2.2,1,4.5,2,6.8,3.1c5.5,2.7,8.8,7.3,11.7,12.6c2.6,4.9,4.7,10.3,8.1,14.5c0.7,1.2,1.5,2.4,2.3,3.6
		c4.1,5.8,9.1,10.1,14.4,14.1c4,5,9.3,9.1,13,14.4c8.8,12.4-11.4,15.8-21.1,16.1h-0.2c-6.5-0.2-14.2-0.2-20.1-3.3
		c-0.6-0.3-1.3-0.1-1.7,0.5c-0.3,0.5-0.2,1,0.2,1.4c6.9,8.7,17.8,11.7,28.5,13.5c6,0.9,12.2,1.1,18.3,0.5c6.4-0.5,12.8-1.7,18.8,1.3
		c0.3,0.1,0.6,0.3,0.8,0.4c1.1,1.2,2.3,2.5,3.5,3.6c13.8,13.6,44.5,24.8,54.3,44.1c-7-5.5-15.1-9.2-24.9-8.5
		c-8.5,0.6-16.4,4.7-25,5.4c-9.4,0.8-18.4-2.3-27.4-4.4c-0.2,0-0.3,0.1-0.4,0.2c0,0.1,0,0.2,0.1,0.3c0.9,1,1.8,2,2.8,2.9
		c2.2,4.4,3.8,8.9,6.2,13.2c2.9,5.2,6.9,10,10.5,14.8c5.6,7.5,11,15.1,19.4,19.7c7,3.8,14.7,4.5,22.2,3.2c-1.7,11.5-7.4,22-5.3,33.9
		c1.5,7.2,4.4,13.9,8.7,19.9c-1.1,41.9-36,76.8-25.3,120c9.2,37.3,43.9,57.3,78.7,66.2l0,0c0.1,0,0.2,0,0.3,0.1h0.1h0.1
		c0.2,0,0.4,0,0.5-0.1c17.1-4.3,34.2-10.6,49.3-19.8c15.5-9.5,26.2-25,32-42c15.8-45.7-25.8-84.1-24-129.2c2.5-4.7,4.5-9.8,5.8-15
		c2.9-11.6-3.7-23-5.4-34.4c8.1,1.7,16.6,0.8,24.1-2.6c8.4-3.8,14-12.6,19.4-19.7c3.1-4.1,6.2-8.3,9.2-12.6c3.3-4.7,5-10.3,7.5-15.4
		c1-0.9,2-1.8,2.8-2.9c0.1-0.1,0.1-0.3,0-0.4s-0.2-0.1-0.3-0.1c-8.4,1.9-16.5,4.4-25.2,4.5c-9.5,0.1-17.9-4.8-27.2-5.5
		c-9.7-0.7-17.8,2.9-24.8,8.4c9.8-19.3,40.4-30.5,54.3-44.1c1.2-1.2,2.4-2.4,3.5-3.6c0.3-0.1,0.6-0.2,0.8-0.4c6-3,12.4-1.7,18.8-1.3
		c6.1,0.6,12.2,0.4,18.3-0.5c10.6-1.8,21.5-4.8,28.5-13.5c0.5-0.5,0.4-1.3-0.1-1.7c-0.4-0.4-1-0.4-1.4-0.2c-5.9,3.1-13.6,3-20.1,3.3
		H735c-9.6-0.3-29.8-3.7-21.1-16.1c3.7-5.3,9-9.4,13-14.4c5.3-4,10.3-8.2,14.4-14.1c0.8-1.2,1.6-2.4,2.3-3.6
		c3.4-4.3,5.5-9.6,8.1-14.5c2.8-5.3,6.1-9.9,11.7-12.6c2.3-1.1,4.5-2,6.8-3.1c4.8-1.4,9.8-2.6,13.8-4.5c7.4-3.5,13.7-8.9,18.5-15.5
		C803.5,175,801,172.4,799.3,173.7z M631.2,317.1c0,0,0.1,0,0.1,0.1c-0.1,0.1-0.1,0.1-0.2,0.2C631.1,317.3,631.1,317.2,631.2,317.1z
		 M597.1,443.7L597.1,443.7L597.1,443.7L597.1,443.7z M549,317.1c0,0.1,0,0.2,0,0.2c-0.1-0.1-0.1-0.1-0.2-0.2
		C548.9,317.2,549,317.2,549,317.1z M518.8,362.3c0.5,0.6,1,1.1,1.6,1.7c2.1,3.7,5.2,5.7,9.1,7.6c0.1,0,0.1,0,0.2,0.1
		c-3.4,0.2-6.8-0.2-10-1.2c-0.2-0.1-0.4,0.1-0.5,0.3c0,0.2,0,0.3,0.2,0.4c3,1.8,6.3,3.1,9.7,3.7c-7.5,0.9-15-0.5-21.6-6.2
		c-6.1-5.3-11.2-12.3-16.3-18.5c-0.3-0.4-0.6-0.8-1-1.1c5.9,1.9,12.9,2,18.3,1.8c13.3-0.4,23.9,4.5,31.4,13.1
		c-3.6-0.3-7.2-1.1-10.5-2.4c-0.2,0-0.4,0.1-0.4,0.3c0,0.1,0,0.2,0.1,0.3l0,0c0,0,0,0,0,0.1c0.5,1.7,1.5,3.2,2.8,4.4
		c-4.5-0.8-8.8-2.3-12.7-4.5c-0.1,0-0.2,0-0.2,0.1C518.8,362.2,518.8,362.3,518.8,362.3L518.8,362.3z M537.2,430.3
		c-3.3-5.3-5.9-11-6.7-17.8c-0.2-2-0.1-4,0.3-6c8.5,0,16.6,2.4,23,8.5c6.4,6,7.5,14.6,8.9,22.9C553.6,437.9,544.2,435.7,537.2,430.3
		L537.2,430.3z M610.7,489.6c-0.1,0.1-0.1,0.1-0.2,0.2c-5.9,5.1-12.8,9.1-19.4,9.3c-7.2,0.2-14.7-6.1-20.1-10.3
		c-2.1-1.6-4-3.4-5.9-5.2c-3-6.9,0.1-14.3,5.2-20.6c4.5-5.6,9.2-11.1,13.5-16.9c3.8-0.7,7.8-0.7,11.6,0.2
		c3.9,5.2,8.2,10.2,12.2,15.4C614.2,470.3,620.2,480.3,610.7,489.6L610.7,489.6z M647.5,406.4c0.2,1.2,0.3,2.4,0.4,3.6
		c0.5,7.2-2.4,13.7-6.2,19.7c-7.1,5.8-16.7,8.1-26,8c1.3-7.6,2.4-15.3,7.6-21.6C629.3,409,638.5,406.4,647.5,406.4L647.5,406.4z
		 M670.3,350.8c5.5,0,13,0.2,19.4-1.4c-0.2,0.3-0.4,0.5-0.6,0.7c-5.2,6.3-10.4,12.8-16.3,18.5c-6.4,6.1-14.2,7.4-22.1,6.2
		c3.5-0.6,6.9-1.9,10-3.8c0.2-0.1,0.2-0.3,0.1-0.5c-0.1-0.1-0.3-0.2-0.4-0.2c-3.3,1-6.7,1.4-10.1,1.2c3.9-1.8,7.2-3.9,9.3-7.7
		c0.6-0.5,1.1-1.1,1.6-1.7c0.1-0.1,0.1-0.2,0-0.2s-0.1-0.1-0.2,0c-4,2.2-8.3,3.7-12.7,4.5c1.3-1.2,2.2-2.7,2.8-4.4v-0.1l0,0
		c0.1-0.1,0.1-0.4,0-0.5s-0.2-0.1-0.3-0.1c-2.9,1.2-6,1.9-9.1,2.3C648.6,355.5,659.2,350.7,670.3,350.8L670.3,350.8z"/>
</g>
</svg>
